<svg width="40" height="40" viewBox="0 0 40 40" fill="none" xmlns="http://www.w3.org/2000/svg">
<mask id="mask0_642_492" style="mask-type:luminance" maskUnits="userSpaceOnUse" x="0" y="0" width="40" height="40">
<path d="M0 3.8147e-06H40V40H0V3.8147e-06Z" fill="white"/>
</mask>
<g mask="url(#mask0_642_492)">
<path fill-rule="evenodd" clip-rule="evenodd" d="M38.2422 32.9688C37.9186 32.9688 37.6562 32.7064 37.6562 32.3828V23.3203C37.6562 23.2294 37.6351 23.1396 37.5944 23.0583L36.4844 20.8382V9.96094C36.4844 8.54357 37.4909 7.3613 38.8281 7.08986V32.3828C38.8281 32.7064 38.5658 32.9688 38.2422 32.9688ZM36.4844 32.3828C36.4844 33.3536 37.2714 34.1406 38.2422 34.1406C39.213 34.1406 40 33.3536 40 32.3828V6.44532C40 6.12171 39.7377 5.85938 39.4141 5.85938C37.1488 5.85938 35.3125 7.6957 35.3125 9.96094V20.9766C35.3125 21.0675 35.3337 21.1572 35.3744 21.2386L36.4844 23.4586V32.3828Z" fill="#A6A182"/>
<path fill-rule="evenodd" clip-rule="evenodd" d="M5.85938 20C5.85938 27.8096 12.1904 34.1406 20 34.1406C27.8096 34.1406 34.1406 27.8096 34.1406 20C34.1406 12.1904 27.8096 5.85938 20 5.85938C12.1904 5.85938 5.85938 12.1904 5.85938 20ZM20 32.9688C12.8376 32.9688 7.03125 27.1624 7.03125 20C7.03125 12.8376 12.8376 7.03125 20 7.03125C27.1624 7.03125 32.9687 12.8376 32.9687 20C32.9687 27.1624 27.1624 32.9688 20 32.9688Z" fill="#A6A182"/>
<path fill-rule="evenodd" clip-rule="evenodd" d="M20 28.2813C15.4264 28.2813 11.7187 24.5736 11.7187 20C11.7187 18.1073 12.3535 16.3646 13.4217 14.97C13.6184 14.713 13.5697 14.3453 13.3128 14.1485C13.0559 13.9517 12.6881 14.0005 12.4913 14.2574C11.2721 15.8492 10.5469 17.8405 10.5469 20C10.5469 25.2208 14.7792 29.4531 20 29.4531C25.2209 29.4531 29.4531 25.2208 29.4531 20C29.4531 14.7791 25.2209 10.5469 20 10.5469C17.8406 10.5469 15.8492 11.2721 14.2575 12.4912C14.0006 12.688 13.9518 13.0558 14.1486 13.3127C14.3453 13.5696 14.7131 13.6184 14.97 13.4216C16.3646 12.3535 18.1073 11.7188 20 11.7188C24.5737 11.7188 28.2812 15.4263 28.2812 20C28.2812 24.5736 24.5737 28.2813 20 28.2813Z" fill="#A6A182"/>
<path fill-rule="evenodd" clip-rule="evenodd" d="M12.8906 20C12.8906 23.9264 16.0736 27.1094 20 27.1094C23.9263 27.1094 27.1094 23.9264 27.1094 20C27.1094 16.0736 23.9263 12.8906 20 12.8906C16.0736 12.8906 12.8906 16.0736 12.8906 20ZM20 25.9375C16.7208 25.9375 14.0625 23.2792 14.0625 20C14.0625 16.7208 16.7208 14.0625 20 14.0625C23.2791 14.0625 25.9375 16.7208 25.9375 20C25.9375 23.2792 23.2791 25.9375 20 25.9375Z" fill="#A6A182"/>
<path fill-rule="evenodd" clip-rule="evenodd" d="M2.92969 11.7188C3.25329 11.7188 3.51562 11.4564 3.51562 11.1328V6.44531C3.51562 6.12171 3.25329 5.85938 2.92969 5.85938C2.60608 5.85938 2.34375 6.12171 2.34375 6.44531V11.1328C2.34375 11.4564 2.60608 11.7188 2.92969 11.7188Z" fill="#A6A182"/>
<path fill-rule="evenodd" clip-rule="evenodd" d="M2.92969 32.9688C2.6061 32.9688 2.34375 32.7064 2.34375 32.3828V16.6797C2.34375 16.5887 2.32257 16.499 2.2819 16.4177L1.48119 14.8162L0.957109 15.0782L1.48119 14.8162C1.27779 14.4094 1.17187 13.9608 1.17187 13.506V6.44532C1.17187 6.12171 0.909542 5.85938 0.585937 5.85938C0.262333 5.85938 0 6.12171 0 6.44532V13.506C0 14.1428 0.148299 14.7708 0.433031 15.3402L1.17188 16.818V32.3828C1.17188 33.3536 1.9589 34.1406 2.92969 34.1406C3.90048 34.1406 4.6875 33.3536 4.6875 32.3828V16.818L5.42635 15.3402L4.90227 15.0782L5.42635 15.3402C5.71108 14.7708 5.85938 14.1428 5.85938 13.506V6.44532C5.85938 6.12171 5.59704 5.85938 5.27344 5.85938C4.94983 5.85938 4.6875 6.12171 4.6875 6.44532V13.506C4.6875 13.9608 4.58158 14.4094 4.37819 14.8162L4.89786 15.076L4.37818 14.8162L3.57748 16.4177C3.5368 16.499 3.51563 16.5887 3.51563 16.6797V32.3828C3.51563 32.7064 3.25327 32.9688 2.92969 32.9688Z" fill="#A6A182"/>
<path fill-rule="evenodd" clip-rule="evenodd" d="M0 11.1328C0 11.4564 0.262333 11.7188 0.585937 11.7188H5.27344C5.59704 11.7188 5.85938 11.4564 5.85938 11.1328C5.85938 10.8092 5.59704 10.5469 5.27344 10.5469H0.585937C0.262333 10.5469 0 10.8092 0 11.1328Z" fill="#A6A182"/>
</g>
</svg>
