<svg width="60" height="60" viewBox="0 0 60 60" fill="none" xmlns="http://www.w3.org/2000/svg">
<g clip-path="url(#clip0_172_2868)">
<path d="M28.575 -0.0279168C28.7348 -0.0296384 28.7348 -0.0296384 28.8978 -0.0313948C31.2955 -0.0518976 33.6202 -0.0249364 35.977 0.468757C36.1586 0.506428 36.1586 0.506428 36.3438 0.54486C39.5468 1.23262 42.6527 2.45713 45.4692 4.13087C45.5623 4.18604 45.6554 4.24122 45.7513 4.29806C47.3121 5.25709 47.3121 5.25709 47.5581 5.86322C47.6249 6.24899 47.5914 6.53047 47.4468 6.8921C47.1871 7.19509 47.0138 7.35091 46.6411 7.50001C45.7905 7.48425 45.2908 7.16876 44.5976 6.70167C41.4573 4.68409 38.0102 3.43409 34.3364 2.81251C34.2506 2.79791 34.1649 2.78331 34.0765 2.76828C33.54 2.68093 33.003 2.62143 32.4614 2.57813C32.3663 2.57028 32.2713 2.56242 32.1733 2.55433C29.3955 2.34116 26.6246 2.55845 23.9067 3.16407C23.814 3.18442 23.7213 3.20478 23.6258 3.22575C19.6515 4.12256 15.9243 5.98151 12.7739 8.55469C12.714 8.60275 12.654 8.65081 12.5922 8.70032C10.9632 10.0083 9.47088 11.4768 8.23204 13.1617C8.08892 13.356 7.943 13.5479 7.79665 13.7398C3.52558 19.4289 1.84223 26.8672 2.75636 33.875C3.38654 38.1307 4.94952 42.4944 7.56731 45.9457C7.89989 46.3847 8.04504 46.6771 8.08642 47.2266C8.03813 47.5682 7.95188 47.8963 7.86211 48.2291C7.83732 48.3251 7.81254 48.4211 7.787 48.52C7.73424 48.7232 7.68081 48.9263 7.62676 49.1293C7.54586 49.4331 7.4669 49.7374 7.38833 50.0418C7.07033 51.2636 6.71774 52.4709 6.3286 53.6719C6.45507 53.6317 6.45507 53.6317 6.58409 53.5907C7.641 53.2598 8.70532 52.9622 9.77442 52.6735C10.0661 52.5946 10.3575 52.515 10.649 52.4352C10.837 52.3843 11.0249 52.3334 11.2129 52.2826C11.2988 52.259 11.3846 52.2355 11.473 52.2112C12.9536 51.8142 12.9536 51.8142 13.6048 52.1333C13.9673 52.3476 14.3035 52.5974 14.6457 52.8424C16.8385 54.3476 19.2657 55.4546 21.7974 56.25C21.8838 56.2776 21.9702 56.3052 22.0592 56.3337C28.9993 58.5177 36.6802 57.5193 43.0852 54.2139C44.8295 53.2883 46.4364 52.1496 47.9302 50.8594C48.0243 50.7783 48.1184 50.6971 48.2154 50.6136C49.5931 49.399 50.8198 48.1146 51.9145 46.6406C51.9881 46.5435 51.9881 46.5435 52.0631 46.4445C54.6321 43.0486 56.1727 39.1755 57.0708 35.0391C57.1053 34.881 57.1053 34.881 57.1405 34.7197C58.5144 28.0373 56.7388 20.6048 53.0566 14.9602C52.9509 14.8002 52.8447 14.6405 52.7377 14.4814C52.4582 14.0519 52.4944 13.7627 52.56 13.2651C52.6177 13.0078 52.6177 13.0078 52.8008 12.7149C53.2016 12.4682 53.5552 12.4021 54.0239 12.4219C55.0784 12.7819 55.7321 14.2958 56.2358 15.2051C56.3071 15.3336 56.3785 15.4622 56.452 15.5946C57.7885 18.042 58.7884 20.6692 59.3926 23.3936C59.414 23.4896 59.4354 23.5857 59.4575 23.6846C59.8867 25.7605 60.0622 27.8175 60.0444 29.9341C60.0437 30.1065 60.0437 30.1065 60.0429 30.2825C60.0342 31.9687 59.9759 33.6149 59.6489 35.2734C59.6294 35.3803 59.6099 35.4871 59.5899 35.5971C58.5298 41.3599 55.7413 46.6551 51.6802 50.8594C51.61 50.9321 51.5398 51.0049 51.4675 51.0798C50.5697 52.0055 49.6644 52.8936 48.6333 53.6719C48.5592 53.7283 48.4851 53.7847 48.4088 53.8429C43.0805 57.8791 36.7316 60.0627 30.0444 60.0366C29.8739 60.0363 29.8739 60.0363 29.7 60.036C28.0182 60.0307 26.3818 59.9714 24.727 59.6484C24.6219 59.6296 24.5168 59.6107 24.4085 59.5913C20.4814 58.8807 16.267 57.3753 13.1021 54.8749C12.2512 54.4904 11.0693 55.0007 10.2178 55.2397C9.92694 55.3195 9.63611 55.3992 9.34527 55.4789C8.89076 55.6045 8.43637 55.7304 7.98216 55.857C7.54115 55.9795 7.09971 56.1004 6.65819 56.2212C6.5234 56.2593 6.3886 56.2973 6.24972 56.3366C5.51062 56.5378 4.86865 56.6647 4.10204 56.6016C3.76568 56.3913 3.57571 56.252 3.39892 55.8984C3.32455 55.0038 3.53317 54.2573 3.79293 53.4044C3.86502 53.1662 3.93459 52.9274 4.00344 52.6883C4.19903 52.0092 4.39596 51.3306 4.60183 50.6545C4.72818 50.239 4.84903 49.8221 4.96654 49.404C5.01198 49.2462 5.0594 49.0889 5.10889 48.9323C5.40713 48.0113 5.40713 48.0113 5.24196 47.0888C5.03588 46.7632 4.81342 46.4707 4.57079 46.1719C4.4521 45.9826 4.33604 45.7917 4.22426 45.5983C4.14208 45.458 4.14208 45.458 4.05824 45.3149C2.24974 42.173 0.993226 38.8465 0.35204 35.2734C0.333025 35.176 0.31401 35.0786 0.294419 34.9782C-0.323774 31.7418 -0.299237 27.9546 0.35204 24.7266C0.372773 24.6209 0.393507 24.5152 0.414868 24.4063C0.567081 23.6477 0.744216 22.8974 0.937978 22.1484C0.962544 22.0524 0.98711 21.9563 1.01242 21.8573C1.90853 18.4308 3.51391 15.1447 5.62548 12.3047C5.70405 12.1988 5.70405 12.1988 5.78421 12.0907C6.56577 11.0473 7.41542 10.0779 8.32079 9.14063C8.39098 9.06788 8.46116 8.99512 8.53348 8.92016C9.43158 7.99424 10.3388 7.11005 11.3677 6.32813C11.431 6.2793 11.4943 6.23047 11.5595 6.18016C12.7308 5.27977 13.9566 4.48964 15.2349 3.75001C15.3142 3.7038 15.3936 3.65759 15.4754 3.60999C19.3717 1.36888 24.0739 0.0125057 28.575 -0.0279168Z" fill="white"/>
<path d="M37.0309 13.1726C39.4928 15.3011 41.2937 18.0021 41.6012 21.3281C41.8092 24.4901 41.008 27.5042 38.9887 29.9775C38.7336 30.266 38.4708 30.5439 38.2027 30.8203C38.1311 30.9005 38.0595 30.9807 37.9858 31.0634C37.2156 31.8974 36.2319 32.4662 35.2529 33.0244C34.5024 33.4635 34.0125 33.8386 33.7496 34.6875C33.6647 35.1276 33.6045 35.5714 33.5412 36.0151C33.3676 37.1384 32.8766 37.9085 31.9936 38.6247C31.1482 39.2129 30.1898 39.3597 29.1793 39.2578C28.0603 38.9858 27.1811 38.4947 26.5572 37.5146C25.7202 35.9884 25.9665 34.3275 26.3668 32.6953C26.8107 31.2469 27.5147 29.9915 28.4762 28.8281C28.5497 28.7319 28.6233 28.6357 28.6991 28.5365C29.4362 27.6539 30.4282 27.0502 31.404 26.4651C32.6487 25.7073 33.5084 24.8665 33.9355 23.443C34.1535 22.3653 33.9333 21.3499 33.388 20.4043C33.2785 20.2405 33.1628 20.0809 33.0465 19.9219C33.0078 19.8348 32.9691 19.7478 32.9293 19.6582C32.7757 19.3893 32.6211 19.3527 32.3434 19.2187C32.1573 19.1023 31.9718 18.9851 31.7867 18.8672C30.8759 18.3196 29.9848 18.1354 28.9358 18.3577C27.7104 18.6897 26.8617 19.2311 26.1851 20.3137C26.02 20.6162 25.8734 20.9244 25.7284 21.2368C25.2376 22.2822 24.6508 22.9922 23.5909 23.4961C22.5692 23.852 21.4087 23.827 20.4269 23.3652C19.3574 22.7256 18.7878 21.9115 18.398 20.7422C18.1837 18.6691 19.2336 16.6727 20.5071 15.0894C24.6219 10.1988 31.9395 9.13272 37.0309 13.1726ZM22.4891 16.5806C21.7387 17.5673 20.7908 18.8345 20.8443 20.1343C20.9101 20.505 21.0111 20.7229 21.2838 20.9839C21.7488 21.2508 21.972 21.2957 22.4996 21.2109C23.1607 20.8656 23.3832 20.4869 23.6715 19.834C24.5198 18.0396 25.68 16.9297 27.5387 16.1719C29.2893 15.6051 31.0501 15.6981 32.7242 16.4868C34.3223 17.3517 35.4565 18.5656 36.0934 20.2734C36.1308 20.3731 36.1683 20.4728 36.2069 20.5755C36.739 22.2211 36.5292 24.0437 35.7871 25.589C35.043 26.9156 34.1897 27.7344 32.8638 28.4788C30.9364 29.5666 29.5068 31.0421 28.7975 33.192C28.3941 34.6404 28.3941 34.6404 28.63 36.0644C28.6952 36.1514 28.7605 36.2385 28.8277 36.3281C28.8737 36.3958 28.9196 36.4635 28.9669 36.5332C29.3201 36.7768 29.6982 36.8245 30.1168 36.7969C30.5616 36.5662 30.7764 36.3933 31.0543 35.9765C31.0934 35.7065 31.124 35.4352 31.1495 35.1636C31.3127 33.7524 31.8427 32.4635 32.9586 31.5394C33.4697 31.17 34.0036 30.8609 34.5553 30.5566C36.633 29.3629 38.1662 27.3059 38.8399 25.0195C39.4696 22.6476 39.17 20.2367 38.0279 18.0661C37.4951 17.1764 36.8177 16.438 36.0934 15.7031C36.0163 15.6246 35.9393 15.546 35.8599 15.4651C34.1866 13.8851 31.7368 13.0273 29.4581 13.0916C26.717 13.3229 24.2898 14.4619 22.4891 16.5806Z" fill="white"/>
<path d="M32.0175 42.4855C32.8639 43.1756 33.4422 44.0487 33.5546 45.1519C33.5699 46.5002 33.3142 47.4107 32.3768 48.4007C31.5676 49.102 30.6408 49.3756 29.5858 49.3615C28.462 49.262 27.5803 48.7699 26.8356 47.9297C26.201 47.0769 25.8911 46.1916 26.0153 45.1172C26.2327 43.9899 26.7183 43.1135 27.6486 42.4292C29.0055 41.5594 30.6842 41.5583 32.0175 42.4855ZM28.8278 44.6484C28.5546 45.0491 28.4762 45.2824 28.4762 45.769C28.6205 46.265 28.761 46.4552 29.1793 46.7578C29.5003 46.8707 29.7779 46.9095 30.1168 46.875C30.4904 46.6882 30.729 46.5261 30.9811 46.1938C31.0915 45.8074 31.1027 45.5178 31.0543 45.1172C30.8132 44.6972 30.6767 44.4815 30.2152 44.3321C29.6575 44.2455 29.2624 44.2521 28.8278 44.6484Z" fill="white"/>
<path d="M50.6067 8.38667C50.9801 8.46176 51.1879 8.63272 51.4453 8.90623C51.6496 9.31476 51.6295 9.74956 51.5625 10.1953C51.2668 10.6255 51.0738 10.753 50.5737 10.8984C50.0838 10.8984 49.853 10.8286 49.4531 10.5469C49.1714 10.147 49.1016 9.91617 49.1016 9.42625C49.3419 8.60014 49.783 8.34137 50.6067 8.38667Z" fill="white"/>
</g>
<defs>
<clipPath id="clip0_172_2868">
<rect width="60" height="60" fill="white"/>
</clipPath>
</defs>
</svg>
