<svg width="40" height="40" viewBox="0 0 40 40" fill="none" xmlns="http://www.w3.org/2000/svg">
<g clip-path="url(#clip0_110_391)">
<path d="M22.7152 19.4273L23.7277 18.628C24.0375 18.3834 24.2355 18.0177 24.271 17.6248C24.283 17.4151 24.3784 17.2955 24.5973 17.3145C25.006 17.3901 25.428 17.2857 25.7544 17.028L26.3348 16.5697C27.043 16.0105 27.4492 15.1724 27.4492 14.2702V13.881C28.6238 13.7487 29.6635 13.0667 30.2505 12.0414C30.712 12.2401 31.2121 12.3438 31.7187 12.3438C33.7648 12.3438 35.4296 10.679 35.4296 8.63281C35.4296 6.58664 33.7648 4.92188 31.7186 4.92188C31.6482 4.92188 31.5777 4.92391 31.5073 4.92789C31.3325 3.04305 29.7421 1.5625 27.8124 1.5625C27.0629 1.5625 26.3435 1.78539 25.734 2.19906C25.1469 0.878516 23.8293 0 22.3437 0C21.4785 0 20.6599 0.293594 19.9999 0.834062C19.3398 0.293594 18.5212 0 17.6562 0C16.1705 0 14.853 0.878594 14.2659 2.19906C13.6563 1.78531 12.937 1.5625 12.1874 1.5625C11.975 1.5625 11.762 1.58063 11.5541 1.61641C11.2352 1.67133 11.0212 1.97438 11.0761 2.29328C11.131 2.61219 11.4341 2.82602 11.753 2.77133C11.8953 2.7468 12.0415 2.73438 12.1874 2.73438C12.8449 2.73438 13.4685 2.98516 13.9434 3.44055C14.336 3.84016 15.0739 3.62828 15.1958 3.08164C15.4823 1.95719 16.4941 1.17188 17.6562 1.17188C18.3405 1.17188 18.9824 1.44063 19.4637 1.92891C19.7449 2.22594 20.2552 2.22594 20.5363 1.92867C21.0174 1.44062 21.6593 1.17188 22.3437 1.17188C23.5058 1.17188 24.5175 1.95719 24.804 3.08172C24.9259 3.62828 25.6637 3.84016 26.0564 3.44055C26.5312 2.98516 27.1549 2.73438 27.8124 2.73438C29.2125 2.73438 30.3515 3.87344 30.3515 5.27344C30.3515 5.30438 30.3509 5.33523 30.3498 5.36539C30.3412 5.59734 30.4367 5.81687 30.612 5.96781C30.7873 6.11875 31.0188 6.1807 31.2467 6.13773C31.4016 6.10852 31.5605 6.09375 31.7187 6.09375C33.1187 6.09375 34.2577 7.23281 34.2577 8.63281C34.2577 10.0328 33.1187 11.1719 31.7187 11.1719C31.2699 11.1719 30.8289 11.0532 30.4434 10.8288C30.2562 10.7197 30.031 10.6962 29.8259 10.7645C29.6203 10.8329 29.4537 10.9866 29.3688 11.1865C28.9696 12.1268 28.052 12.7344 27.0312 12.7344C26.3468 12.7344 25.705 12.4656 25.2237 11.9775C24.9427 11.6803 24.432 11.6803 24.151 11.9776C23.6699 12.4656 23.028 12.7343 22.3437 12.7343C21.6593 12.7343 21.0175 12.4655 20.5362 11.9774C20.2552 11.6802 19.7445 11.6802 19.4635 11.9775C18.9824 12.4655 18.3405 12.7342 17.6562 12.7342C16.9718 12.7342 16.33 12.4655 15.8488 11.9773C15.5677 11.6802 15.057 11.6802 14.776 11.9774C14.2949 12.4655 13.653 12.7341 12.9687 12.7341C11.9479 12.7341 11.0303 12.1266 10.631 11.1862C10.4674 10.7756 9.9332 10.5974 9.55641 10.8285C9.17086 11.053 8.72992 11.1716 8.28117 11.1716C6.88109 11.1716 5.74211 10.0326 5.74211 8.63258C5.74211 7.23258 6.88117 6.09375 8.28125 6.09375C8.43953 6.09375 8.59836 6.10852 8.75336 6.13781C9.21531 6.23742 9.67992 5.83719 9.65016 5.36586C9.64898 5.33523 9.64844 5.30438 9.64844 5.27344C9.64844 4.85492 9.75227 4.44031 9.94867 4.07445C10.1017 3.7893 9.99461 3.43414 9.70945 3.28102C9.4243 3.12797 9.06922 3.23508 8.91609 3.52016C8.68289 3.95461 8.53883 4.43555 8.49273 4.92781C8.42234 4.92383 8.35172 4.9218 8.28125 4.9218C6.23508 4.9218 4.57031 6.58648 4.57031 8.63273C4.57031 10.679 6.235 12.3437 8.28125 12.3437C8.78781 12.3437 9.28789 12.24 9.74945 12.0413C10.3365 13.0667 11.3762 13.7487 12.5507 13.8809V14.2702C12.5507 15.1723 12.9569 16.0105 13.6651 16.5696L14.2455 17.0278C14.572 17.2856 14.9937 17.39 15.4027 17.3144C15.6214 17.2953 15.7169 17.415 15.7289 17.6247C15.7645 18.0177 15.9624 18.3833 16.2722 18.6279L17.2848 19.4273C17.5208 19.6136 17.6562 19.893 17.6562 20.1938V21.1696C17.6562 21.6095 17.3597 21.9971 16.9352 22.1122L15.1551 22.5945C14.4991 22.7723 13.9216 23.1759 13.5293 23.7309L11.0676 27.2126C10.842 27.5316 10.7252 27.9067 10.7298 28.2974L10.7302 28.3369C10.7336 28.6323 10.547 28.8918 10.2661 28.9827C9.88992 29.1044 9.55703 29.3491 9.32875 29.672L6.38273 33.8387C5.72969 34.7624 5.86961 36.0314 6.70805 36.7906C7.59062 37.5898 8.94352 37.5584 9.7882 36.7195L10.08 36.4296C10.3531 36.1583 10.496 35.7823 10.4722 35.3981C10.4652 35.2275 10.6308 35.2131 10.7626 35.2212C11.1116 35.2166 11.4401 35.0788 11.6876 34.8329L12.9066 33.622L11.9694 37.191C11.682 38.2855 12.2586 39.4252 13.3106 39.842C13.581 39.9491 13.8602 39.9999 14.1351 39.9999C14.9862 39.9999 15.7958 39.512 16.1711 38.6937L17.1734 36.5091C17.3198 36.1902 17.3572 35.8259 17.2784 35.4837C17.2365 35.3013 17.3209 35.1091 17.4836 35.0166L17.542 34.9835C17.8352 34.817 18.0645 34.5668 18.2054 34.2601L19.5094 31.418C19.6784 31.0495 19.6739 30.629 19.4974 30.2643C19.442 30.118 19.5191 30.0306 19.661 29.9959C19.7823 29.9589 19.8956 29.9041 20.0002 29.8365C20.1048 29.9041 20.2181 29.959 20.3395 29.9959C20.4816 30.0309 20.558 30.1179 20.5029 30.2642C20.3262 30.629 20.3219 31.0495 20.4909 31.418L21.7949 34.2603C21.9357 34.5669 22.1651 34.817 22.4584 34.9836L22.5165 35.0166C22.6794 35.1092 22.7637 35.3013 22.7217 35.4839C22.643 35.8261 22.6804 36.1903 22.8268 36.5091L23.8291 38.6938C24.2046 39.5122 25.0141 40.0001 25.8652 40.0001C26.14 40.0001 26.4193 39.9491 26.6896 39.8421C27.7416 39.4254 28.3183 38.2857 28.0309 37.1912L27.0936 33.6223L28.3126 34.833C28.5602 35.0789 28.8887 35.2169 29.2377 35.2214C29.3696 35.2134 29.5349 35.2277 29.528 35.3983C29.5041 35.7824 29.647 36.1584 29.9202 36.4298L30.212 36.7196C30.6475 37.1523 31.2181 37.3701 31.7898 37.3701C32.3267 37.3701 32.8647 37.1778 33.292 36.7908C34.1305 36.0316 34.2704 34.7626 33.6173 33.839L30.6713 29.6722C30.443 29.3494 30.1102 29.1045 29.734 28.9829C29.453 28.892 29.2665 28.6325 29.2698 28.3372L29.2703 28.2976C29.2749 27.907 29.158 27.5318 28.9325 27.2127L28.0501 25.9648C27.8632 25.7005 27.4977 25.6377 27.2334 25.8246C26.9691 26.0115 26.9063 26.3771 27.0932 26.6413L27.9756 27.8892C28.0577 28.0054 28.1002 28.1419 28.0986 28.2841L28.098 28.3237C28.0889 29.1352 28.6013 29.8481 29.3733 30.0978C29.5102 30.1421 29.6314 30.2313 29.7145 30.3487L32.6605 34.5155C32.9716 34.9555 32.9051 35.5602 32.5055 35.922C32.0849 36.3028 31.4402 36.288 31.0377 35.8881L30.7461 35.5984C30.7123 35.5648 30.6947 35.5184 30.6976 35.471C30.7202 35.1074 30.5911 34.7458 30.3433 34.4788C30.0955 34.2117 29.7445 34.0559 29.3804 34.0513C29.3073 34.048 29.1921 34.0651 29.1384 34.0016L24.6672 29.5605C24.5855 29.4891 24.5834 29.3637 24.5783 29.2639C24.5245 28.5095 23.8917 27.9206 23.1361 27.9206C23.1339 27.9206 23.1316 27.9208 23.1291 27.9206C23.0562 27.9206 22.9877 27.8923 22.9359 27.8411L22.2522 27.1619C21.9059 26.818 21.7172 26.3411 21.7341 25.8538L21.7351 25.8276C21.7516 25.3527 21.579 24.9028 21.2487 24.561C20.9186 24.2192 20.4752 24.0309 20 24.0309C19.5248 24.0309 19.0813 24.2192 18.7512 24.561C18.421 24.9028 18.2484 25.3527 18.2649 25.828L18.2659 25.8534C18.2828 26.3411 18.0941 26.818 17.7478 27.1619L17.0641 27.8409C17.0123 27.8923 16.9438 27.9206 16.8709 27.9206C16.8687 27.9208 16.8663 27.9206 16.8639 27.9206C16.1084 27.9206 15.4755 28.5096 15.4217 29.2641C15.4166 29.3639 15.4145 29.489 15.3329 29.5605L10.8615 34.0016C10.8082 34.0649 10.6923 34.0479 10.6197 34.0512C10.2555 34.0559 9.90445 34.2116 9.65672 34.4787C9.40891 34.7457 9.27984 35.1073 9.30242 35.471C9.30531 35.5184 9.28773 35.5648 9.25398 35.5984L8.96227 35.8881C8.55977 36.288 7.915 36.3028 7.49453 35.922C7.09492 35.5602 7.02828 34.9555 7.33953 34.5154L10.2855 30.3487C10.3686 30.2312 10.4898 30.142 10.6267 30.0977C11.3987 29.848 11.9111 29.1351 11.902 28.3235L11.9014 28.284C11.8998 28.1418 11.9423 28.0053 12.0244 27.8892L14.4861 24.4076C14.7216 24.0746 15.0679 23.8325 15.4616 23.7258L17.2416 23.2434C18.1757 22.9901 18.828 22.1374 18.828 21.1696V20.1938C18.828 19.5321 18.5302 18.9175 18.0109 18.5075L16.9983 17.7081C16.9399 17.6621 16.9027 17.5932 16.8959 17.5192L16.8898 17.4518C16.8534 17.0483 16.6473 16.6763 16.3245 16.4315C16.0015 16.1866 15.5877 16.0885 15.1895 16.1621C15.1128 16.1764 15.0332 16.1567 14.9716 16.1081L14.3912 15.6499C13.9662 15.3145 13.7225 14.8116 13.7225 14.2702V13.8294C14.3048 13.7098 14.848 13.4523 15.3123 13.0721C15.3759 13.1241 15.4413 13.1731 15.5077 13.2205V13.7225C15.5077 14.0233 15.643 14.3027 15.8792 14.4891L18.6687 16.6909C19.0606 17.0002 19.5302 17.1548 19.9998 17.1548C20.4695 17.1548 20.9391 17.0002 21.3309 16.6909L24.1205 14.4891C24.3566 14.3027 24.492 14.0233 24.492 13.7226V13.2205C24.5584 13.1731 24.6238 13.1241 24.6873 13.0721C25.1519 13.4523 25.6949 13.7098 26.2772 13.8294V14.2702C26.2772 14.8115 26.0335 15.3144 25.6085 15.6498L25.028 16.1081C24.9666 16.1566 24.8874 16.1764 24.8102 16.162C24.4119 16.0884 23.9981 16.1865 23.6752 16.4314C23.3524 16.6763 23.1463 17.0482 23.1098 17.4517L23.1038 17.5192C23.097 17.5932 23.0598 17.6621 23.0014 17.7081L21.9888 18.5075C21.4695 18.9175 21.1716 19.5321 21.1716 20.1938V21.1696C21.1716 22.1374 21.8241 22.9901 22.7581 23.2432L24.5382 23.7255C24.9319 23.8323 25.2783 24.0744 25.5137 24.4073C25.7015 24.6734 26.0691 24.733 26.3303 24.5475C26.5946 24.3607 26.6574 23.9951 26.4705 23.7308C26.0782 23.1758 25.5008 22.7722 24.8448 22.5945L23.0647 22.1121C22.6401 21.997 22.3436 21.6095 22.3436 21.1695V20.1937C22.3437 19.893 22.4791 19.6137 22.7152 19.4273ZM21.4263 27.9931L22.1102 28.6724C22.3844 28.9448 22.7513 29.0956 23.1348 29.0923C23.3381 29.0869 23.4298 29.2896 23.4178 29.4684C23.4426 29.8172 23.5929 30.1451 23.8412 30.3917L25.4543 31.994L26.8973 37.4886C27.0342 38.0105 26.7593 38.5538 26.2577 38.7525C25.7297 38.9616 25.1307 38.7211 24.894 38.2051L23.8916 36.0203C23.8525 35.9352 23.8426 35.838 23.8636 35.7466C24.0209 35.0633 23.7049 34.3441 23.0952 33.9977L23.037 33.9646C22.9587 33.9201 22.8973 33.8532 22.8597 33.7714L21.5559 30.9295C21.5332 30.8801 21.5338 30.8237 21.5575 30.7748C21.73 30.4184 21.738 30.0059 21.5792 29.643C21.4206 29.2802 21.1123 29.0061 20.7332 28.8908L20.6802 28.8747C20.6789 28.8743 20.6779 28.8736 20.6766 28.8732L21.198 27.7367C21.269 27.8261 21.3447 27.912 21.4263 27.9931ZM13.1026 37.4887L14.5455 31.9941L16.1588 30.3917C16.407 30.1452 16.5573 29.8173 16.582 29.4684C16.5699 29.2868 16.6632 29.0842 16.8709 29.0924C17.2552 29.0924 17.6169 28.9434 17.8898 28.6724L18.5735 27.9933C19.1505 27.4202 19.4652 26.6253 19.4369 25.8122L19.4359 25.7868C19.4306 25.6324 19.4867 25.4862 19.594 25.3751C19.8049 25.1469 20.1948 25.1469 20.4058 25.3751C20.513 25.4862 20.5692 25.6324 20.5638 25.7864L20.5629 25.8126C20.5576 25.9654 20.5644 26.1176 20.5827 26.2678L19.4314 28.7772C19.4036 28.845 19.333 28.8753 19.2663 28.8911C18.8874 29.0063 18.5791 29.2805 18.4205 29.6433C18.2619 30.0061 18.2698 30.4186 18.4423 30.7752C18.466 30.824 18.4666 30.8802 18.444 30.9295L17.1402 33.7714C17.1025 33.8534 17.0411 33.9203 16.9628 33.9648L16.9044 33.998C16.2948 34.3444 15.9789 35.0635 16.1361 35.7467C16.1572 35.8381 16.1473 35.9354 16.1081 36.0206L15.1058 38.2053C14.869 38.7214 14.2701 38.9619 13.742 38.7527C13.2405 38.5538 12.9656 38.0105 13.1026 37.4887ZM20.605 15.7712C20.2487 16.0524 19.7511 16.0524 19.3948 15.7712L16.9455 13.8378C17.1773 13.8825 17.4148 13.9062 17.6562 13.9062C18.5212 13.9062 19.3398 13.6126 19.9999 13.0721C20.6601 13.6125 21.4787 13.9062 22.3437 13.9062C22.5851 13.9062 22.8226 13.8825 23.0543 13.8378L20.605 15.7712Z" fill="#A6A182"/>
</g>
<defs>
<clipPath id="clip0_110_391">
<rect width="40" height="40" fill="white"/>
</clipPath>
</defs>
</svg>
