<svg width="30" height="30" viewBox="0 0 30 30" fill="none" xmlns="http://www.w3.org/2000/svg">
<path d="M29.3069 6.65307C28.7693 5.60049 27.9123 4.88219 26.8294 4.57586C25.3669 4.16225 23.7873 4.54762 22.6345 5.11885C22.4099 4.27416 21.9737 3.50065 21.3672 2.87133C20.7606 2.24201 20.0037 1.77766 19.1679 1.52211C18.332 1.26655 17.4448 1.22823 16.5901 1.41077C15.7353 1.5933 14.9412 1.99066 14.2826 2.56534C13.6097 1.97836 12.7956 1.57667 11.9203 1.39981C11.0451 1.22295 10.1388 1.27701 9.2908 1.55666C8.44277 1.83631 7.68215 2.33192 7.08379 2.99472C6.48542 3.65753 6.06992 4.4647 5.87816 5.33682C3.94416 5.32229 2.50352 5.8542 1.36416 6.9935C0.262011 8.09553 -0.0564454 9.57332 0.512324 10.9465C1.19348 12.5909 2.94156 13.6483 5.1284 13.7658V17.7768C5.1284 18.2167 5.44246 18.8579 8.15811 19.3442C9.91715 19.6592 12.2507 19.8327 14.7291 19.8327C17.2075 19.8327 19.5411 19.6592 21.3 19.3442C24.0157 18.8579 24.3297 18.2167 24.3297 17.7768V13.7061C25.938 13.3411 28.3722 12.0123 29.3303 10.1547C29.9104 9.02981 29.9024 7.81897 29.3069 6.65307ZM23.5094 16.8298C23.0571 16.6135 22.3623 16.3996 21.3 16.2094C19.5411 15.8944 17.2074 15.7209 14.7291 15.7209C12.2508 15.7209 9.91709 15.8944 8.15811 16.2094C7.0958 16.3996 6.401 16.6137 5.94871 16.8298V13.7513C6.96754 13.6256 7.9201 13.0551 8.92158 12.455C10.6408 11.4249 12.2646 10.4519 14.3375 11.5134C17.9542 13.3654 20.688 13.87 22.593 13.8699C22.9233 13.8699 23.2287 13.8548 23.5094 13.8289V16.8298ZM20.879 18.5842C19.201 18.8603 17.0169 19.0124 14.7291 19.0124C12.4413 19.0124 10.2571 18.86 8.5791 18.5842C6.75812 18.2846 6.10885 17.9283 5.96811 17.7768C6.10873 17.6252 6.75812 17.269 8.5791 16.9694C10.2571 16.6932 12.4412 16.5412 14.7291 16.5412C17.017 16.5412 19.201 16.6935 20.879 16.9694C22.7 17.269 23.3493 17.6252 23.4901 17.7768C23.3493 17.9283 22.7 18.2846 20.879 18.5842ZM28.6012 9.77875C27.7085 11.5096 25.231 12.7592 23.8598 12.9612C22.1254 13.2168 19.1307 13.0462 14.7113 10.7832C13.9469 10.3918 13.2297 10.2342 12.5518 10.2342C11.032 10.2342 9.70996 11.0263 8.49994 11.7514C7.46541 12.3713 6.48818 12.9568 5.53855 12.9568C3.10105 12.9568 1.73582 11.7562 1.27018 10.6326C0.832773 9.57649 1.08473 8.43291 1.944 7.5734C2.99283 6.52487 4.30533 6.09016 6.19791 6.16463C8.25742 6.28903 9.48789 7.39709 10.0382 8.04678C10.1085 8.1298 10.2089 8.18148 10.3173 8.19047C10.4257 8.19946 10.5333 8.16501 10.6163 8.09471C10.6993 8.02441 10.751 7.92401 10.76 7.81559C10.769 7.70718 10.7345 7.59964 10.6642 7.51662C9.66531 6.33719 8.274 5.59264 6.70914 5.38967C6.94709 4.45703 7.48787 3.62974 8.24667 3.03757C9.00547 2.44539 9.93936 2.12183 10.9019 2.11762C11.4774 2.11595 12.0473 2.23008 12.5778 2.45322C13.1083 2.67636 13.5885 3.00394 13.9898 3.41647C14.028 3.45544 14.0735 3.48641 14.1238 3.50755C14.1741 3.52869 14.2282 3.53958 14.2827 3.53958C14.3373 3.53958 14.3913 3.52869 14.4416 3.50755C14.4919 3.48641 14.5375 3.45544 14.5757 3.41647C14.977 3.00392 15.4571 2.67633 15.9876 2.45319C16.5181 2.23005 17.0881 2.11593 17.6636 2.11762C18.6558 2.12216 19.6167 2.46605 20.3865 3.09217C21.1562 3.71829 21.6886 4.58894 21.8952 5.55948C21.0451 6.19944 20.2099 7.38461 20.2099 8.69237C20.2099 8.80115 20.2531 8.90547 20.33 8.98239C20.407 9.05931 20.5113 9.10252 20.6201 9.10252C20.7288 9.10252 20.8332 9.05931 20.9101 8.98239C20.987 8.90547 21.0302 8.80115 21.0302 8.69237C21.0302 7.40916 22.0308 6.4327 22.5626 6.09344C23.5324 5.5034 25.1716 4.95942 26.6062 5.36512C27.4763 5.61121 28.1392 6.17008 28.5764 7.02614C29.0532 7.95995 29.0616 8.88602 28.6012 9.77875ZM27.2495 20.8867L22.6198 22.1273C22.5531 22.1452 22.5054 22.1406 22.4784 22.1135C22.4652 22.0995 22.4557 22.0824 22.4508 22.0638C22.4458 22.0453 22.4455 22.0258 22.4499 22.007C22.4598 21.9701 22.4986 21.9423 22.5654 21.9244L27.1952 20.6839C27.4307 20.6216 27.6323 20.4693 27.7566 20.2598C27.881 20.0504 27.9181 19.8004 27.86 19.5639C27.8019 19.3273 27.6532 19.123 27.446 18.9949C27.2388 18.8669 26.9896 18.8253 26.752 18.8792L20.4467 20.2884C20.1267 20.3599 19.8446 20.5477 19.655 20.8153C19.4655 21.0829 19.382 21.4113 19.4206 21.7369L14.4519 23.0683L4.1885 20.3181C4.03731 20.2776 3.87698 20.2881 3.73232 20.3479C3.58767 20.4076 3.46676 20.5135 3.38832 20.6489C3.30988 20.7844 3.27828 20.9419 3.29841 21.0971C3.31853 21.2524 3.38927 21.3966 3.49967 21.5076L6.21947 24.2419C6.24682 24.2691 6.27789 24.2924 6.31176 24.311C4.77396 24.638 4.65865 24.6688 4.61418 24.6807C4.35369 24.7493 4.10931 24.8687 3.89507 25.032C3.68084 25.1953 3.50097 25.3993 3.36578 25.6323C3.23059 25.8653 3.14275 26.1227 3.10731 26.3897C3.07186 26.6567 3.08951 26.9281 3.15923 27.1883C3.22895 27.4485 3.34938 27.6924 3.5136 27.9059C3.67781 28.1194 3.88259 28.2984 4.11616 28.4326C4.34974 28.5668 4.60751 28.6535 4.8747 28.6878C5.14188 28.7221 5.4132 28.7033 5.67309 28.6324C6.0035 28.5438 11.1446 26.9185 13.3681 26.2148L16.7448 27.1196C16.8499 27.1477 16.9619 27.133 17.0561 27.0786C17.1503 27.0242 17.219 26.9346 17.2472 26.8295L17.3451 26.4639L23.9846 28.2429C24.0921 28.2718 24.203 28.2865 24.3143 28.2866C24.6214 28.2865 24.918 28.1746 25.1488 27.972C25.3796 27.7693 25.5288 27.4896 25.5687 27.1851C25.6085 26.8806 25.5362 26.5719 25.3653 26.3167C25.1944 26.0615 24.9365 25.8772 24.6398 25.798L18.7023 24.2071L19.9913 23.8616C20.093 24.0995 20.262 24.3023 20.4776 24.4451C20.6933 24.5879 20.946 24.6643 21.2046 24.6651C21.3398 24.6649 21.4741 24.6442 21.603 24.6035L27.7678 22.6699C27.9998 22.5973 28.194 22.4367 28.3089 22.2226C28.4238 22.0084 28.4502 21.7577 28.3824 21.5243C28.3145 21.2909 28.1579 21.0934 27.9461 20.9741C27.7343 20.8549 27.4842 20.8235 27.2495 20.8865L27.2495 20.8867ZM19.6199 22.5327L19.7647 23.0731L17.1176 23.7825L16.0368 23.4929L19.6199 22.5327ZM5.46074 27.84C5.14683 27.9242 4.81237 27.8801 4.53093 27.7176C4.24949 27.5551 4.04412 27.2875 3.96001 26.9736C3.8759 26.6597 3.91993 26.3252 4.08243 26.0438C4.24492 25.7623 4.51256 25.557 4.82647 25.4729C4.92022 25.4477 5.55766 25.307 8.03307 24.785L11.8955 25.82C8.74234 26.8172 5.68844 27.7792 5.46074 27.84ZM16.561 26.221L6.72309 23.585L4.36539 21.2148L16.9955 24.599L16.561 26.221ZM24.6978 26.7978C24.7418 26.8741 24.7622 26.9617 24.7564 27.0496C24.7507 27.1374 24.719 27.2216 24.6654 27.2914C24.6118 27.3613 24.5387 27.4137 24.4553 27.442C24.3719 27.4703 24.282 27.4733 24.197 27.4505L17.5575 25.6715L17.7879 24.8113L24.4275 26.5904C24.484 26.6054 24.537 26.6314 24.5834 26.667C24.6299 26.7026 24.6687 26.7471 24.6978 26.7978ZM27.5224 21.8877L21.3576 23.8213C21.2928 23.8416 21.2246 23.8486 21.157 23.8419C21.0894 23.8352 21.0239 23.8148 20.9644 23.7821C20.9048 23.7494 20.8525 23.705 20.8106 23.6516C20.7687 23.5981 20.7381 23.5367 20.7205 23.4711L20.2489 21.7112C20.2313 21.6456 20.2272 21.5771 20.2368 21.5099C20.2463 21.4427 20.2694 21.3781 20.3046 21.32C20.3398 21.2619 20.3863 21.2115 20.4415 21.1719C20.4966 21.1323 20.5592 21.1042 20.6255 21.0894L26.9309 19.6805C26.9584 19.6741 26.9873 19.6788 27.0114 19.6935C27.0355 19.7082 27.0528 19.7317 27.0598 19.7591C27.0635 19.7728 27.0644 19.7872 27.0626 19.8013C27.0607 19.8155 27.0561 19.8291 27.049 19.8414C27.0419 19.8538 27.0324 19.8646 27.0211 19.8733C27.0098 19.8819 26.9969 19.8883 26.9831 19.892L22.3534 21.1325C22.2249 21.1637 22.1042 21.2207 21.9985 21.3C21.8928 21.3793 21.8043 21.4793 21.7384 21.5939C21.6243 21.8023 21.5956 22.047 21.6586 22.2761C21.7747 22.7094 22.2256 23.0822 22.8322 22.9196L27.4619 21.6791C27.4897 21.6717 27.5193 21.6756 27.5442 21.69C27.5691 21.7043 27.5873 21.728 27.5948 21.7558C27.6021 21.7828 27.5987 21.8117 27.5852 21.8362C27.5717 21.8607 27.5492 21.8791 27.5224 21.8874V21.8877Z" fill="#A6A182"/>
</svg>
