<svg width="40" height="40" viewBox="0 0 40 40" fill="none" xmlns="http://www.w3.org/2000/svg">
<path d="M7.26574 8.47657L8.4298 10.8828L11.0704 11.2422C11.5939 11.3125 11.7814 11.9609 11.422 12.3047L9.4923 14.1563L9.96886 16.7813C10.0626 17.2969 9.51574 17.6875 9.06261 17.4375L6.71105 16.1719L4.35949 17.4375C3.90636 17.6797 3.33605 17.3047 3.46105 16.7422L3.9298 14.1484L2.00011 12.2969C1.62511 11.9375 1.82824 11.2969 2.35949 11.2266L4.9923 10.8672L6.15636 8.46094C6.37511 8.00001 7.04699 8.00782 7.26574 8.47657ZM7.45324 11.7266L6.71105 10.1797L5.96105 11.7266C5.87511 11.9063 5.69543 12.0469 5.48449 12.0781L3.78918 12.3047L5.03136 13.4922C5.17199 13.6328 5.25011 13.8359 5.21105 14.0469L4.90636 15.7344L6.40636 14.9297C6.58605 14.8359 6.81261 14.8203 7.00011 14.9297L8.50793 15.7422L8.21105 14.0859C8.16418 13.8828 8.21886 13.6563 8.38293 13.4922L9.62511 12.3047L7.94543 12.0781C7.7423 12.0547 7.54699 11.9219 7.45324 11.7266ZM20.5626 2.81251L21.7267 5.21876L24.3751 5.57813C24.8986 5.64844 25.0861 6.29688 24.7267 6.64844L22.797 8.50001L23.2736 11.125C23.3673 11.6406 22.8204 12.0313 22.3673 11.7813L20.0001 10.5156L17.6486 11.7813C17.1954 12.0234 16.6251 11.6484 16.7501 11.0859L17.2189 8.49219L15.2814 6.64063C14.9064 6.28126 15.1095 5.64063 15.6407 5.57032L18.2736 5.21094L19.4376 2.81251C19.672 2.33594 20.3361 2.34376 20.5626 2.81251ZM20.7501 6.06251L20.0001 4.51563L19.2579 6.06251C19.172 6.24219 18.9923 6.38282 18.7814 6.41407L17.0782 6.64063L18.3204 7.82813C18.4689 7.96876 18.5392 8.17188 18.5001 8.38282L18.1954 10.0703L19.7032 9.26563C19.8829 9.17188 20.1017 9.15626 20.297 9.26563L21.8048 10.0781L21.5079 8.42188C21.4611 8.21876 21.5157 7.99219 21.6798 7.82813L22.922 6.64063L21.2423 6.40626C21.0314 6.39063 20.8439 6.25782 20.7501 6.06251ZM33.8517 8.47657L35.0157 10.8828L37.6564 11.2422C38.1798 11.3125 38.3751 11.9609 38.0079 12.3047L36.0782 14.1563L36.5548 16.7813C36.6486 17.2969 36.1017 17.6875 35.6486 17.4375L33.297 16.1719L30.9454 17.4375C30.4923 17.6797 29.922 17.3047 30.0392 16.7422L30.5079 14.1484L28.5782 12.2969C28.2032 11.9375 28.4064 11.2969 28.9376 11.2266L31.5704 10.8672L32.7345 8.46094C32.9611 8.00001 33.6329 8.00782 33.8517 8.47657ZM34.0392 11.7266L33.297 10.1797L32.547 11.7266C32.4611 11.9063 32.2892 12.0469 32.0704 12.0781L30.3751 12.3047L31.6095 13.4922C31.7501 13.6328 31.8282 13.8359 31.7892 14.0469L31.4845 15.7344L32.9923 14.9297C33.172 14.8359 33.3986 14.8203 33.5861 14.9297L35.1017 15.7422L34.8048 14.0859C34.7579 13.8828 34.8126 13.6563 34.9767 13.4922L36.2111 12.3047L34.5314 12.0781C34.3282 12.0547 34.1329 11.9219 34.0392 11.7266ZM17.1017 24.4297C16.9298 24.1328 17.0314 23.75 17.3282 23.5781C17.6251 23.4063 18.0079 23.5078 18.1798 23.8047L19.0001 25.2266L21.9142 22.3125C22.1564 22.0703 22.5548 22.0703 22.797 22.3125C23.0392 22.5547 23.0392 22.9531 22.797 23.1953L19.3048 26.6875C19.0157 26.9766 18.5314 26.9141 18.3282 26.5625L17.1017 24.4297ZM20.0001 17.8281C23.3986 17.8281 26.1564 20.5859 26.1564 23.9844C26.1564 27.3828 23.3986 30.1406 20.0001 30.1406C16.6017 30.1406 13.8439 27.3828 13.8439 23.9844C13.8439 20.5859 16.6017 17.8281 20.0001 17.8281ZM23.4689 20.5156C21.5548 18.6016 18.4454 18.6016 16.5314 20.5156C14.6173 22.4297 14.6173 25.5391 16.5314 27.4531C18.4454 29.3672 21.5548 29.3672 23.4689 27.4531C25.3829 25.5313 25.3829 22.4297 23.4689 20.5156ZM20.0001 13.9609C25.5314 13.9609 30.0157 18.4453 30.0157 23.9766C30.0157 26.0703 29.3751 28.0156 28.2736 29.625L31.2657 34.8047C31.5548 35.2891 31.1564 35.8359 30.6407 35.7578L27.5782 35.2734L25.9376 37.2891C25.6486 37.6641 25.1095 37.6016 24.8986 37.2266L22.8048 33.6016C20.9767 34.1328 19.0157 34.1328 17.1954 33.6016L15.1017 37.2266C14.8907 37.6016 14.3517 37.6641 14.0626 37.2891L12.422 35.2734L9.35949 35.7578C8.83605 35.8438 8.46886 35.2734 8.71886 34.8281L11.7267 29.625C9.00793 25.6484 9.51574 20.2969 12.922 16.8906C14.7267 15.0859 17.2345 13.9609 20.0001 13.9609ZM27.4454 30.6797C26.4923 31.7422 25.3204 32.5938 23.9923 33.1719L25.5236 35.8203L26.8361 34.2109C26.9845 34.0234 27.2111 33.9531 27.4298 33.9922L29.5392 34.3281L27.4454 30.6797ZM16.0001 33.1719C14.6798 32.5938 13.5079 31.7422 12.5548 30.6875L10.4532 34.3281L12.5626 33.9922C12.7736 33.9531 13.0079 34.0313 13.1564 34.2109L14.4689 35.8203L16.0001 33.1719ZM26.2032 17.7813C22.7814 14.3594 17.2267 14.3594 13.8048 17.7813C10.3829 21.2031 10.3829 26.7578 13.8048 30.1797C17.2345 33.6016 22.7814 33.6016 26.2032 30.1797C29.6251 26.7578 29.6251 21.2031 26.2032 17.7813Z" fill="white"/>
</svg>
