<svg width="40" height="40" viewBox="0 0 40 40" fill="none" xmlns="http://www.w3.org/2000/svg">
<path d="M30.0734 15.1711C30.0561 14.5791 29.9879 13.9997 29.8723 13.4373C31.5777 12.5778 32.6562 10.8469 32.6562 8.90625C32.6562 6.10617 30.3782 3.82812 27.5781 3.82812C25.9259 3.82812 24.367 4.64758 23.422 5.98914C22.8867 5.79531 22.3305 5.64547 21.7578 5.54438V0.976562C21.7578 0.438047 21.3198 0 20.7812 0H19.2188C18.6802 0 18.2422 0.438047 18.2422 0.976562V5.54438C17.6695 5.64555 17.1134 5.79531 16.5782 5.98914C15.6332 4.64781 14.0732 3.82812 12.4219 3.82812C9.6218 3.82812 7.34375 6.10617 7.34375 8.90625C7.34375 10.841 8.42375 12.5772 10.1276 13.4376C10.0127 13.997 9.94469 14.5733 9.92695 15.162C9.22547 15.2193 8.67188 15.8074 8.67188 16.5234V18.4766C8.67188 19.2304 9.28523 19.8438 10.0391 19.8438H10.2966L10.7788 23.8298C10.6854 23.8928 10.5984 23.9663 10.5222 24.052C10.263 24.3431 10.1402 24.7322 10.1855 25.1194L11.1425 33.3225C11.2052 33.8605 11.5754 34.2939 12.0646 34.4587L12.5478 38.4533C12.6544 39.3351 13.4046 40 14.2928 40H22.0193C22.3429 40 22.6052 39.7377 22.6052 39.4141C22.6052 39.0905 22.3429 38.8281 22.0193 38.8281H14.2928C13.9967 38.8281 13.7466 38.6065 13.7111 38.3125L13.2537 34.5312H26.7463L26.2888 38.3126C26.2533 38.6065 26.0032 38.8281 25.7071 38.8281H24.7536C24.43 38.8281 24.1677 39.0905 24.1677 39.4141C24.1677 39.7377 24.43 40 24.7536 40H25.7071C26.5953 40 27.3455 39.3351 27.4522 38.4533L27.9354 34.4587C28.4246 34.2938 28.7947 33.8605 28.8574 33.3225L29.8145 25.1194C29.8597 24.7322 29.737 24.3431 29.4777 24.052C29.4015 23.9662 29.3145 23.8928 29.2212 23.8298L29.7034 19.8438H29.8828C30.6366 19.8438 31.25 19.2304 31.25 18.4766V16.5234C31.25 15.8344 30.7371 15.2644 30.0734 15.1711ZM10.9375 8.86719C10.9375 8.07023 11.5859 7.42188 12.3828 7.42188C12.7735 7.42188 13.1414 7.58008 13.4094 7.85023C12.6813 8.48102 12.0442 9.21422 11.5207 10.0272C11.1588 9.75844 10.9375 9.33195 10.9375 8.86719ZM20 6.5625C24.8062 6.5625 28.7349 10.3895 28.9002 15.1562H11.0998C11.2651 10.3895 15.1937 6.5625 20 6.5625ZM28.4786 10.0261C27.9552 9.21359 27.3184 8.4807 26.5906 7.85023C26.859 7.58023 27.2278 7.42188 27.6172 7.42188C28.4141 7.42188 29.0625 8.07023 29.0625 8.86719C29.0625 9.32828 28.8379 9.75711 28.4786 10.0261ZM27.5781 5C29.732 5 31.4844 6.75234 31.4844 8.90625C31.4844 10.3155 30.7453 11.5812 29.5591 12.275C29.4181 11.8541 29.2499 11.4455 29.0568 11.0512C29.7777 10.5729 30.2344 9.75258 30.2344 8.86719C30.2344 7.42406 29.0603 6.25 27.6172 6.25C26.8619 6.25 26.1497 6.57906 25.658 7.13297C25.2975 6.8875 24.9203 6.665 24.5285 6.46711C25.2643 5.55164 26.3897 5 27.5781 5ZM19.4141 1.17188H20.5859V5.40812C20.392 5.39695 20.1967 5.39062 20 5.39062C19.8033 5.39062 19.608 5.39695 19.4141 5.40812V1.17188ZM8.51562 8.90625C8.51562 6.75234 10.268 5 12.4219 5C13.6296 5 14.7363 5.53992 15.4733 6.46625C15.0808 6.66437 14.7029 6.88727 14.3418 7.1332C13.8506 6.57891 13.1406 6.25 12.3828 6.25C10.9397 6.25 9.76562 7.42406 9.76562 8.86719C9.76562 9.75937 10.2162 10.5731 10.943 11.0515C10.75 11.4455 10.582 11.8538 10.441 12.2744C9.25578 11.5798 8.51562 10.3111 8.51562 8.90625ZM27.6936 33.1867C27.6821 33.2852 27.5987 33.3594 27.4996 33.3594H12.5004C12.4013 33.3594 12.3179 33.2852 12.3064 33.1867L11.3494 24.9836C11.3541 24.8387 11.4 24.7871 11.5434 24.7656H28.4566C28.5999 24.7871 28.6459 24.8386 28.6505 24.9836L27.6936 33.1867ZM30.0781 18.4766C30.0781 18.5842 29.9905 18.6719 29.8828 18.6719H15.0691C14.7455 18.6719 14.4832 18.9342 14.4832 19.2578C14.4832 19.5814 14.7455 19.8438 15.0691 19.8438H28.523L28.0693 23.5938H11.9306L11.477 19.8438H12.3348C12.6584 19.8438 12.9208 19.5814 12.9208 19.2578C12.9208 18.9342 12.6584 18.6719 12.3348 18.6719H10.0391C9.93141 18.6719 9.84375 18.5842 9.84375 18.4766V16.5234C9.84375 16.4158 9.93141 16.3281 10.0391 16.3281H29.8828C29.9905 16.3281 30.0781 16.4158 30.0781 16.5234V18.4766Z" fill="#A6A182"/>
<path d="M23.4766 9.45312C23.153 9.45312 22.8906 9.71547 22.8906 10.0391V11.0547C22.8906 11.3783 23.153 11.6406 23.4766 11.6406C23.8002 11.6406 24.0625 11.3783 24.0625 11.0547V10.0391C24.0625 9.71547 23.8002 9.45312 23.4766 9.45312Z" fill="#A6A182"/>
<path d="M16.5234 9.45312C16.1998 9.45312 15.9375 9.71547 15.9375 10.0391V11.0547C15.9375 11.3783 16.1998 11.6406 16.5234 11.6406C16.847 11.6406 17.1094 11.3783 17.1094 11.0547V10.0391C17.1094 9.71547 16.847 9.45312 16.5234 9.45312Z" fill="#A6A182"/>
<path d="M21.7578 12.5H21.7484C21.129 12.5 20.625 11.996 20.625 11.3765C20.625 11.0529 20.3627 10.7905 20.0391 10.7905C19.7155 10.7905 19.4531 11.0529 19.4531 11.3765C19.4531 11.9959 18.9491 12.4999 18.3297 12.4999H18.3203C17.9967 12.4999 17.7344 12.7622 17.7344 13.0858C17.7344 13.4094 17.9967 13.6718 18.3203 13.6718H18.3297C19.008 13.6718 19.6185 13.3761 20.0391 12.9067C20.4597 13.3761 21.0702 13.6718 21.7484 13.6718H21.7578C22.0814 13.6718 22.3438 13.4094 22.3438 13.0858C22.3438 12.7622 22.0814 12.5 21.7578 12.5Z" fill="#A6A182"/>
<path d="M20 25.9375C18.2769 25.9375 16.875 27.3394 16.875 29.0625C16.875 30.7856 18.2769 32.1875 20 32.1875C21.7231 32.1875 23.125 30.7856 23.125 29.0625C23.125 27.3394 21.7231 25.9375 20 25.9375ZM20 31.0156C18.923 31.0156 18.0469 30.1395 18.0469 29.0625C18.0469 27.9855 18.923 27.1094 20 27.1094C21.077 27.1094 21.9531 27.9855 21.9531 29.0625C21.9531 30.1395 21.077 31.0156 20 31.0156Z" fill="#A6A182"/>
</svg>
