<svg width="30" height="30" viewBox="0 0 30 30" fill="none" xmlns="http://www.w3.org/2000/svg">
<g clip-path="url(#clip0_726_460)">
<path d="M10.4153 7.0442C10.3291 7.30945 10.4139 7.59375 10.6313 7.76853L12.567 9.32432L11.9154 11.7207C11.8423 11.9898 11.9408 12.2696 12.1666 12.4338C12.3924 12.5977 12.6888 12.6049 12.9222 12.4522L15 11.092L17.0778 12.4522C17.1899 12.5255 17.3164 12.562 17.4427 12.562C17.5795 12.562 17.7161 12.5191 17.8334 12.4338C18.0592 12.2698 18.1578 11.9898 18.0845 11.7207L17.433 9.32438L19.3685 7.76865C19.5861 7.59393 19.6709 7.30957 19.5847 7.0442C19.4985 6.77877 19.2627 6.59859 18.9841 6.58512L16.5036 6.46418L15.6221 4.14258C15.5232 3.88178 15.2789 3.7132 14.9999 3.7132C14.721 3.7132 14.4767 3.88172 14.3778 4.14252L13.4962 6.46424L11.016 6.58512C10.7372 6.59859 10.5015 6.77877 10.4153 7.0442ZM13.7197 7.39189C13.9841 7.379 14.2156 7.21078 14.3094 6.9634L14.9999 5.14494L15.6903 6.96357C15.7843 7.2109 16.0159 7.379 16.28 7.39189L18.2228 7.48664L16.7067 8.70521C16.5003 8.87109 16.412 9.14326 16.4814 9.3985L16.9917 11.2755L15.3642 10.2101C15.2535 10.1377 15.1267 10.1014 14.9998 10.1014C14.873 10.1014 14.746 10.1377 14.6353 10.2101L13.0079 11.2755L13.5182 9.39861C13.5877 9.1432 13.4992 8.87098 13.2929 8.70521L11.7768 7.4867L13.7197 7.39189ZM14.5311 2.18895V0.46875C14.5311 0.209883 14.741 0 14.9999 0C15.2587 0 15.4686 0.209883 15.4686 0.46875V2.18895C15.4686 2.44781 15.2587 2.6577 14.9999 2.6577C14.741 2.6577 14.5311 2.44781 14.5311 2.18895ZM17.3858 4.96617C17.2126 4.77381 17.2281 4.47738 17.4204 4.30418L19.3373 2.57812C19.5298 2.40486 19.8261 2.42039 19.9994 2.61281C20.1726 2.80518 20.1571 3.1016 19.9647 3.2748L18.0478 5.00086C17.9582 5.08154 17.846 5.12127 17.7342 5.12127C17.6061 5.12127 17.4783 5.069 17.3858 4.96617ZM10.0004 2.61281C10.1736 2.42039 10.4699 2.40486 10.6624 2.57812L12.5794 4.30418C12.7717 4.47738 12.7873 4.77381 12.6141 4.96617C12.5215 5.06894 12.3937 5.12127 12.2655 5.12127C12.1538 5.12127 12.0417 5.08154 11.952 5.00086L10.0351 3.2748C9.84264 3.1016 9.82717 2.80518 10.0004 2.61281ZM21.0136 7.76853L22.9492 9.32432L22.2977 11.7207C22.2246 11.9898 22.3231 12.2696 22.5489 12.4338C22.7745 12.5977 23.071 12.6048 23.3045 12.4522L25.3823 11.092L27.4601 12.4522C27.5722 12.5255 27.6987 12.562 27.8249 12.562C27.9618 12.562 28.0984 12.5191 28.2156 12.4338C28.4414 12.2699 28.54 11.99 28.4668 11.7207L27.8153 9.32438L29.7508 7.76865C29.9683 7.59398 30.0531 7.30963 29.9669 7.0442C29.8807 6.77877 29.6449 6.59859 29.3664 6.58512L26.8859 6.46418L26.0045 4.14258C25.9055 3.88178 25.6612 3.7132 25.3823 3.7132C25.1033 3.7132 24.859 3.88172 24.76 4.14252L23.8786 6.46418L21.3983 6.58506C21.1195 6.59854 20.8837 6.77877 20.7976 7.0442C20.7113 7.30957 20.7962 7.59393 21.0136 7.76853ZM24.102 7.39189C24.3664 7.379 24.5979 7.21078 24.6918 6.96334L25.3822 5.14488L26.0726 6.96328C26.1665 7.21078 26.3981 7.379 26.6624 7.39184L28.6052 7.48658L27.0892 8.70504C26.8828 8.87086 26.7943 9.14309 26.8638 9.39844L27.3741 11.2754L25.7466 10.21C25.6358 10.1376 25.509 10.1014 25.3821 10.1014C25.2552 10.1014 25.1283 10.1377 25.0176 10.2101L23.3902 11.2754L23.9005 9.39855C23.9699 9.14326 23.8816 8.87109 23.6752 8.70516L22.1591 7.48658L24.102 7.39189ZM0.248904 7.76853L2.18455 9.32432L1.53304 11.7207C1.45992 11.9898 1.55842 12.2696 1.78418 12.4338C2.01 12.5977 2.30642 12.6049 2.5398 12.4522L4.6176 11.092L6.69545 12.4522C6.80748 12.5255 6.93398 12.562 7.06025 12.562C7.19713 12.562 7.33371 12.5191 7.45096 12.4338C7.67672 12.2699 7.77527 11.99 7.70209 11.7207L7.05058 9.32438L8.98611 7.76865C9.2035 7.5941 9.2884 7.3098 9.2022 7.04391C9.11584 6.77865 8.88006 6.59854 8.60168 6.58506L6.12123 6.46412L5.2398 4.14258C5.14084 3.88178 4.89656 3.7132 4.6176 3.7132C4.33857 3.7132 4.0943 3.88172 3.99533 4.14252L3.1139 6.46418L0.633631 6.58506C0.3549 6.59854 0.119119 6.77877 0.0329862 7.04391C-0.0534396 7.30939 0.0313456 7.59387 0.248904 7.76853ZM3.33726 7.39189C3.6017 7.379 3.83326 7.21078 3.92713 6.96334L4.61754 5.14488L5.30789 6.96328C5.40181 7.21078 5.63338 7.379 5.89769 7.39184L7.84049 7.48658L6.32449 8.70504C6.11806 8.87086 6.02959 9.14309 6.09908 9.39844L6.60937 11.2754L4.98187 10.21C4.87113 10.1376 4.74428 10.1014 4.61742 10.1014C4.49051 10.1014 4.36359 10.1377 4.25291 10.2101L2.62553 11.2754L3.13582 9.39855C3.20525 9.14326 3.11689 8.87109 2.91053 8.70516L1.39441 7.48658L3.33726 7.39189ZM29.9261 24.8984C29.5963 23.8333 28.9208 22.8769 28.0239 22.2053C27.5945 21.8838 27.1269 21.6334 26.6337 21.4561C27.3175 20.9194 27.7581 20.0862 27.7581 19.1514C27.7581 17.5362 26.4441 16.2222 24.8289 16.2222C23.2137 16.2222 21.8996 17.5362 21.8996 19.1514C21.8996 20.0851 22.3392 20.9174 23.0217 21.4542C22.107 21.7807 21.2967 22.3543 20.6761 23.1273C20.3861 22.7215 20.0515 22.3447 19.6754 22.0045C18.9175 21.3192 18.0281 20.8158 17.0703 20.5184C18.086 19.845 18.7575 18.6921 18.7575 17.3848C18.7575 15.3129 17.0718 13.6273 14.9999 13.6273C12.9281 13.6273 11.2424 15.3129 11.2424 17.3848C11.2424 18.6921 11.9138 19.845 12.9295 20.5184C11.9716 20.8158 11.0822 21.3192 10.3244 22.0045C9.94828 22.3447 9.61371 22.7215 9.32373 23.1272C8.70322 22.3542 7.89287 21.7806 6.9781 21.454C7.66055 20.9173 8.10017 20.0849 8.10017 19.1512C8.10017 17.5361 6.78609 16.222 5.17096 16.222C3.55576 16.222 2.24168 17.5361 2.24168 19.1512C2.24168 20.0859 2.6823 20.9192 3.36609 21.4559C2.87285 21.6332 2.40527 21.8837 1.97584 22.2052C1.07894 22.8767 0.403416 23.8331 0.0735917 24.8982C-0.0788107 25.3901 0.00562294 25.8894 0.311307 26.3041C0.616932 26.7188 1.06892 26.947 1.58396 26.947H8.06402V27.793C8.06402 29.01 9.05408 30.0001 10.2711 30.0001H19.7287C20.9456 30.0001 21.9357 29.01 21.9358 27.793V26.9473H28.4158C28.9309 26.9473 29.3829 26.7189 29.6885 26.3044C29.9941 25.8896 30.0785 25.3903 29.9261 24.8984ZM24.8289 17.1597C25.9271 17.1597 26.8206 18.0532 26.8206 19.1514C26.8206 20.2497 25.9271 21.1432 24.8289 21.1432C23.7306 21.1432 22.8371 20.2497 22.8371 19.1514C22.8371 18.0532 23.7306 17.1597 24.8289 17.1597ZM12.1799 17.3848C12.1799 15.8298 13.445 14.5648 14.9999 14.5648C16.5549 14.5648 17.82 15.8298 17.82 17.3848C17.82 18.9393 16.5557 20.2039 15.0015 20.2048C15.0009 20.2048 15.0003 20.2048 14.9999 20.2048C14.9994 20.2048 14.9989 20.2048 14.9984 20.2048C13.4441 20.2039 12.1799 18.9392 12.1799 17.3848ZM5.17096 17.1595C6.26918 17.1595 7.16267 18.053 7.16267 19.1512C7.16267 20.2495 6.26918 21.143 5.17096 21.143C4.07267 21.143 3.17918 20.2495 3.17918 19.1512C3.17918 18.053 4.07267 17.1595 5.17096 17.1595ZM8.1249 26.0095H1.58402C1.36828 26.0095 1.19402 25.9215 1.06599 25.7478C0.937908 25.5741 0.905389 25.3816 0.969197 25.1755C1.54248 23.3242 3.23109 22.0805 5.17096 22.0805C6.63832 22.0805 7.97502 22.7895 8.79715 23.9896C8.47213 24.621 8.24449 25.3016 8.1249 26.0095ZM20.9983 27.7929C20.9982 28.493 20.4287 29.0625 19.7287 29.0625H10.2711C9.57105 29.0625 9.00152 28.493 9.00152 27.7929V26.5037C9.3409 23.4458 11.9146 21.143 14.9984 21.1423C14.9989 21.1423 14.9994 21.1423 14.9999 21.1423C15.0005 21.1423 15.001 21.1423 15.0015 21.1423C18.0852 21.1431 20.6588 23.4458 20.9983 26.5037V27.7929ZM28.9338 25.7481C28.8058 25.9217 28.6316 26.0097 28.4158 26.0097H21.875C21.7553 25.3018 21.5277 24.6212 21.2027 23.9897C22.0249 22.7896 23.3616 22.0807 24.8289 22.0807C26.7687 22.0807 28.4573 23.3245 29.0306 25.1758C29.0944 25.3818 29.0619 25.5743 28.9338 25.7481Z" fill="#A6A182"/>
</g>
<defs>
<clipPath id="clip0_726_460">
<rect width="30" height="30" fill="white"/>
</clipPath>
</defs>
</svg>
