<svg width="24" height="24" viewBox="0 0 24 24" fill="none" xmlns="http://www.w3.org/2000/svg">
<path d="M5.1535 2.42512L3.41457 4.16406C1.99116 5.58747 1.60001 7.74453 2.43299 9.5771C4.84875 14.8918 9.10822 19.1512 14.4229 21.567C16.2555 22.4 18.4125 22.0088 19.8359 20.5854L21.5749 18.8465C22.1417 18.2797 22.1417 17.3607 21.5749 16.7938L19.2356 14.4546C18.7938 14.0128 18.119 13.9033 17.5602 14.1827L16.2619 14.8318C15.1443 15.3906 13.7946 15.1715 12.911 14.288L9.71199 11.089C8.82846 10.2054 8.60942 8.85565 9.16822 7.73806L9.81733 6.43984C10.0967 5.88104 9.98721 5.20616 9.54544 4.76439L7.20617 2.42512C6.63934 1.85829 5.72033 1.85829 5.1535 2.42512Z" stroke="#A6A182" stroke-linejoin="round"/>
</svg>
