<svg width="40" height="40" viewBox="0 0 40 40" fill="none" xmlns="http://www.w3.org/2000/svg">
<g clip-path="url(#clip0_110_381)">
<path d="M26.2538 8.65114C26.4803 8.88247 26.8513 8.88637 27.0824 8.6602C27.3138 8.43395 27.3178 8.06294 27.0915 7.83169L26.3187 7.04176C26.1564 6.87591 26.0781 6.64856 26.104 6.41801C26.1299 6.18747 26.2565 5.98301 26.4514 5.85731L26.7249 5.68083C27.2169 5.3634 27.5364 4.8477 27.6016 4.26598C27.6667 3.68426 27.4694 3.11059 27.06 2.69215L26.2872 1.90223C26.0609 1.67098 25.6899 1.66684 25.4586 1.89317C25.2273 2.11942 25.2232 2.49044 25.4496 2.72169L26.2224 3.51161C26.3846 3.67747 26.4629 3.90481 26.4371 4.13536C26.4112 4.3659 26.2846 4.57036 26.0896 4.69606L25.8161 4.87255C25.3242 5.18997 25.0047 5.70567 24.9395 6.28739C24.8743 6.86911 25.0717 7.44278 25.481 7.86122L26.2538 8.65114Z" fill="#A6A182"/>
<path d="M21.312 8.65147C21.5385 8.8828 21.9095 8.88671 22.1406 8.66053C22.372 8.43428 22.376 8.06327 22.1497 7.83202L21.1519 6.81217C20.9064 6.56124 20.788 6.21733 20.8271 5.8685C20.8663 5.51967 21.0578 5.21046 21.3528 5.02014L21.7058 4.79233C22.2977 4.41046 22.6821 3.78991 22.7606 3.08991C22.8391 2.38991 22.6016 1.69967 22.109 1.19616L21.1113 0.176159C20.8849 -0.0550912 20.514 -0.0592319 20.2827 0.167096C20.0514 0.393346 20.0473 0.764362 20.2736 0.995612L21.2714 2.01546C21.5169 2.26639 21.6353 2.6103 21.5962 2.95913C21.557 3.30796 21.3655 3.61717 21.0706 3.80749L20.7175 4.0353C20.1256 4.41717 19.7412 5.03772 19.6627 5.73772C19.5842 6.43772 19.8217 7.12796 20.3143 7.63147L21.312 8.65147Z" fill="#A6A182"/>
<path d="M16.1362 8.6511C16.3626 8.88251 16.7335 8.88633 16.9647 8.66024C17.196 8.43391 17.2001 8.06297 16.9739 7.83173L16.201 7.0418C16.0388 6.87594 15.9606 6.6486 15.9864 6.41805C16.0123 6.18743 16.1389 5.98305 16.3339 5.85727L16.6073 5.68079C17.0992 5.36344 17.4187 4.84774 17.4839 4.26602C17.5492 3.6843 17.3517 3.11063 16.9424 2.69219L16.1696 1.90227C15.9433 1.67094 15.5724 1.66688 15.341 1.89313C15.1097 2.11946 15.1056 2.4904 15.3319 2.72165L16.1047 3.51157C16.267 3.67743 16.3452 3.90477 16.3193 4.13532C16.2935 4.36594 16.1668 4.57032 15.9718 4.6961L15.6985 4.87258C15.2066 5.18993 14.8871 5.70563 14.8218 6.28735C14.7566 6.86907 14.954 7.44274 15.3634 7.86118L16.1362 8.6511Z" fill="#A6A182"/>
<path d="M37.4998 26.1703C37.8234 26.1703 38.0858 25.908 38.0858 25.5844V22.4595C38.0858 19.5519 35.7202 17.1864 32.8126 17.1864H29.4746C29.6713 16.336 29.9996 15.5173 30.4527 14.7625L31.9749 12.2262C32.5361 11.3609 31.8333 10.1198 30.8027 10.1555H11.6207C10.59 10.1198 9.88749 11.3609 10.4484 12.2262L11.9707 14.7625C12.7522 16.0646 13.1652 17.5556 13.1652 19.0741C13.1652 20.9459 12.5275 22.7867 11.3696 24.2573C11.2461 24.4141 11.1253 24.5769 11.0107 24.7409C10.9998 24.7564 10.99 24.7723 10.9808 24.7886C10.4259 25.1937 9.906 25.8597 9.4867 26.6326C8.55436 25.2105 7.30475 24.2356 6.25014 24.7275C5.88991 24.8955 5.29233 25.3855 5.33678 26.7805C5.35295 27.2878 5.45389 27.8509 5.62834 28.4312C3.97709 28.0946 2.38788 28.2916 1.99499 29.3712C1.63452 30.3616 2.50788 31.5465 4.16866 32.4309C2.74991 33.3629 1.77866 34.6103 2.26975 35.6635C2.43178 36.0109 2.89334 36.5792 4.17764 36.5792C4.22483 36.5792 4.27334 36.5784 4.3228 36.5769C4.82811 36.5608 5.38874 36.4605 5.96663 36.2873C5.57686 38.1277 5.92334 39.5583 6.91342 39.9187C7.06506 39.9738 7.21819 39.9999 7.37202 39.9999C8.31608 39.9999 9.27795 39.016 9.96936 37.7394C10.735 38.907 11.7143 39.773 12.6242 39.773C12.8223 39.773 13.0173 39.7319 13.2058 39.644C13.4192 39.5444 13.7161 39.3317 13.9132 38.8847C15.255 39.6143 16.7571 39.9979 18.3006 39.9979H24.1229C28.2223 39.9979 31.7033 37.3019 32.8875 33.5901C35.7606 33.5498 38.0858 31.2014 38.0858 28.3188C38.0858 27.9952 37.8236 27.7329 37.4999 27.7329C37.1762 27.7329 36.914 27.9952 36.914 28.3188C36.914 30.4563 35.2701 32.2162 33.1804 32.4029C33.2494 32.0116 33.2933 31.6119 33.311 31.2055C34.6858 30.9659 35.7422 29.7526 35.7422 28.3188V22.4598C35.7422 20.8444 34.428 19.5302 32.8126 19.5302H29.2723C29.264 19.3785 29.2582 19.2266 29.2582 19.0744C29.2582 18.8348 29.2697 18.596 29.2901 18.3584H32.8126C35.0741 18.3584 36.914 20.1983 36.914 22.4598V25.5846C36.914 25.908 37.1762 26.1703 37.4998 26.1703ZM12.1416 25.5538C12.4087 25.6511 12.7113 26.8019 12.1376 28.6124C11.6369 28.8541 11.1643 29.1362 10.7503 29.4405C10.7366 29.4355 10.7229 29.4306 10.7091 29.4257C10.5876 28.9264 10.4069 28.4064 10.1787 27.8994C10.9027 26.1435 11.8734 25.4568 12.1416 25.5538ZM16.5787 36.3244L16.5626 36.4177L16.4692 36.4016C16.1904 36.3537 15.9335 36.2413 15.713 36.077C16.0454 36.0408 16.342 35.9668 16.5951 35.8562C16.61 36.0117 16.6054 36.1693 16.5787 36.3244ZM16.3596 34.5994C16.2624 34.8666 15.1116 35.1692 13.3012 34.5953C13.0597 34.0952 12.7773 33.6209 12.4733 33.2073C12.4783 33.1939 12.483 33.1804 12.4879 33.1669C12.987 33.0454 13.5069 32.8648 14.0139 32.6366C15.6675 33.3202 16.4737 34.2862 16.3596 34.5994ZM9.72788 33.9434C8.75866 33.9434 7.97014 33.1548 7.97014 32.1856C7.97014 31.2164 8.75866 30.4279 9.72788 30.4279C10.6971 30.4279 11.4856 31.2164 11.4856 32.1856C11.4856 33.1548 10.6971 33.9434 9.72788 33.9434ZM13.6353 31.5222C13.3067 31.6754 12.9722 31.8048 12.6439 31.9077C12.5787 31.2186 12.274 30.5984 11.8139 30.1313C12.1041 29.9457 12.4187 29.7723 12.7477 29.6189C13.5903 29.226 14.4733 28.988 15.1704 28.9657C15.7801 28.9465 16.0746 29.097 16.124 29.203C16.2567 29.4877 15.5701 30.62 13.6353 31.5222ZM6.7453 25.7895C7.03006 25.6572 8.16217 26.3434 9.06444 28.2783C9.21764 28.6069 9.34702 28.9414 9.44991 29.2697C8.76085 29.3348 8.14069 29.6396 7.67358 30.0997C7.48795 29.8095 7.31452 29.4948 7.16116 29.1659C6.76827 28.3233 6.53022 27.4402 6.50795 26.7432C6.4885 26.1337 6.6392 25.8389 6.7453 25.7895ZM3.09608 29.7719C3.19358 29.5039 4.34405 29.2017 6.15452 29.7759C6.39624 30.2765 6.67842 30.7494 6.98272 31.1634C6.97764 31.1769 6.9728 31.1907 6.96788 31.2044C6.46866 31.3259 5.94881 31.5066 5.44178 31.7348C3.68616 31.0105 2.99905 30.0385 3.09608 29.7719ZM4.28538 35.4056C3.67569 35.4248 3.38116 35.2743 3.3317 35.1683C3.19897 34.8837 3.88569 33.7513 5.82045 32.8491C6.14905 32.6959 6.48358 32.5666 6.81186 32.4637C6.87702 33.1528 7.18186 33.773 7.64194 34.2401C7.35163 34.4258 7.03678 34.5991 6.70803 34.7524C5.86553 35.1453 4.98249 35.3834 4.28538 35.4056ZM7.31413 38.8174C7.04756 38.7204 6.74467 37.5693 7.31827 35.7588C7.81858 35.5173 8.29186 35.235 8.70569 34.9309C8.71905 34.9359 8.73241 34.9405 8.74585 34.9454C8.86733 35.4444 9.04897 35.9653 9.27686 36.4719C8.55334 38.228 7.58405 38.9164 7.31413 38.8174ZM12.7105 38.5818C12.4262 38.7148 11.2936 38.0279 10.3913 36.093C10.2383 35.7649 10.1086 35.4301 10.0056 35.1016C10.6949 35.0365 11.3153 34.7316 11.7825 34.2714C11.9682 34.5618 12.1415 34.8771 12.2947 35.2055C12.6876 36.048 12.9256 36.9311 12.9479 37.6281C12.9673 38.2376 12.8165 38.5323 12.7105 38.5818ZM24.1228 38.8259H18.3005C16.8165 38.8259 15.3768 38.4203 14.1201 37.6518C14.1198 37.6314 14.1197 37.6115 14.119 37.5908C14.103 37.0852 14.0026 36.5242 13.8292 35.9461C13.9399 35.9695 14.049 35.9902 14.1565 36.0084C14.2185 36.128 14.2877 36.2438 14.3655 36.3541C14.8192 36.9962 15.4958 37.4233 16.2705 37.5566C16.3662 37.5697 16.8254 37.6616 16.9135 37.6563C17.2679 37.6563 17.5825 37.4009 17.6446 37.0399L17.7335 36.5231C17.8331 35.944 17.7546 35.3437 17.5134 34.8098C17.7062 33.8616 16.8422 32.7692 15.2869 31.9405C16.7057 31.0086 17.6771 29.7611 17.186 28.7079C17.018 28.3477 16.5283 27.7487 15.133 27.7945C14.6277 27.8106 14.0672 27.9109 13.4894 28.084C13.8656 26.3092 13.557 24.9164 12.6461 24.4957C13.739 22.9086 14.3369 21.0065 14.3369 19.0742C14.3369 17.7765 14.0723 16.4965 13.5644 15.3116H14.8486C15.1722 15.3116 15.4345 15.0492 15.4345 14.7256C15.4345 14.402 15.1722 14.1397 14.8486 14.1397H12.9635L11.4531 11.6231C11.3844 11.4605 11.4458 11.3519 11.6206 11.3273H30.8026C30.9775 11.352 31.039 11.4605 30.9701 11.6231L29.4598 14.1397H17.5829C17.2593 14.1397 16.9969 14.402 16.9969 14.7256C16.9969 15.0492 17.2593 15.3116 17.5829 15.3116H28.8588C28.351 16.4965 28.0863 17.7765 28.0863 19.0742C28.0863 21.2078 28.8132 23.306 30.1331 24.9823C31.4329 26.633 32.1486 28.6991 32.1486 30.8002C32.1486 35.2255 28.5483 38.8259 24.1228 38.8259ZM32.8126 20.7019C33.7819 20.7019 34.5704 21.4904 34.5704 22.4596V28.3187C34.5704 29.1159 34.0261 29.7993 33.2899 30.0096C33.1316 27.9236 32.352 25.9062 31.0538 24.2573C30.235 23.2174 29.6778 21.992 29.4208 20.7019H32.8126Z" fill="#A6A182"/>
<path d="M21.7396 32.5754C21.4502 32.286 20.9794 32.2861 20.6899 32.5754L20.3191 32.9463C19.7632 33.5021 19.457 34.2413 19.457 35.0275C19.457 35.8138 19.7632 36.5529 20.3191 37.1089L20.6899 37.4796C20.9793 37.769 21.4502 37.769 21.7395 37.4796L22.1105 37.1088C22.6664 36.5528 22.9726 35.8136 22.9726 35.0275C22.9726 34.2413 22.6664 33.5021 22.1105 32.9461L21.7396 32.5754ZM21.2819 36.2803L21.2148 36.3473L21.1478 36.2803C20.8132 35.9457 20.6289 35.5008 20.6289 35.0276C20.6289 34.5544 20.8132 34.1095 21.1478 33.775C21.1478 33.775 21.1479 33.775 21.1479 33.7749L21.2148 33.7079L21.2818 33.775C21.6164 34.1096 21.8007 34.5545 21.8007 35.0277C21.8007 35.5007 21.6164 35.9457 21.2819 36.2803Z" fill="#A6A182"/>
<path d="M28.4656 33.6396C28.4319 33.4443 28.3242 33.2737 28.1624 33.1593C27.88 32.9217 27.4126 33.0743 27.0915 33.123C26.3167 33.2563 25.6402 33.6833 25.1865 34.3255C24.7329 34.9676 24.5565 35.748 24.6899 36.5229L24.7789 37.0399C24.841 37.4007 25.1555 37.6561 25.51 37.6561C25.5954 37.6617 26.0602 37.5689 26.1529 37.5564C26.9278 37.4231 27.6043 36.996 28.0578 36.3539C28.5114 35.7117 28.6879 34.9313 28.5546 34.1564L28.4656 33.6396ZM27.1007 35.6779C26.8277 36.0643 26.4205 36.3214 25.9541 36.4016L25.8607 36.4177L25.8447 36.3243C25.7645 35.8579 25.8706 35.3882 26.1436 35.0018C26.4167 34.6152 26.8239 34.3582 27.2902 34.2779L27.3836 34.2618L27.3996 34.3553C27.4799 34.8216 27.3737 35.2913 27.1007 35.6779Z" fill="#A6A182"/>
</g>
<defs>
<clipPath id="clip0_110_381">
<rect width="40" height="40" fill="white"/>
</clipPath>
</defs>
</svg>
