<svg width="40" height="40" viewBox="0 0 40 40" fill="none" xmlns="http://www.w3.org/2000/svg">
<g clip-path="url(#clip0_172_298)">
<path d="M4.98506 0.604889C5.03782 0.604615 5.09058 0.604341 5.14494 0.604059C5.32208 0.603331 5.4992 0.603716 5.67634 0.604096C5.80449 0.603804 5.93264 0.603444 6.06078 0.603023C6.41321 0.602066 6.76564 0.602088 7.11807 0.602272C7.49805 0.602304 7.87803 0.601442 8.25802 0.600701C9.00258 0.599402 9.74715 0.598973 10.4917 0.598886C11.0969 0.598812 11.702 0.598491 12.3071 0.597996C14.0223 0.596619 15.7375 0.595899 17.4527 0.596016C17.5914 0.596025 17.5914 0.596025 17.733 0.596035C17.8256 0.596041 17.9182 0.596048 18.0136 0.596054C19.5146 0.596118 21.0156 0.594622 22.5166 0.592419C24.0573 0.590176 25.598 0.589096 27.1387 0.589231C28.0039 0.589283 28.8691 0.588852 29.7343 0.587172C30.4709 0.585751 31.2075 0.585408 31.9442 0.58647C32.32 0.586981 32.6959 0.586987 33.0717 0.585634C33.4159 0.584408 33.76 0.584626 34.1041 0.585991C34.2286 0.586231 34.353 0.585945 34.4775 0.585075C35.2079 0.58031 35.7727 0.587713 36.3471 1.09099C36.3892 1.14185 36.4312 1.19271 36.4746 1.24511C36.5179 1.29576 36.5612 1.34642 36.6058 1.39861C36.9399 1.88349 36.9041 2.38002 36.904 2.94961C36.9043 3.1091 36.9071 3.26842 36.9101 3.42788C36.9121 4.11426 36.8731 4.56749 36.409 5.09703C35.9384 5.4866 35.6091 5.61925 35 5.70311C34.9922 5.76634 34.9845 5.82957 34.9765 5.89471C34.7872 7.43576 34.5967 8.97666 34.405 10.5174C34.3124 11.2625 34.2201 12.0077 34.1287 12.753C34.049 13.4028 33.9685 14.0526 33.8873 14.7022C33.8443 15.046 33.8017 15.3898 33.7599 15.7336C33.7205 16.0579 33.6802 16.382 33.6391 16.7061C33.6243 16.8245 33.6098 16.9429 33.5957 17.0614C33.4954 17.9008 33.3432 18.6498 32.8906 19.375C32.9538 19.3743 33.0171 19.3736 33.0822 19.3729C33.6798 19.3666 34.2775 19.3619 34.8751 19.3588C35.1823 19.3572 35.4895 19.355 35.7967 19.3514C36.0936 19.348 36.3904 19.3461 36.6873 19.3453C36.8001 19.3448 36.913 19.3436 37.0259 19.3419C37.7415 19.3316 38.2846 19.3481 38.8471 19.841C38.8892 19.8918 38.9312 19.9427 38.9746 19.9951C39.0179 20.0458 39.0612 20.0964 39.1058 20.1486C39.4399 20.6335 39.4041 21.13 39.404 21.6996C39.4043 21.8591 39.4071 22.0184 39.4101 22.1779C39.4121 22.8643 39.3731 23.3175 38.909 23.847C38.4384 24.2366 38.1091 24.3692 37.5 24.4531C37.4922 24.5163 37.4845 24.5796 37.4765 24.6447C37.2872 26.1858 37.0967 27.7267 36.905 29.2674C36.8124 30.0125 36.7201 30.7577 36.6287 31.503C36.549 32.1528 36.4685 32.8026 36.3873 33.4522C36.3443 33.796 36.3017 34.1398 36.2599 34.4836C36.2205 34.8079 36.1802 35.132 36.1391 35.4561C36.1243 35.5745 36.1098 35.6929 36.0957 35.8114C35.9622 36.9286 35.7267 37.9908 34.8193 38.7353C34.2922 39.1197 33.7237 39.3842 33.0673 39.3857C32.9732 39.3861 32.8792 39.3865 32.7823 39.3869C32.6774 39.3869 32.5725 39.387 32.4675 39.387C32.3565 39.3873 32.2455 39.3877 32.1345 39.3881C31.8286 39.389 31.5227 39.3894 31.2169 39.3898C30.8873 39.3902 30.5576 39.3912 30.228 39.392C29.4315 39.3939 28.635 39.3951 27.8385 39.3961C27.6135 39.3964 27.3885 39.3967 27.1635 39.397C25.7662 39.3989 24.3689 39.4007 22.9716 39.4016C22.6479 39.4019 22.3242 39.4021 22.0005 39.4023C21.8798 39.4024 21.8798 39.4024 21.7566 39.4025C20.4539 39.4035 19.1511 39.4061 17.8484 39.4094C16.5107 39.4127 15.173 39.4145 13.8354 39.4149C13.0844 39.4152 12.3334 39.4161 11.5824 39.4187C10.9427 39.4209 10.3029 39.4217 9.66319 39.4208C9.33696 39.4204 9.01077 39.4207 8.68454 39.4226C8.38538 39.4244 8.08627 39.4243 7.78711 39.4228C7.62867 39.4225 7.47023 39.4241 7.3118 39.4258C6.35414 39.4175 5.53291 39.1171 4.84376 38.4375C4.16023 37.6301 4.00491 36.6555 3.8836 35.6371C3.86825 35.5146 3.8528 35.3921 3.83728 35.2696C3.79572 34.9397 3.7554 34.6096 3.71531 34.2795C3.67308 33.9336 3.6297 33.5878 3.58644 33.242C3.50485 32.5883 3.42428 31.9345 3.34409 31.2806C3.25269 30.5357 3.16013 29.791 3.06747 29.0462C2.87704 27.5154 2.68805 25.9843 2.50001 24.4531C2.44656 24.4434 2.39311 24.4336 2.33804 24.4236C2.26782 24.4103 2.1976 24.3969 2.12525 24.3832C2.05569 24.3703 1.98613 24.3573 1.91445 24.3439C1.41647 24.2242 1.0643 23.8476 0.781259 23.4375C0.564491 22.9888 0.595939 22.5397 0.596056 22.0504C0.595715 21.8909 0.592877 21.7316 0.589914 21.5721C0.58788 20.8857 0.62697 20.4325 1.09101 19.9029C1.14187 19.8608 1.19273 19.8188 1.24513 19.7754C1.29578 19.7321 1.34644 19.6888 1.39863 19.6442C1.74526 19.4053 2.04663 19.3549 2.46364 19.3501C2.56527 19.3485 2.66691 19.347 2.77163 19.3454C2.88179 19.3444 2.99196 19.3435 3.10212 19.3426C3.21542 19.3412 3.32871 19.3396 3.442 19.3381C3.73933 19.3341 4.03665 19.331 4.33398 19.328C4.63773 19.3249 4.94147 19.3209 5.24522 19.317C5.84056 19.3095 6.4359 19.3029 7.03126 19.2969C7.00578 19.252 6.9803 19.2072 6.95405 19.1611C6.58996 18.4533 6.50495 17.7307 6.40626 16.9531C6.38159 16.7644 6.35692 16.5758 6.33225 16.3871C6.25203 15.7686 6.17517 15.1498 6.09853 14.5309C6.05992 14.2195 6.02103 13.9082 5.98217 13.5969C5.90894 13.0098 5.83596 12.4228 5.76306 11.8357C5.67993 11.1662 5.59652 10.4968 5.51309 9.82739C5.34175 8.45267 5.17077 7.07791 5.00001 5.70311C4.94656 5.69336 4.89311 5.68361 4.83804 5.67357C4.73271 5.6536 4.73271 5.6536 4.62525 5.63323C4.52091 5.61377 4.52091 5.61377 4.41445 5.59392C3.91647 5.47418 3.5643 5.09756 3.28126 4.68749C3.06449 4.23878 3.09594 3.78969 3.09606 3.30037C3.09572 3.14088 3.09288 2.98156 3.08991 2.8221C3.08788 2.13572 3.12697 1.68249 3.59101 1.15294C3.64187 1.11085 3.69273 1.06875 3.74513 1.02538C3.79578 0.982075 3.84644 0.93877 3.89863 0.894153C4.25391 0.649361 4.55761 0.60539 4.98506 0.604889ZM4.53126 2.10936C4.33748 2.42266 4.34893 2.76126 4.3506 3.12011C4.34934 3.17404 4.34808 3.22796 4.34678 3.28353C4.34643 3.65276 4.40016 3.91288 4.60938 4.21874C4.87276 4.34979 5.08675 4.39443 5.37917 4.39378C5.45333 4.39399 5.52749 4.39421 5.6039 4.39443C5.68431 4.39387 5.76473 4.39331 5.84758 4.39273C5.93298 4.39275 6.01838 4.39277 6.10637 4.3928C6.38832 4.39269 6.67027 4.39147 6.95222 4.39025C7.14784 4.38996 7.34346 4.38973 7.53908 4.38958C8.00113 4.38904 8.46319 4.38781 8.92524 4.38624C9.50307 4.38432 10.0809 4.38348 10.6587 4.38262C11.6892 4.38094 12.7196 4.37831 13.75 4.37499C13.7728 4.2765 13.7955 4.178 13.819 4.07653C13.9008 3.72224 14.0415 3.47094 14.3573 3.27217C14.5745 3.18594 14.7472 3.18299 14.9809 3.18222C15.1186 3.18122 15.1186 3.18122 15.259 3.1802C15.4097 3.18031 15.4097 3.18031 15.5633 3.18042C15.6704 3.17995 15.7774 3.17942 15.8845 3.17883C16.175 3.17745 16.4656 3.17708 16.7561 3.17698C16.9377 3.17687 17.1193 3.17653 17.3009 3.17612C17.9346 3.17468 18.5684 3.17404 19.2021 3.17416C19.7925 3.17425 20.3829 3.17261 20.9733 3.17014C21.4805 3.16809 21.9876 3.16726 22.4948 3.16736C22.7976 3.1674 23.1004 3.16695 23.4032 3.1653C23.688 3.16378 23.9728 3.16377 24.2577 3.16491C24.4117 3.16515 24.5658 3.16385 24.7198 3.1625C25.5653 3.1685 25.5653 3.1685 25.9375 3.51561C26.151 3.79531 26.1985 4.03164 26.25 4.37499C27.3828 4.38047 28.5155 4.38458 29.6483 4.38713C30.1743 4.38834 30.7003 4.38999 31.2262 4.39267C31.7338 4.39526 32.2414 4.39662 32.7489 4.39723C32.9426 4.39766 33.1363 4.3985 33.33 4.39977C33.6012 4.40147 33.8724 4.4017 34.1436 4.4016C34.2638 4.40286 34.2638 4.40286 34.3864 4.40415C34.8049 4.40233 35.1098 4.38228 35.4688 4.14061C35.6625 3.82732 35.6511 3.48872 35.6494 3.12987C35.6507 3.07594 35.6519 3.02201 35.6532 2.96645C35.6536 2.59722 35.5999 2.33709 35.3906 2.03124C35.0853 1.87193 34.8259 1.85536 34.4847 1.85511C34.4338 1.85486 34.3828 1.85461 34.3303 1.85435C34.1593 1.8537 33.9883 1.85416 33.8173 1.85462C33.6935 1.85439 33.5698 1.85408 33.446 1.85372C33.1058 1.85291 32.7655 1.85308 32.4253 1.85342C32.0584 1.85361 31.6915 1.85291 31.3246 1.85232C30.6058 1.85132 29.887 1.85118 29.1681 1.85137C28.584 1.85151 27.9999 1.85137 27.4157 1.85104C27.3327 1.85099 27.2496 1.85094 27.164 1.8509C26.9953 1.8508 26.8265 1.85071 26.6578 1.85061C25.0745 1.84976 23.4913 1.84993 21.9081 1.85041C20.459 1.85081 19.0099 1.84993 17.5609 1.84845C16.0736 1.84693 14.5864 1.84629 13.0992 1.84658C12.264 1.84673 11.4287 1.84653 10.5935 1.84543C9.8825 1.8445 9.1715 1.84439 8.4605 1.84534C8.09763 1.8458 7.73476 1.84588 7.37189 1.84495C7.03981 1.8441 6.70775 1.84434 6.37567 1.84544C6.25544 1.84564 6.13521 1.84545 6.01498 1.84483C5.85167 1.84404 5.68842 1.8447 5.52512 1.84571C5.43437 1.84571 5.34363 1.8457 5.25014 1.8457C4.96463 1.87913 4.77623 1.96102 4.53126 2.10936ZM15.0781 4.37499C15.1616 4.97714 15.1616 4.97714 15.5469 5.39061C16.0229 5.61638 16.4877 5.65902 17.0072 5.65532C17.0793 5.65573 17.1514 5.65614 17.2257 5.65656C17.462 5.65758 17.6983 5.65691 17.9346 5.65612C18.1 5.65627 18.2655 5.6565 18.431 5.6568C18.7769 5.65714 19.1228 5.65664 19.4688 5.65554C19.9109 5.65421 20.353 5.65498 20.7951 5.65638C21.1365 5.65723 21.4779 5.65696 21.8193 5.65635C21.9823 5.6562 22.1452 5.65638 22.3082 5.65693C22.5364 5.65753 22.7646 5.65662 22.9929 5.65532C23.0594 5.65579 23.1259 5.65626 23.1944 5.65675C23.6745 5.65172 24.1902 5.59626 24.5805 5.29102C24.8658 4.98376 24.8586 4.81793 24.9219 4.37499C21.6734 4.37499 18.425 4.37499 15.0781 4.37499ZM6.40626 5.62499C6.45097 6.40274 6.52097 7.17224 6.61738 7.94553C6.63077 8.05475 6.64413 8.16397 6.65746 8.2732C6.69329 8.56585 6.72956 8.85845 6.76598 9.15103C6.78879 9.33436 6.81153 9.51771 6.83426 9.70106C6.9056 10.2764 6.97723 10.8517 7.04925 11.427C7.13203 12.0882 7.21382 12.7495 7.29478 13.4109C7.35773 13.9247 7.42158 14.4384 7.48608 14.952C7.52446 15.2578 7.56247 15.5636 7.59955 15.8695C7.63438 16.1567 7.67032 16.4438 7.70709 16.7308C7.72662 16.8854 7.74502 17.0402 7.76338 17.195C7.86615 17.9831 8.04543 18.518 8.67585 19.0308C9.22688 19.4283 9.8868 19.3856 10.5371 19.3799C10.6513 19.3793 10.6513 19.3793 10.7678 19.3788C10.9546 19.3779 11.1414 19.3766 11.3281 19.375C11.2564 19.2911 11.1847 19.2073 11.113 19.1235C11.0701 19.0734 11.0272 19.0232 10.9829 18.9715C10.8884 18.8618 10.7925 18.7531 10.6961 18.645C9.79287 17.5909 9.43792 16.3647 9.42384 14.9951C9.42274 14.9166 9.42163 14.838 9.4205 14.7571C9.42712 13.7309 9.73536 12.7834 10.4297 12.0117C11.2191 11.2725 12.3018 10.9651 13.3594 10.9375C13.7 10.9527 14.0355 10.9824 14.375 11.0156C14.375 10.4742 14.375 9.9328 14.375 9.37499C14.7875 9.37499 15.2 9.37499 15.625 9.37499C15.625 9.9164 15.625 10.4578 15.625 11.0156C15.8202 11.0102 15.8202 11.0102 16.0193 11.0046C17.824 10.9689 17.824 10.9689 18.5156 11.3281C18.5847 11.3631 18.6538 11.398 18.725 11.434C19.1834 11.6877 19.6811 12.0183 19.9219 12.5C19.9734 12.5 20.025 12.5 20.0781 12.5C20.1616 12.4089 20.2407 12.3137 20.3174 12.2168C21.0306 11.3827 21.9753 11.0611 23.0411 10.9561C23.4911 10.9223 23.9272 10.9647 24.375 11.0156C24.375 10.4742 24.375 9.9328 24.375 9.37499C24.7875 9.37499 25.2 9.37499 25.625 9.37499C25.625 9.9164 25.625 10.4578 25.625 11.0156C25.8202 11.0102 25.8202 11.0102 26.0193 11.0046C27.824 10.9689 27.824 10.9689 28.5156 11.3281C28.5847 11.3631 28.6538 11.398 28.725 11.434C29.6694 11.9567 30.1592 12.7056 30.4825 13.728C30.8266 15.2309 30.5131 16.8475 29.7061 18.1414C29.4789 18.47 29.2039 18.7563 28.9237 19.0396C28.7483 19.2025 28.7483 19.2025 28.6719 19.375C28.9307 19.3796 29.1894 19.3823 29.4483 19.3848C29.5206 19.3861 29.593 19.3874 29.6675 19.3887C30.4301 19.3941 31.02 19.3126 31.6089 18.7973C32.2348 18.1668 32.2413 17.1278 32.3432 16.2914C32.357 16.1813 32.3709 16.0712 32.3849 15.9611C32.4222 15.6652 32.4588 15.3692 32.4952 15.0731C32.5336 14.762 32.5727 14.4509 32.6116 14.1399C32.6768 13.6182 32.7415 13.0964 32.806 12.5747C32.8804 11.9724 32.9555 11.3702 33.0309 10.768C33.1037 10.1868 33.1761 9.60556 33.2483 9.02429C33.2789 8.77768 33.3096 8.53107 33.3405 8.28448C33.3768 7.99422 33.4127 7.70392 33.4484 7.41359C33.4678 7.25684 33.4874 7.10013 33.5071 6.94343C33.5612 6.50113 33.6107 6.07073 33.5938 5.62499C32.6077 5.60686 31.6216 5.59299 30.6354 5.58451C30.1775 5.58044 29.7196 5.57492 29.2617 5.56605C28.8194 5.55754 28.3773 5.55289 27.935 5.55087C27.7666 5.54943 27.5981 5.54661 27.4298 5.54239C26.514 5.4879 26.514 5.4879 25.6855 5.79707C25.4962 5.99996 25.4962 5.99996 25.3603 6.21847C25.1252 6.56904 24.7646 6.667 24.375 6.79686C24.2566 6.80445 24.138 6.80774 24.0194 6.80836C23.9464 6.80892 23.8735 6.80948 23.7984 6.81006C23.6786 6.81037 23.6786 6.81037 23.5563 6.81069C23.43 6.81146 23.43 6.81146 23.301 6.81225C23.0216 6.81379 22.7422 6.8147 22.4628 6.81548C22.3673 6.8158 22.2719 6.81612 22.1736 6.81644C21.6682 6.81807 21.1629 6.81919 20.6575 6.81992C20.1361 6.82071 19.6146 6.82347 19.0932 6.82658C18.6919 6.82862 18.2905 6.82927 17.8892 6.82955C17.697 6.82993 17.5048 6.83084 17.3127 6.83229C17.0432 6.8342 16.7738 6.83412 16.5043 6.83358C16.386 6.83508 16.386 6.83508 16.2652 6.83661C15.6119 6.83184 15.0666 6.66259 14.5801 6.21093C14.5311 6.16661 14.4822 6.1223 14.4318 6.07665C14.2969 5.93749 14.2969 5.93749 14.2169 5.77476C14.0012 5.56547 13.8401 5.58805 13.5475 5.58611C13.4413 5.58779 13.4413 5.58779 13.3331 5.58951C13.2584 5.58947 13.1837 5.58942 13.1067 5.58937C12.8594 5.58959 12.6121 5.59202 12.3648 5.59447C12.1935 5.59505 12.0222 5.5955 11.8509 5.59581C11.3996 5.597 10.9485 5.60008 10.4973 5.60353C10.037 5.60673 9.57668 5.60815 9.11637 5.60973C8.21299 5.61308 7.30963 5.61842 6.40626 5.62499ZM11.4032 12.8686C10.7575 13.539 10.6564 14.3014 10.6664 15.1963C10.7 16.1504 10.9993 16.8897 11.5625 17.6562C11.6016 17.7115 11.6407 17.7668 11.6809 17.8238C12.3837 18.7236 13.4963 19.2014 14.5996 19.3652C15.883 19.4486 17.0003 19.026 17.9688 18.2031C18.8155 17.3938 19.2934 16.3656 19.3338 15.1961C19.3426 14.348 19.2633 13.5727 18.6539 12.9294C18.0921 12.4544 17.4537 12.2378 16.7236 12.2461C16.6443 12.2452 16.6443 12.2452 16.5633 12.2443C16.1981 12.2457 15.8949 12.3193 15.5469 12.4219C14.8626 12.4851 14.2383 12.3993 13.5754 12.2388C12.8375 12.0637 11.9669 12.3935 11.4032 12.8686ZM21.4032 12.8686C20.7575 13.539 20.6564 14.3014 20.6664 15.1963C20.7 16.1504 20.9993 16.8897 21.5625 17.6562C21.6016 17.7115 21.6407 17.7668 21.6809 17.8238C22.3837 18.7236 23.4963 19.2014 24.5996 19.3652C25.883 19.4486 27.0003 19.026 27.9688 18.2031C28.8155 17.3938 29.2934 16.3656 29.3338 15.1961C29.3426 14.348 29.2633 13.5727 28.6539 12.9294C28.0921 12.4544 27.4537 12.2378 26.7236 12.2461C26.6443 12.2452 26.6443 12.2452 26.5633 12.2443C26.1981 12.2457 25.895 12.3193 25.5469 12.4219C24.8626 12.4851 24.2383 12.3993 23.5754 12.2388C22.8375 12.0637 21.9669 12.3935 21.4032 12.8686ZM19.9219 17.7344C19.8226 17.8742 19.7292 18.0183 19.6387 18.1641C19.3878 18.5523 19.1247 18.8715 18.7866 19.1855C18.7298 19.2406 18.7298 19.2406 18.6719 19.2969C18.6719 19.3226 18.6719 19.3484 18.6719 19.375C19.5484 19.375 20.425 19.375 21.3281 19.375C21.1734 19.1945 21.0188 19.0141 20.8594 18.8281C20.6123 18.5239 20.3707 18.2233 20.1709 17.8857C20.1403 17.8358 20.1097 17.7858 20.0781 17.7344C20.0266 17.7344 19.975 17.7344 19.9219 17.7344ZM2.03126 20.8594C1.83748 21.1727 1.84893 21.5113 1.8506 21.8701C1.84934 21.924 1.84808 21.978 1.84678 22.0335C1.84643 22.4028 1.90016 22.6629 2.10938 22.9687C2.40297 23.1198 2.64667 23.1443 2.97408 23.1438C3.11687 23.1441 3.11687 23.1441 3.26255 23.1444C3.36739 23.1439 3.47223 23.1433 3.57707 23.1427C3.68796 23.1427 3.79886 23.1427 3.90975 23.1428C4.21028 23.1428 4.51079 23.1419 4.81132 23.1408C5.12558 23.1399 5.43984 23.1398 5.7541 23.1396C6.34897 23.1391 6.94383 23.1378 7.5387 23.1362C8.21603 23.1345 8.89336 23.1336 9.57069 23.1329C10.9638 23.1312 12.3569 23.1285 13.75 23.125C13.7841 22.9772 13.7841 22.9772 13.819 22.8265C13.9008 22.4722 14.0415 22.2209 14.3573 22.0222C14.5745 21.9359 14.7472 21.933 14.9809 21.9322C15.1186 21.9312 15.1186 21.9312 15.259 21.9302C15.4097 21.9303 15.4097 21.9303 15.5633 21.9304C15.6704 21.9299 15.7774 21.9294 15.8845 21.9288C16.175 21.9274 16.4656 21.9271 16.7561 21.927C16.9377 21.9269 17.1193 21.9265 17.3009 21.9261C17.9346 21.9247 18.5684 21.924 19.2021 21.9242C19.7925 21.9243 20.3829 21.9226 20.9733 21.9201C21.4805 21.9181 21.9876 21.9173 22.4948 21.9174C22.7976 21.9174 23.1004 21.917 23.4032 21.9153C23.688 21.9138 23.9728 21.9138 24.2577 21.9149C24.4117 21.9151 24.5658 21.9138 24.7198 21.9125C25.5653 21.9185 25.5653 21.9185 25.9375 22.2656C26.151 22.5453 26.1985 22.7816 26.25 23.125C27.7087 23.1305 29.1674 23.1346 30.6262 23.1371C31.3035 23.1383 31.9808 23.14 32.6581 23.1427C33.2485 23.145 33.8389 23.1465 34.4293 23.147C34.7419 23.1473 35.0544 23.1481 35.367 23.1498C35.6613 23.1514 35.9556 23.1518 36.25 23.1515C36.3579 23.1516 36.4658 23.152 36.5737 23.1529C36.7213 23.1541 36.8689 23.1537 37.0165 23.1532C37.0991 23.1534 37.1816 23.1536 37.2666 23.1538C37.5431 23.1197 37.7307 23.0331 37.9688 22.8906C38.1625 22.5773 38.1511 22.2387 38.1494 21.8799C38.1507 21.8259 38.1519 21.772 38.1532 21.7164C38.1536 21.3472 38.0999 21.0871 37.8906 20.7812C37.5696 20.6088 37.2627 20.6029 36.9066 20.6051C36.8472 20.6049 36.7878 20.6046 36.7266 20.6043C36.5269 20.6037 36.3272 20.6042 36.1275 20.6046C35.9831 20.6044 35.8387 20.6041 35.6943 20.6037C35.2971 20.6029 34.8998 20.6031 34.5025 20.6034C34.0743 20.6036 33.6461 20.6029 33.2178 20.6023C32.3787 20.6013 31.5396 20.6012 30.7004 20.6014C30.0186 20.6015 29.3367 20.6014 28.6548 20.601C28.5579 20.601 28.4609 20.6009 28.361 20.6009C28.1641 20.6008 27.9672 20.6007 27.7702 20.6006C26.4475 20.6 25.1247 20.5997 23.8019 20.6C23.7502 20.6 23.6984 20.6 23.6451 20.6C23.3829 20.6001 23.1207 20.6002 22.8584 20.6002C22.7803 20.6003 22.7803 20.6003 22.7006 20.6003C22.5953 20.6003 22.49 20.6003 22.3847 20.6004C20.7456 20.6008 19.1066 20.6002 17.4675 20.5987C15.6265 20.5971 13.7854 20.5963 11.9444 20.5966C10.9694 20.5967 9.99445 20.5965 9.01949 20.5954C8.18954 20.5945 7.3596 20.5944 6.52965 20.5953C6.10602 20.5958 5.6824 20.5959 5.25877 20.5949C4.87118 20.5941 4.4836 20.5943 4.09601 20.5954C3.95559 20.5956 3.81517 20.5955 3.67475 20.5948C3.48421 20.594 3.29374 20.5947 3.1032 20.5957C3.0484 20.5951 2.99359 20.5946 2.93712 20.594C2.57979 20.5979 2.33469 20.6712 2.03126 20.8594ZM15.0781 23.125C15.1616 23.7271 15.1616 23.7271 15.5469 24.1406C16.0229 24.3664 16.4877 24.409 17.0072 24.4053C17.0793 24.4057 17.1514 24.4061 17.2257 24.4066C17.462 24.4076 17.6983 24.4069 17.9346 24.4061C18.1 24.4063 18.2655 24.4065 18.431 24.4068C18.7769 24.4071 19.1228 24.4066 19.4688 24.4055C19.9109 24.4042 20.353 24.405 20.7951 24.4064C21.1365 24.4072 21.4779 24.407 21.8193 24.4064C21.9823 24.4062 22.1452 24.4064 22.3082 24.4069C22.5364 24.4075 22.7646 24.4066 22.9929 24.4053C23.0594 24.4058 23.1259 24.4063 23.1944 24.4068C23.6745 24.4017 24.1902 24.3463 24.5805 24.041C24.8658 23.7338 24.8586 23.5679 24.9219 23.125C21.6734 23.125 18.425 23.125 15.0781 23.125ZM3.90626 24.375C3.96025 25.4475 4.09449 26.5075 4.22852 27.5726C4.25277 27.7669 4.27699 27.9612 4.30119 28.1556C4.35167 28.5602 4.40239 28.9648 4.45329 29.3694C4.51212 29.8372 4.57051 30.3051 4.62862 30.7731C4.68476 31.2249 4.74127 31.6767 4.79794 32.1285C4.82196 32.3203 4.84588 32.5121 4.8697 32.704C4.90285 32.9705 4.93641 33.2369 4.9701 33.5034C4.98484 33.6229 4.98484 33.6229 4.99987 33.7449C5.00907 33.8169 5.01827 33.889 5.02774 33.9632C5.03563 34.0261 5.04353 34.089 5.05166 34.1539C5.06435 34.2978 5.06435 34.2978 5.15626 34.375C5.31248 34.3782 5.46879 34.3783 5.62501 34.375C5.62574 34.3275 5.62647 34.28 5.62722 34.2311C5.67423 31.7845 6.30248 29.7346 8.04688 27.9687C8.0914 27.9186 8.13591 27.8684 8.18177 27.8168C9.27073 26.6161 11.2146 25.782 12.817 25.6893C14.8239 25.6513 16.5275 25.8644 18.2504 26.9556C18.4973 27.0554 18.6454 26.9994 18.9063 26.9531C20.9562 26.8351 22.7473 27.0953 24.5004 28.2056C24.7473 28.3054 24.8954 28.2494 25.1563 28.2031C26.3777 28.1328 27.5824 28.1264 28.75 28.5156C28.8381 28.5439 28.9263 28.5722 29.017 28.6014C29.9552 28.932 30.8017 29.4402 31.5625 30.0781C31.6067 30.111 31.6509 30.144 31.6965 30.1779C32.901 31.1104 33.5727 32.5883 34.0625 33.9844C34.1138 34.1149 34.1655 34.2453 34.2188 34.375C34.5315 34.3822 34.5315 34.3822 34.8438 34.375C34.9683 34.2504 34.9541 34.1077 34.9758 33.9352C34.9907 33.8179 34.9907 33.8179 35.006 33.6983C35.0167 33.6117 35.0273 33.5252 35.0383 33.4361C35.0498 33.3455 35.0612 33.2549 35.073 33.1616C35.1044 32.9124 35.1355 32.6631 35.1664 32.4139C35.1989 32.153 35.2316 31.8922 35.2643 31.6314C35.3193 31.1928 35.374 30.7542 35.4285 30.3156C35.4914 29.8092 35.5548 29.3029 35.6184 28.7967C35.6731 28.3619 35.7275 27.9271 35.7817 27.4923C35.814 27.2327 35.8465 26.9731 35.8791 26.7135C35.9156 26.4235 35.9515 26.1334 35.9874 25.8433C35.9983 25.7577 36.0091 25.6722 36.0203 25.584C36.0701 25.1776 36.1064 24.7845 36.0938 24.375C34.7817 24.3567 33.4697 24.3429 32.1576 24.3345C31.5483 24.3305 30.939 24.325 30.3298 24.3161C29.7985 24.3082 29.2673 24.3032 28.736 24.3015C28.4549 24.3005 28.1739 24.2981 27.8927 24.2924C27.5783 24.2861 27.2641 24.2859 26.9496 24.2863C26.8572 24.2835 26.7648 24.2807 26.6695 24.2778C26.2809 24.2826 26.0356 24.293 25.7308 24.5478C25.5432 24.754 25.5432 24.754 25.386 24.9689C25.1162 25.3023 24.7756 25.4133 24.375 25.5469C24.2566 25.5545 24.138 25.5577 24.0194 25.5584C23.9464 25.5589 23.8735 25.5595 23.7984 25.5601C23.6786 25.5604 23.6786 25.5604 23.5563 25.5607C23.43 25.5615 23.43 25.5615 23.301 25.5622C23.0216 25.5638 22.7422 25.5647 22.4628 25.5655C22.3673 25.5658 22.2719 25.5661 22.1736 25.5664C21.6682 25.5681 21.1629 25.5692 20.6575 25.5699C20.1361 25.5707 19.6146 25.5735 19.0932 25.5766C18.6919 25.5786 18.2905 25.5793 17.8892 25.5796C17.697 25.5799 17.5048 25.5808 17.3127 25.5823C17.0432 25.5842 16.7738 25.5841 16.5043 25.5836C16.386 25.5851 16.386 25.5851 16.2652 25.5866C15.6119 25.5818 15.0666 25.4126 14.5801 24.9609C14.5311 24.9166 14.4822 24.8723 14.4318 24.8266C14.2969 24.6875 14.2969 24.6875 14.1971 24.5249C14.0741 24.358 14.0741 24.358 13.8751 24.3365C13.8004 24.3368 13.7257 24.3371 13.6488 24.3374C13.563 24.337 13.4772 24.3365 13.3888 24.3361C13.2476 24.3378 13.2476 24.3378 13.1036 24.3395C13.0045 24.3395 12.9054 24.3394 12.8033 24.3394C12.5315 24.3393 12.2597 24.3411 11.9879 24.3433C11.7039 24.3453 11.4199 24.3454 11.1358 24.3458C10.5979 24.3468 10.0601 24.3493 9.52221 24.3525C8.90988 24.356 8.29755 24.3577 7.68521 24.3593C6.42555 24.3625 5.16591 24.368 3.90626 24.375ZM9.06251 28.75C9.01316 28.793 8.96382 28.836 8.91297 28.8803C7.84179 29.8708 7.02507 31.4864 6.94074 32.9494C6.9278 33.4252 6.93655 33.8995 6.95313 34.375C7.33985 34.375 7.72657 34.375 8.12501 34.375C8.12702 34.2758 8.12904 34.1766 8.13111 34.0744C8.17951 32.4051 8.57134 30.9442 9.77754 29.7385C10.4053 29.1537 11.0762 28.7494 11.875 28.4375C11.9774 28.3975 11.9774 28.3975 12.0819 28.3566C12.984 28.0722 14.1304 28.1036 15.0574 28.2651C15.4561 28.3147 15.6993 28.1542 16.0205 27.9346C16.0732 27.9007 16.126 27.8668 16.1803 27.8319C16.3088 27.7489 16.4358 27.6638 16.5625 27.5781C16.356 27.3716 16.1268 27.3121 15.8545 27.2266C15.7998 27.2093 15.7451 27.1921 15.6888 27.1743C13.3378 26.4747 10.8604 27.1164 9.06251 28.75ZM15.3125 30C15.2632 30.043 15.2138 30.086 15.163 30.1303C14.0841 31.1279 13.4617 32.5615 13.2031 33.9844C13.2031 34.1133 13.2031 34.2422 13.2031 34.375C13.5899 34.375 13.9766 34.375 14.375 34.375C14.3969 34.2796 14.4187 34.1842 14.4412 34.086C14.709 32.9674 15.0916 32.0503 15.8594 31.1719C15.9009 31.1239 15.9424 31.076 15.9851 31.0266C16.5646 30.4029 17.3377 29.9911 18.125 29.6875C18.2223 29.6499 18.2223 29.6499 18.3215 29.6115C19.2301 29.3259 20.3735 29.3524 21.3074 29.5151C21.7061 29.5647 21.9493 29.4042 22.2705 29.1846C22.3232 29.1507 22.376 29.1168 22.4303 29.0819C22.5588 28.9989 22.6858 28.9138 22.8125 28.8281C22.606 28.6216 22.3768 28.5621 22.1045 28.4766C22.0498 28.4593 21.9951 28.4421 21.9388 28.4243C19.5878 27.7247 17.1104 28.3664 15.3125 30ZM11.0938 30.3125C11.0442 30.3467 10.9947 30.381 10.9436 30.4162C10.2377 30.9538 9.76647 31.8176 9.53126 32.6562C9.51747 32.7046 9.50368 32.753 9.48947 32.8028C9.45146 32.9764 9.44424 33.1293 9.44551 33.3069C9.4457 33.3632 9.4459 33.4195 9.4461 33.4775C9.44681 33.5481 9.44752 33.6187 9.44825 33.6914C9.44986 33.917 9.45147 34.1426 9.45313 34.375C10.2524 34.375 11.0516 34.375 11.875 34.375C11.9169 34.1301 11.9588 33.8851 12.002 33.6328C12.2792 32.1325 12.8492 30.8494 13.8525 29.6884C13.9928 29.5555 13.9928 29.5555 13.9844 29.4531C12.8591 29.3868 12.0031 29.6496 11.0938 30.3125ZM23.125 30.1562C23.2151 30.4266 23.2841 30.4696 23.5107 30.6299C23.6832 30.7528 23.8343 30.8655 23.9844 31.0156C24.1839 30.9918 24.3618 30.9419 24.5523 30.8786C25.9866 30.4225 27.6354 30.6213 28.96 31.2939C30.2281 31.9855 31.0007 33.0687 31.5625 34.375C31.975 34.375 32.3875 34.375 32.8125 34.375C32.5457 33.2909 31.9965 32.384 31.25 31.5625C31.207 31.5131 31.164 31.4638 31.1197 31.413C29.95 30.148 28.151 29.4496 26.4548 29.3725C25.2928 29.3826 24.1588 29.6116 23.125 30.1562ZM17.3438 31.5625C17.2942 31.5967 17.2447 31.631 17.1936 31.6662C16.3685 32.2946 15.9539 33.2448 15.7031 34.2187C15.7031 34.2703 15.7031 34.3219 15.7031 34.375C16.0899 34.375 16.4766 34.375 16.875 34.375C16.9282 34.2348 16.9814 34.0946 17.0361 33.9502C17.4119 33.0579 18.0026 32.4171 18.9063 32.0361C19.7436 31.7977 20.7993 31.8447 21.5625 32.2656C22.3824 32.765 22.8086 33.489 23.125 34.375C23.5117 34.375 23.8984 34.375 24.2969 34.375C23.995 33.0087 23.3911 32.0143 22.2104 31.2405C20.6444 30.347 18.7824 30.5137 17.3438 31.5625ZM24.9219 32.1094C25.011 32.3915 25.1137 32.6626 25.2295 32.9346C25.3906 33.3594 25.3906 33.3594 25.625 34.375C27.1203 34.375 28.6156 34.375 30.1563 34.375C29.539 33.2638 28.7731 32.5058 27.5684 32.0654C26.7344 31.8405 25.7428 31.8328 24.9219 32.1094ZM18.4647 33.992C18.3452 34.1454 18.3452 34.1454 18.2813 34.375C19.4156 34.375 20.55 34.375 21.7188 34.375C21.5019 33.9303 21.5019 33.9303 21.1816 33.6133C21.1303 33.5686 21.0789 33.5238 21.026 33.4778C20.1116 32.8279 19.1164 33.2185 18.4647 33.992ZM5.31251 35.625C5.36519 36.8126 5.36519 36.8126 6.01075 37.6465C6.50996 38.0525 7.00791 38.1346 7.64342 38.135C7.73318 38.1353 7.82294 38.1355 7.91542 38.1358C8.01329 38.1357 8.11115 38.1356 8.21197 38.1354C8.31757 38.1356 8.42317 38.1358 8.52878 38.136C8.81853 38.1364 9.10827 38.1364 9.39802 38.1363C9.71069 38.1363 10.0234 38.1368 10.336 38.1371C10.9484 38.1378 11.5608 38.138 12.1733 38.138C12.6711 38.1381 13.1689 38.1382 13.6668 38.1385C15.0785 38.1392 16.4902 38.1395 17.9018 38.1395C18.016 38.1395 18.016 38.1395 18.1324 38.1395C18.2086 38.1395 18.2848 38.1395 18.3633 38.1395C19.598 38.1394 20.8327 38.1402 22.0674 38.1413C23.3354 38.1424 24.6034 38.1429 25.8714 38.1429C26.5833 38.1428 27.295 38.1431 28.0069 38.1439C28.6129 38.1446 29.2189 38.1448 29.825 38.1442C30.1341 38.144 30.4432 38.144 30.7523 38.1447C31.0355 38.1453 31.3187 38.1452 31.6019 38.1445C31.7524 38.1443 31.9028 38.1449 32.0532 38.1455C32.9313 38.142 33.5914 38.0686 34.2334 37.4219C34.6535 36.9102 34.6875 36.2609 34.6875 35.625C24.9938 35.625 15.3 35.625 5.31251 35.625Z" fill="#A6A182"/>
<path d="M26.7969 15C27.2352 15 27.6734 15 28.125 15C28.1785 15.8163 27.9484 16.4768 27.4197 17.1042C26.8911 17.6579 26.2733 18.0747 25.4922 18.1436C25.3281 18.1444 25.1638 18.1357 25 18.125C25 17.6867 25 17.2484 25 16.7969C25.1063 16.7775 25.2127 16.7582 25.3223 16.7383C25.8899 16.6102 26.2258 16.3177 26.5625 15.8594C26.7115 15.5614 26.7396 15.3438 26.7969 15Z" fill="#A6A182"/>
<path d="M16.7969 15C17.2352 15 17.6734 15 18.125 15C18.1785 15.8163 17.9484 16.4768 17.4197 17.1042C16.8911 17.6579 16.2733 18.0747 15.4922 18.1436C15.3281 18.1444 15.1638 18.1357 15 18.125C15 17.6867 15 17.2484 15 16.7969C15.1063 16.7775 15.2127 16.7582 15.3223 16.7383C15.8899 16.6102 16.2258 16.3177 16.5625 15.8594C16.7115 15.5614 16.7396 15.3438 16.7969 15Z" fill="#A6A182"/>
</g>
<defs>
<clipPath id="clip0_172_298">
<rect width="40" height="40" fill="white"/>
</clipPath>
</defs>
</svg>
