<svg width="40" height="40" viewBox="0 0 40 40" fill="none" xmlns="http://www.w3.org/2000/svg">
<g clip-path="url(#clip0_642_557)">
<path d="M39.6137 24.5334C38.4137 22.9334 37.2137 22.9334 34.2803 24.4667L28.547 28C27.747 28.4667 25.947 28.6 24.2803 28.6C24.6137 28 24.4803 27.2667 23.8803 26.4C22.8137 24.8667 21.0137 23.9334 19.0803 23.9334H16.4803C15.0803 23.9334 13.747 23.5334 12.6803 22.7334C10.2748 20.9292 6.51312 22.8924 4.68031 24.0633V22.6667H0.0136719V40H4.68031V38H13.347C14.6803 38 16.0803 37.8667 17.4136 37.8L26.0802 36.4667C26.4136 36.4667 26.7469 36.4 27.0136 36.3333C27.8136 36.1999 28.547 35.7999 29.2136 35.1999L39.2802 27.1999C40.0803 26.5334 40.2137 25.3334 39.6137 24.5334ZM3.34695 38.6667H1.34695V24H3.34695V25V38V38.6667ZM38.4803 26.3334L28.347 34.2L28.2803 34.2667C27.8137 34.6667 27.347 34.9333 26.8137 35H26.747C26.4804 35.0667 26.2804 35.0667 26.0137 35.0667L17.2137 36.4C15.947 36.6 14.6137 36.6667 13.347 36.6667H4.68031V25.6667C6.28031 24.5333 10.0137 22.4 11.8803 23.8667C13.147 24.8 14.8137 25.3333 16.4803 25.3333H19.0803C20.6137 25.3333 22.0137 25.9999 22.8803 27.3333C23.147 27.7333 23.2137 28.1333 23.147 28.2667C22.947 28.6 22.147 28.7333 21.2803 28.8C21.1905 28.8 21.1009 28.8 21.0137 28.8C20.8418 28.8 20.6797 28.8 20.547 28.8H14.547C12.4804 28.8 11.2137 29.8 11.2137 31.4667C11.2137 31.8667 11.4803 32.1333 11.8803 32.1333C12.2803 32.1333 12.547 31.8667 12.547 31.4667C12.547 31.1333 12.547 30.1333 14.547 30.1333H20.4803C20.6185 30.1333 20.7898 30.1333 21.0137 30.1333C21.1138 30.1333 21.2234 30.1333 21.347 30.1333C21.4137 30.1333 21.547 30.1333 21.6804 30.1333C24.8137 30.1999 27.747 30.1333 29.2804 29.3333L35.0137 25.7999C37.8137 24.3999 38.0804 24.7333 38.6138 25.5333C38.747 25.7334 38.747 26.1334 38.4803 26.3334Z" fill="#A6A182"/>
<path d="M5.21362 21.0666C5.34698 21.2 5.54698 21.3333 5.74698 21.3333H34.2803C34.547 21.3333 34.747 21.1999 34.8137 20.9999L37.2137 17.6666C37.3471 17.4666 37.4137 17.1999 37.2803 16.9999C37.147 16.7999 36.947 16.6666 36.6803 16.6666H35.3317C34.9918 8.73031 28.6166 2.35508 20.6803 2.01523V1.33328H22.0137C22.4137 1.33328 22.6803 1.06664 22.6803 0.666641C22.6803 0.266641 22.4136 0 22.0136 0H18.0136C17.6136 0 17.347 0.266641 17.347 0.666641C17.347 1.06664 17.6136 1.33328 18.0136 1.33328H19.347V2.01523C11.4107 2.35508 5.03549 8.73031 4.69565 16.6666H3.3469C3.08026 16.6666 2.81354 16.8666 2.7469 17.0666C2.68026 17.2666 2.68026 17.5332 2.81354 17.7332L5.21362 21.0666ZM20.0136 3.33336C27.547 3.33336 33.6803 9.26672 34.0136 16.6667H6.01362C6.41362 9.26664 12.5469 3.33336 20.0136 3.33336ZM5.3469 18H34.6803H35.3469L33.9469 20H6.08026L4.68026 18H5.3469Z" fill="#A6A182"/>
<path d="M20.0136 4.66663C15.547 4.66663 11.347 7.06663 9.01361 11C8.88025 11.3333 8.94697 11.7333 9.28025 11.9333C9.41361 12 9.48025 12 9.61361 12C9.88025 12 10.0802 11.8666 10.2136 11.6666C12.2136 8.19998 16.0136 5.99999 20.0136 5.99999C20.4136 5.99999 20.6803 5.73334 20.6803 5.33334C20.6803 4.93334 20.4136 4.66663 20.0136 4.66663Z" fill="#A6A182"/>
</g>
<defs>
<clipPath id="clip0_642_557">
<rect width="40" height="40" fill="white"/>
</clipPath>
</defs>
</svg>
