<svg width="30" height="30" viewBox="0 0 30 30" fill="none" xmlns="http://www.w3.org/2000/svg">
<path d="M26.0854 14.7123H25.3944C25.1088 13.3581 23.7414 12.3335 22.0281 12.226C21.559 10.9751 20.1362 10.0996 18.484 10.0996C18.1171 10.1032 17.7521 10.1506 17.3965 10.2409C16.6461 9.65233 15.7171 9.33783 14.7636 9.34947C14.1541 9.33369 13.5492 9.459 12.9961 9.71561C12.4431 9.97222 11.9568 10.3532 11.5753 10.8288C9.70739 10.7907 8.10361 11.9291 7.83908 13.3993C6.81765 13.4705 5.86573 13.9424 5.19069 14.7123H3.91497C3.85342 14.7123 3.79247 14.7244 3.7356 14.748C3.67873 14.7715 3.62705 14.806 3.58353 14.8496C3.54 14.8931 3.50548 14.9448 3.48193 15.0016C3.45838 15.0585 3.44627 15.1194 3.44629 15.181V16.804C3.44868 18.6632 4.00325 20.4798 5.03965 22.0234C6.07604 23.5669 7.54756 24.7679 9.26752 25.4739V26.3406C9.26809 26.8137 9.45632 27.2674 9.79092 27.6019C10.1255 27.9365 10.5792 28.1246 11.0523 28.1252H18.9481C19.4212 28.1246 19.8749 27.9365 20.2095 27.6019C20.5441 27.2674 20.7323 26.8138 20.7329 26.3406V25.4739C22.4528 24.7679 23.9243 23.567 24.9607 22.0234C25.9971 20.4798 26.5517 18.6632 26.5541 16.804V15.181C26.5541 15.1194 26.542 15.0585 26.5184 15.0016C26.4949 14.9448 26.4604 14.8931 26.4169 14.8496C26.3733 14.806 26.3217 14.7715 26.2648 14.748C26.2079 14.7244 26.147 14.7123 26.0854 14.7123ZM8.25087 14.3141C8.31332 14.3162 8.37553 14.3056 8.4338 14.2831C8.49207 14.2605 8.54519 14.2265 8.59 14.1829C8.63481 14.1394 8.67037 14.0873 8.69458 14.0297C8.71878 13.9721 8.73113 13.9102 8.73087 13.8477C8.70305 12.6072 10.2501 11.6311 11.797 11.7733C11.8812 11.7754 11.9646 11.7551 12.0384 11.7146C12.1123 11.674 12.1742 11.6145 12.2176 11.5423C12.5005 11.1341 12.8826 10.8046 13.328 10.585C13.7735 10.3653 14.2675 10.2627 14.7635 10.2868C15.5668 10.2682 16.3473 10.5545 16.9479 11.0883C17.0115 11.14 17.0856 11.1772 17.1651 11.1972C17.6019 11.2157 18.0245 10.9945 18.484 11.0371C19.9068 11.0403 21.0323 11.8281 21.2654 12.893C21.3054 12.9723 21.3671 13.0387 21.4433 13.0845C21.5195 13.1302 21.6071 13.1535 21.6959 13.1516C22.9815 13.137 24.109 13.8096 24.4228 14.7123H6.643C7.13766 14.4484 7.6902 14.3115 8.25087 14.3141ZM19.7955 26.3406C19.7952 26.5652 19.7059 26.7806 19.547 26.9395C19.3881 27.0983 19.1727 27.1876 18.9481 27.1878H11.0523C10.8277 27.1876 10.6123 27.0983 10.4534 26.9395C10.2945 26.7806 10.2051 26.5652 10.2049 26.3406V25.7992C11.0542 26.0487 11.9347 26.1762 12.8199 26.1777H17.1804C18.0657 26.1762 18.9462 26.0487 19.7955 25.7992V26.3406ZM25.6167 16.804C25.6142 19.0407 24.7245 21.185 23.143 22.7665C21.5614 24.3481 19.4171 25.2377 17.1804 25.2403H12.8199C7.63235 25.239 3.91188 20.7218 4.38377 15.6497C4.39596 15.6514 5.4024 15.6463 5.41322 15.6515C5.41945 15.6455 24.9647 15.652 24.9748 15.6497C24.9844 15.6523 24.9946 15.6523 25.0043 15.6497H25.6167L25.6167 16.804Z" fill="#A6A182"/>
<path d="M11.1227 7.23855C11.0485 7.33633 11.0156 7.45931 11.0311 7.58106C11.0466 7.70282 11.1092 7.81365 11.2055 7.88975C11.3018 7.96585 11.4241 8.00115 11.5461 7.98807C11.6682 7.97499 11.7802 7.91458 11.8582 7.8198C12.2115 7.37432 12.3947 6.81768 12.3751 6.24948C12.3555 5.68127 12.1344 5.13856 11.7513 4.71846C11.4949 4.43764 11.3586 4.06764 11.3716 3.6876C11.3845 3.30757 11.5456 2.94768 11.8204 2.68491C11.9071 2.59797 11.9561 2.48052 11.9571 2.35781C11.9581 2.23509 11.9109 2.11687 11.8257 2.02856C11.7405 1.94024 11.624 1.88885 11.5014 1.88544C11.3787 1.88202 11.2596 1.92685 11.1696 2.01029C10.7182 2.44227 10.454 3.0338 10.4334 3.6582C10.4129 4.28261 10.6376 4.89025 11.0595 5.351C11.2923 5.60699 11.4264 5.93739 11.438 6.28317C11.4495 6.62895 11.3378 6.96758 11.1227 7.23855Z" fill="#A6A182"/>
<path d="M14.7236 7.23845C14.6494 7.33623 14.6165 7.45921 14.632 7.58099C14.6474 7.70276 14.7101 7.81361 14.8064 7.88972C14.9027 7.96583 15.025 8.00113 15.1471 7.98804C15.2691 7.97494 15.3812 7.9145 15.4591 7.8197C15.8126 7.37431 15.996 6.81766 15.9764 6.2494C15.9569 5.68115 15.7357 5.13841 15.3525 4.71836C15.0961 4.43757 14.9597 4.06758 14.9726 3.68755C14.9855 3.30751 15.1466 2.9476 15.4214 2.68481C15.508 2.59793 15.5571 2.48054 15.5582 2.35785C15.5592 2.23516 15.5121 2.11695 15.4269 2.02862C15.3418 1.9403 15.2254 1.88889 15.1027 1.88544C14.9801 1.88199 14.861 1.92678 14.771 2.01019C14.3195 2.44208 14.0552 3.03358 14.0345 3.65801C14.0139 4.28243 14.2385 4.89012 14.6605 5.3509C14.8933 5.60683 15.0275 5.93725 15.0391 6.28306C15.0506 6.62887 14.9388 6.96752 14.7236 7.23845Z" fill="#A6A182"/>
<path d="M18.3254 7.23845C18.2512 7.33623 18.2183 7.45921 18.2337 7.58099C18.2492 7.70276 18.3118 7.81361 18.4081 7.88972C18.5045 7.96583 18.6268 8.00113 18.7488 7.98804C18.8709 7.97494 18.9829 7.9145 19.0609 7.8197C19.4142 7.37424 19.5975 6.81759 19.5779 6.24937C19.5583 5.68115 19.3372 5.13844 18.954 4.71836C18.6976 4.43757 18.5613 4.06758 18.5742 3.68755C18.587 3.30751 18.7481 2.9476 19.0229 2.68481C19.1096 2.59793 19.1587 2.48054 19.1597 2.35785C19.1608 2.23516 19.1136 2.11695 19.0285 2.02862C18.9433 1.9403 18.8269 1.88889 18.7043 1.88544C18.5816 1.88199 18.4625 1.92678 18.3725 2.01019C17.9211 2.44208 17.6567 3.03358 17.6361 3.65801C17.6154 4.28243 17.8401 4.89011 18.262 5.3509C18.4948 5.60683 18.6291 5.93723 18.6407 6.28303C18.6523 6.62882 18.5405 6.96747 18.3254 7.23845Z" fill="#A6A182"/>
</svg>
