<svg width="18" height="21" viewBox="0 0 18 21" fill="none" xmlns="http://www.w3.org/2000/svg">
<path d="M4.57785 3.25454C4.72658 3.35709 4.86078 3.47025 4.99215 3.5938C5.02512 3.62472 5.02512 3.62472 5.05875 3.65625C5.4216 3.99937 5.77415 4.35331 6.12752 4.70614C6.23404 4.81246 6.34088 4.91846 6.4478 5.02439C6.53162 5.10755 6.61521 5.19096 6.69873 5.27443C6.73797 5.31357 6.77731 5.35263 6.81673 5.39159C7.02501 5.59756 7.22208 5.80789 7.40412 6.03765C7.41991 6.0575 7.43571 6.07736 7.45199 6.09781C7.73996 6.47035 7.85079 6.9056 7.8015 7.37049C7.73364 7.78832 7.5765 8.08954 7.2963 8.40276C7.27064 8.43222 7.24497 8.46167 7.21853 8.49202C7.00013 8.73672 6.76886 8.96872 6.53741 9.20102C6.50623 9.23236 6.47506 9.2637 6.44293 9.29599C6.26652 9.47198 6.08692 9.64154 5.89662 9.80245C6.19992 10.4941 6.60034 11.1142 7.08635 11.692C7.10148 11.7101 7.11662 11.7281 7.13221 11.7467C7.50215 12.187 7.89092 12.6046 8.29577 13.013C8.32594 13.0436 8.35612 13.0742 8.3872 13.1058C8.59581 13.3147 8.81549 13.5023 9.04591 13.6866C9.08958 13.7233 9.13311 13.7601 9.17645 13.7972C9.67254 14.2163 10.2155 14.5867 10.7868 14.896C10.8107 14.9092 10.8347 14.9223 10.8593 14.9359C10.9781 14.9996 10.9781 14.9995 11.1094 15.0092C11.1985 14.9742 11.2454 14.9283 11.3123 14.8597C11.3376 14.834 11.363 14.8083 11.3892 14.7818C11.4299 14.7397 11.4299 14.7397 11.4714 14.6968C11.4998 14.668 11.5282 14.6392 11.5575 14.6096C11.679 14.4864 11.7998 14.3626 11.9207 14.2389C12.0091 14.1486 12.0978 14.0586 12.1866 13.9686C12.2133 13.941 12.2399 13.9135 12.2674 13.8851C12.5134 13.6359 12.7876 13.3961 13.1181 13.2689C13.1516 13.2556 13.1851 13.2422 13.2195 13.2285C13.6395 13.0884 14.1025 13.13 14.5047 13.3017C14.901 13.5145 15.202 13.8386 15.5158 14.1542C15.5718 14.2102 15.6279 14.2661 15.684 14.322C15.801 14.4388 15.9177 14.5558 16.0342 14.6729C16.1828 14.8224 16.3321 14.9711 16.4815 15.1198C16.5972 15.235 16.7126 15.3506 16.828 15.4662C16.8828 15.5212 16.9378 15.5761 16.9929 15.6308C17.5406 16.176 17.5406 16.176 17.724 16.5209C17.7386 16.5473 17.7532 16.5737 17.7682 16.6008C17.9851 17.0078 17.9605 17.4926 17.8324 17.9213C17.6291 18.4733 17.1653 18.8772 16.7551 19.2788C16.6775 19.3551 16.6 19.4315 16.5226 19.5081C16.4749 19.5552 16.4271 19.6022 16.3791 19.6491C16.2437 19.7825 16.116 19.9201 15.9925 20.0647C15.5651 20.5502 14.8991 20.8654 14.2597 20.93C13.3463 20.974 12.5063 20.8484 11.6353 20.58C11.6072 20.5714 11.5792 20.5628 11.5502 20.554C10.1421 20.1139 8.7803 19.3563 7.57624 18.5155C7.55642 18.5017 7.53659 18.4879 7.51617 18.4737C7.37169 18.3726 7.22867 18.2696 7.08635 18.1656C7.06374 18.1491 7.04113 18.1325 7.01784 18.1155C6.72768 17.9028 6.44656 17.6831 6.17409 17.4481C6.0862 17.3732 5.99685 17.3021 5.90537 17.2317C5.56599 16.9634 5.25719 16.6519 4.95183 16.346C4.89372 16.2886 4.83559 16.2313 4.77742 16.174C4.72727 16.1244 4.67713 16.0747 4.62702 16.025C4.5931 15.9914 4.55911 15.9579 4.52506 15.9245C4.31469 15.7178 4.1182 15.5052 3.93398 15.2745C3.85844 15.1805 3.77927 15.093 3.69649 15.0053C3.5152 14.8076 3.34958 14.6007 3.18678 14.3878C3.14899 14.3383 3.11107 14.289 3.07305 14.2398C2.70843 13.7669 2.37209 13.2779 2.04748 12.7768C2.03284 12.7542 2.01821 12.7317 2.00313 12.7084C1.92138 12.5814 1.84364 12.4523 1.76754 12.3219C1.75148 12.2946 1.73542 12.2673 1.71887 12.2391C0.742551 10.5722 -0.388345 8.25851 0.130499 6.26714C0.278096 5.74015 0.535128 5.34144 0.903402 4.9436C0.930276 4.91455 0.930276 4.91455 0.957693 4.88492C1.17526 4.65133 1.39932 4.42419 1.62471 4.19817C1.69772 4.12481 1.77036 4.05108 1.843 3.97735C2.49484 3.32024 2.49484 3.32024 2.92229 3.13644C2.95909 3.12021 2.9959 3.10397 3.03382 3.08724C3.53297 2.89313 4.12661 2.99396 4.57785 3.25454ZM2.21621 4.97135C2.12848 5.05874 2.04039 5.14575 1.95228 5.23276C1.89564 5.28917 1.83903 5.3456 1.78244 5.40205C1.75649 5.42758 1.73053 5.4531 1.70378 5.4794C1.22748 5.95772 0.971314 6.49231 0.962076 7.17394C0.97197 8.30289 1.37593 9.38161 1.83753 10.3973C1.85267 10.4309 1.86781 10.4646 1.8834 10.4992C2.2402 11.2861 2.67156 12.0339 3.16723 12.7418C3.18099 12.7615 3.19475 12.7812 3.20892 12.8016C3.53865 13.2731 3.8819 13.7358 4.25199 14.1765C4.26691 14.1944 4.28183 14.2122 4.2972 14.2307C4.49306 14.4655 4.69256 14.6959 4.89989 14.9207C4.96726 14.9948 5.03274 15.0697 5.09795 15.1456C5.25083 15.3208 5.41478 15.4843 5.5795 15.6483C5.60943 15.6784 5.63936 15.7085 5.67019 15.7394C5.82563 15.8946 5.98325 16.0448 6.14988 16.1879C6.23499 16.2612 6.31717 16.3375 6.39963 16.4138C6.57616 16.5744 6.75815 16.7242 6.94638 16.8709C6.99341 16.908 7.04043 16.9452 7.08744 16.9824C7.44049 17.2606 7.79938 17.5279 8.17111 17.7807C8.19392 17.7962 8.21673 17.8117 8.24024 17.8277C9.81158 18.8886 12.1495 20.2962 14.1404 20.0016C14.5493 19.9199 14.8515 19.8004 15.1695 19.5303C15.2237 19.488 15.2237 19.488 15.2789 19.445C15.3541 19.378 15.4119 19.3187 15.4753 19.2424C15.6006 19.0979 15.7345 18.9637 15.8706 18.8295C15.8932 18.8072 15.9158 18.7849 15.939 18.7619C16.0336 18.6686 16.1283 18.5754 16.2233 18.4825C16.7496 18.0032 16.7496 18.0032 16.9694 17.3542C16.9708 17.3241 16.9722 17.294 16.9737 17.263C16.9217 16.9645 16.743 16.7388 16.5319 16.5321C16.4956 16.4955 16.4956 16.4955 16.4586 16.4582C16.3793 16.3785 16.2995 16.2995 16.2196 16.2205C16.1639 16.1649 16.1082 16.1092 16.0526 16.0535C15.9364 15.9373 15.8198 15.8214 15.703 15.7058C15.5536 15.5577 15.4048 15.4091 15.2563 15.2603C15.1416 15.1455 15.0266 15.0309 14.9115 14.9165C14.8566 14.8618 14.8017 14.807 14.7469 14.7521C14.6702 14.6755 14.5932 14.5992 14.516 14.5231C14.4936 14.5006 14.4712 14.478 14.4482 14.4549C14.2415 14.2521 14.0475 14.1218 13.7519 14.1029C13.359 14.119 13.0902 14.4274 12.8339 14.6893C12.8011 14.7225 12.7683 14.7557 12.7354 14.7889C12.5966 14.9291 12.4583 15.0697 12.3201 15.2104C12.2353 15.2967 12.1501 15.3828 12.0648 15.4688C12.0171 15.5171 11.9696 15.5658 11.9221 15.6144C11.7657 15.7721 11.6256 15.8989 11.4254 15.9961C11.4023 16.0076 11.3792 16.0192 11.3554 16.0311C10.997 16.0912 10.7512 15.9607 10.4494 15.7917C10.3766 15.7516 10.3029 15.7141 10.2285 15.6772C9.8553 15.4902 9.52079 15.2646 9.18588 15.0163C9.14684 14.9877 9.10779 14.9591 9.06874 14.9306C8.83331 14.7565 8.6054 14.5745 8.38106 14.3864C8.36331 14.3719 8.34555 14.3573 8.32726 14.3423C8.00051 14.0743 7.69985 13.7818 7.40128 13.4832C7.3823 13.4642 7.36332 13.4453 7.34376 13.4258C7.13375 13.2157 6.92888 13.0032 6.73643 12.7768C6.70406 12.7401 6.67162 12.7035 6.63911 12.6669C6.04109 11.9865 5.50941 11.2478 5.12269 10.4267C5.07764 10.3328 5.02961 10.2406 4.98156 10.1483C4.88677 9.93814 4.87099 9.68509 4.94896 9.46811C5.04317 9.29517 5.16342 9.16853 5.31009 9.0385C5.55836 8.81512 5.79577 8.58133 6.03222 8.34555C6.1049 8.27322 6.17794 8.20127 6.25098 8.12932C6.29796 8.08257 6.34491 8.0358 6.39184 7.98901C6.41335 7.96793 6.43485 7.94686 6.45701 7.92514C6.67155 7.7095 6.84294 7.48668 6.85453 7.17366C6.84865 6.85276 6.69035 6.67216 6.47797 6.44462C6.45956 6.4248 6.44114 6.40498 6.42217 6.38455C6.21556 6.1633 6.00287 5.94818 5.78918 5.73379C5.76838 5.7129 5.74759 5.692 5.72616 5.67047C5.61649 5.56028 5.50672 5.45019 5.39687 5.34018C5.28449 5.2276 5.17243 5.1147 5.06045 5.00173C4.97314 4.91377 4.8856 4.82605 4.79799 4.73839C4.75659 4.69688 4.71527 4.65528 4.67404 4.61359C4.22868 4.13726 4.22868 4.13726 3.63306 3.94782C3.04247 3.95633 2.60411 4.58437 2.21621 4.97135Z" fill="#1F2022"/>
<path d="M11.8516 9.4673e-05C11.8817 0.000158457 11.8817 0.000158457 11.9124 0.00022353C12.2068 0.00127412 12.4925 0.0106892 12.7804 0.077369C12.807 0.0831878 12.807 0.0831878 12.8341 0.0891242C13.6583 0.272837 14.3571 0.671643 14.9499 1.2671C14.9627 1.27953 14.9756 1.29195 14.9888 1.30475C15.4735 1.77816 15.7582 2.41095 15.9064 3.06337C15.9146 3.09909 15.9146 3.09909 15.923 3.13554C16.0789 3.92755 15.9182 4.76429 15.4864 5.44283C15.15 5.93703 14.7264 6.25859 14.2159 6.55793C14.2023 6.56593 14.1887 6.57392 14.1746 6.58216C14.1062 6.62237 14.0376 6.66237 13.9688 6.70202C13.5828 6.92729 13.2141 7.17894 13.087 7.63144C13.0351 7.83149 13.0279 8.00534 13.0137 8.21888C12.2669 8.21888 11.5202 8.21888 10.7508 8.21888C10.7508 7.64806 10.7508 7.64806 10.7785 7.46946C10.7816 7.44844 10.7847 7.42741 10.7879 7.40575C10.9258 6.52271 11.3409 5.72443 12.0703 5.18914C12.2871 5.03457 12.5144 4.90096 12.7466 4.77139C13.3106 4.46404 13.3106 4.46404 13.6337 3.92906C13.6986 3.60465 13.5877 3.28609 13.4102 3.01671C13.131 2.63095 12.7398 2.39344 12.2715 2.30439C11.7138 2.22299 11.1646 2.3102 10.7042 2.64346C10.6912 2.65663 10.6783 2.6698 10.6649 2.68337C10.6342 2.71344 10.6342 2.71344 10.5875 2.71344C10.5814 2.72716 10.5752 2.74087 10.5689 2.755C10.5399 2.80857 10.5085 2.84456 10.4665 2.88841C10.1908 3.19849 10.0866 3.5731 10.0277 3.97316C9.77413 3.95769 9.52372 3.92577 9.27206 3.89224C9.22914 3.88657 9.18622 3.88091 9.1433 3.87525C9.05404 3.86346 8.9648 3.85161 8.87556 3.83972C8.76097 3.82446 8.64636 3.80936 8.53174 3.7943C8.44344 3.78269 8.35515 3.77098 8.26686 3.75924C8.22456 3.75363 8.18226 3.74805 8.13995 3.7425C8.08121 3.73478 8.02248 3.72694 7.96375 3.71906C7.93743 3.71564 7.93743 3.71564 7.91058 3.71215C7.79084 3.69589 7.79084 3.69589 7.76485 3.6699C7.74693 3.23762 7.93706 2.79458 8.11477 2.41018C8.12179 2.39451 8.12881 2.37884 8.13605 2.3627C8.32033 1.95347 8.57964 1.57257 8.8846 1.24377C8.89546 1.23204 8.90633 1.22031 8.91753 1.20822C9.43752 0.652704 10.0909 0.295238 10.8237 0.106529C10.8415 0.101892 10.8593 0.0972559 10.8776 0.0924787C11.2007 0.0132777 11.5209 -0.00136106 11.8516 9.4673e-05Z" fill="#1F2022"/>
<path d="M12.383 9.03531C12.4038 9.04397 12.4038 9.04397 12.4251 9.05281C12.8493 9.23324 13.0983 9.50527 13.2918 9.92415C13.4041 10.2362 13.425 10.664 13.2928 10.9715C13.2842 10.9923 13.2842 10.9923 13.2753 11.0136C13.0949 11.4378 12.8229 11.6868 12.404 11.8803C12.0919 11.9926 11.6642 12.0135 11.3566 11.8813C11.3427 11.8756 11.3289 11.8698 11.3146 11.8638C10.8903 11.6834 10.6414 11.4114 10.4478 10.9925C10.3355 10.6804 10.3147 10.2527 10.4468 9.94511C10.4526 9.93124 10.4584 9.91737 10.4643 9.90309C10.6447 9.47884 10.9168 9.2299 11.3356 9.03631C11.6477 8.92402 12.0755 8.90317 12.383 9.03531Z" fill="#1F2022"/>
</svg>
