<svg width="40" height="40" viewBox="0 0 40 40" fill="none" xmlns="http://www.w3.org/2000/svg">
<path d="M7.73785 29.389C7.50493 28.9986 7.29877 28.5928 7.12079 28.1744C7.05772 28.0221 7.05738 27.851 7.11985 27.6984C7.18232 27.5458 7.30253 27.4241 7.45432 27.3597C7.60611 27.2953 7.77718 27.2935 7.93031 27.3546C8.08343 27.4158 8.20621 27.5349 8.27191 27.6861C8.42744 28.0525 8.60792 28.4077 8.81207 28.7494C8.89516 28.8918 8.91866 29.0612 8.87744 29.2208C8.83622 29.3804 8.73363 29.5173 8.59199 29.6016C8.45035 29.686 8.28113 29.7109 8.12117 29.6711C7.9612 29.6313 7.82344 29.5299 7.73785 29.389Z" fill="#A6A182"/>
<path d="M17.0872 35.4687C14.0018 34.9331 11.1735 33.411 9.02689 31.131C8.91774 31.0075 8.86175 30.846 8.87113 30.6814C8.88051 30.5169 8.95449 30.3627 9.07697 30.2525C9.19945 30.1423 9.36051 30.0848 9.52511 30.0928C9.68971 30.1007 9.84452 30.1733 9.95585 30.2948C11.9198 32.372 14.5042 33.7565 17.3216 34.2407C17.4834 34.2728 17.626 34.3677 17.7182 34.5045C17.8104 34.6413 17.8448 34.809 17.8139 34.9711C17.7829 35.1331 17.6892 35.2764 17.5531 35.3696C17.4169 35.4628 17.2495 35.4985 17.0872 35.4687Z" fill="#A6A182"/>
<path d="M36.4912 23.9038H4.08643C3.92067 23.9038 3.76169 23.9697 3.64448 24.0869C3.52727 24.2041 3.46143 24.363 3.46143 24.5288C3.46143 24.6946 3.52727 24.8535 3.64448 24.9708C3.76169 25.088 3.92067 25.1538 4.08643 25.1538H4.7147C5.10991 31.9868 11.9463 37.4451 20.2943 37.4451C28.6429 37.4451 35.4793 31.9868 35.8745 25.1538H36.4912C36.657 25.1538 36.8159 25.088 36.9331 24.9708C37.0504 24.8535 37.1162 24.6946 37.1162 24.5288C37.1162 24.363 37.0504 24.2041 36.9331 24.0869C36.8159 23.9697 36.657 23.9038 36.4912 23.9038ZM20.2943 36.1951C12.6403 36.1951 6.3676 31.2968 5.96668 25.1538H34.6226C34.2216 31.2969 27.9484 36.1951 20.2943 36.1951Z" fill="#A6A182"/>
<path d="M27.589 10.6335C26.7829 7.99474 26.7549 7.44817 25.9453 6.84998C21.9323 3.87938 21.4065 3.24219 19.7802 3.24219H19.7783C14.3593 3.0377 11.7186 3.1157 7.65738 3.24066C7.55381 3.03515 7.39538 2.86231 7.19964 2.74128C7.00389 2.62025 6.77847 2.55575 6.54834 2.55493H4.13379C3.8024 2.55536 3.48471 2.6872 3.25038 2.92152C3.01605 3.15585 2.88422 3.47354 2.88379 3.80493V11.5253C2.88422 11.8567 3.01605 12.1743 3.25038 12.4087C3.48471 12.643 3.8024 12.7748 4.13379 12.7753H6.54834C6.77496 12.7744 6.99707 12.7118 7.19076 12.5941C7.38445 12.4765 7.5424 12.3083 7.64762 12.1075H9.01113C9.50425 12.1075 9.55621 12.3574 10.4406 13.1049C11.9474 14.3448 13.7296 15.2052 15.6377 15.614C15.9905 15.7117 16.3408 15.8087 16.6906 15.918C17.036 16.0254 17.3821 16.1591 17.7764 16.3104C19.0018 16.7979 20.2602 17.1979 21.5423 17.5073C22.2732 17.6836 23.2694 17.2308 23.1261 15.8612C23.3931 15.8699 23.6543 15.7819 23.8616 15.6134C26.7028 13.2712 28.1711 12.541 27.589 10.6335ZM4.13379 11.5253V3.80493H6.54834V11.5253H4.13379ZM21.8364 13.2605C21.1015 12.8439 20.3435 12.4695 19.5659 12.1393C19.1574 11.9115 18.0414 11.2825 18.0278 10.813C18.0259 10.7505 18.0365 10.6882 18.0592 10.6299C18.0818 10.5716 18.116 10.5184 18.1597 10.4736L19.6465 8.95201C19.6612 8.93586 19.6796 8.92357 19.7001 8.91623C19.7207 8.90888 19.7427 8.90671 19.7643 8.90989C20.5157 9.09 21.2474 9.34413 21.9487 9.66856C22.6207 9.98161 23.1654 10.5151 23.4923 11.1804C23.0772 11.3797 22.7127 11.6704 22.4259 12.0306C22.1391 12.3908 21.9376 12.8113 21.8364 13.2605ZM23.2128 14.5288C23.1071 14.3084 23.0513 14.0674 23.0492 13.8229C23.0471 13.5785 23.0988 13.3366 23.2007 13.1143C23.3026 12.8921 23.4521 12.695 23.6387 12.5371C23.8253 12.3791 24.0443 12.2641 24.2803 12.2003C24.3901 12.1607 24.4909 12.0996 24.5769 12.0206C24.6628 11.9417 24.7323 11.8464 24.7811 11.7404C24.8299 11.6343 24.8572 11.5197 24.8614 11.403C24.8655 11.2863 24.8464 11.17 24.8052 11.0608C24.3862 9.93832 23.5407 9.02682 22.4529 8.52478C21.6634 8.1588 20.8381 7.8759 19.9901 7.68066C19.767 7.63997 19.5372 7.655 19.3213 7.72442C19.1054 7.79384 18.9099 7.91551 18.7523 8.07861L17.2668 9.599C17.1055 9.76445 16.9791 9.96063 16.8951 10.1759C16.8111 10.3911 16.7712 10.6211 16.7779 10.852C16.8129 11.965 18.0264 12.7121 18.9568 13.2306C19.7516 13.6738 20.8995 14.035 21.2664 14.4281C21.6863 14.9396 21.9114 15.5834 21.9018 16.2451L21.8389 16.2927C20.6085 15.9959 19.4008 15.6118 18.225 15.1434C17.8026 14.9817 17.4316 14.8395 17.0617 14.7241C16.6997 14.6118 16.3366 14.5111 15.9716 14.4098C14.2381 14.0474 12.6176 13.2723 11.2475 12.1503C10.4501 11.4757 10.0758 10.8575 9.01114 10.8575H7.79834V4.48669C12.8877 4.3354 14.0677 4.31012 19.7533 4.49158C20.9242 4.49158 21.162 4.86408 25.2019 7.85523C25.6666 8.19652 25.6641 8.61008 26.3939 10.9985C26.6799 11.937 26.0821 12.1635 23.2128 14.5288Z" fill="#A6A182"/>
<path d="M23.9282 18.7993C24.2734 18.7993 24.5532 18.5195 24.5532 18.1743C24.5532 17.8291 24.2734 17.5493 23.9282 17.5493C23.583 17.5493 23.3032 17.8291 23.3032 18.1743C23.3032 18.5195 23.583 18.7993 23.9282 18.7993Z" fill="#A6A182"/>
<path d="M21.6626 20.6356C22.0078 20.6356 22.2876 20.3558 22.2876 20.0106C22.2876 19.6654 22.0078 19.3856 21.6626 19.3856C21.3174 19.3856 21.0376 19.6654 21.0376 20.0106C21.0376 20.3558 21.3174 20.6356 21.6626 20.6356Z" fill="#A6A182"/>
<path d="M25.3345 21.2993C25.6797 21.2993 25.9595 21.0195 25.9595 20.6743C25.9595 20.3291 25.6797 20.0493 25.3345 20.0493C24.9893 20.0493 24.7095 20.3291 24.7095 20.6743C24.7095 21.0195 24.9893 21.2993 25.3345 21.2993Z" fill="#A6A182"/>
<path d="M23.3032 23.1743C23.6484 23.1743 23.9282 22.8945 23.9282 22.5493C23.9282 22.2041 23.6484 21.9243 23.3032 21.9243C22.958 21.9243 22.6782 22.2041 22.6782 22.5493C22.6782 22.8945 22.958 23.1743 23.3032 23.1743Z" fill="#A6A182"/>
</svg>
