<svg width="40" height="40" viewBox="0 0 40 40" fill="none" xmlns="http://www.w3.org/2000/svg">
<path d="M11.2416 1.46424C11.9197 1.86859 12.2529 2.38321 12.5001 3.12501C12.5001 3.74375 12.5001 4.3625 12.5001 5.00001C14.1501 5.00001 15.8001 5.00001 17.5001 5.00001C17.5001 4.38125 17.5001 3.76251 17.5001 3.12501C17.834 2.29035 18.1114 1.79641 18.9064 1.40625C19.556 1.14474 20.3985 1.13319 21.0597 1.37696C21.6496 1.66001 22.0557 2.06902 22.3439 2.65626C22.5001 3.12501 22.5001 3.12501 22.5001 5.00001C24.1501 5.00001 25.8001 5.00001 27.5001 5.00001C27.5001 4.38125 27.5001 3.76251 27.5001 3.12501C27.834 2.29035 28.1114 1.79641 28.9064 1.40625C29.556 1.14474 30.3985 1.13319 31.0597 1.37696C31.725 1.69624 32.1277 2.17393 32.4265 2.84058C32.5345 3.25767 32.5165 3.66301 32.5099 4.0918C32.5092 4.17912 32.5085 4.26643 32.5078 4.35639C32.5059 4.57095 32.5034 4.78547 32.5001 5.00001C32.5462 4.99931 32.5922 4.99862 32.6397 4.9979C33.1226 4.99094 33.6055 4.98626 34.0885 4.98284C34.2683 4.98128 34.4481 4.97915 34.6279 4.97643C34.8876 4.9726 35.1472 4.97086 35.4069 4.96949C35.4862 4.96787 35.5655 4.96626 35.6472 4.9646C36.5321 4.96433 37.2497 5.24741 37.8907 5.85938C38.8047 6.81677 38.7958 7.84989 38.7906 9.09941C38.791 9.26913 38.7915 9.43886 38.7922 9.60858C38.7936 10.0674 38.7931 10.5263 38.7921 10.9852C38.7913 11.4658 38.792 11.9464 38.7925 12.427C38.7931 13.2334 38.7924 14.0398 38.7909 14.8462C38.7892 15.7789 38.7897 16.7116 38.7914 17.6443C38.7929 18.4456 38.7931 19.2468 38.7922 20.048C38.7917 20.5264 38.7917 21.0048 38.7927 21.4832C38.7936 21.9324 38.793 22.3816 38.7912 22.8308C38.7908 22.9958 38.7909 23.1609 38.7916 23.3259C38.7924 23.5507 38.7914 23.7754 38.7898 24.0002C38.7909 24.0988 38.7909 24.0988 38.7919 24.1993C38.788 24.4858 38.7768 24.6522 38.6012 24.8841C38.4241 25.0096 38.3398 25.0424 38.1251 25.0391C38.0478 25.0403 38.0478 25.0403 37.9689 25.0415C37.8126 25 37.8126 25 37.5001 24.6875C37.5001 21.0781 37.5001 17.4688 37.5001 13.75C25.9501 13.75 14.4001 13.75 2.50012 13.75C2.50979 16.9324 2.51946 20.1148 2.52942 23.3936C2.53208 24.3987 2.53473 25.4038 2.53747 26.4393C2.54059 27.3398 2.54059 27.3398 2.54391 28.2402C2.54538 28.6414 2.54644 29.0427 2.54721 29.444C2.54819 29.9559 2.54997 30.4678 2.55225 30.9797C2.55296 31.1675 2.55342 31.3554 2.55358 31.5432C2.55384 31.7971 2.55505 32.051 2.55649 32.3049C2.55634 32.3782 2.55619 32.4515 2.55603 32.5271C2.56205 33.2378 2.6298 33.8831 3.15778 34.4067C3.7362 34.9183 4.37013 34.9336 5.10562 34.9321C5.17854 34.9323 5.25146 34.9325 5.32659 34.9326C5.57056 34.9331 5.81453 34.933 6.05851 34.933C6.23356 34.9332 6.40862 34.9335 6.58367 34.9338C6.96042 34.9344 7.33718 34.9348 7.71393 34.9351C8.30937 34.9355 8.90479 34.9368 9.50022 34.9383C9.70406 34.9388 9.90789 34.9393 10.1117 34.9398C10.2138 34.94 10.3159 34.9403 10.421 34.9405C10.9486 34.9418 11.4761 34.9429 12.0036 34.944C12.0566 34.9441 12.1095 34.9442 12.164 34.9443C13.0226 34.946 13.8812 34.9469 14.7398 34.9475C15.6216 34.9481 16.5034 34.9499 17.3851 34.9528C17.8801 34.9543 18.3751 34.9553 18.8701 34.9549C19.3353 34.9545 19.8004 34.9556 20.2656 34.9578C20.4365 34.9583 20.6075 34.9583 20.7784 34.9578C21.0113 34.9571 21.2441 34.9583 21.477 34.96C21.545 34.9593 21.6131 34.9587 21.6833 34.958C22.14 34.9642 22.14 34.9642 22.3857 35.149C22.5095 35.3259 22.5425 35.4113 22.5392 35.625C22.54 35.6766 22.5408 35.7281 22.5416 35.7813C22.4779 36.0212 22.3876 36.1008 22.1876 36.25C21.9432 36.2973 21.7013 36.2921 21.4529 36.2897C21.3776 36.2902 21.3024 36.2907 21.2248 36.2912C20.9719 36.2924 20.719 36.2914 20.4661 36.2904C20.285 36.2909 20.104 36.2914 19.9229 36.2921C19.4304 36.2935 18.9379 36.293 18.4454 36.292C17.9822 36.2913 17.519 36.2918 17.0559 36.2923C16.0819 36.2932 15.1079 36.2921 14.1339 36.2905C13.2994 36.2891 12.4649 36.2893 11.6304 36.2907C10.6607 36.2924 9.69111 36.2931 8.72146 36.2921C8.20841 36.2916 7.69537 36.2916 7.18233 36.2926C6.6994 36.2935 6.2165 36.2929 5.73357 36.2911C5.55668 36.2907 5.37978 36.2908 5.20289 36.2915C3.99733 36.2957 3.02662 36.2661 2.1095 35.3906C1.36272 34.6084 1.20306 33.7828 1.21044 32.7281C1.21008 32.619 1.20958 32.51 1.20896 32.4009C1.20767 32.1035 1.2083 31.806 1.20927 31.5085C1.20998 31.1869 1.20889 30.8652 1.20803 30.5435C1.20664 29.9142 1.20694 29.285 1.20784 28.6557C1.20855 28.1441 1.20865 27.6325 1.20831 27.1209C1.20826 27.048 1.20821 26.975 1.20816 26.8999C1.20806 26.7517 1.20796 26.6036 1.20786 26.4554C1.20697 25.0674 1.20799 23.6794 1.20967 22.2914C1.21107 21.1014 1.21082 19.9114 1.20938 18.7215C1.20771 17.3383 1.20705 15.9551 1.20801 14.5719C1.20811 14.4243 1.20821 14.2767 1.20831 14.1291C1.20835 14.0565 1.2084 13.9839 1.20845 13.9091C1.20872 13.3983 1.20827 12.8876 1.20753 12.3768C1.20665 11.754 1.20689 11.1313 1.20856 10.5085C1.20938 10.191 1.2097 9.87347 1.20867 9.55595C1.20773 9.26487 1.20825 8.97383 1.20991 8.68275C1.21042 8.52848 1.20941 8.3742 1.20833 8.21994C1.21654 7.28125 1.45506 6.54492 2.1095 5.85938C2.83096 5.17065 3.61232 4.94953 4.59332 4.96949C4.67708 4.96993 4.76083 4.97037 4.84712 4.97083C5.11138 4.97256 5.37554 4.97648 5.63977 4.98047C5.82028 4.98204 6.00079 4.98347 6.18131 4.98475C6.62094 4.98817 7.06053 4.99338 7.50012 5.00001C7.49767 4.92094 7.49767 4.92094 7.49516 4.84028C7.4886 4.59731 7.48458 4.35436 7.48059 4.11133C7.47797 4.02845 7.47536 3.94557 7.47266 3.86017C7.46343 3.10856 7.62581 2.47597 8.14832 1.91651C8.97621 1.17217 10.2296 0.978619 11.2416 1.46424ZM9.14075 2.89063C8.82362 3.29347 8.74175 3.62415 8.73753 4.12743C8.73678 4.20021 8.73603 4.27299 8.73526 4.34797C8.73493 4.42578 8.7346 4.50358 8.73425 4.58375C8.73381 4.66476 8.73336 4.74577 8.7329 4.82924C8.73217 5.0005 8.73166 5.17176 8.73135 5.34302C8.7306 5.60346 8.72817 5.86385 8.72571 6.12427C8.7252 6.2911 8.72479 6.45793 8.72449 6.62476C8.72352 6.70193 8.72256 6.77911 8.72157 6.85862C8.72317 7.36401 8.74414 7.93428 9.09794 8.33002C9.46878 8.64683 9.71858 8.69969 10.1924 8.69355C10.4864 8.66143 10.6421 8.55603 10.8595 8.35938C11.1766 7.95654 11.2585 7.62586 11.2627 7.12258C11.2635 7.0498 11.2642 6.97702 11.265 6.90204C11.2655 6.78533 11.2655 6.78533 11.266 6.66626C11.2664 6.58525 11.2669 6.50423 11.2673 6.42076C11.2681 6.24951 11.2686 6.07825 11.2689 5.90699C11.2696 5.64655 11.2721 5.38616 11.2745 5.12574C11.275 4.95891 11.2755 4.79208 11.2758 4.62525C11.2767 4.54808 11.2777 4.4709 11.2787 4.39139C11.2771 3.886 11.2561 3.31573 10.9023 2.91999C10.5315 2.60318 10.2817 2.55032 9.80786 2.55646C9.51383 2.58858 9.3581 2.69398 9.14075 2.89063ZM19.1407 2.89063C18.8236 3.29347 18.7418 3.62415 18.7375 4.12743C18.7368 4.20021 18.736 4.27299 18.7353 4.34797C18.7349 4.42578 18.7346 4.50358 18.7343 4.58375C18.7338 4.66476 18.7334 4.74577 18.7329 4.82924C18.7322 5.0005 18.7317 5.17176 18.7314 5.34302C18.7306 5.60346 18.7282 5.86385 18.7257 6.12427C18.7252 6.2911 18.7248 6.45793 18.7245 6.62476C18.7235 6.70193 18.7226 6.77911 18.7216 6.85862C18.7232 7.36401 18.7441 7.93428 19.0979 8.33002C19.4688 8.64683 19.7186 8.69969 20.1924 8.69355C20.4864 8.66143 20.6421 8.55603 20.8595 8.35938C21.1766 7.95654 21.2585 7.62586 21.2627 7.12258C21.2635 7.0498 21.2642 6.97702 21.265 6.90204C21.2655 6.78533 21.2655 6.78533 21.266 6.66626C21.2664 6.58525 21.2669 6.50423 21.2673 6.42076C21.2681 6.24951 21.2686 6.07825 21.2689 5.90699C21.2696 5.64655 21.2721 5.38616 21.2745 5.12574C21.275 4.95891 21.2755 4.79208 21.2758 4.62525C21.2767 4.54808 21.2777 4.4709 21.2787 4.39139C21.2771 3.886 21.2561 3.31573 20.9023 2.91999C20.5315 2.60318 20.2817 2.55032 19.8079 2.55646C19.5138 2.58858 19.3581 2.69398 19.1407 2.89063ZM29.1407 2.89063C28.8236 3.29347 28.7418 3.62415 28.7375 4.12743C28.7368 4.20021 28.736 4.27299 28.7353 4.34797C28.7349 4.42578 28.7346 4.50358 28.7343 4.58375C28.7338 4.66476 28.7334 4.74577 28.7329 4.82924C28.7322 5.0005 28.7317 5.17176 28.7314 5.34302C28.7306 5.60346 28.7282 5.86385 28.7257 6.12427C28.7252 6.2911 28.7248 6.45793 28.7245 6.62476C28.7235 6.70193 28.7226 6.77911 28.7216 6.85862C28.7232 7.36401 28.7441 7.93428 29.0979 8.33002C29.4688 8.64683 29.7186 8.69969 30.1924 8.69355C30.4864 8.66143 30.6421 8.55603 30.8595 8.35938C31.1766 7.95654 31.2585 7.62586 31.2627 7.12258C31.2635 7.0498 31.2642 6.97702 31.265 6.90204C31.2655 6.78533 31.2655 6.78533 31.266 6.66626C31.2664 6.58525 31.2669 6.50423 31.2673 6.42076C31.2681 6.24951 31.2686 6.07825 31.2689 5.90699C31.2696 5.64655 31.2721 5.38616 31.2745 5.12574C31.275 4.95891 31.2755 4.79208 31.2758 4.62525C31.2767 4.54808 31.2777 4.4709 31.2787 4.39139C31.2771 3.886 31.2561 3.31573 30.9023 2.91999C30.5315 2.60318 30.2817 2.55032 29.8079 2.55646C29.5138 2.58858 29.3581 2.69398 29.1407 2.89063ZM2.94934 6.98731C1.8495 8.33699 2.50012 11.668 2.50012 12.5C14.0501 12.5 25.6001 12.5 37.5001 12.5C37.8113 9.9957 37.8113 9.9957 37.0314 6.95313C36.4523 6.37824 35.9005 6.24108 35.0956 6.24115C34.9967 6.24176 34.9967 6.24176 34.8958 6.24238C34.7927 6.24254 34.7927 6.24254 34.6876 6.24271C34.4695 6.24315 34.2514 6.24413 34.0333 6.24512C33.8849 6.24551 33.7365 6.24587 33.5881 6.24619C33.2254 6.24705 32.8628 6.2484 32.5001 6.25C32.499 6.32907 32.499 6.32907 32.4979 6.40973C32.4937 6.65276 32.4871 6.89569 32.4806 7.13868C32.4795 7.22156 32.4784 7.30444 32.4772 7.38984C32.4536 8.16003 32.2804 8.82622 31.7189 9.375C30.997 9.91158 30.2533 10.0132 29.3751 9.92188C28.7399 9.7716 28.2695 9.45779 27.9103 8.91114C27.3931 8.07165 27.5434 7.28814 27.5001 6.25C25.8501 6.25 24.2001 6.25 22.5001 6.25C22.4743 6.86875 22.4486 7.4875 22.422 8.125C22.0987 8.93327 21.8574 9.38458 21.0939 9.76563C20.4414 10.0288 19.598 10.0387 18.9357 9.79004C18.3759 9.52096 18.0124 9.15047 17.7345 8.59375C17.5782 8.125 17.5782 8.125 17.5001 6.25C15.8501 6.25 14.2001 6.25 12.5001 6.25C12.4743 6.86875 12.4486 7.4875 12.422 8.125C12.0987 8.93327 11.8574 9.38458 11.0939 9.76563C10.4414 10.0288 9.59802 10.0387 8.93567 9.79004C8.30022 9.48456 7.93219 9.0389 7.64844 8.39997C7.54355 7.98909 7.54136 7.58074 7.52942 7.15821C7.5264 7.07089 7.52338 6.98358 7.52026 6.89362C7.51293 6.67909 7.50624 6.46457 7.50012 6.25C7.06795 6.24612 6.63579 6.24329 6.2036 6.24142C6.05684 6.24064 5.91007 6.23958 5.76331 6.23822C5.55133 6.2363 5.33937 6.23543 5.12738 6.23475C5.06265 6.23394 4.99793 6.23313 4.93124 6.2323C4.12648 6.23215 3.506 6.37029 2.94934 6.98731Z" fill="#A6A182"/>
<path d="M35.4407 23.9712C37.173 25.2963 38.3102 27.0744 38.7177 29.2242C38.856 30.5244 38.8443 31.8746 38.4378 33.125C38.4134 33.2008 38.4134 33.2008 38.3884 33.2781C37.9766 34.5025 37.3078 35.4942 36.4066 36.4062C36.3563 36.4621 36.3061 36.518 36.2543 36.5756C35.0995 37.8306 33.1788 38.6719 31.4837 38.7626C28.7833 38.7984 26.6989 38.232 24.7269 36.3232C23.1126 34.7063 22.4782 32.6281 22.4756 30.3832C22.4838 29.5936 22.5688 28.8757 22.8128 28.125C22.8373 28.0492 22.8373 28.0492 22.8623 27.9719C23.2741 26.7474 23.9429 25.7558 24.8441 24.8437C24.8943 24.7879 24.9446 24.732 24.9964 24.6744C27.6277 21.8148 32.4084 21.8643 35.4407 23.9712ZM26.016 25.5469C25.9577 25.5973 25.8993 25.6478 25.8393 25.6998C24.6472 26.8122 23.8767 28.4754 23.7989 30.0961C23.7414 32.1888 24.3233 33.8505 25.7084 35.4166C26.9163 36.6903 28.6835 37.4382 30.4288 37.5052C32.281 37.4702 33.9337 36.8781 35.3128 35.625C35.3622 35.582 35.4115 35.539 35.4624 35.4947C36.6353 34.4102 37.368 32.7406 37.4546 31.1621C37.5201 29.1543 37.0004 27.4302 35.6253 25.9375C35.5824 25.8883 35.5395 25.8392 35.4953 25.7886C34.3581 24.5561 32.5909 23.8416 30.936 23.7524C29.0711 23.7329 27.4208 24.3267 26.016 25.5469Z" fill="#A6A182"/>
<path d="M35 27.8125C35.1953 27.9297 35.1953 27.9297 35.3125 28.125C35.3674 28.4246 35.3981 28.6204 35.2272 28.8792C34.7164 29.4402 34.1779 29.9741 33.6411 30.51C33.5318 30.6192 33.4227 30.7285 33.3135 30.8378C33.0858 31.0655 32.858 31.2932 32.6301 31.5207C32.3376 31.8128 32.0455 32.1052 31.7534 32.3976C31.5286 32.6228 31.3036 32.8477 31.0785 33.0726C30.9706 33.1804 30.8628 33.2883 30.7551 33.3962C30.6051 33.5464 30.4549 33.6963 30.3046 33.8461C30.26 33.8909 30.2154 33.9356 30.1695 33.9818C29.9034 34.2464 29.7805 34.3622 29.4043 34.4141C28.654 34.395 27.9291 33.3316 27.4267 32.8275C27.2693 32.6697 27.1114 32.5123 26.9536 32.3549C26.8534 32.2547 26.7533 32.1544 26.6531 32.0541C26.6059 32.0071 26.5587 31.9601 26.5101 31.9116C26.1014 31.5005 26.1014 31.5005 26.0693 31.1035C26.074 30.8727 26.0886 30.7898 26.2109 30.5859C26.4317 30.4535 26.6078 30.4098 26.8661 30.4246C27.4982 30.5936 28.0692 31.4196 28.5156 31.8701C28.5918 31.9467 28.668 32.0232 28.7442 32.0998C28.9286 32.2851 29.1128 32.4706 29.2969 32.6563C29.6162 32.5296 29.8292 32.3006 30.0655 32.0604C30.1103 32.0155 30.155 31.9707 30.2011 31.9245C30.3487 31.7764 30.4957 31.6278 30.6427 31.4792C30.7452 31.3762 30.8477 31.2733 30.9503 31.1704C31.22 30.8996 31.4893 30.6284 31.7585 30.3571C32.1898 29.9224 32.6216 29.4883 33.0537 29.0544C33.2047 28.9025 33.3555 28.7504 33.5063 28.5982C33.5985 28.5055 33.6907 28.4128 33.7828 28.3201C33.8249 28.2776 33.8669 28.235 33.9103 28.1911C34.2597 27.8406 34.5002 27.7443 35 27.8125Z" fill="#A6A182"/>
<path d="M15.313 28.0835C15.3875 28.0832 15.462 28.0829 15.5388 28.0826C15.6958 28.0824 15.8529 28.0829 16.01 28.0843C16.2497 28.0859 16.4892 28.0843 16.729 28.0823C16.882 28.0825 17.035 28.0829 17.188 28.0835C17.2949 28.0825 17.2949 28.0825 17.404 28.0816C17.838 28.0879 18.1015 28.1373 18.438 28.4375C18.7439 28.7948 18.797 29.0938 18.792 29.5508C18.7924 29.6418 18.7924 29.6418 18.7929 29.7346C18.7931 29.8622 18.7925 29.9899 18.7912 30.1175C18.7895 30.312 18.7912 30.5062 18.7932 30.7007C18.793 30.8252 18.7926 30.9497 18.792 31.0742C18.7926 31.1318 18.7932 31.1895 18.7939 31.2488C18.7866 31.6522 18.6996 31.882 18.438 32.1875C18.0401 32.5424 17.6958 32.546 17.188 32.5415C17.0762 32.5419 17.0762 32.5419 16.9621 32.5424C16.8051 32.5426 16.648 32.542 16.4909 32.5407C16.2512 32.5391 16.0117 32.5407 15.7719 32.5427C15.6189 32.5425 15.4659 32.5421 15.313 32.5415C15.206 32.5424 15.206 32.5424 15.0969 32.5434C14.6629 32.5371 14.3994 32.4876 14.063 32.1875C13.757 31.8302 13.7039 31.5312 13.7089 31.0742C13.7086 31.0136 13.7084 30.9529 13.708 30.8904C13.7078 30.7628 13.7084 30.6351 13.7097 30.5075C13.7114 30.313 13.7097 30.1188 13.7077 29.9243C13.7079 29.7998 13.7083 29.6753 13.7089 29.5508C13.7083 29.4931 13.7077 29.4355 13.707 29.3761C13.7143 28.9728 13.8013 28.743 14.063 28.4375C14.4608 28.0826 14.8051 28.079 15.313 28.0835ZM15.0005 29.375C15.0005 29.9937 15.0005 30.6125 15.0005 31.25C15.8255 31.25 16.6505 31.25 17.5005 31.25C17.5005 30.6312 17.5005 30.0125 17.5005 29.375C16.6755 29.375 15.8505 29.375 15.0005 29.375Z" fill="#A6A182"/>
<path d="M7.81295 28.0835C7.88748 28.0832 7.962 28.0829 8.03878 28.0826C8.19585 28.0824 8.35291 28.0829 8.50997 28.0843C8.7497 28.0859 8.98925 28.0843 9.22897 28.0823C9.38196 28.0825 9.53496 28.0829 9.68795 28.0835C9.7949 28.0825 9.7949 28.0825 9.90402 28.0816C10.338 28.0879 10.6015 28.1373 10.938 28.4375C11.2439 28.7948 11.297 29.0938 11.292 29.5508C11.2924 29.6418 11.2924 29.6418 11.2929 29.7346C11.2931 29.8622 11.2925 29.9899 11.2912 30.1175C11.2895 30.312 11.2912 30.5062 11.2932 30.7007C11.293 30.8252 11.2926 30.9497 11.292 31.0742C11.2926 31.1318 11.2932 31.1895 11.2939 31.2488C11.2866 31.6522 11.1996 31.882 10.938 32.1875C10.5401 32.5424 10.1958 32.546 9.68795 32.5415C9.57617 32.5419 9.57617 32.5419 9.46212 32.5424C9.30506 32.5426 9.14799 32.542 8.99093 32.5407C8.7512 32.5391 8.51166 32.5407 8.27194 32.5427C8.11894 32.5425 7.96595 32.5421 7.81295 32.5415C7.706 32.5424 7.706 32.5424 7.59689 32.5434C7.16289 32.5371 6.89941 32.4876 6.56295 32.1875C6.25698 31.8302 6.20393 31.5312 6.20895 31.0742C6.20865 31.0136 6.20835 30.9529 6.20804 30.8904C6.20783 30.7628 6.2084 30.6351 6.20971 30.5075C6.21138 30.313 6.20972 30.1188 6.20773 29.9243C6.20793 29.7998 6.20833 29.6753 6.20895 29.5508C6.20832 29.4931 6.20768 29.4355 6.20703 29.3761C6.21429 28.9728 6.30129 28.743 6.56295 28.4375C6.96078 28.0826 7.30512 28.079 7.81295 28.0835ZM7.50045 29.375C7.50045 29.9937 7.50045 30.6125 7.50045 31.25C8.32545 31.25 9.15045 31.25 10.0005 31.25C10.0005 30.6312 10.0005 30.0125 10.0005 29.375C9.17545 29.375 8.35045 29.375 7.50045 29.375Z" fill="#A6A182"/>
<path d="M15.313 22.4585C15.3875 22.4582 15.462 22.4579 15.5388 22.4576C15.6958 22.4574 15.8529 22.4579 16.01 22.4593C16.2497 22.4609 16.4892 22.4593 16.729 22.4573C16.882 22.4575 17.035 22.4579 17.188 22.4585C17.2949 22.4575 17.2949 22.4575 17.404 22.4566C17.838 22.4629 18.1015 22.5123 18.438 22.8125C18.7439 23.1698 18.797 23.4688 18.792 23.9258C18.7924 24.0168 18.7924 24.0168 18.7929 24.1096C18.7931 24.2372 18.7925 24.3649 18.7912 24.4925C18.7895 24.687 18.7912 24.8812 18.7932 25.0757C18.793 25.2002 18.7926 25.3247 18.792 25.4492C18.7926 25.5068 18.7932 25.5645 18.7939 25.6238C18.7866 26.0272 18.6996 26.257 18.438 26.5625C18.0401 26.9174 17.6958 26.921 17.188 26.9165C17.0762 26.9169 17.0762 26.9169 16.9621 26.9174C16.8051 26.9176 16.648 26.917 16.4909 26.9157C16.2512 26.9141 16.0117 26.9157 15.7719 26.9177C15.6189 26.9175 15.4659 26.9171 15.313 26.9165C15.206 26.9174 15.206 26.9174 15.0969 26.9184C14.6629 26.9121 14.3994 26.8626 14.063 26.5625C13.757 26.2052 13.7039 25.9062 13.7089 25.4492C13.7086 25.3886 13.7084 25.3279 13.708 25.2654C13.7078 25.1378 13.7084 25.0101 13.7097 24.8825C13.7114 24.688 13.7097 24.4938 13.7077 24.2993C13.7079 24.1748 13.7083 24.0503 13.7089 23.9258C13.7083 23.8681 13.7077 23.8105 13.707 23.7511C13.7143 23.3478 13.8013 23.118 14.063 22.8125C14.4608 22.4576 14.8051 22.454 15.313 22.4585ZM15.0005 23.75C15.0005 24.3687 15.0005 24.9875 15.0005 25.625C15.8255 25.625 16.6505 25.625 17.5005 25.625C17.5005 25.0062 17.5005 24.3875 17.5005 23.75C16.6755 23.75 15.8505 23.75 15.0005 23.75Z" fill="#A6A182"/>
<path d="M7.81295 22.4585C7.88748 22.4582 7.962 22.4579 8.03878 22.4576C8.19585 22.4574 8.35291 22.4579 8.50997 22.4593C8.7497 22.4609 8.98925 22.4593 9.22897 22.4573C9.38196 22.4575 9.53496 22.4579 9.68795 22.4585C9.7949 22.4575 9.7949 22.4575 9.90402 22.4566C10.338 22.4629 10.6015 22.5123 10.938 22.8125C11.2439 23.1698 11.297 23.4688 11.292 23.9258C11.2924 24.0168 11.2924 24.0168 11.2929 24.1096C11.2931 24.2372 11.2925 24.3649 11.2912 24.4925C11.2895 24.687 11.2912 24.8812 11.2932 25.0757C11.293 25.2002 11.2926 25.3247 11.292 25.4492C11.2926 25.5068 11.2932 25.5645 11.2939 25.6238C11.2866 26.0272 11.1996 26.257 10.938 26.5625C10.5401 26.9174 10.1958 26.921 9.68795 26.9165C9.57617 26.9169 9.57617 26.9169 9.46212 26.9174C9.30506 26.9176 9.14799 26.917 8.99093 26.9157C8.7512 26.9141 8.51166 26.9157 8.27194 26.9177C8.11894 26.9175 7.96595 26.9171 7.81295 26.9165C7.706 26.9174 7.706 26.9174 7.59689 26.9184C7.16289 26.9121 6.89941 26.8626 6.56295 26.5625C6.25698 26.2052 6.20393 25.9062 6.20895 25.4492C6.20865 25.3886 6.20835 25.3279 6.20804 25.2654C6.20783 25.1378 6.2084 25.0101 6.20971 24.8825C6.21138 24.688 6.20972 24.4938 6.20773 24.2993C6.20793 24.1748 6.20833 24.0503 6.20895 23.9258C6.20832 23.8681 6.20768 23.8105 6.20703 23.7511C6.21429 23.3478 6.30129 23.118 6.56295 22.8125C6.96078 22.4576 7.30512 22.454 7.81295 22.4585ZM7.50045 23.75C7.50045 24.3687 7.50045 24.9875 7.50045 25.625C8.32545 25.625 9.15045 25.625 10.0005 25.625C10.0005 25.0062 10.0005 24.3875 10.0005 23.75C9.17545 23.75 8.35045 23.75 7.50045 23.75Z" fill="#A6A182"/>
<path d="M30.313 16.8335C30.3875 16.8332 30.462 16.8329 30.5388 16.8326C30.6958 16.8324 30.8529 16.8329 31.01 16.8343C31.2497 16.8359 31.4892 16.8343 31.729 16.8323C31.882 16.8325 32.035 16.8329 32.188 16.8335C32.2949 16.8325 32.2949 16.8325 32.404 16.8316C32.838 16.8379 33.1015 16.8873 33.438 17.1875C33.7439 17.5448 33.797 17.8438 33.792 18.3008C33.7924 18.3918 33.7924 18.3918 33.7929 18.4846C33.7931 18.6122 33.7925 18.7399 33.7912 18.8675C33.7895 19.062 33.7912 19.2562 33.7932 19.4507C33.793 19.5752 33.7926 19.6997 33.792 19.8242C33.7926 19.8818 33.7932 19.9395 33.7939 19.9988C33.7866 20.4022 33.6996 20.632 33.438 20.9375C33.0401 21.2924 32.6958 21.296 32.188 21.2915C32.0762 21.2919 32.0762 21.2919 31.9621 21.2924C31.8051 21.2926 31.648 21.292 31.4909 21.2907C31.2512 21.2891 31.0117 21.2907 30.7719 21.2927C30.6189 21.2925 30.4659 21.2921 30.313 21.2915C30.206 21.2924 30.206 21.2924 30.0969 21.2934C29.6629 21.2871 29.3994 21.2376 29.063 20.9375C28.757 20.5802 28.7039 20.2812 28.7089 19.8242C28.7086 19.7636 28.7084 19.7029 28.708 19.6404C28.7078 19.5128 28.7084 19.3851 28.7097 19.2575C28.7114 19.063 28.7097 18.8688 28.7077 18.6743C28.7079 18.5498 28.7083 18.4253 28.7089 18.3008C28.7083 18.2431 28.7077 18.1855 28.707 18.1261C28.7143 17.7228 28.8013 17.493 29.063 17.1875C29.4608 16.8326 29.8051 16.829 30.313 16.8335ZM30.0005 18.125C30.0005 18.7437 30.0005 19.3625 30.0005 20C30.8255 20 31.6505 20 32.5005 20C32.5005 19.3812 32.5005 18.7625 32.5005 18.125C31.6755 18.125 30.8505 18.125 30.0005 18.125Z" fill="#A6A182"/>
<path d="M22.813 16.8335C22.8875 16.8332 22.962 16.8329 23.0388 16.8326C23.1958 16.8324 23.3529 16.8329 23.51 16.8343C23.7497 16.8359 23.9892 16.8343 24.229 16.8323C24.382 16.8325 24.535 16.8329 24.688 16.8335C24.7949 16.8325 24.7949 16.8325 24.904 16.8316C25.338 16.8379 25.6015 16.8873 25.938 17.1875C26.2439 17.5448 26.297 17.8438 26.292 18.3008C26.2924 18.3918 26.2924 18.3918 26.2929 18.4846C26.2931 18.6122 26.2925 18.7399 26.2912 18.8675C26.2895 19.062 26.2912 19.2562 26.2932 19.4507C26.293 19.5752 26.2926 19.6997 26.292 19.8242C26.2926 19.8818 26.2932 19.9395 26.2939 19.9988C26.2866 20.4022 26.1996 20.632 25.938 20.9375C25.5401 21.2924 25.1958 21.296 24.688 21.2915C24.5762 21.2919 24.5762 21.2919 24.4621 21.2924C24.3051 21.2926 24.148 21.292 23.9909 21.2907C23.7512 21.2891 23.5117 21.2907 23.2719 21.2927C23.1189 21.2925 22.9659 21.2921 22.813 21.2915C22.706 21.2924 22.706 21.2924 22.5969 21.2934C22.1629 21.2871 21.8994 21.2376 21.563 20.9375C21.257 20.5802 21.2039 20.2812 21.2089 19.8242C21.2086 19.7636 21.2084 19.7029 21.208 19.6404C21.2078 19.5128 21.2084 19.3851 21.2097 19.2575C21.2114 19.063 21.2097 18.8688 21.2077 18.6743C21.2079 18.5498 21.2083 18.4253 21.2089 18.3008C21.2083 18.2431 21.2077 18.1855 21.207 18.1261C21.2143 17.7228 21.3013 17.493 21.563 17.1875C21.9608 16.8326 22.3051 16.829 22.813 16.8335ZM22.5005 18.125C22.5005 18.7437 22.5005 19.3625 22.5005 20C23.3255 20 24.1505 20 25.0005 20C25.0005 19.3812 25.0005 18.7625 25.0005 18.125C24.1755 18.125 23.3505 18.125 22.5005 18.125Z" fill="#A6A182"/>
<path d="M15.313 16.8335C15.3875 16.8332 15.462 16.8329 15.5388 16.8326C15.6958 16.8324 15.8529 16.8329 16.01 16.8343C16.2497 16.8359 16.4892 16.8343 16.729 16.8323C16.882 16.8325 17.035 16.8329 17.188 16.8335C17.2949 16.8325 17.2949 16.8325 17.404 16.8316C17.838 16.8379 18.1015 16.8873 18.438 17.1875C18.7439 17.5448 18.797 17.8438 18.792 18.3008C18.7924 18.3918 18.7924 18.3918 18.7929 18.4846C18.7931 18.6122 18.7925 18.7399 18.7912 18.8675C18.7895 19.062 18.7912 19.2562 18.7932 19.4507C18.793 19.5752 18.7926 19.6997 18.792 19.8242C18.7926 19.8818 18.7932 19.9395 18.7939 19.9988C18.7866 20.4022 18.6996 20.632 18.438 20.9375C18.0401 21.2924 17.6958 21.296 17.188 21.2915C17.0762 21.2919 17.0762 21.2919 16.9621 21.2924C16.8051 21.2926 16.648 21.292 16.4909 21.2907C16.2512 21.2891 16.0117 21.2907 15.7719 21.2927C15.6189 21.2925 15.4659 21.2921 15.313 21.2915C15.206 21.2924 15.206 21.2924 15.0969 21.2934C14.6629 21.2871 14.3994 21.2376 14.063 20.9375C13.757 20.5802 13.7039 20.2812 13.7089 19.8242C13.7086 19.7636 13.7084 19.7029 13.708 19.6404C13.7078 19.5128 13.7084 19.3851 13.7097 19.2575C13.7114 19.063 13.7097 18.8688 13.7077 18.6743C13.7079 18.5498 13.7083 18.4253 13.7089 18.3008C13.7083 18.2431 13.7077 18.1855 13.707 18.1261C13.7143 17.7228 13.8013 17.493 14.063 17.1875C14.4608 16.8326 14.8051 16.829 15.313 16.8335ZM15.0005 18.125C15.0005 18.7437 15.0005 19.3625 15.0005 20C15.8255 20 16.6505 20 17.5005 20C17.5005 19.3812 17.5005 18.7625 17.5005 18.125C16.6755 18.125 15.8505 18.125 15.0005 18.125Z" fill="#A6A182"/>
<path d="M7.81295 16.8335C7.88748 16.8332 7.962 16.8329 8.03878 16.8326C8.19585 16.8324 8.35291 16.8329 8.50997 16.8343C8.7497 16.8359 8.98925 16.8343 9.22897 16.8323C9.38196 16.8325 9.53496 16.8329 9.68795 16.8335C9.7949 16.8325 9.7949 16.8325 9.90402 16.8316C10.338 16.8379 10.6015 16.8873 10.938 17.1875C11.2439 17.5448 11.297 17.8438 11.292 18.3008C11.2924 18.3918 11.2924 18.3918 11.2929 18.4846C11.2931 18.6122 11.2925 18.7399 11.2912 18.8675C11.2895 19.062 11.2912 19.2562 11.2932 19.4507C11.293 19.5752 11.2926 19.6997 11.292 19.8242C11.2926 19.8818 11.2932 19.9395 11.2939 19.9988C11.2866 20.4022 11.1996 20.632 10.938 20.9375C10.5401 21.2924 10.1958 21.296 9.68795 21.2915C9.57617 21.2919 9.57617 21.2919 9.46212 21.2924C9.30506 21.2926 9.14799 21.292 8.99093 21.2907C8.7512 21.2891 8.51166 21.2907 8.27194 21.2927C8.11894 21.2925 7.96595 21.2921 7.81295 21.2915C7.706 21.2924 7.706 21.2924 7.59689 21.2934C7.16289 21.2871 6.89941 21.2376 6.56295 20.9375C6.25698 20.5802 6.20393 20.2812 6.20895 19.8242C6.20865 19.7636 6.20835 19.7029 6.20804 19.6404C6.20783 19.5128 6.2084 19.3851 6.20971 19.2575C6.21138 19.063 6.20972 18.8688 6.20773 18.6743C6.20793 18.5498 6.20833 18.4253 6.20895 18.3008C6.20832 18.2431 6.20768 18.1855 6.20703 18.1261C6.21429 17.7228 6.30129 17.493 6.56295 17.1875C6.96078 16.8326 7.30512 16.829 7.81295 16.8335ZM7.50045 18.125C7.50045 18.7437 7.50045 19.3625 7.50045 20C8.32545 20 9.15045 20 10.0005 20C10.0005 19.3812 10.0005 18.7625 10.0005 18.125C9.17545 18.125 8.35045 18.125 7.50045 18.125Z" fill="#A6A182"/>
<path d="M22.7843 22.4585C22.8557 22.4582 22.9271 22.4579 23.0007 22.4576C23.1511 22.4574 23.3014 22.4579 23.4518 22.4593C23.6819 22.4609 23.9119 22.4593 24.142 22.4573C24.2884 22.4575 24.4348 22.4579 24.5811 22.4585C24.6498 22.4579 24.7185 22.4572 24.7893 22.4566C25.2646 22.4639 25.2646 22.4639 25.5123 22.6491C25.6347 22.8259 25.6678 22.9122 25.6645 23.125C25.6653 23.1766 25.6661 23.2281 25.667 23.2812C25.6042 23.5176 25.5072 23.6014 25.313 23.75C25.0872 23.7773 24.8922 23.7866 24.6672 23.7805C24.6052 23.7801 24.5432 23.7796 24.4794 23.7792C24.2819 23.7774 24.0846 23.7735 23.8872 23.7695C23.7531 23.768 23.619 23.7665 23.4849 23.7653C23.1567 23.7621 22.8287 23.756 22.5005 23.75C22.5005 24.3687 22.5005 24.9875 22.5005 25.625C22.6551 25.6508 22.8098 25.6766 22.9692 25.7031C23.162 25.9923 23.1767 26.2271 23.1255 26.5625C23.018 26.7578 23.018 26.7578 22.813 26.875C22.4247 26.9388 22.1239 26.9194 21.768 26.748C21.4481 26.4585 21.2679 26.2248 21.21 25.7898C21.208 25.6763 21.2077 25.5627 21.2089 25.4492C21.2086 25.3886 21.2084 25.3279 21.208 25.2654C21.2078 25.1378 21.2084 25.0101 21.2097 24.8825C21.2114 24.688 21.2097 24.4938 21.2077 24.2993C21.2079 24.1748 21.2083 24.0503 21.2089 23.9258C21.2083 23.8681 21.2077 23.8105 21.207 23.7511C21.2143 23.3478 21.3013 23.118 21.563 22.8125C21.9554 22.4654 22.2847 22.4539 22.7843 22.4585Z" fill="#A6A182"/>
</svg>
