<svg width="40" height="40" viewBox="0 0 40 40" fill="none" xmlns="http://www.w3.org/2000/svg">
<g clip-path="url(#clip0_172_261)">
<path d="M12.4214 12.9443C12.5106 12.942 12.5997 12.9398 12.6915 12.9374C12.7772 12.9368 12.8629 12.9361 12.9512 12.9355C13.0685 12.9337 13.0685 12.9337 13.1882 12.932C13.4539 12.9785 13.5447 13.0731 13.7105 13.2812C13.7659 13.5084 13.737 13.6674 13.7105 13.9062C13.569 14.1152 13.4857 14.1374 13.2418 14.2187C13.122 14.2258 13.0019 14.229 12.882 14.2297C12.7763 14.232 12.7763 14.232 12.6685 14.2343C12.5216 14.2369 12.3747 14.2384 12.2278 14.2386C11.7179 14.2523 11.367 14.3505 10.9761 14.6875C10.8432 14.844 10.8432 14.844 10.7808 15.0097C10.7575 15.0615 10.7341 15.1133 10.71 15.1666C10.6518 15.3242 10.6518 15.3242 10.6636 15.5468C16.8511 15.5468 23.0386 15.5468 29.4136 15.5468C29.3549 15.1196 29.3549 15.1196 29.1646 14.79C29.1194 14.7243 29.1194 14.7243 29.0734 14.6573C28.7439 14.3341 28.3896 14.2675 27.9424 14.2673C27.8907 14.2669 27.8389 14.2666 27.7856 14.2662C27.6132 14.2653 27.4409 14.266 27.2686 14.2668C27.1446 14.2665 27.0206 14.266 26.8966 14.2655C26.63 14.2646 26.3635 14.2644 26.097 14.2648C25.6755 14.2653 25.2539 14.2641 24.8324 14.2625C23.9376 14.2596 23.0428 14.2586 22.148 14.2578C21.182 14.2569 20.2159 14.2557 19.2499 14.2523C18.8309 14.2508 18.412 14.2505 17.9931 14.2511C17.7324 14.2512 17.4717 14.2504 17.211 14.2493C17.0902 14.2489 16.9695 14.249 16.8487 14.2496C16.6837 14.2502 16.5186 14.2494 16.3536 14.2483C16.2613 14.2482 16.169 14.2482 16.0739 14.2481C15.7867 14.2149 15.5973 14.1339 15.3511 13.9843C15.2304 13.7428 15.2501 13.5473 15.273 13.2812C15.4434 13.0471 15.5373 12.9766 15.8255 12.9294C15.9204 12.9293 16.0154 12.9292 16.1131 12.929C16.1661 12.9286 16.2191 12.9281 16.2737 12.9276C16.4513 12.9263 16.6287 12.9273 16.8062 12.9283C16.9336 12.9279 17.0609 12.9273 17.1882 12.9266C17.5341 12.9252 17.8801 12.9258 18.226 12.9267C18.5884 12.9275 18.9508 12.9268 19.3131 12.9263C19.9222 12.9257 20.5313 12.9265 21.1404 12.928C21.8433 12.9297 22.5463 12.9291 23.2492 12.9274C23.8533 12.926 24.4574 12.9258 25.0615 12.9266C25.4221 12.9271 25.7826 12.9272 26.1431 12.9261C26.4826 12.9252 26.822 12.9259 27.1615 12.9277C27.2857 12.9281 27.4098 12.928 27.534 12.9273C28.5037 12.9224 29.3173 13.0535 30.0386 13.75C30.4362 14.2197 30.7297 14.7804 30.7463 15.4062C30.7106 15.8051 30.6076 16.1683 30.3032 16.441C29.96 16.6983 29.6826 16.8068 29.2505 16.8062C29.1878 16.8063 29.125 16.8065 29.0604 16.8066C28.992 16.8063 28.9236 16.806 28.8531 16.8057C28.7795 16.8057 28.7059 16.8057 28.6301 16.8057C28.392 16.8057 28.1539 16.8051 27.9158 16.8045C27.7688 16.8044 27.6217 16.8043 27.4747 16.8042C26.9296 16.8038 26.3845 16.8027 25.8394 16.8017C24.0122 16.7993 24.0122 16.7993 22.148 16.7968C22.148 20.2773 22.148 23.7578 22.148 27.3437C22.4316 27.3695 22.7152 27.3953 23.0074 27.4218C23.6613 27.6456 24.1274 27.9779 24.438 28.6084C24.6423 29.1289 24.8229 29.725 24.6431 30.2734C24.492 30.598 24.2623 30.7788 23.9449 30.9375C23.7018 30.9464 23.4605 30.9506 23.2174 30.9513C23.1042 30.9521 23.1042 30.9521 22.9887 30.9529C22.7382 30.9544 22.4877 30.9553 22.2371 30.9561C22.1089 30.9566 22.1089 30.9566 21.9781 30.9571C21.5258 30.9587 21.0734 30.9598 20.621 30.9605C20.1535 30.9614 19.6861 30.9641 19.2187 30.9672C18.8594 30.9692 18.5002 30.9699 18.1409 30.9702C17.9686 30.9705 17.7963 30.9715 17.624 30.9729C17.3827 30.9748 17.1416 30.9747 16.9003 30.9742C16.7936 30.9757 16.7936 30.9757 16.6848 30.9772C16.2422 30.9736 16.0048 30.9119 15.6636 30.625C15.4281 30.3378 15.3239 30.0336 15.3511 29.6631C15.4907 28.8696 15.7729 28.2115 16.4208 27.7102C16.8873 27.4148 17.3887 27.3437 17.9293 27.3437C17.9293 23.8633 17.9293 20.3828 17.9293 16.7968C15.5113 16.8061 15.5113 16.8061 13.0934 16.818C12.6248 16.819 12.6248 16.819 12.4051 16.8192C12.2523 16.8196 12.0995 16.8204 11.9468 16.8216C11.7147 16.8233 11.4828 16.8235 11.2508 16.8235C11.1832 16.8243 11.1156 16.8251 11.046 16.826C10.5243 16.8233 10.1626 16.7233 9.74566 16.3916C9.45355 16.0264 9.30711 15.6777 9.33551 15.2051C9.43673 14.5737 9.78544 13.9321 10.273 13.5156C11.0149 13.039 11.5532 12.9517 12.4214 12.9443ZM19.1793 16.7968C19.1793 20.2773 19.1793 23.7578 19.1793 27.3437C19.7464 27.3437 20.3136 27.3437 20.898 27.3437C20.898 23.8633 20.898 20.3828 20.898 16.7968C20.3308 16.7968 19.7636 16.7968 19.1793 16.7968ZM16.8843 29.0088C16.7231 29.2462 16.7231 29.2462 16.6793 29.6875C18.8964 29.6875 21.1136 29.6875 23.398 29.6875C23.3177 29.2058 23.2654 29.0787 22.9293 28.75C22.6024 28.6144 22.3235 28.5738 21.9713 28.5723C21.8762 28.5715 21.781 28.5708 21.6829 28.57C21.5811 28.5701 21.4793 28.5702 21.3744 28.5702C21.2678 28.5699 21.1611 28.5696 21.0545 28.5692C20.8316 28.5686 20.6087 28.5686 20.3857 28.5691C20.1011 28.5695 19.8166 28.5682 19.532 28.5664C19.312 28.5652 19.0919 28.5652 18.8719 28.5654C18.7163 28.5653 18.5608 28.5643 18.4052 28.5632C17.5684 28.5674 17.5684 28.5674 16.8843 29.0088Z" fill="#A6A182"/>
<path d="M3.41338 9.17483C4.21309 9.58542 4.66901 10.1959 5.00029 11.0157C5.07795 11.3503 5.10896 11.6814 5.13427 12.0236C5.14704 12.1648 5.14704 12.1648 5.16007 12.3089C5.18666 12.6068 5.21068 12.905 5.23467 13.2032C5.25167 13.3967 5.26887 13.5902 5.28628 13.7836C5.34653 14.4586 5.40337 15.1338 5.45949 15.809C5.48358 16.0978 5.50817 16.3865 5.53283 16.6751C5.53983 16.7612 5.54683 16.8474 5.55405 16.9361C5.59749 17.9253 5.59749 17.9253 5.93779 18.8282C6.24373 19.0001 6.52341 19.0048 6.86955 19.0068C6.92246 19.0074 6.97536 19.0079 7.02987 19.0085C7.14428 19.0095 7.25869 19.0102 7.3731 19.0106C7.55484 19.0113 7.73655 19.0129 7.91828 19.0147C8.30466 19.0185 8.69105 19.0211 9.07744 19.0235C9.52416 19.0263 9.97086 19.0296 10.4176 19.0341C10.5954 19.0356 10.7732 19.0363 10.9511 19.0369C11.9881 19.0445 12.9861 19.1466 13.7939 19.8715C14.3752 20.5347 14.6376 21.1906 14.639 22.0606C14.6409 22.124 14.6428 22.1875 14.6448 22.2528C14.6473 22.7862 14.5073 23.1773 14.1717 23.5929C13.6288 24.0473 13.1397 24.156 12.4368 24.1461C12.3827 24.1458 12.3286 24.1454 12.2728 24.1449C12.1403 24.1439 12.0078 24.1423 11.8753 24.1407C11.9004 24.2214 11.9004 24.2214 11.9261 24.3037C12.0858 24.8172 12.2455 25.3307 12.4051 25.8442C12.4871 26.1081 12.5691 26.3719 12.6513 26.6358C12.8359 27.229 13.0198 27.8226 13.2026 28.4164C13.2724 28.6422 13.3431 28.8677 13.4142 29.0931C13.4503 29.2099 13.4863 29.3268 13.5223 29.4437C13.552 29.5385 13.5817 29.6333 13.6123 29.731C13.6959 30.1068 13.7623 30.4808 13.5501 30.8203C13.2855 30.9831 13.118 30.9811 12.8128 30.9375C12.5368 30.7165 12.438 30.5098 12.3358 30.1755C12.2955 30.0464 12.2955 30.0464 12.2545 29.9147C12.2142 29.7805 12.2142 29.7805 12.1731 29.6436C12.1454 29.5538 12.1177 29.464 12.0891 29.3715C12.0378 29.2054 11.9869 29.0392 11.9366 28.8728C11.8921 28.7271 11.8454 28.5821 11.7972 28.4375C9.16748 28.4117 6.53779 28.386 3.82842 28.3594C3.75108 28.6688 3.67373 28.9782 3.59404 29.2969C3.51887 29.5477 3.44219 29.7958 3.35967 30.044C3.34033 30.1049 3.321 30.1657 3.30108 30.2285C3.27207 30.3161 3.27207 30.3161 3.24248 30.4056C3.22556 30.4573 3.20864 30.509 3.19121 30.5623C3.11282 30.7298 3.03662 30.8235 2.89092 30.9375C2.35579 31.0055 2.35579 31.0055 2.06572 30.7862C1.75656 30.1275 2.20668 29.2148 2.4124 28.5556C2.4507 28.4313 2.48893 28.3069 2.52711 28.1826C2.62723 27.8569 2.72808 27.5315 2.8291 27.2062C2.95192 26.8102 3.07389 26.4139 3.19595 26.0177C3.29088 25.7097 3.38593 25.4017 3.4814 25.0938C3.4989 25.0372 3.5164 24.9807 3.53444 24.9224C3.58163 24.77 3.6289 24.6176 3.67617 24.4652C3.73206 24.2794 3.78414 24.095 3.82842 23.9063C3.73013 23.8789 3.63184 23.8515 3.53057 23.8233C2.37825 23.4367 1.63949 22.6179 1.09404 21.5625C0.903413 21.0827 0.806502 20.6126 0.74828 20.1013C0.734295 19.984 0.734295 19.984 0.720026 19.8642C0.568448 18.5426 0.456929 17.2164 0.340584 15.8913C0.305305 15.4898 0.26908 15.0884 0.23262 14.6871C0.204195 14.3725 0.176406 14.0578 0.148782 13.7431C0.135704 13.5952 0.122412 13.4474 0.108878 13.2995C0.039594 12.5399 -0.0124419 11.7832 -0.0199426 11.0202C-0.0210959 10.9558 -0.0222493 10.8915 -0.0234375 10.8253C-0.0230919 10.3774 0.0504474 10.0438 0.324086 9.67593C1.08249 8.91912 2.42492 8.82522 3.41338 9.17483ZM1.39093 10.4401C1.2068 10.6822 1.21369 10.8139 1.22149 11.1165C1.22266 11.167 1.22383 11.2175 1.22503 11.2695C1.24974 12.0552 1.32803 12.839 1.39861 13.6216C1.41403 13.7963 1.42942 13.971 1.44478 14.1458C1.4769 14.51 1.50938 14.8742 1.54212 15.2384C1.58387 15.703 1.62484 16.1677 1.66556 16.6324C1.69719 16.9925 1.72918 17.3527 1.76128 17.7128C1.77651 17.884 1.79165 18.0553 1.80668 18.2266C1.92109 20.3655 1.92109 20.3655 3.02123 22.1289C3.82745 22.7339 4.67098 22.9148 5.65635 22.9121C5.77329 22.9127 5.77329 22.9127 5.89259 22.9133C6.14814 22.9144 6.40368 22.9143 6.65923 22.9142C6.8377 22.9145 7.01617 22.9148 7.19465 22.9152C7.56764 22.9157 7.94063 22.9157 8.31363 22.9153C8.79167 22.9149 9.26968 22.9162 9.74772 22.918C10.1158 22.9191 10.4839 22.9192 10.852 22.919C11.0283 22.919 11.2046 22.9194 11.3809 22.9202C11.6269 22.9212 11.873 22.9206 12.1191 22.9197C12.1918 22.9203 12.2645 22.9209 12.3395 22.9216C12.7162 22.9185 12.9783 22.9063 13.2815 22.6563C13.4993 22.2814 13.4248 21.9672 13.3459 21.5583C13.2247 21.125 13.0137 20.8822 12.6712 20.6006C12.0443 20.2687 11.4059 20.2905 10.7132 20.2911C10.5298 20.2912 10.3465 20.2901 10.1631 20.2888C9.64207 20.2852 9.12106 20.2833 8.60003 20.2828C8.28017 20.2824 7.96033 20.2805 7.64048 20.2777C7.51945 20.2769 7.39842 20.2767 7.27739 20.2771C6.4961 20.2797 5.79775 20.2564 5.17119 19.7412C5.1148 19.672 5.0584 19.6027 5.00029 19.5313C4.96585 19.4893 4.93141 19.4473 4.89592 19.404C4.50679 18.9013 4.43159 18.3729 4.38203 17.7543C4.37629 17.6881 4.37054 17.622 4.36463 17.5539C4.35229 17.4111 4.34019 17.2684 4.32832 17.1256C4.30943 16.8992 4.28982 16.6729 4.27 16.4466C4.2138 15.8035 4.15891 15.1602 4.10455 14.517C4.07118 14.1227 4.03694 13.7285 4.00219 13.3343C3.98917 13.1846 3.9765 13.0349 3.96417 12.8851C3.9469 12.6753 3.92852 12.4656 3.90992 12.2559C3.90516 12.1947 3.90041 12.1335 3.89551 12.0705C3.85152 11.5948 3.76022 11.1329 3.44268 10.7596C3.36292 10.6954 3.36292 10.6954 3.28154 10.6299C3.20178 10.5636 3.20178 10.5636 3.12041 10.4959C2.81755 10.2853 2.50869 10.2932 2.15361 10.2881C2.05059 10.2852 1.94757 10.2823 1.84142 10.2793C1.56492 10.2889 1.56492 10.2889 1.39093 10.4401ZM5.07842 24.1407C4.93662 24.6015 4.79483 25.0623 4.64873 25.5371C4.60387 25.6825 4.559 25.828 4.51278 25.9778C4.47751 26.0927 4.44226 26.2077 4.40703 26.3227C4.38848 26.3826 4.36992 26.4425 4.3508 26.5043C4.25381 26.8014 4.25381 26.8014 4.21904 27.1094C6.59092 27.1094 8.96279 27.1094 11.4065 27.1094C11.1831 26.1037 10.8525 25.1246 10.5472 24.1407C8.74248 24.1407 6.93779 24.1407 5.07842 24.1407Z" fill="#A6A182"/>
<path d="M39.2135 9.21389C39.633 9.4755 39.8615 9.88001 40.0778 10.3125C40.128 11.4612 40.0345 12.6007 39.9322 13.7439C39.917 13.9191 39.9018 14.0943 39.8866 14.2695C39.8549 14.6338 39.8228 14.998 39.7903 15.3622C39.7489 15.8256 39.7088 16.2891 39.6689 16.7526C39.6378 17.1134 39.6061 17.4742 39.5742 17.8349C39.5592 18.0056 39.5443 18.1764 39.5297 18.3472C39.304 20.9634 39.304 20.9634 38.9933 21.3592C38.7499 21.5433 38.5778 21.5215 38.2809 21.4844C38.0954 21.4014 38.0954 21.4014 37.9684 21.25C37.8688 20.9155 37.8911 20.6659 37.9572 20.3263C38.0915 19.5493 38.1465 18.7625 38.2156 17.9776C38.2311 17.8035 38.2467 17.6293 38.2622 17.4552C38.2946 17.0912 38.3268 16.7273 38.3587 16.3633C38.3994 15.9002 38.4409 15.4373 38.4827 14.9744C38.515 14.615 38.5468 14.2555 38.5784 13.896C38.5935 13.7255 38.6088 13.5549 38.6242 13.3844C38.7123 12.4097 38.7723 11.4477 38.7497 10.4688C38.4705 10.3757 38.2383 10.3746 37.944 10.3711C37.8428 10.3691 37.7416 10.3671 37.6373 10.365C37.2046 10.4028 36.9611 10.5366 36.6598 10.8448C36.3504 11.2831 36.298 11.7156 36.2564 12.2357C36.2507 12.3017 36.2449 12.3677 36.239 12.4357C36.2266 12.5784 36.2145 12.7211 36.2027 12.8638C36.1838 13.0902 36.1642 13.3165 36.1444 13.5428C36.0881 14.1861 36.0333 14.8295 35.9789 15.4729C35.9455 15.8671 35.9113 16.2612 35.8766 16.6553C35.8635 16.8049 35.8509 16.9546 35.8385 17.1043C35.8212 17.3143 35.8029 17.5242 35.7843 17.734C35.7795 17.7951 35.7748 17.8561 35.7699 17.919C35.7054 18.6188 35.5081 19.2625 34.9997 19.7656C34.4517 20.1638 34.0413 20.3213 33.3665 20.3248C33.3128 20.3252 33.2592 20.3256 33.2039 20.326C33.0876 20.3269 32.9713 20.3276 32.855 20.3281C32.6703 20.329 32.4857 20.3305 32.301 20.3322C31.776 20.337 31.251 20.3413 30.7259 20.3439C30.4044 20.3455 30.0829 20.3483 29.7614 20.3518C29.6395 20.3529 29.5176 20.3535 29.3957 20.3538C28.2617 20.3365 28.2617 20.3365 27.2702 20.8155C27.217 20.8815 27.1638 20.9476 27.109 21.0156C27.0692 21.0618 27.0293 21.1079 26.9882 21.1554C26.8488 21.3676 26.8134 21.5422 26.7721 21.792C26.7579 21.8717 26.7437 21.9513 26.7291 22.0334C26.7172 22.2929 26.7454 22.4317 26.8747 22.6563C27.0963 22.7938 27.2651 22.8322 27.5239 22.8329C27.5907 22.8334 27.6575 22.834 27.7263 22.8346C27.8353 22.8343 27.8353 22.8343 27.9464 22.834C28.0235 22.8344 28.1005 22.8348 28.1798 22.8352C28.4349 22.8363 28.6899 22.8362 28.945 22.836C29.1227 22.8363 29.3004 22.8367 29.4781 22.837C29.8512 22.8376 30.2242 22.8376 30.5972 22.8372C31.0734 22.8367 31.5495 22.8381 32.0257 22.8399C32.3931 22.841 32.7605 22.8411 33.128 22.8408C33.3034 22.8409 33.4788 22.8413 33.6542 22.8421C34.6708 22.8461 35.5637 22.8428 36.5084 22.4317C36.7983 22.3432 36.8434 22.3315 37.1042 22.4365C37.3434 22.5781 37.3434 22.5781 37.4215 22.7344C37.4659 23.2137 37.4659 23.2137 37.3092 23.4522C37.0116 23.6627 36.6236 23.9063 36.2497 23.9063C36.4134 24.4457 36.5771 24.9851 36.7408 25.5245C36.8169 25.7751 36.893 26.0258 36.9691 26.2765C37.028 26.4707 37.087 26.6649 37.146 26.8591C37.2045 27.0521 37.263 27.2452 37.3214 27.4382C37.46 27.896 37.5999 28.3533 37.7435 28.8095C37.7691 28.8916 37.7947 28.9736 37.8211 29.0582C37.8688 29.2107 37.9169 29.363 37.9657 29.5151C38.2263 30.3521 38.2263 30.3521 38.0075 30.7715C37.7708 30.9727 37.6441 30.9835 37.3434 30.9894C37.1029 30.9095 37.0191 30.7511 36.8747 30.5469C36.7818 30.3186 36.7818 30.3186 36.7074 30.0699C36.6802 29.9802 36.653 29.8905 36.625 29.7982C36.5842 29.6588 36.5842 29.6588 36.5426 29.5166C36.5142 29.4228 36.4858 29.329 36.4566 29.2324C36.2497 28.542 36.2497 28.542 36.2497 28.3594C32.3051 28.3981 32.3051 28.3981 28.2809 28.4375C28.0747 29.1078 27.8684 29.7781 27.6559 30.4688C27.4215 30.8594 27.4215 30.8594 27.2653 30.9375C26.9685 30.965 26.7853 30.9787 26.528 30.8203C26.3116 30.4741 26.3845 30.0949 26.4706 29.7129C26.5009 29.6151 26.5312 29.5172 26.5624 29.4164C26.5791 29.3619 26.5957 29.3073 26.6129 29.251C26.6675 29.0727 26.7233 28.8947 26.7791 28.7168C26.8176 28.5921 26.8559 28.4675 26.8942 28.3428C26.9947 28.016 27.0963 27.6896 27.1981 27.3632C27.3017 27.0306 27.4042 26.6976 27.5068 26.3646C28.0721 24.5326 28.0721 24.5326 28.2028 24.1406C28.1263 24.1434 28.0499 24.1461 27.9712 24.1489C27.1007 24.1669 26.5121 24.1071 25.8377 23.5242C25.4732 23.0789 25.4272 22.6402 25.4342 22.085C25.4349 22.0192 25.4355 21.9535 25.4362 21.8857C25.4588 21.0554 25.7465 20.4411 26.3278 19.8438C27.0652 19.2363 27.8229 19.0563 28.7679 19.049C28.8214 19.0484 28.875 19.0479 28.9301 19.0474C29.0454 19.0463 29.1607 19.0454 29.2759 19.0446C29.4585 19.0433 29.6412 19.0415 29.8238 19.0395C30.3426 19.034 30.8615 19.0293 31.3804 19.0253C31.6986 19.0228 32.0168 19.0196 32.3351 19.0159C32.456 19.0146 32.5769 19.0137 32.6978 19.013C32.8668 19.012 33.0358 19.0102 33.2048 19.0081C33.3488 19.0069 33.3488 19.0069 33.4958 19.0056C33.749 18.9845 33.9192 18.9525 34.1403 18.8281C34.5694 18.1971 34.5043 17.184 34.5658 16.4439C34.5825 16.2428 34.5998 16.0417 34.6172 15.8406C34.6602 15.3417 34.7024 14.8426 34.7445 14.3436C34.7803 13.9204 34.8164 13.4972 34.853 13.0741C34.8699 12.8771 34.8863 12.6801 34.9026 12.483C34.9949 11.3987 35.1053 10.4375 35.9344 9.65396C36.793 8.99151 38.2035 8.76171 39.2135 9.21389ZM29.5309 24.1406C29.0603 25.6141 29.0603 25.6141 28.6715 27.1094C31.0434 27.1094 33.4153 27.1094 35.859 27.1094C35.588 26.1155 35.2923 25.1284 34.9997 24.1406C33.195 24.1406 31.3903 24.1406 29.5309 24.1406Z" fill="#A6A182"/>
</g>
<defs>
<clipPath id="clip0_172_261">
<rect width="40" height="40" fill="white"/>
</clipPath>
</defs>
</svg>
