<svg width="30" height="30" viewBox="0 0 30 30" fill="none" xmlns="http://www.w3.org/2000/svg">
<path d="M5.44918 6.35718L6.32223 8.16187L8.3027 8.4314C8.69528 8.48413 8.8359 8.97046 8.56637 9.22828L7.1191 10.6169L7.47653 12.5857C7.54684 12.9724 7.13668 13.2654 6.79684 13.0779L5.03317 12.1287L3.2695 13.0779C2.92965 13.2595 2.50192 12.9783 2.59567 12.5564L2.94723 10.6111L1.49996 9.22242C1.21871 8.95288 1.37106 8.47242 1.7695 8.41968L3.7441 8.15015L4.61715 6.34546C4.78121 5.99976 5.28512 6.00562 5.44918 6.35718ZM5.58981 8.79468L5.03317 7.63453L4.47067 8.79468C4.40621 8.92945 4.27145 9.03492 4.11324 9.05835L2.84176 9.22828L3.7734 10.1189C3.87887 10.2244 3.93746 10.3767 3.90817 10.5349L3.67965 11.8005L4.80465 11.197C4.93942 11.1267 5.10934 11.115 5.24996 11.197L6.38082 11.8064L6.15817 10.5642C6.12301 10.4119 6.16403 10.2419 6.28707 10.1189L7.21871 9.22828L5.95895 9.05835C5.8066 9.04078 5.66012 8.94117 5.58981 8.79468ZM15.4218 2.10914L16.2949 3.91382L18.2812 4.18335C18.6738 4.23609 18.8144 4.72242 18.5449 4.98609L17.0976 6.37476L17.455 8.34351C17.5254 8.73023 17.1152 9.0232 16.7754 8.8357L15 7.88648L13.2363 8.8357C12.8964 9.01734 12.4687 8.73609 12.5625 8.31421L12.914 6.3689L11.4609 4.98023C11.1797 4.7107 11.332 4.23023 11.7304 4.1775L13.705 3.90796L14.5781 2.10914C14.7539 1.75171 15.2519 1.75757 15.4218 2.10914ZM15.5625 4.54664L15 3.38648L14.4433 4.54664C14.3789 4.6814 14.2441 4.78687 14.0859 4.81031L12.8086 4.98023L13.7402 5.87085C13.8515 5.97632 13.9043 6.12867 13.875 6.28687L13.6464 7.55249L14.7773 6.94898C14.9121 6.87867 15.0761 6.86695 15.2226 6.94898L16.3535 7.55835L16.1308 6.31617C16.0957 6.16382 16.1367 5.9939 16.2597 5.87085L17.1914 4.98023L15.9316 4.80445C15.7734 4.79273 15.6328 4.69312 15.5625 4.54664ZM25.3886 6.35718L26.2617 8.16187L28.2422 8.4314C28.6347 8.48413 28.7812 8.97046 28.5058 9.22828L27.0586 10.6169L27.416 12.5857C27.4863 12.9724 27.0761 13.2654 26.7363 13.0779L24.9726 12.1287L23.209 13.0779C22.8691 13.2595 22.4414 12.9783 22.5293 12.5564L22.8808 10.6111L21.4336 9.22242C21.1523 8.95288 21.3047 8.47242 21.7031 8.41968L23.6777 8.15015L24.5507 6.34546C24.7207 5.99976 25.2246 6.00562 25.3886 6.35718ZM25.5293 8.79468L24.9726 7.63453L24.4101 8.79468C24.3457 8.92945 24.2168 9.03492 24.0527 9.05835L22.7812 9.22828L23.707 10.1189C23.8125 10.2244 23.8711 10.3767 23.8418 10.5349L23.6132 11.8005L24.7441 11.197C24.8789 11.1267 25.0488 11.115 25.1894 11.197L26.3261 11.8064L26.1035 10.5642C26.0683 10.4119 26.1093 10.2419 26.2324 10.1189L27.1582 9.22828L25.8984 9.05835C25.7461 9.04078 25.5996 8.94117 25.5293 8.79468ZM12.8261 18.322C12.6972 18.0994 12.7734 17.8123 12.9961 17.6834C13.2187 17.5544 13.5058 17.6306 13.6347 17.8533L14.25 18.9197L16.4355 16.7341C16.6172 16.5525 16.916 16.5525 17.0976 16.7341C17.2793 16.9158 17.2793 17.2146 17.0976 17.3962L14.4785 20.0154C14.2617 20.2322 13.8984 20.1853 13.7461 19.9216L12.8261 18.322ZM15 13.3709C17.5488 13.3709 19.6172 15.4392 19.6172 17.988C19.6172 20.5369 17.5488 22.6052 15 22.6052C12.4511 22.6052 10.3828 20.5369 10.3828 17.988C10.3828 15.4392 12.4511 13.3709 15 13.3709ZM17.6015 15.3865C16.166 13.9509 13.8339 13.9509 12.3984 15.3865C10.9629 16.822 10.9629 19.1541 12.3984 20.5896C13.8339 22.0252 16.166 22.0252 17.6015 20.5896C19.0371 19.1482 19.0371 16.822 17.6015 15.3865ZM15 10.4705C19.1484 10.4705 22.5117 13.8337 22.5117 17.9822C22.5117 19.5525 22.0312 21.0115 21.205 22.2185L23.4492 26.1033C23.666 26.4666 23.3672 26.8767 22.9804 26.8181L20.6836 26.4548L19.4531 27.9666C19.2363 28.2478 18.832 28.2009 18.6738 27.9197L17.1035 25.2009C15.7324 25.5994 14.2617 25.5994 12.8964 25.2009L11.3261 27.9197C11.1679 28.2009 10.7636 28.2478 10.5468 27.9666L9.31637 26.4548L7.0195 26.8181C6.62692 26.8826 6.35153 26.4548 6.53903 26.1209L8.79489 22.2185C6.75582 19.2361 7.13668 15.2224 9.69137 12.6677C11.0449 11.3142 12.9257 10.4705 15 10.4705ZM20.5839 23.0095C19.8691 23.8064 18.9902 24.4451 17.9941 24.8787L19.1425 26.865L20.1269 25.658C20.2382 25.5173 20.4082 25.4646 20.5722 25.4939L22.1543 25.7459L20.5839 23.0095ZM12 24.8787C11.0097 24.4451 10.1308 23.8064 9.41598 23.0154L7.83981 25.7459L9.42184 25.4939C9.58004 25.4646 9.75582 25.5232 9.86715 25.658L10.8515 26.865L12 24.8787ZM19.6523 13.3357C17.0859 10.7693 12.9199 10.7693 10.3535 13.3357C7.78707 15.9021 7.78707 20.0681 10.3535 22.6345C12.9257 25.2009 17.0859 25.2009 19.6523 22.6345C22.2187 20.0681 22.2187 15.9021 19.6523 13.3357Z" fill="#A6A182"/>
</svg>
