<svg width="40" height="40" viewBox="0 0 40 40" fill="none" xmlns="http://www.w3.org/2000/svg">
<path d="M5.15625 0C5.84279 0.0472593 6.49088 0.229006 7.15302 0.404968C7.27774 0.437791 7.40248 0.470584 7.52722 0.50335C7.78727 0.571782 8.04721 0.640576 8.30709 0.709629C8.64046 0.798172 8.97406 0.88577 9.30775 0.973099C9.56474 1.04047 9.82159 1.10835 10.0784 1.17638C10.2014 1.20891 10.3245 1.24127 10.4476 1.27347C10.619 1.31837 10.7903 1.36396 10.9614 1.40974C11.0589 1.43553 11.1564 1.46131 11.2568 1.48788C11.4844 1.5625 11.4844 1.5625 11.6406 1.71875C11.6932 1.89428 11.7384 2.07199 11.7803 2.25037C11.7997 2.33232 11.7997 2.33232 11.8196 2.41593C11.8624 2.59682 11.9044 2.7779 11.9464 2.95898C11.9759 3.08451 12.0055 3.21003 12.0351 3.33553C12.097 3.59868 12.1586 3.86191 12.2198 4.12521C12.2985 4.46319 12.3778 4.80101 12.4573 5.13879C12.533 5.46031 12.6084 5.78191 12.6837 6.10352C12.6982 6.16515 12.7127 6.22678 12.7276 6.29028C12.7683 6.46419 12.8089 6.63815 12.8493 6.81213C12.8724 6.91124 12.8956 7.01035 12.9194 7.11246C12.9688 7.34375 12.9688 7.34375 12.9688 7.5C15.0828 7.5 17.1969 7.5 19.375 7.5C19.4008 7.21641 19.4266 6.93281 19.4531 6.64062C19.8123 4.62226 21.0412 2.80404 22.7046 1.62254C24.4221 0.464286 26.5571 -0.0024363 28.6017 0.340004C30.6336 0.736737 32.4636 1.80662 33.6676 3.50677C34.9188 5.40267 35.4188 7.51285 35 9.76562C34.5877 11.7232 33.4387 13.5493 31.7685 14.6776C31.5475 14.8189 31.3226 14.9495 31.0938 15.0781C30.9743 15.1453 30.9743 15.1453 30.8524 15.2139C29.9772 15.6774 29.0979 15.8756 28.125 16.0156C28.1345 16.0905 28.1439 16.1654 28.1537 16.2425C28.7563 21.0748 28.7563 21.0748 28.125 22.9688C27.5063 22.8141 27.5063 22.8141 26.875 22.6562C26.9004 22.4875 26.9004 22.4875 26.9263 22.3154C26.9483 22.1604 26.9703 22.0055 26.9922 21.8506C27.0034 21.7773 27.0145 21.7041 27.0261 21.6286C27.2319 20.1434 27.0592 18.6681 26.9043 17.1865C26.8753 16.9071 26.8471 16.6276 26.8189 16.3482C26.7655 15.821 26.7114 15.2938 26.657 14.7668C26.5771 13.9917 26.498 13.2165 26.4192 12.4412C26.4134 12.3842 26.4076 12.3272 26.4016 12.2685C26.3901 12.1548 26.3785 12.0412 26.367 11.9275C26.3333 11.596 26.2993 11.2645 26.2651 10.9331C26.2389 10.6794 26.213 10.4256 26.187 10.1719C26.1775 10.0806 26.168 9.98939 26.1582 9.89539C26.1497 9.81154 26.1411 9.7277 26.1323 9.64131C26.1248 9.5687 26.1173 9.49609 26.1096 9.42128C26.0942 9.2241 26.0938 9.02592 26.0938 8.82812C21.8656 8.82812 17.6375 8.82812 13.2812 8.82812C13.3844 9.21484 13.4875 9.60156 13.5938 10C13.6624 10.2811 13.73 10.562 13.7952 10.8438C13.8121 10.9163 13.829 10.9889 13.8464 11.0636C13.8814 11.2141 13.9163 11.3646 13.9511 11.5151C14.0046 11.7464 14.0586 11.9775 14.1125 12.2087C14.1468 12.356 14.1809 12.5032 14.2151 12.6505C14.2393 12.754 14.2393 12.754 14.2639 12.8595C14.2785 12.923 14.2932 12.9865 14.3082 13.0519C14.3212 13.1077 14.3341 13.1634 14.3474 13.2209C14.375 13.3594 14.375 13.3594 14.375 13.5156C15.2773 13.5156 16.1797 13.5156 17.1094 13.5156C17.1094 13.9281 17.1094 14.3406 17.1094 14.7656C14.7633 14.7656 12.4172 14.7656 10 14.7656C9.97422 15.1781 9.94844 15.5906 9.92188 16.0156C9.88543 16.389 9.84723 16.7612 9.80469 17.1338C9.79452 17.2268 9.78434 17.3198 9.77386 17.4156C9.6976 18.0947 9.6976 18.0947 9.60938 18.3594C14.5078 18.3594 19.4062 18.3594 24.4531 18.3594C24.2984 16.9285 24.2984 16.9285 24.1406 15.4688C24.1406 15.2367 24.1406 15.0047 24.1406 14.7656C22.1812 14.7656 20.2219 14.7656 18.2031 14.7656C18.2031 14.3531 18.2031 13.9406 18.2031 13.5156C19.1185 13.5138 20.0339 13.5124 20.9494 13.5116C21.3744 13.5112 21.7994 13.5106 22.2244 13.5097C22.6342 13.5089 23.044 13.5084 23.4538 13.5082C23.6105 13.5081 23.7672 13.5078 23.924 13.5074C24.1427 13.5068 24.3614 13.5067 24.5801 13.5068C24.6783 13.5063 24.6783 13.5063 24.7784 13.5059C25.2255 13.5067 25.2255 13.5067 25.3125 13.5938C25.3361 13.7459 25.3548 13.8988 25.3716 14.0519C25.3825 14.1504 25.3935 14.2489 25.4047 14.3505C25.4165 14.4597 25.4281 14.569 25.4398 14.6783C25.4457 14.7339 25.4517 14.7894 25.4578 14.8466C25.4896 15.1431 25.521 15.4397 25.552 15.7364C25.5773 15.977 25.6033 16.2176 25.63 16.4581C25.7701 17.7199 25.8847 18.9727 25.8844 20.2432C25.8845 20.3413 25.8846 20.4394 25.8847 20.5405C25.8765 21.3071 25.7764 22.0043 25.5469 22.7344C25.5186 22.8288 25.4903 22.9233 25.4611 23.0206C25.1057 24.1073 24.5485 25.0533 23.8281 25.9375C23.7803 25.9982 23.7325 26.059 23.6832 26.1215C22.2849 27.806 20.1063 28.7783 17.9688 29.0381C15.4818 29.2328 13.117 28.5143 11.2149 26.8958C9.47463 25.35 8.35064 23.1768 8.19109 20.8394C8.12939 19.3672 8.32298 17.9106 8.49285 16.4516C8.5381 16.0607 8.58183 15.6696 8.62582 15.2786C8.69212 14.6908 8.76029 14.1033 8.82812 13.5156C10.2203 13.5156 11.6125 13.5156 13.0469 13.5156C12.8922 12.9355 12.8922 12.9355 12.7344 12.3438C12.6657 12.0627 12.5981 11.7818 12.533 11.4999C12.5161 11.4274 12.4992 11.3549 12.4818 11.2801C12.4467 11.1297 12.4118 10.9792 12.377 10.8286C12.3235 10.5974 12.2695 10.3662 12.2156 10.135C12.1814 9.9878 12.1472 9.84055 12.113 9.6933C12.0889 9.5898 12.0889 9.5898 12.0642 9.48421C12.0496 9.42075 12.035 9.35728 12.0199 9.2919C12.0069 9.2361 11.994 9.1803 11.9807 9.12281C11.9531 8.98438 11.9531 8.98438 11.9531 8.82812C10.6641 8.82812 9.375 8.82812 8.04688 8.82812C7.99531 9.44687 7.94375 10.0656 7.89062 10.7031C7.78261 11.7398 7.78261 11.7398 7.7419 12.1041C7.68405 12.6245 7.62773 13.1451 7.57141 13.6656C7.51158 14.2178 7.45137 14.7698 7.38983 15.3218C6.87594 19.1231 6.87594 19.1231 7.34375 22.8906C7.35966 22.9467 7.37557 23.0027 7.39197 23.0604C8.17297 25.715 9.97067 27.8071 12.3755 29.1309C14.727 30.3596 17.4736 30.5875 20.0049 29.8242C22.1521 29.132 24.0437 27.835 25.3174 25.9534C25.3673 25.8966 25.4173 25.8398 25.4688 25.7812C25.8301 25.7812 25.9355 25.8581 26.2305 26.0547C26.3074 26.1054 26.3843 26.1562 26.4636 26.2085C26.522 26.248 26.5804 26.2875 26.6406 26.3281C26.469 26.8287 26.1214 27.1819 25.7812 27.5781C25.7243 27.6448 25.6674 27.7115 25.6088 27.7802C23.7728 29.8775 21.148 31.2898 18.3594 31.5625C18.1273 31.5625 17.8953 31.5625 17.6562 31.5625C17.6562 32.5938 17.6562 33.625 17.6562 34.6875C17.8109 34.7391 17.9656 34.7906 18.125 34.8438C18.2782 34.9163 18.4298 34.9922 18.58 35.0708C18.6661 35.1157 18.7522 35.1605 18.8409 35.2067C18.9318 35.2545 19.0226 35.3023 19.1162 35.3516C19.211 35.4011 19.3057 35.4507 19.4005 35.5002C19.59 35.5993 19.7794 35.6986 19.9687 35.7981C20.2023 35.9207 20.4361 36.0426 20.6702 36.1642C22.9399 37.3463 22.9399 37.3463 23.2959 37.959C23.3341 38.0232 23.3722 38.0875 23.4116 38.1537C23.751 38.8245 23.6719 39.1666 23.6719 40C19.2891 40 14.9062 40 10.3906 40C10.3906 39.0047 10.4584 38.2591 11.1386 37.5232C11.5792 37.0983 12.0962 36.8737 12.6562 36.6406C12.7502 36.7896 12.8427 36.9395 12.9346 37.0898C12.9862 37.1732 13.0379 37.2566 13.0911 37.3425C13.2031 37.5781 13.2031 37.5781 13.2068 37.7502C13.0846 37.96 12.926 38.0197 12.71 38.125C12.3808 38.2867 12.2232 38.4018 11.9531 38.6719C17.0191 38.7105 17.0191 38.7105 22.1875 38.75C21.9057 38.3977 21.7176 38.2469 21.3327 38.0582C21.2799 38.0313 21.2271 38.0045 21.1727 37.9769C21.0019 37.8903 20.8306 37.805 20.6592 37.7197C20.5415 37.6603 20.4239 37.6009 20.3064 37.5413C20.075 37.424 19.8434 37.3072 19.6117 37.1906C19.164 36.9647 18.7209 36.7302 18.2782 36.4947C18.1759 36.4405 18.0729 36.3878 17.9691 36.3367C17.8125 36.25 17.8125 36.25 17.6498 36.1189C17.4328 35.9643 17.2972 35.8959 17.0312 35.8594C16.5235 35.9858 16.066 36.2818 15.6152 36.5381C15.4872 36.6079 15.359 36.6774 15.2307 36.7467C14.9175 36.9164 14.6067 37.0899 14.2969 37.2656C14.1099 37.035 13.9384 36.8179 13.8037 36.5527C13.7766 36.501 13.7495 36.4492 13.7216 36.3959C13.6719 36.25 13.6719 36.25 13.75 36.0156C13.939 35.9013 14.1244 35.8003 14.3216 35.7022C14.3722 35.6763 14.4228 35.6505 14.4749 35.6238C14.6642 35.5273 14.8541 35.4322 15.0439 35.3369C15.4677 35.1226 15.8915 34.9083 16.3281 34.6875C16.3539 33.6562 16.3797 32.625 16.4062 31.5625C16.1742 31.5625 15.9422 31.5625 15.7031 31.5625C15.4914 31.5371 15.2871 31.5085 15.0781 31.4697C15.0213 31.4593 14.9645 31.4488 14.906 31.438C12.8905 31.0488 11.0773 30.1824 9.53125 28.8281C9.43744 28.7485 9.43744 28.7485 9.34174 28.6673C7.1784 26.8021 5.86535 23.9368 5.63675 21.1097C5.53997 19.6915 5.70699 18.2848 5.85906 16.8768C5.89227 16.5677 5.92451 16.2585 5.95686 15.9492C6.01115 15.4316 6.06604 14.9141 6.12139 14.3966C6.19934 13.6678 6.27619 12.9389 6.35282 12.2099C6.4557 11.2318 6.55889 10.2537 6.66335 9.27573C6.67989 9.12071 6.69634 8.96567 6.71279 8.81063C6.72275 8.71759 6.73272 8.62455 6.74299 8.52869C6.75156 8.44837 6.76013 8.36804 6.76896 8.28528C6.79968 8.02294 6.83765 7.76148 6.875 7.5C8.44766 7.5 10.0203 7.5 11.6406 7.5C11.5375 7.11328 11.4344 6.72656 11.3281 6.32812C11.2598 6.05548 11.1923 5.78292 11.1267 5.50964C11.1098 5.4394 11.0929 5.36915 11.0755 5.29678C11.0405 5.15096 11.0056 5.00513 10.9708 4.85928C10.9174 4.6362 10.8634 4.41329 10.8093 4.19037C10.7751 4.04745 10.7409 3.90453 10.7068 3.7616C10.6907 3.69552 10.6746 3.62943 10.658 3.56135C10.6433 3.49947 10.6287 3.43759 10.6136 3.37383C10.6007 3.31994 10.5878 3.26605 10.5744 3.21053C10.5429 3.0235 10.5424 2.84557 10.5469 2.65625C10.4979 2.64826 10.4489 2.64026 10.3984 2.63203C9.77789 2.52555 9.17267 2.37607 8.56384 2.2168C8.45841 2.18936 8.35298 2.16193 8.24755 2.13451C8.02859 2.07748 7.80971 2.02019 7.59087 1.96274C7.31003 1.88905 7.02897 1.81626 6.74785 1.74368C6.53099 1.68754 6.31429 1.63084 6.09763 1.57397C5.99395 1.54685 5.89023 1.51994 5.78644 1.49324C5.64233 1.45609 5.49845 1.41807 5.35458 1.38C5.27268 1.35862 5.19079 1.33723 5.10641 1.31519C4.92188 1.25 4.92188 1.25 4.84375 1.09375C4.88883 0.904804 4.9384 0.7225 4.99512 0.537109C5.01037 0.485648 5.02563 0.434186 5.04135 0.381165C5.07914 0.253958 5.11763 0.126958 5.15625 0ZM27.8906 1.5625C27.8906 3.2125 27.8906 4.8625 27.8906 6.5625C28.3437 6.17535 28.3437 6.17535 28.7721 5.76801C28.8315 5.70861 28.8909 5.64921 28.9521 5.58801C29.0142 5.52549 29.0763 5.46297 29.1403 5.39856C29.2054 5.33333 29.2706 5.2681 29.3377 5.20089C29.544 4.99414 29.75 4.78711 29.9561 4.58008C30.0966 4.43917 30.2371 4.29828 30.3777 4.15741C30.7207 3.81348 31.0636 3.46933 31.4062 3.125C30.4049 2.1078 29.2876 1.82444 27.8906 1.5625ZM23.125 2.96875C23.2399 3.23411 23.3878 3.40716 23.5918 3.61076C23.6557 3.67487 23.7195 3.73897 23.7853 3.80502C23.8543 3.87347 23.9233 3.94193 23.9944 4.01245C24.0651 4.08311 24.1358 4.15376 24.2087 4.22656C24.358 4.37568 24.5075 4.52464 24.6573 4.67335C24.8496 4.86438 25.0415 5.05593 25.2331 5.24766C25.4157 5.43022 25.5986 5.61244 25.7816 5.79468C25.8507 5.86376 25.9199 5.93285 25.9912 6.00402C26.0548 6.06714 26.1184 6.13026 26.1839 6.1953C26.2402 6.25126 26.2965 6.30722 26.3544 6.36487C26.4645 6.49319 26.4645 6.49319 26.5625 6.48438C26.5625 4.86016 26.5625 3.23594 26.5625 1.5625C25.3722 1.5625 24.013 2.21298 23.125 2.96875ZM22.1094 3.98438C21.2697 4.96949 20.7031 6.19734 20.7031 7.5C22.3273 7.5 23.9516 7.5 25.625 7.5C25.2382 7.04734 25.2382 7.04734 24.8318 6.61852C24.7726 6.55912 24.7135 6.49973 24.6525 6.43853C24.5591 6.34536 24.5591 6.34536 24.4638 6.25031C24.3988 6.18518 24.3337 6.12006 24.2667 6.05297C24.1302 5.91638 23.9935 5.77988 23.8568 5.64348C23.6465 5.4336 23.4366 5.22331 23.2268 5.01297C23.0939 4.88014 22.961 4.74734 22.8281 4.61456C22.765 4.55134 22.7019 4.48812 22.637 4.42298C22.579 4.36531 22.5211 4.30764 22.4615 4.24822C22.4103 4.19713 22.3591 4.14604 22.3064 4.0934C22.2048 3.97558 22.2048 3.97558 22.1094 3.98438ZM32.2656 3.98438C31.8172 4.43099 31.369 4.87782 30.921 5.32491C30.7131 5.53249 30.505 5.73999 30.2968 5.94732C30.096 6.14724 29.8954 6.34735 29.695 6.54759C29.6183 6.62413 29.5416 6.7006 29.4647 6.777C29.3575 6.88364 29.2506 6.99054 29.1437 7.09745C29.0826 7.15835 29.0215 7.21924 28.9586 7.28198C28.8192 7.39951 28.8192 7.39951 28.8281 7.5C30.4781 7.5 32.1281 7.5 33.8281 7.5C33.5855 6.20622 33.3218 5.16919 32.5 4.14062C32.4227 4.08906 32.3453 4.0375 32.2656 3.98438ZM28.9062 8.82812C29.2899 9.27757 29.2899 9.27757 29.6936 9.70243C29.7514 9.76027 29.8092 9.8181 29.8688 9.87768C29.9296 9.93809 29.9904 9.99849 30.0531 10.0607C30.1166 10.1241 30.1801 10.1875 30.2455 10.2528C30.4467 10.4536 30.6481 10.654 30.8496 10.8545C30.9868 10.9912 31.1239 11.128 31.261 11.2648C31.5957 11.5986 31.9306 11.9322 32.2656 12.2656C32.7392 12.1078 32.9583 11.4983 33.1784 11.0754C33.5362 10.3296 33.7255 9.64876 33.8281 8.82812C32.2039 8.82812 30.5797 8.82812 28.9062 8.82812ZM27.4219 9.29688C27.6652 11.9953 27.6652 11.9953 27.9688 14.6875C29.2164 14.6045 30.4815 14.1532 31.4062 13.2812C31.0108 12.8036 30.5813 12.3668 30.1425 11.929C30.0663 11.8527 29.9901 11.7765 29.9139 11.7002C29.7553 11.5415 29.5966 11.3829 29.4378 11.2245C29.2338 11.021 29.0302 10.8171 28.8267 10.6131C28.67 10.4561 28.513 10.2992 28.356 10.1425C28.2808 10.0673 28.2056 9.99206 28.1305 9.91677C28.0262 9.81224 27.9216 9.70799 27.817 9.60375C27.7575 9.54433 27.698 9.48491 27.6367 9.4237C27.5215 9.28802 27.5215 9.28802 27.4219 9.29688ZM9.53125 19.6094C9.14809 20.3757 9.61589 21.8576 9.8584 22.6367C10.1991 23.5823 10.6694 24.3969 11.3281 25.1562C11.3877 25.2352 11.4474 25.3142 11.5088 25.3955C12.7689 26.7728 14.6412 27.6751 16.5051 27.7643C18.7015 27.8232 20.6168 27.1789 22.2656 25.7031C22.3142 25.661 22.3627 25.6189 22.4127 25.5756C23.6902 24.3931 24.4056 22.6354 24.6094 20.9375C24.6094 20.4992 24.6094 20.0609 24.6094 19.6094C19.6336 19.6094 14.6578 19.6094 9.53125 19.6094Z" fill="#A6A182"/>
<path d="M26.5625 23.6719C26.9879 23.7522 27.353 23.8474 27.7344 24.0625C27.6853 24.3711 27.5887 24.6249 27.4561 24.9072C27.4205 24.9835 27.385 25.0597 27.3483 25.1382C27.321 25.1957 27.2937 25.2533 27.2656 25.3125C26.8376 25.1918 26.4754 24.9879 26.0938 24.7656C26.2103 24.3772 26.3754 24.0298 26.5625 23.6719Z" fill="#A6A182"/>
<path d="M12.9727 23.1324C13.1696 23.2239 13.2795 23.3384 13.4229 23.501C13.4717 23.5547 13.5205 23.6084 13.5709 23.6637C13.6719 23.8282 13.6719 23.8282 13.6707 23.9817C13.5637 24.2028 13.4143 24.3423 13.2373 24.5117C13.1728 24.5742 13.1082 24.6366 13.0417 24.701C12.9918 24.7481 12.942 24.7952 12.8906 24.8438C12.5875 24.725 12.4423 24.5422 12.2461 24.2871C12.1909 24.216 12.1357 24.1449 12.0789 24.0717C12.0374 24.0171 11.9959 23.9625 11.9531 23.9063C12.066 23.6276 12.2029 23.5012 12.4512 23.335C12.5114 23.2934 12.5716 23.2518 12.6337 23.209C12.8125 23.125 12.8125 23.125 12.9727 23.1324Z" fill="#A6A182"/>
<path d="M12.1875 21.1719C12.249 21.3242 12.3033 21.4794 12.3535 21.6358C12.3811 21.7202 12.4087 21.8047 12.4371 21.8918C12.5 22.1094 12.5 22.1094 12.5 22.2656C12.0875 22.4203 11.675 22.575 11.25 22.7344C11.1855 22.5314 11.1211 22.3283 11.0547 22.1192C11.0343 22.0553 11.0139 21.9915 10.9929 21.9257C10.8594 21.5017 10.8594 21.5017 10.8594 21.3281C11.0513 21.2868 11.2434 21.2462 11.4355 21.2061C11.4901 21.1942 11.5447 21.1824 11.601 21.1702C12.0135 21.0849 12.0135 21.0849 12.1875 21.1719Z" fill="#A6A182"/>
<path d="M14.4531 24.5312C14.8221 24.6512 15.1843 24.7843 15.5469 24.9219C15.5115 25.0717 15.4756 25.2214 15.4395 25.3711C15.4095 25.4962 15.4095 25.4962 15.379 25.6238C15.3222 25.8249 15.2576 25.9903 15.1562 26.1719C14.7176 26.0496 14.3072 25.9247 13.9062 25.7031C13.9514 25.3858 14.054 25.1682 14.2236 24.8975C14.2664 24.8285 14.3092 24.7595 14.3533 24.6884C14.4027 24.6106 14.4027 24.6106 14.4531 24.5312Z" fill="#A6A182"/>
</svg>
