<svg width="40" height="40" viewBox="0 0 40 40" fill="none" xmlns="http://www.w3.org/2000/svg">
<g clip-path="url(#clip0_172_265)">
<path d="M19.9507 5.83008C20.0483 5.83015 20.0483 5.83015 20.1479 5.83021C21.2424 5.83349 22.2921 5.91068 23.3589 6.17188C23.4599 6.19637 23.4599 6.19637 23.5629 6.22136C25.4122 6.6877 27.1832 7.55903 28.6714 8.75001C28.739 8.80167 28.8066 8.85333 28.8762 8.90656C31.7865 11.1855 33.6109 14.5656 34.1095 18.2087C34.1683 18.7968 34.1673 19.385 34.1646 19.9756C34.1644 20.0741 34.1644 20.0741 34.1642 20.1746C34.1607 21.1249 34.1287 22.0411 33.9058 22.9688C33.8928 23.0274 33.8798 23.0861 33.8665 23.1465C33.043 26.8398 30.7309 29.9968 27.5679 32.0361C25.5682 33.291 23.2065 34.1422 20.8257 34.1565C20.7647 34.157 20.7036 34.1576 20.6408 34.1582C20.4449 34.1595 20.2491 34.16 20.0533 34.1602C19.9865 34.1602 19.9196 34.1603 19.8508 34.1603C18.8908 34.1591 17.968 34.1315 17.0308 33.9063C16.9722 33.8933 16.9135 33.8803 16.8531 33.8669C13.1598 33.0435 10.0028 30.7313 7.96344 27.5684C6.70966 25.5704 5.86558 23.2175 5.84033 20.8398C5.83957 20.7799 5.8388 20.72 5.83801 20.6582C5.82419 19.2928 5.84476 17.9749 6.17145 16.6406C6.19594 16.5397 6.19594 16.5397 6.22092 16.4367C6.68727 14.5874 7.55859 12.8163 8.74957 11.3281C8.80124 11.2606 8.8529 11.193 8.90613 11.1234C11.1856 8.21236 14.566 6.38834 18.21 5.89039C18.7895 5.83151 19.3687 5.82865 19.9507 5.83008ZM13.7496 8.67188C13.6265 8.7379 13.6265 8.7379 13.5009 8.80524C12.5112 9.35475 11.675 10.0836 10.8589 10.8594C10.8056 10.9077 10.7522 10.9561 10.6972 11.0059C8.96856 12.626 7.90369 14.9183 7.34332 17.1875C7.31835 17.2853 7.29337 17.3831 7.26764 17.4838C6.617 20.3933 7.2203 23.682 8.67145 26.25C8.69934 26.3002 8.72724 26.3504 8.75598 26.4021C9.13728 27.0832 9.55987 27.6942 10.0777 28.2813C10.1357 28.3478 10.1937 28.4144 10.2535 28.483C10.4267 28.6787 10.6029 28.8711 10.7808 29.0625C10.8316 29.1184 10.8823 29.1743 10.9346 29.2319C13.1727 31.5948 16.501 32.8607 19.7151 32.9636C21.2999 32.9948 22.886 32.7356 24.3746 32.1875C24.4547 32.1581 24.4547 32.1581 24.5364 32.128C26.3054 31.465 27.7835 30.4462 29.1402 29.1406C29.1933 29.0925 29.2463 29.0444 29.301 28.9948C31.0309 27.3764 32.0956 25.081 32.6558 22.8125C32.6808 22.7147 32.7058 22.6169 32.7315 22.5162C33.3821 19.6067 32.7789 16.3181 31.3277 13.75C31.2859 13.6747 31.2859 13.6747 31.2432 13.5979C30.8619 12.9168 30.4393 12.3058 29.9214 11.7188C29.8634 11.6522 29.8054 11.5856 29.7457 11.517C29.5725 11.3213 29.3963 11.1289 29.2183 10.9375C29.1676 10.8816 29.1168 10.8257 29.0645 10.7681C26.8133 8.39133 23.5213 7.15923 20.2977 7.03919C18.0127 6.97823 15.7446 7.56302 13.7496 8.67188Z" fill="#A6A182"/>
<path d="M0.585584 5.83008C0.646009 5.82947 0.706434 5.82887 0.76869 5.82825C0.982918 5.86783 1.04022 5.92108 1.17152 6.09375C1.19971 6.29099 1.19971 6.29099 1.19813 6.52914C1.19811 6.61828 1.19809 6.70741 1.19808 6.79925C1.19687 6.89545 1.19566 6.99165 1.19441 7.09076C1.19408 7.18927 1.19375 7.28778 1.1934 7.38927C1.19231 7.65092 1.19021 7.91251 1.18761 8.17414C1.18522 8.44122 1.18415 8.70829 1.18297 8.97537C1.18038 9.49922 1.17633 10.023 1.17152 10.5469C1.55824 10.5469 1.94496 10.5469 2.3434 10.5469C2.34217 10.4132 2.34094 10.2795 2.33968 10.1418C2.3359 9.70027 2.33321 9.25873 2.33125 8.81717C2.33003 8.54944 2.32837 8.28173 2.32572 8.01401C2.32268 7.70626 2.32154 7.39852 2.32051 7.09076C2.3193 6.99456 2.31809 6.89837 2.31684 6.79925C2.31683 6.71012 2.31681 6.62098 2.31679 6.52914C2.31627 6.45055 2.31575 6.37196 2.31521 6.29099C2.3434 6.09375 2.3434 6.09375 2.45172 5.9513C2.61776 5.83022 2.72533 5.82804 2.92933 5.83008C2.98976 5.82947 3.05018 5.82887 3.11244 5.82825C3.32667 5.86783 3.38397 5.92108 3.51527 6.09375C3.54346 6.29099 3.54346 6.29099 3.54188 6.52914C3.54185 6.66285 3.54185 6.66285 3.54183 6.79925C3.54062 6.89545 3.53941 6.99165 3.53816 7.09076C3.53783 7.18927 3.5375 7.28778 3.53715 7.38927C3.53606 7.65092 3.53396 7.91251 3.53136 8.17414C3.52897 8.44122 3.5279 8.70829 3.52672 8.97537C3.52413 9.49922 3.52008 10.023 3.51527 10.5469C3.90199 10.5469 4.28871 10.5469 4.68715 10.5469C4.68592 10.4132 4.68469 10.2795 4.68343 10.1418C4.67965 9.70027 4.67696 9.25873 4.675 8.81717C4.67378 8.54944 4.67212 8.28173 4.66947 8.01401C4.66643 7.70626 4.66529 7.39852 4.66426 7.09076C4.66305 6.99456 4.66184 6.89837 4.66059 6.79925C4.66057 6.71012 4.66056 6.62098 4.66054 6.52914C4.66002 6.45055 4.6595 6.37196 4.65896 6.29099C4.68715 6.09375 4.68715 6.09375 4.79547 5.9513C4.96151 5.83022 5.06908 5.82804 5.27308 5.83008C5.33351 5.82947 5.39393 5.82887 5.45619 5.82825C5.66755 5.8673 5.72612 5.92719 5.85902 6.09375C5.88873 6.24786 5.88873 6.24786 5.88931 6.42652C5.89008 6.4944 5.89086 6.56228 5.89165 6.63221C5.8913 6.70648 5.89095 6.78074 5.89059 6.85726C5.89112 6.93567 5.89166 7.01409 5.89221 7.09488C5.89365 7.35505 5.89334 7.61519 5.8929 7.87537C5.89325 8.05651 5.89367 8.23766 5.89414 8.41881C5.89484 8.79934 5.89464 9.17986 5.89387 9.56039C5.89298 10.0459 5.89454 10.5314 5.89683 11.0169C5.89827 11.3916 5.89824 11.7663 5.8978 12.141C5.89779 12.3198 5.89825 12.4986 5.89923 12.6775C5.90424 13.7503 5.90842 14.6898 5.35903 15.6443C4.80469 16.6244 4.65383 17.398 4.67437 18.5126C4.67433 18.6697 4.67394 18.8267 4.67323 18.9837C4.67247 19.3182 4.67412 19.6526 4.67775 19.9871C4.6835 20.5165 4.68369 21.0457 4.68322 21.5751C4.68312 22.4118 4.6867 23.2485 4.69188 24.0853C4.70108 25.5857 4.70465 27.0862 4.70579 28.5866C4.70635 29.1126 4.70876 29.6384 4.71272 30.1644C4.71492 30.491 4.71586 30.8177 4.71651 31.1444C4.71709 31.2956 4.71822 31.4468 4.71993 31.5979C4.72221 31.8046 4.72255 32.0113 4.72243 32.218C4.72414 32.3071 4.72414 32.3071 4.72589 32.3981C4.72223 32.8953 4.56423 33.2959 4.23823 33.6737C4.19463 33.7086 4.15102 33.7434 4.10609 33.7793C4.04098 33.8334 4.04098 33.8334 3.97456 33.8885C3.4883 34.206 2.98461 34.1945 2.42152 34.1406C1.87524 33.993 1.54842 33.6136 1.24462 33.156C1.13868 32.8846 1.15232 32.6203 1.15607 32.3333C1.15628 32.2687 1.15649 32.2041 1.15671 32.1375C1.15758 31.9207 1.15955 31.7038 1.16149 31.4869C1.1623 31.3315 1.16302 31.176 1.16367 31.0206C1.16516 30.6854 1.16705 30.3501 1.16919 30.0149C1.1724 29.483 1.17359 28.9512 1.17428 28.4193C1.17441 28.3294 1.17454 28.2395 1.17467 28.1469C1.17492 27.963 1.17517 27.7791 1.17541 27.5952C1.17711 26.3571 1.18004 25.1192 1.18892 23.8812C1.19489 23.046 1.19747 22.211 1.19627 21.3758C1.19577 20.9346 1.19691 20.4936 1.20221 20.0525C1.24421 17.4521 1.24421 17.4521 0.254935 15.0937C-0.0357587 14.5893 -0.0232941 14.0443 -0.021811 13.4766C-0.0222103 13.3969 -0.0226096 13.3172 -0.023021 13.235C-0.0241013 12.9732 -0.0240323 12.7114 -0.0238519 12.4496C-0.0241557 12.2672 -0.0244943 12.0847 -0.0248663 11.9023C-0.0254481 11.5208 -0.0254274 11.1393 -0.0250154 10.7578C-0.0245611 10.2683 -0.0258898 9.77881 -0.0276985 9.28928C-0.0288471 8.91296 -0.0289184 8.53665 -0.0286743 8.16033C-0.0287145 7.97976 -0.0291253 7.79918 -0.0299096 7.61861C-0.0308696 7.36688 -0.0303488 7.11519 -0.0294404 6.86346C-0.0300376 6.78858 -0.0306347 6.7137 -0.03125 6.63655C-0.030702 6.56811 -0.030154 6.49967 -0.0295894 6.42915C-0.0296025 6.36969 -0.0296156 6.31022 -0.0296291 6.24895C0.0358761 5.90168 0.261482 5.82684 0.585584 5.83008ZM1.17152 11.7188C1.1683 11.9975 1.16508 12.2763 1.16176 12.5635C1.16033 12.6495 1.15891 12.7354 1.15745 12.824C1.15226 13.7649 1.33823 14.4784 1.76234 15.3174C1.80197 15.3979 1.8416 15.4784 1.88243 15.5614C1.98303 15.7654 2.0847 15.9688 2.18715 16.1719C2.31024 16.4181 2.27671 16.682 2.27658 16.9523C2.27686 17.0176 2.27713 17.0828 2.27742 17.1501C2.27825 17.37 2.27854 17.5899 2.27883 17.8098C2.27933 17.967 2.27985 18.1242 2.28042 18.2814C2.28156 18.6205 2.28248 18.9596 2.28322 19.2987C2.28443 19.8348 2.2863 20.3708 2.28829 20.9068C2.29386 22.4313 2.29853 23.9558 2.30252 25.4803C2.30473 26.3217 2.3075 27.1632 2.31085 28.0046C2.31295 28.5376 2.31435 29.0707 2.31523 29.6037C2.31594 29.9352 2.3173 30.2668 2.31884 30.5983C2.31942 30.7523 2.31974 30.9062 2.31978 31.0601C2.31986 31.27 2.3209 31.4799 2.32217 31.6898C2.32186 31.7814 2.32186 31.7814 2.32155 31.8749C2.32546 32.2883 2.35748 32.5922 2.6559 32.8906C3.02169 32.9303 3.02169 32.9303 3.34926 32.793C3.56211 32.4619 3.52507 32.0902 3.52185 31.7097C3.52163 31.6453 3.52141 31.5808 3.52118 31.5144C3.52037 31.2981 3.51901 31.0817 3.51767 30.8654C3.51702 30.7103 3.5164 30.5553 3.51584 30.4002C3.51492 30.1522 3.51396 29.9042 3.51287 29.6562C3.51017 29.0397 3.50891 28.4232 3.50852 27.8067C3.50846 27.7171 3.50841 27.6275 3.50835 27.5352C3.50814 27.1655 3.50798 26.7957 3.50784 26.4259C3.50739 25.3783 3.50556 24.3308 3.49948 23.2832C3.49466 22.4508 3.49292 21.6183 3.4947 20.7859C3.49552 20.346 3.49486 19.9062 3.49045 19.4663C3.45775 16.0304 3.45775 16.0304 4.36108 14.7491C4.77036 14.1254 4.69778 13.291 4.69203 12.5781C4.69042 12.2945 4.68881 12.0109 4.68715 11.7188C3.52699 11.7188 2.36683 11.7188 1.17152 11.7188Z" fill="#A6A182"/>
<path d="M39.1842 5.83983C39.2367 5.83822 39.2892 5.83661 39.3434 5.83495C39.7254 5.83191 39.7254 5.83191 39.8974 5.9503C40.0407 6.15136 40.0291 6.2934 40.0294 6.53933C40.03 6.63275 40.0307 6.72618 40.0314 6.82243C40.0309 6.92663 40.0304 7.03083 40.0299 7.13503C40.0303 7.24532 40.0307 7.35561 40.0312 7.46589C40.0323 7.76969 40.032 8.07347 40.0314 8.37727C40.0311 8.70464 40.032 9.032 40.0328 9.35937C40.0342 10.0011 40.0342 10.6428 40.0338 11.2845C40.0335 11.8061 40.0336 12.3277 40.034 12.8493C40.0341 12.9235 40.0342 12.9976 40.0342 13.0741C40.0343 13.2247 40.0345 13.3753 40.0346 13.526C40.0357 14.94 40.0352 16.3539 40.0343 17.7679C40.0336 19.0615 40.0346 20.3551 40.0364 21.6488C40.0383 22.9765 40.0391 24.3043 40.0386 25.6321C40.0383 26.3777 40.0385 27.1234 40.0398 27.869C40.041 28.504 40.041 29.139 40.0397 29.774C40.039 30.0979 40.0389 30.4219 40.04 30.7458C40.0411 31.0426 40.0408 31.3393 40.0392 31.636C40.0388 31.7939 40.0399 31.9518 40.0411 32.1097C40.0359 32.7407 39.975 33.182 39.5507 33.6737C39.5071 33.7085 39.4635 33.7434 39.4186 33.7793C39.3535 33.8334 39.3535 33.8334 39.2871 33.8885C38.8008 34.206 38.2971 34.1945 37.734 34.1406C37.1932 33.9945 36.8358 33.6127 36.5571 33.1401C36.4722 32.9411 36.4664 32.8029 36.4696 32.587C36.4703 32.5102 36.471 32.4334 36.4718 32.3542C36.4741 32.2285 36.4741 32.2285 36.4765 32.1002C36.4785 31.9162 36.4805 31.7322 36.4825 31.5482C36.4838 31.4504 36.4851 31.3526 36.4865 31.2519C36.4921 30.7846 36.4935 30.3173 36.4953 29.85C36.4981 29.134 36.5019 28.4182 36.5132 27.7023C36.5208 27.2188 36.5243 26.7355 36.5235 26.2519C36.5232 25.9971 36.5253 25.7428 36.5312 25.488C36.5573 24.3161 36.4482 23.4826 35.859 22.4579C35.1579 21.2214 35.1619 20.0718 35.1909 18.6762C35.1967 18.3434 35.1964 18.0106 35.1968 17.6778C35.1984 17.121 35.2039 16.5643 35.2125 16.0075C35.2233 15.2955 35.2276 14.5835 35.2298 13.8714C35.2317 13.2539 35.2364 12.6363 35.2416 12.0188C35.2432 11.8225 35.2444 11.6262 35.2457 11.4299C35.2478 11.1211 35.2517 10.8122 35.2568 10.5034C35.2584 10.3909 35.2596 10.2784 35.2602 10.1659C35.2673 8.95773 35.6033 7.90988 36.426 7.00408C37.1838 6.28539 38.1427 5.85205 39.1842 5.83983ZM37.4301 7.80272C36.5158 8.72374 36.4763 9.81234 36.4578 11.0348C36.456 11.1365 36.4543 11.2383 36.4524 11.3431C36.4366 12.2825 36.4279 13.222 36.4209 14.1615C36.4162 14.7906 36.4094 15.4196 36.3972 16.0486C36.3865 16.6002 36.3799 17.1518 36.3779 17.7035C36.3767 17.9941 36.3738 18.2843 36.366 18.5748C36.3306 19.9437 36.4934 20.9479 37.1835 22.1632C37.7318 23.167 37.7225 24.0989 37.6962 25.2194C37.6955 25.4256 37.6953 25.6317 37.6956 25.8378C37.6956 26.3185 37.6901 26.799 37.6825 27.2797C37.6715 27.9876 37.6693 28.6957 37.6665 29.4037C37.6645 29.9113 37.6613 30.4187 37.6543 30.9262C37.6533 31.0188 37.6523 31.1115 37.6513 31.2069C37.6494 31.3794 37.6469 31.552 37.6436 31.7245C37.6429 31.8007 37.6422 31.877 37.6415 31.9556C37.64 32.0545 37.64 32.0545 37.6385 32.1554C37.6667 32.4612 37.7512 32.6735 37.9684 32.8906C38.3342 32.9303 38.3342 32.9303 38.6617 32.793C38.8398 32.5159 38.8375 32.2335 38.8374 31.9112C38.8375 31.8227 38.8377 31.7341 38.8379 31.6429C38.8376 31.5457 38.8374 31.4484 38.8372 31.3482C38.8372 31.2438 38.8373 31.1394 38.8374 31.0351C38.8375 30.7481 38.8372 30.4611 38.8368 30.1741C38.8365 29.8647 38.8366 29.5553 38.8367 29.2459C38.8367 28.7097 38.8365 28.1735 38.836 27.6374C38.8354 26.8622 38.8352 26.087 38.8351 25.3118C38.8349 24.0542 38.8344 22.7965 38.8337 21.5389C38.8329 20.3171 38.8324 19.0953 38.8321 17.8735C38.832 17.7982 38.832 17.7229 38.832 17.6453C38.8319 17.2676 38.8318 16.8899 38.8317 16.5122C38.8309 13.3779 38.8295 10.2436 38.8278 7.10936C38.3416 7.10936 37.788 7.50826 37.4301 7.80272Z" fill="#A6A182"/>
<path d="M19.9614 10.5176C20.0165 10.5176 20.0716 10.5176 20.1283 10.5177C21.0272 10.5209 21.8732 10.5898 22.7349 10.8594C22.7883 10.8757 22.8417 10.892 22.8967 10.9088C25.3159 11.6725 27.2779 13.4005 28.4596 15.6235C29.1662 17.0008 29.5023 18.4345 29.4878 19.9805C29.4874 20.0619 29.4874 20.0619 29.4871 20.145C29.4813 21.0369 29.4085 21.8796 29.1411 22.7344C29.1166 22.8145 29.1166 22.8145 29.0916 22.8962C28.3615 25.209 26.6806 27.2549 24.5305 28.3813C24.2735 28.5108 24.0129 28.6318 23.7505 28.75C23.668 28.7878 23.5855 28.8255 23.5005 28.8644C21.3197 29.7831 18.6609 29.7227 16.4692 28.8715C14.0475 27.8655 12.203 25.9928 11.1724 23.5937C10.7027 22.4322 10.5015 21.2687 10.5132 20.0195C10.5134 19.9652 10.5137 19.9109 10.5139 19.855C10.5196 18.9635 10.5913 18.1198 10.8599 17.2656C10.8766 17.2118 10.8933 17.158 10.9106 17.1025C11.2641 16.0043 11.779 14.9071 12.5786 14.0625C12.7981 13.9528 12.9605 13.9649 13.2036 13.9844C13.3843 14.0625 13.3843 14.0625 13.5161 14.2187C13.6024 14.5931 13.6367 14.7561 13.4673 15.1056C13.4069 15.1919 13.345 15.2771 13.2817 15.3613C13.2159 15.4563 13.1505 15.5517 13.0855 15.6473C13.0526 15.6953 13.0198 15.7434 12.9859 15.7929C11.872 17.4922 11.588 19.7123 11.9637 21.6892C12.4142 23.6802 13.5963 25.6019 15.32 26.7383C16.4453 27.415 17.5867 27.9654 18.9067 28.125C18.9929 28.1355 19.0791 28.1459 19.168 28.1567C21.2955 28.3567 23.3901 27.7345 25.0835 26.4258C25.7811 25.8448 26.3895 25.2214 26.8755 24.4531C26.9154 24.3933 26.9552 24.3335 26.9963 24.2718C28.1121 22.5292 28.4112 20.3386 28.0409 18.3199C27.5971 16.2996 26.3839 14.3908 24.6446 13.2458C24.5816 13.206 24.5186 13.1661 24.4536 13.125C24.3938 13.0851 24.334 13.0452 24.2723 13.0041C22.459 11.8431 20.2024 11.5718 18.1215 12.0169C16.9888 12.298 16.0338 12.7859 15.0786 13.4375C14.7951 13.6265 14.6877 13.6089 14.3657 13.5574C14.2192 13.5156 14.2192 13.5156 14.063 13.3838C13.9595 13.1444 13.9479 12.9932 13.9849 12.7344C14.2029 12.4114 14.4641 12.2058 14.7905 12.0019C14.8384 11.9718 14.8863 11.9417 14.9357 11.9106C16.479 10.9615 18.1519 10.5123 19.9614 10.5176Z" fill="#A6A182"/>
<path d="M22.3439 13.2031C22.4205 13.2308 22.4205 13.2308 22.4986 13.259C24.2607 13.9119 25.6086 15.1725 26.4702 16.8366C26.5929 17.1065 26.6984 17.3767 26.7971 17.6563C26.8454 17.7896 26.8454 17.7896 26.8947 17.9257C27.3181 19.309 27.2914 20.9835 26.7971 22.3438C26.746 22.4849 26.746 22.4849 26.6939 22.6288C26.0053 24.3635 24.6572 25.77 22.9689 26.5625C22.5869 26.72 22.1954 26.8437 21.7971 26.9531C21.7462 26.9676 21.6953 26.9821 21.6429 26.997C20.3929 27.3186 18.8675 27.237 17.6564 26.7969C17.5624 26.7628 17.4683 26.7288 17.3714 26.6937C16.397 26.3069 15.5889 25.7323 14.8439 25C14.7903 24.9473 14.7366 24.8947 14.6813 24.8404C13.2488 23.3344 12.837 21.46 12.8667 19.444C12.8876 18.8043 12.9824 18.2581 13.2033 17.6563C13.2218 17.6052 13.2402 17.5542 13.2592 17.5016C13.9121 15.7395 15.1727 14.3916 16.8367 13.53C17.1067 13.4073 17.3768 13.3018 17.6564 13.2031C17.7454 13.1709 17.8343 13.1387 17.9259 13.1055C19.3067 12.6829 20.9869 12.705 22.3439 13.2031ZM15.7552 15.878C14.5131 17.173 14.086 18.7188 14.117 20.4715C14.1759 22.02 14.9651 23.3674 16.0646 24.4238C17.2605 25.4633 18.8056 26.0164 20.3884 25.9183C22.0557 25.7556 23.4961 25.003 24.5964 23.7372C25.7037 22.2888 26.0487 20.6782 25.8383 18.8807C25.5932 17.4278 24.6489 16.1312 23.5158 15.2344C21.0279 13.505 17.9344 13.7899 15.7552 15.878Z" fill="#A6A182"/>
</g>
<defs>
<clipPath id="clip0_172_265">
<rect width="40" height="40" fill="white"/>
</clipPath>
</defs>
</svg>
