<svg width="40" height="40" viewBox="0 0 40 40" fill="none" xmlns="http://www.w3.org/2000/svg">
<g clip-path="url(#clip0_172_285)">
<path d="M7.81554 19.3254C7.92522 19.3249 8.0349 19.3243 8.14458 19.3236C8.44418 19.3219 8.74373 19.3227 9.04333 19.3239C9.36712 19.3248 9.69091 19.3235 10.0147 19.3224C10.6483 19.3206 11.2819 19.321 11.9155 19.3222C12.4306 19.323 12.9456 19.3232 13.4607 19.3227C13.5708 19.3226 13.5708 19.3226 13.6831 19.3225C13.8322 19.3224 13.9813 19.3223 14.1304 19.3222C15.5276 19.3211 16.9248 19.3223 18.3219 19.3244C19.52 19.3262 20.7181 19.3259 21.9162 19.3241C23.3085 19.322 24.7007 19.3212 26.093 19.3224C26.2416 19.3225 26.3901 19.3226 26.5386 19.3227C26.6483 19.3228 26.6483 19.3228 26.7601 19.3229C27.2744 19.3232 27.7887 19.3227 28.3029 19.3218C28.9299 19.3207 29.5569 19.321 30.1839 19.323C30.5036 19.3241 30.8233 19.3245 31.143 19.3232C31.436 19.322 31.729 19.3227 32.022 19.3247C32.1775 19.3254 32.333 19.3241 32.4885 19.3228C33.2194 19.3307 33.7993 19.4807 34.3259 20.0098C34.8312 20.6717 34.9873 21.6361 35.2191 22.4251C35.3447 22.8511 35.473 23.2762 35.6007 23.7015C35.7123 24.074 35.8231 24.4467 35.9321 24.82C36.0383 25.1833 36.1468 25.5458 36.2569 25.908C36.2982 26.0455 36.3387 26.1833 36.3783 26.3213C36.4337 26.514 36.4921 26.7056 36.5513 26.8973C36.5668 26.954 36.5823 27.0107 36.5983 27.0691C36.6715 27.297 36.7442 27.4643 36.9449 27.6012C37.1107 27.6855 37.1107 27.6855 37.2764 27.7503C37.4743 27.8351 37.5881 27.9556 37.7243 28.1201C37.7676 28.1708 37.8109 28.2214 37.8555 28.2736C38.2055 28.7815 38.1774 29.3259 38.1247 29.9219C37.9955 30.4335 37.6245 30.8128 37.1872 31.0938C37.0575 31.1225 36.9273 31.1489 36.7966 31.1719C36.7698 31.2818 36.7698 31.2818 36.7425 31.3939C36.5375 32.2288 36.3116 33.0567 36.077 33.8837C36.058 33.9505 36.039 34.0173 36.0195 34.0862C35.9195 34.4387 35.8191 34.7912 35.7185 35.1435C35.6361 35.4326 35.5543 35.7219 35.4731 36.0113C35.3739 36.3646 35.2737 36.7175 35.1726 37.0703C35.1347 37.2034 35.0971 37.3367 35.06 37.47C34.5412 39.3286 34.5412 39.3286 33.8522 39.7314C33.7939 39.767 33.7356 39.8025 33.6755 39.8392C33.3895 39.9868 33.1648 40.0101 32.8477 40.0115C32.7125 40.0123 32.7125 40.0123 32.5745 40.0132C32.4755 40.0134 32.3765 40.0136 32.2746 40.0138C32.1693 40.0143 32.0641 40.0148 31.9588 40.0154C31.6131 40.017 31.2674 40.0178 30.9216 40.0186C30.8025 40.0189 30.6833 40.0193 30.5642 40.0196C30.0043 40.0211 29.4444 40.0222 28.8845 40.0228C28.2389 40.0236 27.5933 40.0257 26.9477 40.0288C26.4483 40.0312 25.9489 40.0323 25.4495 40.0326C25.1514 40.0328 24.8533 40.0335 24.5552 40.0354C24.2746 40.0373 23.9939 40.0376 23.7132 40.0368C23.5618 40.0367 23.4104 40.0382 23.259 40.0398C22.6113 40.0359 22.1946 39.9523 21.6852 39.5306C21.6122 39.4488 21.6122 39.4488 21.5378 39.3652C21.4881 39.3119 21.4385 39.2585 21.3873 39.2035C20.9378 38.4879 20.9277 37.5841 20.8411 36.7637C20.8234 36.5985 20.8047 36.4334 20.7858 36.2683C20.7754 36.171 20.7651 36.0737 20.7544 35.9734C20.7002 35.6897 20.6162 35.4818 20.4684 35.2344C20.2172 35.1088 19.9596 35.1206 19.6872 35.1563C19.4841 35.2483 19.4841 35.2483 19.3747 35.4688C19.1895 36.2202 19.1266 37.0083 19.0368 37.7754C18.9493 38.4565 18.8493 39.0531 18.2956 39.5166C18.2467 39.559 18.1979 39.6014 18.1476 39.6451C17.5701 40.0337 17.0692 40.034 16.3869 40.0316C16.2824 40.032 16.1778 40.0326 16.0733 40.0332C15.7907 40.0346 15.5081 40.0345 15.2254 40.0341C14.989 40.0338 14.7525 40.0343 14.516 40.0348C13.9579 40.0359 13.3999 40.0357 12.8418 40.0348C12.2671 40.034 11.6925 40.0351 11.1178 40.0371C10.6234 40.0389 10.1289 40.0394 9.63449 40.0389C9.33964 40.0387 9.04481 40.0389 8.74997 40.0402C8.47261 40.0414 8.1953 40.0411 7.91794 40.0396C7.76841 40.0392 7.61888 40.0403 7.46935 40.0415C6.81138 40.0359 6.39809 39.9426 5.88347 39.5117C5.47394 39.0247 5.2432 38.5398 5.0742 37.9293C5.05357 37.8578 5.03294 37.7863 5.01168 37.7127C4.94438 37.4787 4.87848 37.2443 4.81261 37.0099C4.76595 36.8465 4.71922 36.6831 4.6724 36.5197C4.57484 36.1786 4.47791 35.8372 4.38149 35.4957C4.25769 35.0573 4.13287 34.6191 4.00765 34.1811C3.88828 33.7634 3.76934 33.3457 3.6505 32.9279C3.62773 32.8479 3.60497 32.768 3.58151 32.6856C3.51752 32.4605 3.45383 32.2353 3.39024 32.0101C3.37113 31.943 3.35202 31.8758 3.33233 31.8067C3.2028 31.3461 3.2028 31.3461 3.2028 31.1719C3.1449 31.1639 3.08699 31.156 3.02733 31.1478C2.58125 31.0358 2.22626 30.6556 1.99187 30.2686C1.77412 29.7699 1.78993 29.1581 1.92351 28.638C2.10654 28.2188 2.43977 27.9128 2.81218 27.6563C2.90716 27.6322 2.90716 27.6322 3.00407 27.6076C3.248 27.4755 3.29006 27.3472 3.37188 27.0885C3.38825 27.0313 3.40462 26.974 3.42148 26.915C3.44009 26.8546 3.45869 26.7943 3.47786 26.7321C3.53912 26.532 3.59815 26.3314 3.65721 26.1307C3.69955 25.991 3.74204 25.8514 3.78466 25.7119C3.89674 25.3436 4.00698 24.9748 4.11681 24.6059C4.24971 24.1605 4.38463 23.7158 4.51939 23.271C4.62443 22.9242 4.72914 22.5773 4.83276 22.2301C5.50437 19.9853 5.50437 19.9853 6.27571 19.5582C6.78268 19.314 7.26135 19.3206 7.81554 19.3254ZM6.70211 20.9488C6.53696 21.2121 6.4424 21.4764 6.35458 21.7719C6.33625 21.831 6.31792 21.8901 6.29903 21.951C6.239 22.1454 6.18023 22.3401 6.12151 22.5348C6.07998 22.6703 6.03839 22.8058 5.99673 22.9413C5.90979 23.2247 5.82343 23.5083 5.73752 23.792C5.62731 24.1559 5.51605 24.5195 5.4044 24.883C5.3186 25.1626 5.23316 25.4422 5.14785 25.7219C5.10693 25.856 5.06593 25.9901 5.02487 26.1242C4.96768 26.3113 4.91094 26.4986 4.85434 26.6858C4.8373 26.7414 4.82026 26.7969 4.8027 26.8541C4.73535 27.0783 4.68718 27.2643 4.68718 27.5C14.7934 27.5 24.8997 27.5 35.3122 27.5C35.2168 27.0229 35.1263 26.5877 34.9866 26.1283C34.9705 26.0748 34.9543 26.0214 34.9376 25.9663C34.885 25.7926 34.8318 25.6191 34.7784 25.4456C34.7411 25.3234 34.7037 25.2013 34.6663 25.0792C34.5883 24.8246 34.5099 24.5701 34.4313 24.3157C34.331 23.9906 34.232 23.6652 34.1335 23.3396C34.0569 23.0877 33.9794 22.8362 33.9016 22.5848C33.8647 22.4649 33.8282 22.3449 33.792 22.2248C33.7413 22.0568 33.6893 21.8893 33.6368 21.7219C33.593 21.5792 33.593 21.5792 33.5484 21.4336C33.415 21.1197 33.2892 20.943 33.0466 20.7031C32.7681 20.6241 32.5022 20.6152 32.2139 20.615C32.1252 20.6147 32.0365 20.6144 31.9452 20.6142C31.8482 20.6143 31.7511 20.6144 31.6511 20.6146C31.5467 20.6144 31.4423 20.6142 31.3379 20.614C31.0511 20.6135 30.7643 20.6136 30.4775 20.6136C30.1681 20.6137 29.8587 20.6132 29.5494 20.6129C28.9434 20.6122 28.3373 20.612 27.7313 20.612C27.2388 20.6119 26.7463 20.6118 26.2538 20.6115C24.8577 20.6108 23.4617 20.6105 22.0656 20.6105C21.9904 20.6105 21.9151 20.6105 21.8375 20.6105C21.7622 20.6105 21.6868 20.6105 21.6092 20.6105C20.3875 20.6106 19.1657 20.6098 17.944 20.6087C16.6898 20.6076 15.4357 20.6071 14.1815 20.6071C13.4773 20.6071 12.7731 20.6069 12.0688 20.6061C11.4693 20.6054 10.8698 20.6052 10.2703 20.6057C9.96443 20.606 9.65852 20.606 9.35261 20.6053C9.07258 20.6047 8.79256 20.6048 8.51252 20.6055C8.36322 20.6057 8.21392 20.6051 8.06462 20.6045C7.93132 20.605 7.93132 20.605 7.79533 20.6056C7.71883 20.6055 7.64232 20.6055 7.5635 20.6055C7.21701 20.6362 6.95378 20.7044 6.70211 20.9488ZM3.28093 28.9844C3.16996 29.2063 3.17823 29.3637 3.2028 29.6094C3.37718 29.8319 3.48014 29.9102 3.74968 30C3.92792 30.0075 4.10638 30.0101 4.28477 30.0103C4.33978 30.0104 4.39478 30.0106 4.45145 30.0108C4.63714 30.0112 4.82284 30.0111 5.00854 30.011C5.14246 30.0112 5.27638 30.0114 5.41031 30.0117C5.77942 30.0123 6.14854 30.0124 6.51766 30.0125C6.91532 30.0126 7.31298 30.0132 7.71065 30.0138C8.58067 30.0148 9.45068 30.0153 10.3207 30.0156C10.8637 30.0159 11.4066 30.0162 11.9496 30.0165C13.4521 30.0175 14.9546 30.0183 16.4571 30.0186C16.6014 30.0186 16.6014 30.0186 16.7486 30.0186C16.8932 30.0186 16.8932 30.0186 17.0408 30.0187C17.2363 30.0187 17.4317 30.0187 17.6271 30.0188C17.7725 30.0188 17.7725 30.0188 17.9209 30.0188C19.4922 30.0191 21.0635 30.0205 22.6349 30.0223C24.2471 30.0242 25.8593 30.0251 27.4715 30.0252C28.3772 30.0253 29.2828 30.0258 30.1884 30.0272C30.9595 30.0284 31.7305 30.0288 32.5016 30.0281C32.8951 30.0278 33.2887 30.0279 33.6823 30.029C34.0424 30.03 34.4025 30.0299 34.7626 30.0289C34.8931 30.0288 35.0235 30.029 35.1539 30.0297C35.331 30.0306 35.508 30.03 35.6851 30.0291C35.7835 30.0291 35.8819 30.0292 35.9833 30.0292C36.2775 29.9969 36.4672 29.9198 36.7184 29.7656C36.8294 29.5437 36.8211 29.3863 36.7966 29.1406C36.6222 28.9181 36.5192 28.8398 36.2497 28.75C36.0714 28.7425 35.893 28.7399 35.7146 28.7397C35.6596 28.7396 35.6046 28.7394 35.5479 28.7392C35.3622 28.7388 35.1765 28.7389 34.9908 28.739C34.8569 28.7388 34.723 28.7386 34.5891 28.7383C34.2199 28.7377 33.8508 28.7376 33.4817 28.7375C33.084 28.7374 32.6864 28.7368 32.2887 28.7362C31.4187 28.7352 30.5487 28.7347 29.6787 28.7344C29.1357 28.7341 28.5927 28.7338 28.0498 28.7335C26.5473 28.7325 25.0448 28.7317 23.5423 28.7314C23.398 28.7314 23.398 28.7314 23.2508 28.7314C23.1543 28.7314 23.0579 28.7314 22.9585 28.7313C22.7631 28.7313 22.5677 28.7313 22.3722 28.7312C22.2753 28.7312 22.1784 28.7312 22.0785 28.7312C20.5072 28.7309 18.9358 28.7295 17.3645 28.7277C15.7523 28.7258 14.14 28.7249 12.5278 28.7248C11.6222 28.7247 10.7166 28.7242 9.81094 28.7228C9.03989 28.7216 8.26884 28.7212 7.49779 28.7219C7.10423 28.7222 6.71067 28.7221 6.3171 28.721C5.95697 28.72 5.59686 28.7201 5.23673 28.7211C5.10629 28.7212 4.97585 28.721 4.84542 28.7203C4.66835 28.7194 4.49134 28.72 4.31427 28.7209C4.21585 28.7209 4.11742 28.7208 4.01602 28.7208C3.72182 28.7531 3.53219 28.8302 3.28093 28.9844ZM4.60905 31.25C4.91843 32.3586 5.2278 33.4672 5.54655 34.6094C5.65119 34.9847 5.75583 35.3601 5.86363 35.7468C5.96316 36.0973 5.96316 36.0973 6.06312 36.4478C6.10762 36.6044 6.15156 36.7612 6.19503 36.9182C6.26067 37.1547 6.32806 37.3907 6.39586 37.6266C6.41483 37.6965 6.43379 37.7664 6.45333 37.8384C6.56771 38.2282 6.66253 38.459 7.03093 38.6719C7.27039 38.7477 7.48874 38.7601 7.73917 38.761C7.85893 38.7616 7.85893 38.7616 7.9811 38.7623C8.11181 38.7625 8.11181 38.7625 8.24517 38.7626C8.3373 38.763 8.42943 38.7634 8.52435 38.7638C8.77681 38.7647 9.02928 38.7653 9.28174 38.7656C9.43963 38.7659 9.59751 38.7662 9.75539 38.7665C10.2498 38.7676 10.7443 38.7684 11.2387 38.7687C11.8086 38.769 12.3785 38.7704 12.9484 38.7726C13.3895 38.7743 13.8306 38.7751 14.2717 38.7752C14.5349 38.7753 14.7981 38.7758 15.0613 38.7772C15.3551 38.7785 15.6488 38.7784 15.9426 38.7778C16.0293 38.7786 16.1159 38.7793 16.2052 38.78C16.6703 38.7775 17.0144 38.7488 17.4216 38.5156C17.6665 38.165 17.7085 37.8052 17.7533 37.3907C17.7689 37.2634 17.7845 37.136 17.8001 37.0087C17.8234 36.81 17.8464 36.6114 17.869 36.4127C17.8913 36.2194 17.915 36.0263 17.9388 35.8331C17.9481 35.7453 17.9481 35.7453 17.9576 35.6558C18.0226 35.1361 18.1978 34.6123 18.6178 34.2725C19.2271 33.8028 19.7844 33.7391 20.5466 33.8281C21.0862 33.9907 21.5002 34.286 21.7966 34.7656C22.0903 35.4642 22.1264 36.2407 22.2051 36.9863C22.2228 37.1515 22.2416 37.3166 22.2604 37.4817C22.2708 37.579 22.2812 37.6763 22.2919 37.7766C22.348 38.071 22.4082 38.2677 22.5778 38.5156C23.0597 38.7917 23.5072 38.7833 24.053 38.7803C24.1452 38.7807 24.2374 38.7811 24.3323 38.7816C24.5838 38.7824 24.8353 38.7822 25.0868 38.7815C25.3507 38.7809 25.6147 38.7814 25.8786 38.7818C26.3218 38.7822 26.7649 38.7817 27.2081 38.7806C27.7195 38.7793 28.2308 38.7797 28.7422 38.781C29.1823 38.7821 29.6224 38.7822 30.0625 38.7816C30.3249 38.7812 30.5873 38.7812 30.8497 38.7819C31.1423 38.7825 31.4349 38.7816 31.7276 38.7803C31.857 38.781 31.857 38.781 31.9891 38.7818C32.4511 38.778 32.8032 38.7583 33.2028 38.5156C33.3925 38.2706 33.4822 38.0217 33.5674 37.7259C33.5901 37.6479 33.6129 37.5699 33.6363 37.4895C33.6603 37.4055 33.6842 37.3214 33.7088 37.2348C33.7471 37.1025 33.7471 37.1025 33.7862 36.9676C33.869 36.6814 33.9509 36.3949 34.0329 36.1084C34.0892 35.9128 34.1457 35.7171 34.2021 35.5215C34.3647 34.9573 34.5261 34.3928 34.6872 33.8281C34.709 33.7516 34.7308 33.6751 34.7533 33.5963C34.8751 33.1692 34.9964 32.7419 35.1169 32.3145C35.1315 32.2626 35.1461 32.2107 35.1612 32.1572C35.3157 31.71 35.3157 31.71 35.3903 31.25C25.2325 31.25 15.0747 31.25 4.60905 31.25Z" fill="#A6A182"/>
<path d="M21.3391 1.33209C21.559 1.51304 21.6979 1.6809 21.7484 1.96167C21.7986 2.68415 21.4738 3.1706 21.0938 3.75C20.4904 4.67875 20.2041 5.26279 20.3125 6.40625C20.4838 7.10781 21.0067 7.57507 21.5094 8.06051C22.4445 8.97051 23.116 9.90105 23.1614 11.2481C23.1791 12.7641 22.7096 13.9957 21.7188 15.1563C21.6703 15.2169 21.6219 15.2775 21.572 15.34C20.8017 16.2608 19.4523 17.4023 18.2157 17.5214C17.5576 17.5429 17.5576 17.5429 17.251 17.3145C16.9871 16.9323 16.993 16.6288 17.0313 16.1719C17.093 15.9074 17.1831 15.6586 17.2803 15.4053C17.3051 15.3372 17.33 15.2692 17.3556 15.1991C17.4947 14.8207 17.6429 14.4464 17.793 14.0723C18.2054 13.0092 18.3959 11.9272 17.988 10.8389C17.7325 10.2776 17.3207 9.89615 16.884 9.46963C16.0047 8.59834 15.6094 7.69739 15.6006 6.47461C15.5996 5.84853 15.6361 5.32713 15.9375 4.76563C15.9707 4.70057 16.0038 4.63551 16.0379 4.56848C16.3247 4.04928 16.7003 3.62905 17.1094 3.20313C17.1869 3.11959 17.1869 3.11959 17.2659 3.03436C17.8088 2.46517 18.4329 2.0654 19.1211 1.69434C19.17 1.66795 19.2189 1.64157 19.2693 1.61438C19.8733 1.29728 20.6769 1.007 21.3391 1.33209ZM18.0289 4.14276C17.3251 4.87108 16.9193 5.61229 16.9247 6.63712C16.9473 7.50922 17.3737 8.01761 17.9822 8.59986C18.8592 9.4406 19.4746 10.44 19.5471 11.6766C19.5631 13.0123 19.2143 14.1282 18.7344 15.3634C18.6697 15.5534 18.6289 15.74 18.5938 15.9375C19.7739 15.5248 20.8319 14.3338 21.3849 13.2517C21.7973 12.377 22.0177 11.384 21.6846 10.4346C21.4218 9.89156 20.975 9.4831 20.5463 9.06952C20.047 8.58635 19.6228 8.12279 19.2969 7.5C19.2632 7.43736 19.2294 7.37472 19.1947 7.31018C18.833 6.5068 18.8501 5.40975 19.1065 4.5752C19.307 4.0698 19.5771 3.59783 19.8438 3.125C19.8967 3.02125 19.9491 2.91727 20 2.8125C19.3561 2.8125 18.4723 3.70991 18.0289 4.14276Z" fill="#A6A182"/>
<path d="M29.6098 2.48535C29.6904 2.48424 29.7709 2.48314 29.8539 2.48199C30.1636 2.50682 30.324 2.57963 30.5278 2.8125C30.7008 3.22786 30.7122 3.61358 30.5421 4.03412C30.3751 4.34581 30.1869 4.64084 29.9946 4.93744C29.526 5.66945 29.1975 6.32538 29.3229 7.21313C29.5038 7.93239 30.0182 8.39318 30.5325 8.89191C31.3377 9.67752 31.876 10.5414 31.8983 11.6808C31.9088 13.2185 31.4672 14.2895 30.4692 15.4688C30.4343 15.515 30.3995 15.5612 30.3636 15.6088C29.6831 16.4876 28.4874 17.3426 27.3829 17.5519C26.9897 17.5702 26.7902 17.5529 26.4701 17.3145C26.2245 16.9587 26.1994 16.6755 26.2504 16.25C26.3863 15.745 26.5687 15.2564 26.7631 14.7714C27.2135 13.6411 27.5583 12.4854 27.1171 11.293C26.8997 10.848 26.5651 10.5335 26.2114 10.1935C25.4685 9.45756 24.9896 8.62725 24.9707 7.56496C24.9721 6.88842 24.9896 6.31444 25.3129 5.70312C25.3461 5.63797 25.3792 5.57281 25.4133 5.50568C26.1417 4.189 27.5379 2.99778 28.9778 2.5296C29.1901 2.49111 29.3941 2.4867 29.6098 2.48535ZM27.8129 4.76562C27.7283 4.82877 27.7283 4.82877 27.642 4.89319C27.0891 5.33684 26.5329 6.03307 26.3285 6.71875C26.2535 7.45382 26.2448 8.14545 26.7192 8.75C26.9231 8.96883 27.1377 9.17652 27.3534 9.38374C28.2075 10.2116 28.626 11.192 28.6738 12.3804C28.6678 13.466 28.3137 14.4215 27.9548 15.4348C27.8989 15.6014 27.8526 15.7664 27.8129 15.9375C29.0819 15.2281 30.0564 14.1484 30.5146 12.7521C30.6311 12.1319 30.6522 11.3501 30.3486 10.787C30.0213 10.321 29.6174 9.92578 29.2094 9.53125C28.4511 8.77895 27.991 7.90424 27.9496 6.83105C27.9677 5.82212 28.3595 5.00849 28.8285 4.14062C28.4626 4.14062 28.0937 4.55123 27.8129 4.76562Z" fill="#A6A182"/>
<path d="M12.1098 2.48535C12.1904 2.48424 12.2709 2.48314 12.3539 2.48199C12.6636 2.50682 12.824 2.57963 13.0278 2.8125C13.2008 3.22786 13.2122 3.61358 13.0421 4.03412C12.8751 4.34581 12.6869 4.64084 12.4946 4.93744C12.026 5.66945 11.6975 6.32538 11.8229 7.21313C12.0038 7.93239 12.5182 8.39318 13.0325 8.89191C13.8377 9.67752 14.376 10.5414 14.3983 11.6808C14.4088 13.2185 13.9672 14.2895 12.9692 15.4688C12.9343 15.515 12.8995 15.5612 12.8636 15.6088C12.1831 16.4876 10.9874 17.3426 9.88293 17.5519C9.48967 17.5702 9.29023 17.5529 8.97015 17.3145C8.72454 16.9587 8.69941 16.6755 8.75042 16.25C8.88633 15.745 9.06868 15.2564 9.26311 14.7714C9.7135 13.6411 10.0583 12.4854 9.61712 11.293C9.39966 10.848 9.06508 10.5335 8.71136 10.1935C7.96847 9.45756 7.48961 8.62725 7.4707 7.56496C7.47211 6.88842 7.48964 6.31444 7.81292 5.70312C7.84605 5.63797 7.87919 5.57281 7.91332 5.50568C8.64165 4.189 10.0379 2.99778 11.4778 2.5296C11.6901 2.49111 11.8941 2.4867 12.1098 2.48535ZM10.3129 4.76562C10.2283 4.82877 10.2283 4.82877 10.142 4.89319C9.58912 5.33684 9.0329 6.03307 8.82854 6.71875C8.75354 7.45382 8.74485 8.14545 9.21917 8.75C9.42314 8.96883 9.63769 9.17652 9.85336 9.38374C10.7075 10.2116 11.126 11.192 11.1738 12.3804C11.1678 13.466 10.8137 14.4215 10.4548 15.4348C10.3989 15.6014 10.3526 15.7664 10.3129 15.9375C11.5819 15.2281 12.5564 14.1484 13.0146 12.7521C13.1311 12.1319 13.1522 11.3501 12.8486 10.787C12.5213 10.321 12.1174 9.92578 11.7094 9.53125C10.9511 8.77895 10.491 7.90424 10.4496 6.83105C10.4677 5.82212 10.8595 5.00849 11.3285 4.14062C10.9626 4.14062 10.5937 4.55123 10.3129 4.76562Z" fill="#A6A182"/>
<path d="M8.35986 21.8346C8.41427 21.834 8.46868 21.8335 8.52473 21.8329C8.70418 21.8315 8.88354 21.8324 9.06299 21.8335C9.18791 21.8333 9.31283 21.833 9.43774 21.8326C9.69939 21.8321 9.96101 21.8328 10.2227 21.8343C10.5579 21.836 10.8931 21.835 11.2283 21.8331C11.4862 21.832 11.7441 21.8324 12.002 21.8332C12.1256 21.8334 12.2492 21.8331 12.3728 21.8324C12.5456 21.8316 12.7183 21.8328 12.8911 21.8346C13.0385 21.8349 13.0385 21.8349 13.189 21.8353C13.4814 21.8819 13.5733 21.9551 13.7505 22.1875C13.792 22.3437 13.792 22.3437 13.7896 22.5C13.7908 22.5773 13.7908 22.5773 13.792 22.6562C13.7303 22.8884 13.6254 22.9763 13.438 23.125C13.189 23.1647 13.189 23.1647 12.8911 23.1654C12.8367 23.166 12.7823 23.1665 12.7262 23.1671C12.5468 23.1685 12.3674 23.1676 12.188 23.1665C12.0631 23.1667 11.9382 23.167 11.8132 23.1674C11.5516 23.1679 11.29 23.1672 11.0283 23.1657C10.6931 23.164 10.3579 23.165 10.0227 23.1669C9.76478 23.168 9.5069 23.1676 9.24899 23.1668C9.1254 23.1666 9.0018 23.1669 8.8782 23.1676C8.70538 23.1684 8.53268 23.1672 8.35986 23.1654C8.26157 23.1652 8.16328 23.1649 8.06201 23.1647C7.76961 23.1181 7.67771 23.0449 7.50049 22.8125C7.45898 22.6562 7.45898 22.6562 7.46143 22.5C7.46022 22.4227 7.46022 22.4227 7.45898 22.3437C7.5833 21.8757 7.93058 21.8356 8.35986 21.8346Z" fill="#A6A182"/>
<path d="M15.9373 21.875C16.1326 21.9922 16.1326 21.9922 16.2498 22.1875C16.3116 22.5016 16.2984 22.7316 16.1326 23.0078C15.8564 23.1736 15.6264 23.1868 15.3123 23.125C15.117 23.0078 15.117 23.0078 14.9998 22.8125C14.938 22.4984 14.9513 22.2684 15.117 21.9922C15.3932 21.8264 15.6232 21.8132 15.9373 21.875Z" fill="#A6A182"/>
</g>
<defs>
<clipPath id="clip0_172_285">
<rect width="40" height="40" fill="white"/>
</clipPath>
</defs>
</svg>
