<svg width="164" height="51" viewBox="0 0 164 51" fill="none" xmlns="http://www.w3.org/2000/svg">
<path d="M5.499 38.25C6.60833 38.25 7.579 38.4537 8.411 38.861C9.25167 39.2683 9.906 39.8403 10.374 40.577C10.842 41.305 11.076 42.1543 11.076 43.125C11.076 44.0957 10.842 44.9493 10.374 45.686C9.906 46.414 9.25167 46.9817 8.411 47.389C7.579 47.7963 6.60833 48 5.499 48H1.092V38.25H5.499ZM2.808 47.402L1.859 46.492H5.616C6.36133 46.492 7.01133 46.3533 7.566 46.076C8.12933 45.79 8.56267 45.3957 8.866 44.893C9.178 44.3817 9.334 43.7923 9.334 43.125C9.334 42.449 9.178 41.8597 8.866 41.357C8.56267 40.8543 8.12933 40.4643 7.566 40.187C7.01133 39.901 6.36133 39.758 5.616 39.758H1.859L2.808 38.848V47.402ZM19.1683 48.182C18.3103 48.182 17.5476 48.0217 16.8803 47.701C16.213 47.3717 15.6886 46.9167 15.3073 46.336C14.926 45.7553 14.7353 45.0793 14.7353 44.308C14.7353 43.5453 14.913 42.878 15.2683 42.306C15.6323 41.7253 16.1306 41.2747 16.7633 40.954C17.4046 40.6247 18.137 40.46 18.9603 40.46C19.7836 40.46 20.4943 40.6463 21.0923 41.019C21.699 41.383 22.167 41.8987 22.4963 42.566C22.8256 43.2333 22.9903 44.0177 22.9903 44.919H16.0613V43.632H22.1453L21.3003 44.113C21.2743 43.6277 21.1573 43.2117 20.9493 42.865C20.75 42.5183 20.477 42.254 20.1303 42.072C19.7923 41.8813 19.3893 41.786 18.9213 41.786C18.4273 41.786 17.994 41.8857 17.6213 42.085C17.2573 42.2843 16.9713 42.566 16.7633 42.93C16.5553 43.2853 16.4513 43.71 16.4513 44.204C16.4513 44.75 16.5726 45.2223 16.8153 45.621C17.0666 46.0197 17.4176 46.3273 17.8683 46.544C18.3276 46.752 18.8693 46.856 19.4933 46.856C20.0566 46.856 20.633 46.7693 21.2223 46.596C21.8116 46.414 22.3316 46.1627 22.7823 45.842V47.064C22.3316 47.4107 21.7813 47.6837 21.1313 47.883C20.49 48.0823 19.8356 48.182 19.1683 48.182ZM34.5988 45.764C34.5988 46.258 34.4601 46.687 34.1828 47.051C33.9055 47.415 33.4851 47.6967 32.9218 47.896C32.3585 48.0867 31.6521 48.182 30.8028 48.182C29.9275 48.182 29.1691 48.0737 28.5278 47.857C27.8865 47.6317 27.3881 47.3197 27.0328 46.921C26.6861 46.5137 26.4998 46.0457 26.4738 45.517H28.1898C28.2418 45.7943 28.3805 46.0413 28.6058 46.258C28.8398 46.466 29.1431 46.6263 29.5158 46.739C29.8971 46.8517 30.3305 46.908 30.8158 46.908C31.5178 46.908 32.0465 46.8257 32.4018 46.661C32.7571 46.4877 32.9348 46.2277 32.9348 45.881C32.9348 45.647 32.8135 45.4693 32.5708 45.348C32.3368 45.2267 31.8905 45.1357 31.2318 45.075L29.7888 44.945C29.0088 44.8757 28.3935 44.737 27.9428 44.529C27.4921 44.3123 27.1715 44.0523 26.9808 43.749C26.7901 43.437 26.6948 43.1077 26.6948 42.761C26.6948 42.2583 26.8508 41.838 27.1628 41.5C27.4748 41.162 27.9081 40.9063 28.4628 40.733C29.0175 40.551 29.6631 40.46 30.3998 40.46C31.1625 40.46 31.8428 40.5683 32.4408 40.785C33.0388 40.993 33.5155 41.2877 33.8708 41.669C34.2261 42.0417 34.4255 42.475 34.4688 42.969H32.7528C32.7181 42.7697 32.6141 42.579 32.4408 42.397C32.2761 42.2063 32.0205 42.0503 31.6738 41.929C31.3358 41.799 30.8808 41.734 30.3088 41.734C29.7021 41.734 29.2255 41.812 28.8788 41.968C28.5408 42.124 28.3718 42.3537 28.3718 42.657C28.3718 42.8477 28.4758 43.0123 28.6838 43.151C28.8918 43.281 29.2775 43.372 29.8408 43.424L31.6998 43.593C32.4451 43.6623 33.0258 43.7967 33.4418 43.996C33.8665 44.1867 34.1655 44.4337 34.3388 44.737C34.5121 45.0403 34.5988 45.3827 34.5988 45.764ZM38.5691 40.59L39.4141 40.746L40.2591 40.59V48H38.5691V40.59ZM39.4141 39.667C39.0934 39.667 38.8291 39.5803 38.6211 39.407C38.4131 39.225 38.3091 38.991 38.3091 38.705C38.3091 38.419 38.4131 38.1893 38.6211 38.016C38.8291 37.834 39.0934 37.743 39.4141 37.743C39.7434 37.743 40.0077 37.834 40.2071 38.016C40.4151 38.1893 40.5191 38.419 40.5191 38.705C40.5191 38.991 40.4151 39.225 40.2071 39.407C40.0077 39.5803 39.7434 39.667 39.4141 39.667ZM51.3296 46.193V44.893L51.3946 44.659V43.242L51.3296 42.982V40.642H53.0196V46.037C53.0196 46.9817 52.8203 47.7703 52.4216 48.403C52.0229 49.0443 51.4769 49.5253 50.7836 49.846C50.0903 50.1667 49.2929 50.327 48.3916 50.327C47.7329 50.327 47.1263 50.2403 46.5716 50.067C46.0169 49.8937 45.4796 49.6293 44.9596 49.274V47.87C45.4883 48.286 46.0343 48.5763 46.5976 48.741C47.1609 48.9143 47.7243 49.001 48.2876 49.001C49.2756 49.001 50.0296 48.7583 50.5496 48.273C51.0696 47.7877 51.3296 47.0943 51.3296 46.193ZM47.7936 47.428C47.1176 47.428 46.5109 47.285 45.9736 46.999C45.4363 46.7043 45.0116 46.297 44.6996 45.777C44.3876 45.257 44.2316 44.646 44.2316 43.944C44.2316 43.242 44.3876 42.631 44.6996 42.111C45.0116 41.591 45.4363 41.188 45.9736 40.902C46.5109 40.6073 47.1176 40.46 47.7936 40.46C48.2963 40.46 48.7599 40.538 49.1846 40.694C49.6179 40.85 50.0036 41.058 50.3416 41.318C50.6883 41.5693 50.9786 41.851 51.2126 42.163C51.4553 42.4663 51.6416 42.7783 51.7716 43.099C51.9016 43.411 51.9666 43.697 51.9666 43.957C51.9666 44.295 51.8669 44.6677 51.6676 45.075C51.4683 45.4737 51.1823 45.8507 50.8096 46.206C50.4456 46.5613 50.0079 46.856 49.4966 47.09C48.9853 47.3153 48.4176 47.428 47.7936 47.428ZM48.3136 46.18C48.9289 46.18 49.4923 46.0023 50.0036 45.647C50.5236 45.2917 50.9873 44.724 51.3946 43.944C50.9873 43.1467 50.5236 42.5747 50.0036 42.228C49.4923 41.8727 48.9289 41.695 48.3136 41.695C47.8109 41.695 47.3819 41.7903 47.0266 41.981C46.6713 42.1717 46.3983 42.436 46.2076 42.774C46.0256 43.112 45.9346 43.502 45.9346 43.944C45.9346 44.3773 46.0256 44.763 46.2076 45.101C46.3983 45.439 46.6713 45.7033 47.0266 45.894C47.3819 46.0847 47.8109 46.18 48.3136 46.18ZM57.0274 40.642H58.7174L59.1594 43.294V48H57.4694V43.047L57.0274 40.642ZM62.0844 40.46C62.7778 40.46 63.3671 40.5987 63.8524 40.876C64.3378 41.1533 64.7061 41.552 64.9574 42.072C65.2174 42.5833 65.3474 43.203 65.3474 43.931V48H63.6574V44.204C63.6574 43.4327 63.4754 42.852 63.1114 42.462C62.7561 42.0633 62.2318 41.864 61.5384 41.864C61.0618 41.864 60.6414 41.9723 60.2774 42.189C59.9221 42.397 59.6448 42.6917 59.4454 43.073C59.2548 43.4543 59.1594 43.9007 59.1594 44.412L58.5614 44.087C58.6394 43.3243 58.8388 42.6743 59.1594 42.137C59.4801 41.5997 59.8918 41.188 60.3944 40.902C60.8971 40.6073 61.4604 40.46 62.0844 40.46ZM75.277 44.828H77.019C77.071 45.218 77.2313 45.5603 77.5 45.855C77.7773 46.1497 78.1413 46.3793 78.592 46.544C79.0427 46.7 79.5627 46.778 80.152 46.778C81.0273 46.778 81.7207 46.6437 82.232 46.375C82.7433 46.0977 82.999 45.725 82.999 45.257C82.999 44.8757 82.8517 44.5897 82.557 44.399C82.2623 44.2083 81.7293 44.0653 80.958 43.97L78.852 43.697C77.6733 43.541 76.8153 43.2507 76.278 42.826C75.7493 42.3927 75.485 41.7817 75.485 40.993C75.485 40.395 75.6627 39.8793 76.018 39.446C76.382 39.004 76.8933 38.666 77.552 38.432C78.2107 38.1893 78.982 38.068 79.866 38.068C80.7413 38.068 81.517 38.198 82.193 38.458C82.869 38.718 83.4063 39.082 83.805 39.55C84.2123 40.0093 84.4333 40.551 84.468 41.175H82.726C82.6827 40.8283 82.5353 40.5293 82.284 40.278C82.0413 40.0267 81.712 39.8317 81.296 39.693C80.88 39.5457 80.3903 39.472 79.827 39.472C79.0297 39.472 78.3927 39.602 77.916 39.862C77.4393 40.122 77.201 40.4773 77.201 40.928C77.201 41.2747 77.3397 41.5433 77.617 41.734C77.903 41.916 78.397 42.0547 79.099 42.15L81.231 42.449C82.1063 42.5703 82.7953 42.735 83.298 42.943C83.8093 43.1423 84.1733 43.4153 84.39 43.762C84.6067 44.1 84.715 44.5377 84.715 45.075C84.715 45.699 84.5243 46.245 84.143 46.713C83.7617 47.181 83.2243 47.545 82.531 47.805C81.8463 48.0563 81.0447 48.182 80.126 48.182C79.19 48.182 78.3623 48.0433 77.643 47.766C76.9323 47.48 76.369 47.0857 75.953 46.583C75.537 46.0803 75.3117 45.4953 75.277 44.828ZM87.8836 41.942V41.175L89.4566 40.772L90.1586 38.718H91.1466V40.642H94.5656V41.942H91.1466V45.127C91.1466 45.7423 91.2766 46.1757 91.5366 46.427C91.8052 46.6697 92.2386 46.791 92.8366 46.791C93.2179 46.791 93.5559 46.752 93.8506 46.674C94.1452 46.5873 94.4269 46.466 94.6956 46.31V47.701C94.4702 47.8137 94.1496 47.922 93.7336 48.026C93.3262 48.13 92.9059 48.182 92.4726 48.182C91.7532 48.182 91.1726 48.065 90.7306 47.831C90.2886 47.5883 89.9636 47.259 89.7556 46.843C89.5562 46.4183 89.4566 45.933 89.4566 45.387V41.942H87.8836ZM101.607 48.182C100.931 48.182 100.355 48.0433 99.8785 47.766C99.4105 47.4887 99.0508 47.09 98.7995 46.57C98.5482 46.05 98.4225 45.4303 98.4225 44.711V40.642H100.112V44.451C100.112 45.2137 100.286 45.7943 100.632 46.193C100.988 46.583 101.495 46.778 102.153 46.778C102.63 46.778 103.037 46.674 103.375 46.466C103.722 46.258 103.991 45.9633 104.181 45.582C104.372 45.192 104.467 44.7413 104.467 44.23L105.052 44.555C104.983 45.309 104.792 45.959 104.48 46.505C104.168 47.0423 103.765 47.4583 103.271 47.753C102.777 48.039 102.223 48.182 101.607 48.182ZM104.896 48L104.467 45.348V40.642H106.157V45.608L106.586 48H104.896ZM117.538 48L117.252 45.205L117.629 44.334L117.265 43.333L117.811 37.99H119.553L118.89 44.217L119.267 48H117.538ZM118.032 44.321C117.867 45.0923 117.594 45.7683 117.213 46.349C116.832 46.9297 116.359 47.3803 115.796 47.701C115.241 48.0217 114.622 48.182 113.937 48.182C113.218 48.182 112.581 48.0217 112.026 47.701C111.471 47.3717 111.038 46.9167 110.726 46.336C110.414 45.7553 110.258 45.0837 110.258 44.321C110.258 43.5497 110.414 42.878 110.726 42.306C111.038 41.7253 111.471 41.2747 112.026 40.954C112.581 40.6247 113.218 40.46 113.937 40.46C114.622 40.46 115.241 40.6203 115.796 40.941C116.359 41.2617 116.832 41.7123 117.213 42.293C117.603 42.865 117.876 43.541 118.032 44.321ZM111.974 44.321C111.974 44.815 112.074 45.2527 112.273 45.634C112.481 46.0067 112.763 46.3013 113.118 46.518C113.473 46.726 113.881 46.83 114.34 46.83C114.808 46.83 115.241 46.726 115.64 46.518C116.039 46.3013 116.39 46.0067 116.693 45.634C117.005 45.2527 117.252 44.815 117.434 44.321C117.252 43.827 117.005 43.3937 116.693 43.021C116.39 42.6397 116.039 42.345 115.64 42.137C115.241 41.9203 114.808 41.812 114.34 41.812C113.881 41.812 113.473 41.9203 113.118 42.137C112.763 42.345 112.481 42.6397 112.273 43.021C112.074 43.3937 111.974 43.827 111.974 44.321ZM123.493 40.59L124.338 40.746L125.183 40.59V48H123.493V40.59ZM124.338 39.667C124.017 39.667 123.753 39.5803 123.545 39.407C123.337 39.225 123.233 38.991 123.233 38.705C123.233 38.419 123.337 38.1893 123.545 38.016C123.753 37.834 124.017 37.743 124.338 37.743C124.667 37.743 124.932 37.834 125.131 38.016C125.339 38.1893 125.443 38.419 125.443 38.705C125.443 38.991 125.339 39.225 125.131 39.407C124.932 39.5803 124.667 39.667 124.338 39.667ZM133.641 48.182C132.748 48.182 131.964 48.0217 131.288 47.701C130.62 47.3717 130.096 46.9167 129.715 46.336C129.342 45.7553 129.156 45.0837 129.156 44.321C129.156 43.5497 129.342 42.878 129.715 42.306C130.096 41.7253 130.62 41.2747 131.288 40.954C131.964 40.6247 132.748 40.46 133.641 40.46C134.533 40.46 135.313 40.6247 135.981 40.954C136.657 41.2747 137.181 41.7253 137.554 42.306C137.935 42.878 138.126 43.5497 138.126 44.321C138.126 45.0837 137.935 45.7553 137.554 46.336C137.181 46.9167 136.657 47.3717 135.981 47.701C135.313 48.0217 134.533 48.182 133.641 48.182ZM133.641 46.856C134.213 46.856 134.702 46.752 135.11 46.544C135.526 46.336 135.846 46.0457 136.072 45.673C136.297 45.2917 136.41 44.841 136.41 44.321C136.41 43.801 136.297 43.3547 136.072 42.982C135.846 42.6007 135.526 42.306 135.11 42.098C134.702 41.89 134.213 41.786 133.641 41.786C133.077 41.786 132.588 41.89 132.172 42.098C131.756 42.306 131.435 42.6007 131.21 42.982C130.984 43.3547 130.872 43.801 130.872 44.321C130.872 44.841 130.984 45.2917 131.21 45.673C131.435 46.0457 131.756 46.336 132.172 46.544C132.588 46.752 133.077 46.856 133.641 46.856Z" fill="#C4C4C4"/>
<path d="M42.28 30C42.3547 30 42.5413 29.8693 42.84 29.608C43.1573 29.3467 43.596 28.9267 44.156 28.348C44.436 28.0493 44.8093 27.6387 45.276 27.116C45.7613 26.5747 46.284 25.9867 46.844 25.352C47.4227 24.6987 48.0013 24.0453 48.58 23.392C49.1587 22.7387 49.6907 22.132 50.176 21.572C49.6907 21.0307 49.1587 20.4427 48.58 19.808C48.02 19.1547 47.46 18.5107 46.9 17.876C46.34 17.2413 45.8267 16.672 45.36 16.168C44.912 15.6453 44.5573 15.2347 44.296 14.936C43.7547 14.3013 43.3067 13.8533 42.952 13.592C42.616 13.3307 42.392 13.2 42.28 13.2H49.168C49.0933 13.2 49.084 13.3307 49.14 13.592C49.196 13.8533 49.4013 14.3013 49.756 14.936C49.924 15.2347 50.12 15.552 50.344 15.888C50.5867 16.2053 50.8293 16.532 51.072 16.868C51.3147 17.204 51.548 17.5213 51.772 17.82C51.996 18.1 52.1827 18.3427 52.332 18.548C52.5 18.7533 52.6213 18.9027 52.696 18.996H52.752C52.808 18.9027 52.9107 18.7627 53.06 18.576C53.228 18.3707 53.424 18.128 53.648 17.848C53.872 17.5493 54.1053 17.2413 54.348 16.924C54.6093 16.588 54.8613 16.2427 55.104 15.888C55.3467 15.5333 55.5707 15.1973 55.776 14.88C56.1493 14.264 56.3547 13.8347 56.392 13.592C56.448 13.3307 56.4293 13.2 56.336 13.2H63.056C62.9813 13.2 62.7853 13.3307 62.468 13.592C62.1507 13.8347 61.7213 14.2547 61.18 14.852C60.9 15.1693 60.5267 15.5987 60.06 16.14C59.5933 16.6627 59.0707 17.2413 58.492 17.876C57.932 18.5107 57.3627 19.1547 56.784 19.808C56.224 20.4427 55.7013 21.0307 55.216 21.572C55.7013 22.132 56.224 22.7387 56.784 23.392C57.344 24.0453 57.904 24.6893 58.464 25.324C59.024 25.9587 59.528 26.5373 59.976 27.06C60.4427 27.5827 60.8067 27.984 61.068 28.264C61.6467 28.8987 62.104 29.3467 62.44 29.608C62.776 29.8693 62.9907 30 63.084 30H56.448C56.5973 30 56.6533 29.8693 56.616 29.608C56.5973 29.3467 56.3547 28.8987 55.888 28.264C55.7013 28.0027 55.4773 27.7133 55.216 27.396C54.9733 27.0787 54.7213 26.7613 54.46 26.444C54.1987 26.108 53.9467 25.8 53.704 25.52C53.4613 25.24 53.256 24.9973 53.088 24.792C52.92 24.568 52.7987 24.4093 52.724 24.316H52.668C52.612 24.3907 52.5 24.5307 52.332 24.736C52.1827 24.9413 51.996 25.184 51.772 25.464C51.5667 25.744 51.3333 26.052 51.072 26.388C50.8107 26.7053 50.5493 27.032 50.288 27.368C50.0453 27.6853 49.8027 28.0027 49.56 28.32C49.0933 28.936 48.8413 29.3747 48.804 29.636C48.7667 29.8787 48.8227 30 48.972 30H42.28ZM70.3555 30C70.4861 30 70.6168 29.8693 70.7475 29.608C70.8781 29.3467 70.9435 28.9173 70.9435 28.32V14.88C70.9435 14.2827 70.8781 13.8627 70.7475 13.62C70.6168 13.3587 70.4861 13.2187 70.3555 13.2H75.8435C75.7128 13.2 75.5821 13.3307 75.4515 13.592C75.3208 13.8533 75.2555 14.292 75.2555 14.908V26.024C75.2555 26.4347 75.3021 26.6867 75.3955 26.78C75.5075 26.8547 75.8435 26.892 76.4035 26.892H83.1515C84.2341 26.892 85.1021 26.7707 85.7555 26.528C86.4275 26.2667 86.8661 26.0147 87.0715 25.772L86.2315 29.132V30H70.3555ZM94.3578 30C94.4885 30 94.6191 29.8693 94.7498 29.608C94.8805 29.3467 94.9458 28.9173 94.9458 28.32V14.88C94.9458 14.2827 94.8805 13.8627 94.7498 13.62C94.6191 13.3587 94.4885 13.2187 94.3578 13.2H110.71V14.04L111.27 17.288C110.803 17.0827 109.982 16.868 108.806 16.644C107.63 16.4013 106.211 16.28 104.55 16.28H100.406C99.8458 16.28 99.5098 16.3267 99.3978 16.42C99.3045 16.4947 99.2578 16.728 99.2578 17.12V19.192C99.2578 19.6027 99.3045 19.8453 99.3978 19.92C99.5098 19.9947 99.8365 20.032 100.378 20.032H104.41C105.492 20.032 106.36 19.976 107.014 19.864C107.686 19.7333 108.124 19.6027 108.33 19.472C108.255 19.8267 108.171 20.2373 108.078 20.704C107.984 21.1707 107.91 21.6187 107.854 22.048C107.798 22.4773 107.77 22.832 107.77 23.112H100.378C99.8365 23.112 99.5098 23.1493 99.3978 23.224C99.3045 23.28 99.2578 23.5227 99.2578 23.952V26.024C99.2578 26.4533 99.3045 26.7053 99.3978 26.78C99.4911 26.8547 99.8178 26.892 100.378 26.892H107.938C109.02 26.892 109.888 26.7707 110.542 26.528C111.214 26.2667 111.652 26.0147 111.858 25.772L111.298 29.132V30H94.3578ZM128.247 30.28C125.036 30.28 122.712 29.5147 121.275 27.984C119.856 26.4347 119.147 24.2787 119.147 21.516C119.147 19.7427 119.455 18.2213 120.071 16.952C120.705 15.664 121.685 14.6747 123.011 13.984C124.355 13.2747 126.1 12.92 128.247 12.92H129.115C131.224 12.92 132.932 13.2653 134.239 13.956C135.564 14.6467 136.535 15.636 137.151 16.924C137.767 18.212 138.075 19.7427 138.075 21.516C138.075 24.2787 137.365 26.4347 135.947 27.984C134.528 29.5147 132.251 30.28 129.115 30.28H128.247ZM128.527 27.172H128.835C129.973 27.172 130.907 26.9853 131.635 26.612C132.381 26.2387 132.932 25.6413 133.287 24.82C133.641 23.98 133.819 22.8787 133.819 21.516C133.819 20.1907 133.632 19.1267 133.259 18.324C132.904 17.5027 132.353 16.9147 131.607 16.56C130.879 16.1867 129.955 16 128.835 16H128.527C127.369 16 126.408 16.196 125.643 16.588C124.877 16.9613 124.308 17.5493 123.935 18.352C123.58 19.1547 123.403 20.2093 123.403 21.516C123.403 22.8787 123.589 23.98 123.963 24.82C124.355 25.6413 124.924 26.2387 125.671 26.612C126.436 26.9853 127.388 27.172 128.527 27.172Z" fill="white"/>
<path d="M24.8346 0H24.5802H23.4097H21.7812H20.6616H19.0331H17.9135H16.285H15.7761H15.2163L0 30H1.11959L16.0305 0.558739L16.8448 2.149L2.74809 30H3.86768L17.4046 3.26648L18.2188 4.85673L5.49618 30H6.61578L18.7786 5.97421L19.5929 7.56447L8.24428 30H9.36387L20.1527 8.68195L26.6667 21.5329H16.7939C26.8193 22.0917 30.9415 30 30.9415 30H40L24.8346 0Z" fill="white"/>
</svg>
