<svg width="175" height="51" viewBox="0 0 175 51" fill="none" xmlns="http://www.w3.org/2000/svg">
<path d="M5.499 38.25C6.60833 38.25 7.579 38.4537 8.411 38.861C9.25167 39.2683 9.906 39.8403 10.374 40.577C10.842 41.305 11.076 42.1543 11.076 43.125C11.076 44.0957 10.842 44.9493 10.374 45.686C9.906 46.414 9.25167 46.9817 8.411 47.389C7.579 47.7963 6.60833 48 5.499 48H1.092V38.25H5.499ZM2.808 47.402L1.859 46.492H5.616C6.36133 46.492 7.01133 46.3533 7.566 46.076C8.12933 45.79 8.56267 45.3957 8.866 44.893C9.178 44.3817 9.334 43.7923 9.334 43.125C9.334 42.449 9.178 41.8597 8.866 41.357C8.56267 40.8543 8.12933 40.4643 7.566 40.187C7.01133 39.901 6.36133 39.758 5.616 39.758H1.859L2.808 38.848V47.402ZM15.1513 40.59L15.9963 40.746L16.8413 40.59V48H15.1513V40.59ZM15.9963 39.667C15.6756 39.667 15.4113 39.5803 15.2033 39.407C14.9953 39.225 14.8913 38.991 14.8913 38.705C14.8913 38.419 14.9953 38.1893 15.2033 38.016C15.4113 37.834 15.6756 37.743 15.9963 37.743C16.3256 37.743 16.59 37.834 16.7893 38.016C16.9973 38.1893 17.1013 38.419 17.1013 38.705C17.1013 38.991 16.9973 39.225 16.7893 39.407C16.59 39.5803 16.3256 39.667 15.9963 39.667ZM27.9118 46.193V44.893L27.9768 44.659V43.242L27.9118 42.982V40.642H29.6018V46.037C29.6018 46.9817 29.4025 47.7703 29.0038 48.403C28.6051 49.0443 28.0591 49.5253 27.3658 49.846C26.6725 50.1667 25.8751 50.327 24.9738 50.327C24.3151 50.327 23.7085 50.2403 23.1538 50.067C22.5991 49.8937 22.0618 49.6293 21.5418 49.274V47.87C22.0705 48.286 22.6165 48.5763 23.1798 48.741C23.7431 48.9143 24.3065 49.001 24.8698 49.001C25.8578 49.001 26.6118 48.7583 27.1318 48.273C27.6518 47.7877 27.9118 47.0943 27.9118 46.193ZM24.3758 47.428C23.6998 47.428 23.0931 47.285 22.5558 46.999C22.0185 46.7043 21.5938 46.297 21.2818 45.777C20.9698 45.257 20.8138 44.646 20.8138 43.944C20.8138 43.242 20.9698 42.631 21.2818 42.111C21.5938 41.591 22.0185 41.188 22.5558 40.902C23.0931 40.6073 23.6998 40.46 24.3758 40.46C24.8785 40.46 25.3421 40.538 25.7668 40.694C26.2001 40.85 26.5858 41.058 26.9238 41.318C27.2705 41.5693 27.5608 41.851 27.7948 42.163C28.0375 42.4663 28.2238 42.7783 28.3538 43.099C28.4838 43.411 28.5488 43.697 28.5488 43.957C28.5488 44.295 28.4491 44.6677 28.2498 45.075C28.0505 45.4737 27.7645 45.8507 27.3918 46.206C27.0278 46.5613 26.5901 46.856 26.0788 47.09C25.5675 47.3153 24.9998 47.428 24.3758 47.428ZM24.8958 46.18C25.5111 46.18 26.0745 46.0023 26.5858 45.647C27.1058 45.2917 27.5695 44.724 27.9768 43.944C27.5695 43.1467 27.1058 42.5747 26.5858 42.228C26.0745 41.8727 25.5111 41.695 24.8958 41.695C24.3931 41.695 23.9641 41.7903 23.6088 41.981C23.2535 42.1717 22.9805 42.436 22.7898 42.774C22.6078 43.112 22.5168 43.502 22.5168 43.944C22.5168 44.3773 22.6078 44.763 22.7898 45.101C22.9805 45.439 23.2535 45.7033 23.6088 45.894C23.9641 46.0847 24.3931 46.18 24.8958 46.18ZM33.9607 40.59L34.8057 40.746L35.6507 40.59V48H33.9607V40.59ZM34.8057 39.667C34.485 39.667 34.2207 39.5803 34.0127 39.407C33.8047 39.225 33.7007 38.991 33.7007 38.705C33.7007 38.419 33.8047 38.1893 34.0127 38.016C34.2207 37.834 34.485 37.743 34.8057 37.743C35.135 37.743 35.3993 37.834 35.5987 38.016C35.8067 38.1893 35.9107 38.419 35.9107 38.705C35.9107 38.991 35.8067 39.225 35.5987 39.407C35.3993 39.5803 35.135 39.667 34.8057 39.667ZM39.2072 41.942V41.175L40.7802 40.772L41.4822 38.718H42.4702V40.642H45.8892V41.942H42.4702V45.127C42.4702 45.7423 42.6002 46.1757 42.8602 46.427C43.1289 46.6697 43.5622 46.791 44.1602 46.791C44.5415 46.791 44.8795 46.752 45.1742 46.674C45.4689 46.5873 45.7505 46.466 46.0192 46.31V47.701C45.7939 47.8137 45.4732 47.922 45.0572 48.026C44.6499 48.13 44.2295 48.182 43.7962 48.182C43.0769 48.182 42.4962 48.065 42.0542 47.831C41.6122 47.5883 41.2872 47.259 41.0792 46.843C40.8799 46.4183 40.7802 45.933 40.7802 45.387V41.942H39.2072ZM56.4856 48L56.1996 45.27L56.5376 44.321L56.1996 43.385L56.4856 40.642H58.2276L57.8376 44.321L58.2276 48H56.4856ZM57.0056 44.321C56.8409 45.0923 56.5679 45.7683 56.1866 46.349C55.8053 46.9297 55.3329 47.3803 54.7696 47.701C54.2149 48.0217 53.5953 48.182 52.9106 48.182C52.1913 48.182 51.5543 48.0217 50.9996 47.701C50.4449 47.3717 50.0116 46.9167 49.6996 46.336C49.3876 45.7553 49.2316 45.0837 49.2316 44.321C49.2316 43.5497 49.3876 42.878 49.6996 42.306C50.0116 41.7253 50.4449 41.2747 50.9996 40.954C51.5543 40.6247 52.1913 40.46 52.9106 40.46C53.5953 40.46 54.2149 40.6203 54.7696 40.941C55.3329 41.2617 55.8053 41.7123 56.1866 42.293C56.5766 42.865 56.8496 43.541 57.0056 44.321ZM50.9476 44.321C50.9476 44.815 51.0473 45.2527 51.2466 45.634C51.4546 46.0067 51.7363 46.3013 52.0916 46.518C52.4469 46.726 52.8543 46.83 53.3136 46.83C53.7816 46.83 54.2149 46.726 54.6136 46.518C55.0123 46.3013 55.3633 46.0067 55.6666 45.634C55.9786 45.2527 56.2256 44.815 56.4076 44.321C56.2256 43.827 55.9786 43.3937 55.6666 43.021C55.3633 42.6397 55.0123 42.345 54.6136 42.137C54.2149 41.9203 53.7816 41.812 53.3136 41.812C52.8543 41.812 52.4469 41.9203 52.0916 42.137C51.7363 42.345 51.4546 42.6397 51.2466 43.021C51.0473 43.3937 50.9476 43.827 50.9476 44.321ZM62.454 37.99H64.144V48H62.454V37.99ZM87.885 38.25V48H86.247V38.77L86.78 38.796L82.243 48H80.41L75.873 38.809L76.406 38.783V48H74.768V38.25H77.394L81.762 47.259H80.904L85.259 38.25H87.885ZM99.246 48L98.96 45.27L99.298 44.321L98.96 43.385L99.246 40.642H100.988L100.598 44.321L100.988 48H99.246ZM99.766 44.321C99.6013 45.0923 99.3283 45.7683 98.947 46.349C98.5656 46.9297 98.0933 47.3803 97.53 47.701C96.9753 48.0217 96.3556 48.182 95.671 48.182C94.9516 48.182 94.3146 48.0217 93.76 47.701C93.2053 47.3717 92.772 46.9167 92.46 46.336C92.148 45.7553 91.992 45.0837 91.992 44.321C91.992 43.5497 92.148 42.878 92.46 42.306C92.772 41.7253 93.2053 41.2747 93.76 40.954C94.3146 40.6247 94.9516 40.46 95.671 40.46C96.3556 40.46 96.9753 40.6203 97.53 40.941C98.0933 41.2617 98.5656 41.7123 98.947 42.293C99.337 42.865 99.61 43.541 99.766 44.321ZM93.708 44.321C93.708 44.815 93.8076 45.2527 94.007 45.634C94.215 46.0067 94.4966 46.3013 94.852 46.518C95.2073 46.726 95.6146 46.83 96.074 46.83C96.542 46.83 96.9753 46.726 97.374 46.518C97.7726 46.3013 98.1236 46.0067 98.427 45.634C98.739 45.2527 98.986 44.815 99.168 44.321C98.986 43.827 98.739 43.3937 98.427 43.021C98.1236 42.6397 97.7726 42.345 97.374 42.137C96.9753 41.9203 96.542 41.812 96.074 41.812C95.6146 41.812 95.2073 41.9203 94.852 42.137C94.4966 42.345 94.215 42.6397 94.007 43.021C93.8076 43.3937 93.708 43.827 93.708 44.321ZM104.863 40.642H106.553L106.995 43.32V48H105.305V42.995L104.863 40.642ZM110.726 40.59V42.072C110.536 42.02 110.328 41.981 110.102 41.955C109.877 41.929 109.665 41.916 109.465 41.916C108.989 41.916 108.564 42.02 108.191 42.228C107.819 42.436 107.524 42.748 107.307 43.164C107.099 43.5713 106.995 44.074 106.995 44.672L106.605 44.191C106.64 43.671 106.727 43.1857 106.865 42.735C107.013 42.2757 107.212 41.877 107.463 41.539C107.723 41.201 108.04 40.9367 108.412 40.746C108.785 40.5553 109.218 40.46 109.712 40.46C109.886 40.46 110.063 40.473 110.245 40.499C110.427 40.5163 110.588 40.5467 110.726 40.59ZM116.081 46.531L115.587 46.349L120.267 40.642H122.217L115.964 48H114.391V37.99H116.081V46.531ZM118.174 44.36L119.357 43.294L122.438 48H120.449L118.174 44.36ZM129.539 48.182C128.681 48.182 127.918 48.0217 127.251 47.701C126.583 47.3717 126.059 46.9167 125.678 46.336C125.296 45.7553 125.106 45.0793 125.106 44.308C125.106 43.5453 125.283 42.878 125.639 42.306C126.003 41.7253 126.501 41.2747 127.134 40.954C127.775 40.6247 128.507 40.46 129.331 40.46C130.154 40.46 130.865 40.6463 131.463 41.019C132.069 41.383 132.537 41.8987 132.867 42.566C133.196 43.2333 133.361 44.0177 133.361 44.919H126.432V43.632H132.516L131.671 44.113C131.645 43.6277 131.528 43.2117 131.32 42.865C131.12 42.5183 130.847 42.254 130.501 42.072C130.163 41.8813 129.76 41.786 129.292 41.786C128.798 41.786 128.364 41.8857 127.992 42.085C127.628 42.2843 127.342 42.566 127.134 42.93C126.926 43.2853 126.822 43.71 126.822 44.204C126.822 44.75 126.943 45.2223 127.186 45.621C127.437 46.0197 127.788 46.3273 128.239 46.544C128.698 46.752 129.24 46.856 129.864 46.856C130.427 46.856 131.003 46.7693 131.593 46.596C132.182 46.414 132.702 46.1627 133.153 45.842V47.064C132.702 47.4107 132.152 47.6837 131.502 47.883C130.86 48.0823 130.206 48.182 129.539 48.182ZM136.367 41.942V41.175L137.94 40.772L138.642 38.718H139.63V40.642H143.049V41.942H139.63V45.127C139.63 45.7423 139.76 46.1757 140.02 46.427C140.289 46.6697 140.722 46.791 141.32 46.791C141.701 46.791 142.039 46.752 142.334 46.674C142.629 46.5873 142.91 46.466 143.179 46.31V47.701C142.954 47.8137 142.633 47.922 142.217 48.026C141.81 48.13 141.389 48.182 140.956 48.182C140.237 48.182 139.656 48.065 139.214 47.831C138.772 47.5883 138.447 47.259 138.239 46.843C138.04 46.4183 137.94 45.933 137.94 45.387V41.942H136.367ZM147.01 40.59L147.855 40.746L148.7 40.59V48H147.01V40.59ZM147.855 39.667C147.534 39.667 147.27 39.5803 147.062 39.407C146.854 39.225 146.75 38.991 146.75 38.705C146.75 38.419 146.854 38.1893 147.062 38.016C147.27 37.834 147.534 37.743 147.855 37.743C148.184 37.743 148.449 37.834 148.648 38.016C148.856 38.1893 148.96 38.419 148.96 38.705C148.96 38.991 148.856 39.225 148.648 39.407C148.449 39.5803 148.184 39.667 147.855 39.667ZM152.737 40.642H154.427L154.869 43.294V48H153.179V43.047L152.737 40.642ZM157.794 40.46C158.488 40.46 159.077 40.5987 159.562 40.876C160.048 41.1533 160.416 41.552 160.667 42.072C160.927 42.5833 161.057 43.203 161.057 43.931V48H159.367V44.204C159.367 43.4327 159.185 42.852 158.821 42.462C158.466 42.0633 157.942 41.864 157.248 41.864C156.772 41.864 156.351 41.9723 155.987 42.189C155.632 42.397 155.355 42.6917 155.155 43.073C154.965 43.4543 154.869 43.9007 154.869 44.412L154.271 44.087C154.349 43.3243 154.549 42.6743 154.869 42.137C155.19 41.5997 155.602 41.188 156.104 40.902C156.607 40.6073 157.17 40.46 157.794 40.46ZM172.032 46.193V44.893L172.097 44.659V43.242L172.032 42.982V40.642H173.722V46.037C173.722 46.9817 173.522 47.7703 173.124 48.403C172.725 49.0443 172.179 49.5253 171.486 49.846C170.792 50.1667 169.995 50.327 169.094 50.327C168.435 50.327 167.828 50.2403 167.274 50.067C166.719 49.8937 166.182 49.6293 165.662 49.274V47.87C166.19 48.286 166.736 48.5763 167.3 48.741C167.863 48.9143 168.426 49.001 168.99 49.001C169.978 49.001 170.732 48.7583 171.252 48.273C171.772 47.7877 172.032 47.0943 172.032 46.193ZM168.496 47.428C167.82 47.428 167.213 47.285 166.676 46.999C166.138 46.7043 165.714 46.297 165.402 45.777C165.09 45.257 164.934 44.646 164.934 43.944C164.934 43.242 165.09 42.631 165.402 42.111C165.714 41.591 166.138 41.188 166.676 40.902C167.213 40.6073 167.82 40.46 168.496 40.46C168.998 40.46 169.462 40.538 169.887 40.694C170.32 40.85 170.706 41.058 171.044 41.318C171.39 41.5693 171.681 41.851 171.915 42.163C172.157 42.4663 172.344 42.7783 172.474 43.099C172.604 43.411 172.669 43.697 172.669 43.957C172.669 44.295 172.569 44.6677 172.37 45.075C172.17 45.4737 171.884 45.8507 171.512 46.206C171.148 46.5613 170.71 46.856 170.199 47.09C169.687 47.3153 169.12 47.428 168.496 47.428ZM169.016 46.18C169.631 46.18 170.194 46.0023 170.706 45.647C171.226 45.2917 171.689 44.724 172.097 43.944C171.689 43.1467 171.226 42.5747 170.706 42.228C170.194 41.8727 169.631 41.695 169.016 41.695C168.513 41.695 168.084 41.7903 167.729 41.981C167.373 42.1717 167.1 42.436 166.91 42.774C166.728 43.112 166.637 43.502 166.637 43.944C166.637 44.3773 166.728 44.763 166.91 45.101C167.1 45.439 167.373 45.7033 167.729 45.894C168.084 46.0847 168.513 46.18 169.016 46.18Z" fill="#545454"/>
<path d="M42.28 30C42.3547 30 42.5413 29.8693 42.84 29.608C43.1573 29.3467 43.596 28.9267 44.156 28.348C44.436 28.0493 44.8093 27.6387 45.276 27.116C45.7613 26.5747 46.284 25.9867 46.844 25.352C47.4227 24.6987 48.0013 24.0453 48.58 23.392C49.1587 22.7387 49.6907 22.132 50.176 21.572C49.6907 21.0307 49.1587 20.4427 48.58 19.808C48.02 19.1547 47.46 18.5107 46.9 17.876C46.34 17.2413 45.8267 16.672 45.36 16.168C44.912 15.6453 44.5573 15.2347 44.296 14.936C43.7547 14.3013 43.3067 13.8533 42.952 13.592C42.616 13.3307 42.392 13.2 42.28 13.2H49.168C49.0933 13.2 49.084 13.3307 49.14 13.592C49.196 13.8533 49.4013 14.3013 49.756 14.936C49.924 15.2347 50.12 15.552 50.344 15.888C50.5867 16.2053 50.8293 16.532 51.072 16.868C51.3147 17.204 51.548 17.5213 51.772 17.82C51.996 18.1 52.1827 18.3427 52.332 18.548C52.5 18.7533 52.6213 18.9027 52.696 18.996H52.752C52.808 18.9027 52.9107 18.7627 53.06 18.576C53.228 18.3707 53.424 18.128 53.648 17.848C53.872 17.5493 54.1053 17.2413 54.348 16.924C54.6093 16.588 54.8613 16.2427 55.104 15.888C55.3467 15.5333 55.5707 15.1973 55.776 14.88C56.1493 14.264 56.3547 13.8347 56.392 13.592C56.448 13.3307 56.4293 13.2 56.336 13.2H63.056C62.9813 13.2 62.7853 13.3307 62.468 13.592C62.1507 13.8347 61.7213 14.2547 61.18 14.852C60.9 15.1693 60.5267 15.5987 60.06 16.14C59.5933 16.6627 59.0707 17.2413 58.492 17.876C57.932 18.5107 57.3627 19.1547 56.784 19.808C56.224 20.4427 55.7013 21.0307 55.216 21.572C55.7013 22.132 56.224 22.7387 56.784 23.392C57.344 24.0453 57.904 24.6893 58.464 25.324C59.024 25.9587 59.528 26.5373 59.976 27.06C60.4427 27.5827 60.8067 27.984 61.068 28.264C61.6467 28.8987 62.104 29.3467 62.44 29.608C62.776 29.8693 62.9907 30 63.084 30H56.448C56.5973 30 56.6533 29.8693 56.616 29.608C56.5973 29.3467 56.3547 28.8987 55.888 28.264C55.7013 28.0027 55.4773 27.7133 55.216 27.396C54.9733 27.0787 54.7213 26.7613 54.46 26.444C54.1987 26.108 53.9467 25.8 53.704 25.52C53.4613 25.24 53.256 24.9973 53.088 24.792C52.92 24.568 52.7987 24.4093 52.724 24.316H52.668C52.612 24.3907 52.5 24.5307 52.332 24.736C52.1827 24.9413 51.996 25.184 51.772 25.464C51.5667 25.744 51.3333 26.052 51.072 26.388C50.8107 26.7053 50.5493 27.032 50.288 27.368C50.0453 27.6853 49.8027 28.0027 49.56 28.32C49.0933 28.936 48.8413 29.3747 48.804 29.636C48.7667 29.8787 48.8227 30 48.972 30H42.28ZM70.3555 30C70.4861 30 70.6168 29.8693 70.7475 29.608C70.8781 29.3467 70.9435 28.9173 70.9435 28.32V14.88C70.9435 14.2827 70.8781 13.8627 70.7475 13.62C70.6168 13.3587 70.4861 13.2187 70.3555 13.2H75.8435C75.7128 13.2 75.5821 13.3307 75.4515 13.592C75.3208 13.8533 75.2555 14.292 75.2555 14.908V26.024C75.2555 26.4347 75.3021 26.6867 75.3955 26.78C75.5075 26.8547 75.8435 26.892 76.4035 26.892H83.1515C84.2341 26.892 85.1021 26.7707 85.7555 26.528C86.4275 26.2667 86.8661 26.0147 87.0715 25.772L86.2315 29.132V30H70.3555ZM94.3578 30C94.4885 30 94.6191 29.8693 94.7498 29.608C94.8805 29.3467 94.9458 28.9173 94.9458 28.32V14.88C94.9458 14.2827 94.8805 13.8627 94.7498 13.62C94.6191 13.3587 94.4885 13.2187 94.3578 13.2H110.71V14.04L111.27 17.288C110.803 17.0827 109.982 16.868 108.806 16.644C107.63 16.4013 106.211 16.28 104.55 16.28H100.406C99.8458 16.28 99.5098 16.3267 99.3978 16.42C99.3045 16.4947 99.2578 16.728 99.2578 17.12V19.192C99.2578 19.6027 99.3045 19.8453 99.3978 19.92C99.5098 19.9947 99.8365 20.032 100.378 20.032H104.41C105.492 20.032 106.36 19.976 107.014 19.864C107.686 19.7333 108.124 19.6027 108.33 19.472C108.255 19.8267 108.171 20.2373 108.078 20.704C107.984 21.1707 107.91 21.6187 107.854 22.048C107.798 22.4773 107.77 22.832 107.77 23.112H100.378C99.8365 23.112 99.5098 23.1493 99.3978 23.224C99.3045 23.28 99.2578 23.5227 99.2578 23.952V26.024C99.2578 26.4533 99.3045 26.7053 99.3978 26.78C99.4911 26.8547 99.8178 26.892 100.378 26.892H107.938C109.02 26.892 109.888 26.7707 110.542 26.528C111.214 26.2667 111.652 26.0147 111.858 25.772L111.298 29.132V30H94.3578ZM128.247 30.28C125.036 30.28 122.712 29.5147 121.275 27.984C119.856 26.4347 119.147 24.2787 119.147 21.516C119.147 19.7427 119.455 18.2213 120.071 16.952C120.705 15.664 121.685 14.6747 123.011 13.984C124.355 13.2747 126.1 12.92 128.247 12.92H129.115C131.224 12.92 132.932 13.2653 134.239 13.956C135.564 14.6467 136.535 15.636 137.151 16.924C137.767 18.212 138.075 19.7427 138.075 21.516C138.075 24.2787 137.365 26.4347 135.947 27.984C134.528 29.5147 132.251 30.28 129.115 30.28H128.247ZM128.527 27.172H128.835C129.973 27.172 130.907 26.9853 131.635 26.612C132.381 26.2387 132.932 25.6413 133.287 24.82C133.641 23.98 133.819 22.8787 133.819 21.516C133.819 20.1907 133.632 19.1267 133.259 18.324C132.904 17.5027 132.353 16.9147 131.607 16.56C130.879 16.1867 129.955 16 128.835 16H128.527C127.369 16 126.408 16.196 125.643 16.588C124.877 16.9613 124.308 17.5493 123.935 18.352C123.58 19.1547 123.403 20.2093 123.403 21.516C123.403 22.8787 123.589 23.98 123.963 24.82C124.355 25.6413 124.924 26.2387 125.671 26.612C126.436 26.9853 127.388 27.172 128.527 27.172Z" fill="#1A1A1A"/>
<path d="M24.8346 0H24.5802H23.4097H21.7812H20.6616H19.0331H17.9135H16.285H15.7761H15.2163L0 30H1.11959L16.0305 0.558739L16.8448 2.149L2.74809 30H3.86768L17.4046 3.26648L18.2188 4.85673L5.49618 30H6.61578L18.7786 5.97421L19.5929 7.56447L8.24428 30H9.36387L20.1527 8.68195L26.6667 21.5329H16.7939C26.8193 22.0917 30.9415 30 30.9415 30H40L24.8346 0Z" fill="#1A1A1A"/>
</svg>
