<svg width="164" height="51" viewBox="0 0 164 51" fill="none" xmlns="http://www.w3.org/2000/svg">
<path d="M5.499 38.25C6.60833 38.25 7.579 38.4537 8.411 38.861C9.25167 39.2683 9.906 39.8403 10.374 40.577C10.842 41.305 11.076 42.1543 11.076 43.125C11.076 44.0957 10.842 44.9493 10.374 45.686C9.906 46.414 9.25167 46.9817 8.411 47.389C7.579 47.7963 6.60833 48 5.499 48H1.092V38.25H5.499ZM2.808 47.402L1.859 46.492H5.616C6.36133 46.492 7.01133 46.3533 7.566 46.076C8.12933 45.79 8.56267 45.3957 8.866 44.893C9.178 44.3817 9.334 43.7923 9.334 43.125C9.334 42.449 9.178 41.8597 8.866 41.357C8.56267 40.8543 8.12933 40.4643 7.566 40.187C7.01133 39.901 6.36133 39.758 5.616 39.758H1.859L2.808 38.848V47.402ZM19.1683 48.182C18.3103 48.182 17.5476 48.0217 16.8803 47.701C16.213 47.3717 15.6886 46.9167 15.3073 46.336C14.926 45.7553 14.7353 45.0793 14.7353 44.308C14.7353 43.5453 14.913 42.878 15.2683 42.306C15.6323 41.7253 16.1306 41.2747 16.7633 40.954C17.4046 40.6247 18.137 40.46 18.9603 40.46C19.7836 40.46 20.4943 40.6463 21.0923 41.019C21.699 41.383 22.167 41.8987 22.4963 42.566C22.8256 43.2333 22.9903 44.0177 22.9903 44.919H16.0613V43.632H22.1453L21.3003 44.113C21.2743 43.6277 21.1573 43.2117 20.9493 42.865C20.75 42.5183 20.477 42.254 20.1303 42.072C19.7923 41.8813 19.3893 41.786 18.9213 41.786C18.4273 41.786 17.994 41.8857 17.6213 42.085C17.2573 42.2843 16.9713 42.566 16.7633 42.93C16.5553 43.2853 16.4513 43.71 16.4513 44.204C16.4513 44.75 16.5726 45.2223 16.8153 45.621C17.0666 46.0197 17.4176 46.3273 17.8683 46.544C18.3276 46.752 18.8693 46.856 19.4933 46.856C20.0566 46.856 20.633 46.7693 21.2223 46.596C21.8116 46.414 22.3316 46.1627 22.7823 45.842V47.064C22.3316 47.4107 21.7813 47.6837 21.1313 47.883C20.49 48.0823 19.8356 48.182 19.1683 48.182ZM34.5988 45.764C34.5988 46.258 34.4601 46.687 34.1828 47.051C33.9055 47.415 33.4851 47.6967 32.9218 47.896C32.3585 48.0867 31.6521 48.182 30.8028 48.182C29.9275 48.182 29.1691 48.0737 28.5278 47.857C27.8865 47.6317 27.3881 47.3197 27.0328 46.921C26.6861 46.5137 26.4998 46.0457 26.4738 45.517H28.1898C28.2418 45.7943 28.3805 46.0413 28.6058 46.258C28.8398 46.466 29.1431 46.6263 29.5158 46.739C29.8971 46.8517 30.3305 46.908 30.8158 46.908C31.5178 46.908 32.0465 46.8257 32.4018 46.661C32.7571 46.4877 32.9348 46.2277 32.9348 45.881C32.9348 45.647 32.8135 45.4693 32.5708 45.348C32.3368 45.2267 31.8905 45.1357 31.2318 45.075L29.7888 44.945C29.0088 44.8757 28.3935 44.737 27.9428 44.529C27.4921 44.3123 27.1715 44.0523 26.9808 43.749C26.7901 43.437 26.6948 43.1077 26.6948 42.761C26.6948 42.2583 26.8508 41.838 27.1628 41.5C27.4748 41.162 27.9081 40.9063 28.4628 40.733C29.0175 40.551 29.6631 40.46 30.3998 40.46C31.1625 40.46 31.8428 40.5683 32.4408 40.785C33.0388 40.993 33.5155 41.2877 33.8708 41.669C34.2261 42.0417 34.4255 42.475 34.4688 42.969H32.7528C32.7181 42.7697 32.6141 42.579 32.4408 42.397C32.2761 42.2063 32.0205 42.0503 31.6738 41.929C31.3358 41.799 30.8808 41.734 30.3088 41.734C29.7021 41.734 29.2255 41.812 28.8788 41.968C28.5408 42.124 28.3718 42.3537 28.3718 42.657C28.3718 42.8477 28.4758 43.0123 28.6838 43.151C28.8918 43.281 29.2775 43.372 29.8408 43.424L31.6998 43.593C32.4451 43.6623 33.0258 43.7967 33.4418 43.996C33.8665 44.1867 34.1655 44.4337 34.3388 44.737C34.5121 45.0403 34.5988 45.3827 34.5988 45.764ZM38.5691 40.59L39.4141 40.746L40.2591 40.59V48H38.5691V40.59ZM39.4141 39.667C39.0934 39.667 38.8291 39.5803 38.6211 39.407C38.4131 39.225 38.3091 38.991 38.3091 38.705C38.3091 38.419 38.4131 38.1893 38.6211 38.016C38.8291 37.834 39.0934 37.743 39.4141 37.743C39.7434 37.743 40.0077 37.834 40.2071 38.016C40.4151 38.1893 40.5191 38.419 40.5191 38.705C40.5191 38.991 40.4151 39.225 40.2071 39.407C40.0077 39.5803 39.7434 39.667 39.4141 39.667ZM51.3296 46.193V44.893L51.3946 44.659V43.242L51.3296 42.982V40.642H53.0196V46.037C53.0196 46.9817 52.8203 47.7703 52.4216 48.403C52.0229 49.0443 51.4769 49.5253 50.7836 49.846C50.0903 50.1667 49.2929 50.327 48.3916 50.327C47.7329 50.327 47.1263 50.2403 46.5716 50.067C46.0169 49.8937 45.4796 49.6293 44.9596 49.274V47.87C45.4883 48.286 46.0343 48.5763 46.5976 48.741C47.1609 48.9143 47.7243 49.001 48.2876 49.001C49.2756 49.001 50.0296 48.7583 50.5496 48.273C51.0696 47.7877 51.3296 47.0943 51.3296 46.193ZM47.7936 47.428C47.1176 47.428 46.5109 47.285 45.9736 46.999C45.4363 46.7043 45.0116 46.297 44.6996 45.777C44.3876 45.257 44.2316 44.646 44.2316 43.944C44.2316 43.242 44.3876 42.631 44.6996 42.111C45.0116 41.591 45.4363 41.188 45.9736 40.902C46.5109 40.6073 47.1176 40.46 47.7936 40.46C48.2963 40.46 48.7599 40.538 49.1846 40.694C49.6179 40.85 50.0036 41.058 50.3416 41.318C50.6883 41.5693 50.9786 41.851 51.2126 42.163C51.4553 42.4663 51.6416 42.7783 51.7716 43.099C51.9016 43.411 51.9666 43.697 51.9666 43.957C51.9666 44.295 51.8669 44.6677 51.6676 45.075C51.4683 45.4737 51.1823 45.8507 50.8096 46.206C50.4456 46.5613 50.0079 46.856 49.4966 47.09C48.9853 47.3153 48.4176 47.428 47.7936 47.428ZM48.3136 46.18C48.9289 46.18 49.4923 46.0023 50.0036 45.647C50.5236 45.2917 50.9873 44.724 51.3946 43.944C50.9873 43.1467 50.5236 42.5747 50.0036 42.228C49.4923 41.8727 48.9289 41.695 48.3136 41.695C47.8109 41.695 47.3819 41.7903 47.0266 41.981C46.6713 42.1717 46.3983 42.436 46.2076 42.774C46.0256 43.112 45.9346 43.502 45.9346 43.944C45.9346 44.3773 46.0256 44.763 46.2076 45.101C46.3983 45.439 46.6713 45.7033 47.0266 45.894C47.3819 46.0847 47.8109 46.18 48.3136 46.18ZM57.0274 40.642H58.7174L59.1594 43.294V48H57.4694V43.047L57.0274 40.642ZM62.0844 40.46C62.7778 40.46 63.3671 40.5987 63.8524 40.876C64.3378 41.1533 64.7061 41.552 64.9574 42.072C65.2174 42.5833 65.3474 43.203 65.3474 43.931V48H63.6574V44.204C63.6574 43.4327 63.4754 42.852 63.1114 42.462C62.7561 42.0633 62.2318 41.864 61.5384 41.864C61.0618 41.864 60.6414 41.9723 60.2774 42.189C59.9221 42.397 59.6448 42.6917 59.4454 43.073C59.2548 43.4543 59.1594 43.9007 59.1594 44.412L58.5614 44.087C58.6394 43.3243 58.8388 42.6743 59.1594 42.137C59.4801 41.5997 59.8918 41.188 60.3944 40.902C60.8971 40.6073 61.4604 40.46 62.0844 40.46ZM81.036 38.25C81.764 38.25 82.3923 38.38 82.921 38.64C83.4583 38.9 83.87 39.264 84.156 39.732C84.4507 40.1913 84.598 40.7243 84.598 41.331C84.598 41.9377 84.4507 42.475 84.156 42.943C83.87 43.4023 83.4583 43.762 82.921 44.022C82.3923 44.282 81.764 44.412 81.036 44.412H76.655V42.93H80.971C81.5603 42.93 82.0197 42.787 82.349 42.501C82.687 42.215 82.856 41.825 82.856 41.331C82.856 40.837 82.687 40.447 82.349 40.161C82.0197 39.875 81.5603 39.732 80.971 39.732H76.824L77.591 38.874V48H75.875V38.25H81.036ZM92.2894 48.182C91.3968 48.182 90.6124 48.0217 89.9364 47.701C89.2691 47.3717 88.7448 46.9167 88.3634 46.336C87.9908 45.7553 87.8044 45.0837 87.8044 44.321C87.8044 43.5497 87.9908 42.878 88.3634 42.306C88.7448 41.7253 89.2691 41.2747 89.9364 40.954C90.6124 40.6247 91.3968 40.46 92.2894 40.46C93.1821 40.46 93.9621 40.6247 94.6294 40.954C95.3054 41.2747 95.8298 41.7253 96.2024 42.306C96.5838 42.878 96.7744 43.5497 96.7744 44.321C96.7744 45.0837 96.5838 45.7553 96.2024 46.336C95.8298 46.9167 95.3054 47.3717 94.6294 47.701C93.9621 48.0217 93.1821 48.182 92.2894 48.182ZM92.2894 46.856C92.8614 46.856 93.3511 46.752 93.7584 46.544C94.1744 46.336 94.4951 46.0457 94.7204 45.673C94.9458 45.2917 95.0584 44.841 95.0584 44.321C95.0584 43.801 94.9458 43.3547 94.7204 42.982C94.4951 42.6007 94.1744 42.306 93.7584 42.098C93.3511 41.89 92.8614 41.786 92.2894 41.786C91.7261 41.786 91.2364 41.89 90.8204 42.098C90.4044 42.306 90.0838 42.6007 89.8584 42.982C89.6331 43.3547 89.5204 43.801 89.5204 44.321C89.5204 44.841 89.6331 45.2917 89.8584 45.673C90.0838 46.0457 90.4044 46.336 90.8204 46.544C91.2364 46.752 91.7261 46.856 92.2894 46.856ZM100.397 40.642H102.087L102.529 43.32V48H100.839V42.995L100.397 40.642ZM106.26 40.59V42.072C106.07 42.02 105.862 41.981 105.636 41.955C105.411 41.929 105.199 41.916 104.999 41.916C104.523 41.916 104.098 42.02 103.725 42.228C103.353 42.436 103.058 42.748 102.841 43.164C102.633 43.5713 102.529 44.074 102.529 44.672L102.139 44.191C102.174 43.671 102.261 43.1857 102.399 42.735C102.547 42.2757 102.746 41.877 102.997 41.539C103.257 41.201 103.574 40.9367 103.946 40.746C104.319 40.5553 104.752 40.46 105.246 40.46C105.42 40.46 105.597 40.473 105.779 40.499C105.961 40.5163 106.122 40.5467 106.26 40.59ZM109.169 41.942V41.175L110.742 40.772L111.444 38.718H112.432V40.642H115.851V41.942H112.432V45.127C112.432 45.7423 112.562 46.1757 112.822 46.427C113.09 46.6697 113.524 46.791 114.122 46.791C114.503 46.791 114.841 46.752 115.136 46.674C115.43 46.5873 115.712 46.466 115.981 46.31V47.701C115.755 47.8137 115.435 47.922 115.019 48.026C114.611 48.13 114.191 48.182 113.758 48.182C113.038 48.182 112.458 48.065 112.016 47.831C111.574 47.5883 111.249 47.259 111.041 46.843C110.841 46.4183 110.742 45.933 110.742 45.387V41.942H109.169ZM124.27 39.121C123.638 39.121 123.165 39.2553 122.853 39.524C122.55 39.7927 122.398 40.2303 122.398 40.837V48H120.708V40.993C120.708 40.3603 120.825 39.8057 121.059 39.329C121.302 38.8523 121.67 38.4797 122.164 38.211C122.667 37.9423 123.304 37.808 124.075 37.808C124.448 37.808 124.777 37.8383 125.063 37.899C125.349 37.9597 125.631 38.0377 125.908 38.133V39.459C125.657 39.3377 125.397 39.251 125.128 39.199C124.86 39.147 124.574 39.121 124.27 39.121ZM119.135 42.449V41.149H125.765V42.449H119.135ZM133.12 48.182C132.227 48.182 131.443 48.0217 130.767 47.701C130.1 47.3717 129.575 46.9167 129.194 46.336C128.821 45.7553 128.635 45.0837 128.635 44.321C128.635 43.5497 128.821 42.878 129.194 42.306C129.575 41.7253 130.1 41.2747 130.767 40.954C131.443 40.6247 132.227 40.46 133.12 40.46C134.013 40.46 134.793 40.6247 135.46 40.954C136.136 41.2747 136.66 41.7253 137.033 42.306C137.414 42.878 137.605 43.5497 137.605 44.321C137.605 45.0837 137.414 45.7553 137.033 46.336C136.66 46.9167 136.136 47.3717 135.46 47.701C134.793 48.0217 134.013 48.182 133.12 48.182ZM133.12 46.856C133.692 46.856 134.182 46.752 134.589 46.544C135.005 46.336 135.326 46.0457 135.551 45.673C135.776 45.2917 135.889 44.841 135.889 44.321C135.889 43.801 135.776 43.3547 135.551 42.982C135.326 42.6007 135.005 42.306 134.589 42.098C134.182 41.89 133.692 41.786 133.12 41.786C132.557 41.786 132.067 41.89 131.651 42.098C131.235 42.306 130.914 42.6007 130.689 42.982C130.464 43.3547 130.351 43.801 130.351 44.321C130.351 44.841 130.464 45.2917 130.689 45.673C130.914 46.0457 131.235 46.336 131.651 46.544C132.067 46.752 132.557 46.856 133.12 46.856ZM141.579 37.99H143.269V48H141.579V37.99ZM147.657 40.59L148.502 40.746L149.347 40.59V48H147.657V40.59ZM148.502 39.667C148.182 39.667 147.917 39.5803 147.709 39.407C147.501 39.225 147.397 38.991 147.397 38.705C147.397 38.419 147.501 38.1893 147.709 38.016C147.917 37.834 148.182 37.743 148.502 37.743C148.832 37.743 149.096 37.834 149.295 38.016C149.503 38.1893 149.607 38.419 149.607 38.705C149.607 38.991 149.503 39.225 149.295 39.407C149.096 39.5803 148.832 39.667 148.502 39.667ZM157.805 48.182C156.912 48.182 156.128 48.0217 155.452 47.701C154.785 47.3717 154.26 46.9167 153.879 46.336C153.506 45.7553 153.32 45.0837 153.32 44.321C153.32 43.5497 153.506 42.878 153.879 42.306C154.26 41.7253 154.785 41.2747 155.452 40.954C156.128 40.6247 156.912 40.46 157.805 40.46C158.698 40.46 159.478 40.6247 160.145 40.954C160.821 41.2747 161.345 41.7253 161.718 42.306C162.099 42.878 162.29 43.5497 162.29 44.321C162.29 45.0837 162.099 45.7553 161.718 46.336C161.345 46.9167 160.821 47.3717 160.145 47.701C159.478 48.0217 158.698 48.182 157.805 48.182ZM157.805 46.856C158.377 46.856 158.867 46.752 159.274 46.544C159.69 46.336 160.011 46.0457 160.236 45.673C160.461 45.2917 160.574 44.841 160.574 44.321C160.574 43.801 160.461 43.3547 160.236 42.982C160.011 42.6007 159.69 42.306 159.274 42.098C158.867 41.89 158.377 41.786 157.805 41.786C157.242 41.786 156.752 41.89 156.336 42.098C155.92 42.306 155.599 42.6007 155.374 42.982C155.149 43.3547 155.036 43.801 155.036 44.321C155.036 44.841 155.149 45.2917 155.374 45.673C155.599 46.0457 155.92 46.336 156.336 46.544C156.752 46.752 157.242 46.856 157.805 46.856Z" fill="#C4C4C4"/>
<path d="M42.28 30C42.3547 30 42.5413 29.8693 42.84 29.608C43.1573 29.3467 43.596 28.9267 44.156 28.348C44.436 28.0493 44.8093 27.6387 45.276 27.116C45.7613 26.5747 46.284 25.9867 46.844 25.352C47.4227 24.6987 48.0013 24.0453 48.58 23.392C49.1587 22.7387 49.6907 22.132 50.176 21.572C49.6907 21.0307 49.1587 20.4427 48.58 19.808C48.02 19.1547 47.46 18.5107 46.9 17.876C46.34 17.2413 45.8267 16.672 45.36 16.168C44.912 15.6453 44.5573 15.2347 44.296 14.936C43.7547 14.3013 43.3067 13.8533 42.952 13.592C42.616 13.3307 42.392 13.2 42.28 13.2H49.168C49.0933 13.2 49.084 13.3307 49.14 13.592C49.196 13.8533 49.4013 14.3013 49.756 14.936C49.924 15.2347 50.12 15.552 50.344 15.888C50.5867 16.2053 50.8293 16.532 51.072 16.868C51.3147 17.204 51.548 17.5213 51.772 17.82C51.996 18.1 52.1827 18.3427 52.332 18.548C52.5 18.7533 52.6213 18.9027 52.696 18.996H52.752C52.808 18.9027 52.9107 18.7627 53.06 18.576C53.228 18.3707 53.424 18.128 53.648 17.848C53.872 17.5493 54.1053 17.2413 54.348 16.924C54.6093 16.588 54.8613 16.2427 55.104 15.888C55.3467 15.5333 55.5707 15.1973 55.776 14.88C56.1493 14.264 56.3547 13.8347 56.392 13.592C56.448 13.3307 56.4293 13.2 56.336 13.2H63.056C62.9813 13.2 62.7853 13.3307 62.468 13.592C62.1507 13.8347 61.7213 14.2547 61.18 14.852C60.9 15.1693 60.5267 15.5987 60.06 16.14C59.5933 16.6627 59.0707 17.2413 58.492 17.876C57.932 18.5107 57.3627 19.1547 56.784 19.808C56.224 20.4427 55.7013 21.0307 55.216 21.572C55.7013 22.132 56.224 22.7387 56.784 23.392C57.344 24.0453 57.904 24.6893 58.464 25.324C59.024 25.9587 59.528 26.5373 59.976 27.06C60.4427 27.5827 60.8067 27.984 61.068 28.264C61.6467 28.8987 62.104 29.3467 62.44 29.608C62.776 29.8693 62.9907 30 63.084 30H56.448C56.5973 30 56.6533 29.8693 56.616 29.608C56.5973 29.3467 56.3547 28.8987 55.888 28.264C55.7013 28.0027 55.4773 27.7133 55.216 27.396C54.9733 27.0787 54.7213 26.7613 54.46 26.444C54.1987 26.108 53.9467 25.8 53.704 25.52C53.4613 25.24 53.256 24.9973 53.088 24.792C52.92 24.568 52.7987 24.4093 52.724 24.316H52.668C52.612 24.3907 52.5 24.5307 52.332 24.736C52.1827 24.9413 51.996 25.184 51.772 25.464C51.5667 25.744 51.3333 26.052 51.072 26.388C50.8107 26.7053 50.5493 27.032 50.288 27.368C50.0453 27.6853 49.8027 28.0027 49.56 28.32C49.0933 28.936 48.8413 29.3747 48.804 29.636C48.7667 29.8787 48.8227 30 48.972 30H42.28ZM70.3555 30C70.4861 30 70.6168 29.8693 70.7475 29.608C70.8781 29.3467 70.9435 28.9173 70.9435 28.32V14.88C70.9435 14.2827 70.8781 13.8627 70.7475 13.62C70.6168 13.3587 70.4861 13.2187 70.3555 13.2H75.8435C75.7128 13.2 75.5821 13.3307 75.4515 13.592C75.3208 13.8533 75.2555 14.292 75.2555 14.908V26.024C75.2555 26.4347 75.3021 26.6867 75.3955 26.78C75.5075 26.8547 75.8435 26.892 76.4035 26.892H83.1515C84.2341 26.892 85.1021 26.7707 85.7555 26.528C86.4275 26.2667 86.8661 26.0147 87.0715 25.772L86.2315 29.132V30H70.3555ZM94.3578 30C94.4885 30 94.6191 29.8693 94.7498 29.608C94.8805 29.3467 94.9458 28.9173 94.9458 28.32V14.88C94.9458 14.2827 94.8805 13.8627 94.7498 13.62C94.6191 13.3587 94.4885 13.2187 94.3578 13.2H110.71V14.04L111.27 17.288C110.803 17.0827 109.982 16.868 108.806 16.644C107.63 16.4013 106.211 16.28 104.55 16.28H100.406C99.8458 16.28 99.5098 16.3267 99.3978 16.42C99.3045 16.4947 99.2578 16.728 99.2578 17.12V19.192C99.2578 19.6027 99.3045 19.8453 99.3978 19.92C99.5098 19.9947 99.8365 20.032 100.378 20.032H104.41C105.492 20.032 106.36 19.976 107.014 19.864C107.686 19.7333 108.124 19.6027 108.33 19.472C108.255 19.8267 108.171 20.2373 108.078 20.704C107.984 21.1707 107.91 21.6187 107.854 22.048C107.798 22.4773 107.77 22.832 107.77 23.112H100.378C99.8365 23.112 99.5098 23.1493 99.3978 23.224C99.3045 23.28 99.2578 23.5227 99.2578 23.952V26.024C99.2578 26.4533 99.3045 26.7053 99.3978 26.78C99.4911 26.8547 99.8178 26.892 100.378 26.892H107.938C109.02 26.892 109.888 26.7707 110.542 26.528C111.214 26.2667 111.652 26.0147 111.858 25.772L111.298 29.132V30H94.3578ZM128.247 30.28C125.036 30.28 122.712 29.5147 121.275 27.984C119.856 26.4347 119.147 24.2787 119.147 21.516C119.147 19.7427 119.455 18.2213 120.071 16.952C120.705 15.664 121.685 14.6747 123.011 13.984C124.355 13.2747 126.1 12.92 128.247 12.92H129.115C131.224 12.92 132.932 13.2653 134.239 13.956C135.564 14.6467 136.535 15.636 137.151 16.924C137.767 18.212 138.075 19.7427 138.075 21.516C138.075 24.2787 137.365 26.4347 135.947 27.984C134.528 29.5147 132.251 30.28 129.115 30.28H128.247ZM128.527 27.172H128.835C129.973 27.172 130.907 26.9853 131.635 26.612C132.381 26.2387 132.932 25.6413 133.287 24.82C133.641 23.98 133.819 22.8787 133.819 21.516C133.819 20.1907 133.632 19.1267 133.259 18.324C132.904 17.5027 132.353 16.9147 131.607 16.56C130.879 16.1867 129.955 16 128.835 16H128.527C127.369 16 126.408 16.196 125.643 16.588C124.877 16.9613 124.308 17.5493 123.935 18.352C123.58 19.1547 123.403 20.2093 123.403 21.516C123.403 22.8787 123.589 23.98 123.963 24.82C124.355 25.6413 124.924 26.2387 125.671 26.612C126.436 26.9853 127.388 27.172 128.527 27.172Z" fill="white"/>
<path d="M24.8346 0H24.5802H23.4097H21.7812H20.6616H19.0331H17.9135H16.285H15.7761H15.2163L0 30H1.11959L16.0305 0.558739L16.8448 2.149L2.74809 30H3.86768L17.4046 3.26648L18.2188 4.85673L5.49618 30H6.61578L18.7786 5.97421L19.5929 7.56447L8.24428 30H9.36387L20.1527 8.68195L26.6667 21.5329H16.7939C26.8193 22.0917 30.9415 30 30.9415 30H40L24.8346 0Z" fill="white"/>
</svg>
