<svg width="164" height="49" viewBox="0 0 164 49" fill="none" xmlns="http://www.w3.org/2000/svg">
<path d="M0.494 44.828H2.236C2.288 45.218 2.44833 45.5603 2.717 45.855C2.99433 46.1497 3.35833 46.3793 3.809 46.544C4.25967 46.7 4.77967 46.778 5.369 46.778C6.24433 46.778 6.93767 46.6437 7.449 46.375C7.96033 46.0977 8.216 45.725 8.216 45.257C8.216 44.8757 8.06867 44.5897 7.774 44.399C7.47933 44.2083 6.94633 44.0653 6.175 43.97L4.069 43.697C2.89033 43.541 2.03233 43.2507 1.495 42.826C0.966333 42.3927 0.702 41.7817 0.702 40.993C0.702 40.395 0.879667 39.8793 1.235 39.446C1.599 39.004 2.11033 38.666 2.769 38.432C3.42767 38.1893 4.199 38.068 5.083 38.068C5.95833 38.068 6.734 38.198 7.41 38.458C8.086 38.718 8.62333 39.082 9.022 39.55C9.42933 40.0093 9.65033 40.551 9.685 41.175H7.943C7.89967 40.8283 7.75233 40.5293 7.501 40.278C7.25833 40.0267 6.929 39.8317 6.513 39.693C6.097 39.5457 5.60733 39.472 5.044 39.472C4.24667 39.472 3.60967 39.602 3.133 39.862C2.65633 40.122 2.418 40.4773 2.418 40.928C2.418 41.2747 2.55667 41.5433 2.834 41.734C3.12 41.916 3.614 42.0547 4.316 42.15L6.448 42.449C7.32333 42.5703 8.01233 42.735 8.515 42.943C9.02633 43.1423 9.39033 43.4153 9.607 43.762C9.82367 44.1 9.932 44.5377 9.932 45.075C9.932 45.699 9.74133 46.245 9.36 46.713C8.97867 47.181 8.44133 47.545 7.748 47.805C7.06333 48.0563 6.26167 48.182 5.343 48.182C4.407 48.182 3.57933 48.0433 2.86 47.766C2.14933 47.48 1.586 47.0857 1.17 46.583C0.754 46.0803 0.528667 45.4953 0.494 44.828ZM20.7965 48L20.5105 45.27L20.8485 44.321L20.5105 43.385L20.7965 40.642H22.5385L22.1485 44.321L22.5385 48H20.7965ZM21.3165 44.321C21.1519 45.0923 20.8789 45.7683 20.4975 46.349C20.1162 46.9297 19.6439 47.3803 19.0805 47.701C18.5259 48.0217 17.9062 48.182 17.2215 48.182C16.5022 48.182 15.8652 48.0217 15.3105 47.701C14.7559 47.3717 14.3225 46.9167 14.0105 46.336C13.6985 45.7553 13.5425 45.0837 13.5425 44.321C13.5425 43.5497 13.6985 42.878 14.0105 42.306C14.3225 41.7253 14.7559 41.2747 15.3105 40.954C15.8652 40.6247 16.5022 40.46 17.2215 40.46C17.9062 40.46 18.5259 40.6203 19.0805 40.941C19.6439 41.2617 20.1162 41.7123 20.4975 42.293C20.8875 42.865 21.1605 43.541 21.3165 44.321ZM15.2585 44.321C15.2585 44.815 15.3582 45.2527 15.5575 45.634C15.7655 46.0067 16.0472 46.3013 16.4025 46.518C16.7579 46.726 17.1652 46.83 17.6245 46.83C18.0925 46.83 18.5259 46.726 18.9245 46.518C19.3232 46.3013 19.6742 46.0067 19.9775 45.634C20.2895 45.2527 20.5365 44.815 20.7185 44.321C20.5365 43.827 20.2895 43.3937 19.9775 43.021C19.6742 42.6397 19.3232 42.345 18.9245 42.137C18.5259 41.9203 18.0925 41.812 17.6245 41.812C17.1652 41.812 16.7579 41.9203 16.4025 42.137C16.0472 42.345 15.7655 42.6397 15.5575 43.021C15.3582 43.3937 15.2585 43.827 15.2585 44.321ZM33.629 48L33.343 45.27L33.681 44.321L33.343 43.385L33.629 40.642H35.371L34.981 44.321L35.371 48H33.629ZM34.149 44.321C33.9843 45.0923 33.7113 45.7683 33.33 46.349C32.9486 46.9297 32.4763 47.3803 31.913 47.701C31.3583 48.0217 30.7386 48.182 30.054 48.182C29.3346 48.182 28.6976 48.0217 28.143 47.701C27.5883 47.3717 27.155 46.9167 26.843 46.336C26.531 45.7553 26.375 45.0837 26.375 44.321C26.375 43.5497 26.531 42.878 26.843 42.306C27.155 41.7253 27.5883 41.2747 28.143 40.954C28.6976 40.6247 29.3346 40.46 30.054 40.46C30.7386 40.46 31.3583 40.6203 31.913 40.941C32.4763 41.2617 32.9486 41.7123 33.33 42.293C33.72 42.865 33.993 43.541 34.149 44.321ZM28.091 44.321C28.091 44.815 28.1906 45.2527 28.39 45.634C28.598 46.0067 28.8796 46.3013 29.235 46.518C29.5903 46.726 29.9976 46.83 30.457 46.83C30.925 46.83 31.3583 46.726 31.757 46.518C32.1556 46.3013 32.5066 46.0067 32.81 45.634C33.122 45.2527 33.369 44.815 33.551 44.321C33.369 43.827 33.122 43.3937 32.81 43.021C32.5066 42.6397 32.1556 42.345 31.757 42.137C31.3583 41.9203 30.925 41.812 30.457 41.812C29.9976 41.812 29.5903 41.9203 29.235 42.137C28.8796 42.345 28.598 42.6397 28.39 43.021C28.1906 43.3937 28.091 43.827 28.091 44.321ZM47.2154 45.764C47.2154 46.258 47.0767 46.687 46.7994 47.051C46.5221 47.415 46.1017 47.6967 45.5384 47.896C44.9751 48.0867 44.2687 48.182 43.4194 48.182C42.5441 48.182 41.7857 48.0737 41.1444 47.857C40.5031 47.6317 40.0047 47.3197 39.6494 46.921C39.3027 46.5137 39.1164 46.0457 39.0904 45.517H40.8064C40.8584 45.7943 40.9971 46.0413 41.2224 46.258C41.4564 46.466 41.7597 46.6263 42.1324 46.739C42.5137 46.8517 42.9471 46.908 43.4324 46.908C44.1344 46.908 44.6631 46.8257 45.0184 46.661C45.3737 46.4877 45.5514 46.2277 45.5514 45.881C45.5514 45.647 45.4301 45.4693 45.1874 45.348C44.9534 45.2267 44.5071 45.1357 43.8484 45.075L42.4054 44.945C41.6254 44.8757 41.0101 44.737 40.5594 44.529C40.1087 44.3123 39.7881 44.0523 39.5974 43.749C39.4067 43.437 39.3114 43.1077 39.3114 42.761C39.3114 42.2583 39.4674 41.838 39.7794 41.5C40.0914 41.162 40.5247 40.9063 41.0794 40.733C41.6341 40.551 42.2797 40.46 43.0164 40.46C43.7791 40.46 44.4594 40.5683 45.0574 40.785C45.6554 40.993 46.1321 41.2877 46.4874 41.669C46.8427 42.0417 47.0421 42.475 47.0854 42.969H45.3694C45.3347 42.7697 45.2307 42.579 45.0574 42.397C44.8927 42.2063 44.6371 42.0503 44.2904 41.929C43.9524 41.799 43.4974 41.734 42.9254 41.734C42.3187 41.734 41.8421 41.812 41.4954 41.968C41.1574 42.124 40.9884 42.3537 40.9884 42.657C40.9884 42.8477 41.0924 43.0123 41.3004 43.151C41.5084 43.281 41.8941 43.372 42.4574 43.424L44.3164 43.593C45.0617 43.6623 45.6424 43.7967 46.0584 43.996C46.4831 44.1867 46.7821 44.4337 46.9554 44.737C47.1287 45.0403 47.2154 45.3827 47.2154 45.764ZM62.5821 38.25C63.3101 38.25 63.9384 38.38 64.4671 38.64C65.0044 38.9 65.4161 39.264 65.7021 39.732C65.9968 40.1913 66.1441 40.7243 66.1441 41.331C66.1441 41.9377 65.9968 42.475 65.7021 42.943C65.4161 43.4023 65.0044 43.762 64.4671 44.022C63.9384 44.282 63.3101 44.412 62.5821 44.412H58.2011V42.93H62.5171C63.1064 42.93 63.5658 42.787 63.8951 42.501C64.2331 42.215 64.4021 41.825 64.4021 41.331C64.4021 40.837 64.2331 40.447 63.8951 40.161C63.5658 39.875 63.1064 39.732 62.5171 39.732H58.3701L59.1371 38.874V48H57.4211V38.25H62.5821ZM69.606 40.642H71.296L71.738 43.32V48H70.048V42.995L69.606 40.642ZM75.469 40.59V42.072C75.2783 42.02 75.0703 41.981 74.845 41.955C74.6196 41.929 74.4073 41.916 74.208 41.916C73.7313 41.916 73.3066 42.02 72.934 42.228C72.5613 42.436 72.2666 42.748 72.05 43.164C71.842 43.5713 71.738 44.074 71.738 44.672L71.348 44.191C71.3826 43.671 71.4693 43.1857 71.608 42.735C71.7553 42.2757 71.9546 41.877 72.206 41.539C72.466 41.201 72.7823 40.9367 73.155 40.746C73.5276 40.5553 73.961 40.46 74.455 40.46C74.6283 40.46 74.806 40.473 74.988 40.499C75.17 40.5163 75.3303 40.5467 75.469 40.59ZM82.9101 48.182C82.0175 48.182 81.2331 48.0217 80.5571 47.701C79.8898 47.3717 79.3655 46.9167 78.9841 46.336C78.6115 45.7553 78.4251 45.0837 78.4251 44.321C78.4251 43.5497 78.6115 42.878 78.9841 42.306C79.3655 41.7253 79.8898 41.2747 80.5571 40.954C81.2331 40.6247 82.0175 40.46 82.9101 40.46C83.8028 40.46 84.5828 40.6247 85.2501 40.954C85.9261 41.2747 86.4505 41.7253 86.8231 42.306C87.2045 42.878 87.3951 43.5497 87.3951 44.321C87.3951 45.0837 87.2045 45.7553 86.8231 46.336C86.4505 46.9167 85.9261 47.3717 85.2501 47.701C84.5828 48.0217 83.8028 48.182 82.9101 48.182ZM82.9101 46.856C83.4821 46.856 83.9718 46.752 84.3791 46.544C84.7951 46.336 85.1158 46.0457 85.3411 45.673C85.5665 45.2917 85.6791 44.841 85.6791 44.321C85.6791 43.801 85.5665 43.3547 85.3411 42.982C85.1158 42.6007 84.7951 42.306 84.3791 42.098C83.9718 41.89 83.4821 41.786 82.9101 41.786C82.3468 41.786 81.8571 41.89 81.4411 42.098C81.0251 42.306 80.7045 42.6007 80.4791 42.982C80.2538 43.3547 80.1411 43.801 80.1411 44.321C80.1411 44.841 80.2538 45.2917 80.4791 45.673C80.7045 46.0457 81.0251 46.336 81.4411 46.544C81.8571 46.752 82.3468 46.856 82.9101 46.856ZM98.2589 48L97.9729 45.205L98.3499 44.334L97.9859 43.333L98.5319 37.99H100.274L99.6109 44.217L99.9879 48H98.2589ZM98.7529 44.321C98.5882 45.0923 98.3152 45.7683 97.9339 46.349C97.5525 46.9297 97.0802 47.3803 96.5169 47.701C95.9622 48.0217 95.3425 48.182 94.6579 48.182C93.9385 48.182 93.3015 48.0217 92.7469 47.701C92.1922 47.3717 91.7589 46.9167 91.4469 46.336C91.1349 45.7553 90.9789 45.0837 90.9789 44.321C90.9789 43.5497 91.1349 42.878 91.4469 42.306C91.7589 41.7253 92.1922 41.2747 92.7469 40.954C93.3015 40.6247 93.9385 40.46 94.6579 40.46C95.3425 40.46 95.9622 40.6203 96.5169 40.941C97.0802 41.2617 97.5525 41.7123 97.9339 42.293C98.3239 42.865 98.5969 43.541 98.7529 44.321ZM92.6949 44.321C92.6949 44.815 92.7945 45.2527 92.9939 45.634C93.2019 46.0067 93.4835 46.3013 93.8389 46.518C94.1942 46.726 94.6015 46.83 95.0609 46.83C95.5289 46.83 95.9622 46.726 96.3609 46.518C96.7595 46.3013 97.1105 46.0067 97.4139 45.634C97.7259 45.2527 97.9729 44.815 98.1549 44.321C97.9729 43.827 97.7259 43.3937 97.4139 43.021C97.1105 42.6397 96.7595 42.345 96.3609 42.137C95.9622 41.9203 95.5289 41.812 95.0609 41.812C94.6015 41.812 94.1942 41.9203 93.8389 42.137C93.4835 42.345 93.2019 42.6397 92.9939 43.021C92.7945 43.3937 92.6949 43.827 92.6949 44.321ZM107.295 48.182C106.619 48.182 106.043 48.0433 105.566 47.766C105.098 47.4887 104.738 47.09 104.487 46.57C104.236 46.05 104.11 45.4303 104.11 44.711V40.642H105.8V44.451C105.8 45.2137 105.973 45.7943 106.32 46.193C106.675 46.583 107.182 46.778 107.841 46.778C108.318 46.778 108.725 46.674 109.063 46.466C109.41 46.258 109.678 45.9633 109.869 45.582C110.06 45.192 110.155 44.7413 110.155 44.23L110.74 44.555C110.671 45.309 110.48 45.959 110.168 46.505C109.856 47.0423 109.453 47.4583 108.959 47.753C108.465 48.039 107.91 48.182 107.295 48.182ZM110.584 48L110.155 45.348V40.642H111.845V45.608L112.274 48H110.584ZM124.46 45.101C124.374 45.7077 124.135 46.245 123.745 46.713C123.355 47.1723 122.857 47.532 122.25 47.792C121.644 48.052 120.968 48.182 120.222 48.182C119.373 48.182 118.623 48.0217 117.973 47.701C117.332 47.3717 116.829 46.9167 116.465 46.336C116.101 45.7553 115.919 45.0837 115.919 44.321C115.919 43.5583 116.101 42.8867 116.465 42.306C116.829 41.7253 117.332 41.2747 117.973 40.954C118.623 40.6247 119.373 40.46 120.222 40.46C120.968 40.46 121.644 40.59 122.25 40.85C122.857 41.11 123.355 41.474 123.745 41.942C124.135 42.4013 124.374 42.9387 124.46 43.554H122.757C122.636 42.9993 122.346 42.566 121.886 42.254C121.427 41.942 120.872 41.786 120.222 41.786C119.702 41.786 119.247 41.89 118.857 42.098C118.467 42.2973 118.164 42.5877 117.947 42.969C117.739 43.3417 117.635 43.7923 117.635 44.321C117.635 44.841 117.739 45.2917 117.947 45.673C118.164 46.0543 118.467 46.349 118.857 46.557C119.247 46.7563 119.702 46.856 120.222 46.856C120.881 46.856 121.44 46.6957 121.899 46.375C122.359 46.0543 122.645 45.6297 122.757 45.101H124.46ZM127.435 41.942V41.175L129.008 40.772L129.71 38.718H130.698V40.642H134.117V41.942H130.698V45.127C130.698 45.7423 130.828 46.1757 131.088 46.427C131.356 46.6697 131.79 46.791 132.388 46.791C132.769 46.791 133.107 46.752 133.402 46.674C133.696 46.5873 133.978 46.466 134.247 46.31V47.701C134.021 47.8137 133.701 47.922 133.285 48.026C132.877 48.13 132.457 48.182 132.024 48.182C131.304 48.182 130.724 48.065 130.282 47.831C129.84 47.5883 129.515 47.259 129.307 46.843C129.107 46.4183 129.008 45.933 129.008 45.387V41.942H127.435Z" fill="#C4C4C4"/>
<path d="M42.28 30C42.3547 30 42.5413 29.8693 42.84 29.608C43.1573 29.3467 43.596 28.9267 44.156 28.348C44.436 28.0493 44.8093 27.6387 45.276 27.116C45.7613 26.5747 46.284 25.9867 46.844 25.352C47.4227 24.6987 48.0013 24.0453 48.58 23.392C49.1587 22.7387 49.6907 22.132 50.176 21.572C49.6907 21.0307 49.1587 20.4427 48.58 19.808C48.02 19.1547 47.46 18.5107 46.9 17.876C46.34 17.2413 45.8267 16.672 45.36 16.168C44.912 15.6453 44.5573 15.2347 44.296 14.936C43.7547 14.3013 43.3067 13.8533 42.952 13.592C42.616 13.3307 42.392 13.2 42.28 13.2H49.168C49.0933 13.2 49.084 13.3307 49.14 13.592C49.196 13.8533 49.4013 14.3013 49.756 14.936C49.924 15.2347 50.12 15.552 50.344 15.888C50.5867 16.2053 50.8293 16.532 51.072 16.868C51.3147 17.204 51.548 17.5213 51.772 17.82C51.996 18.1 52.1827 18.3427 52.332 18.548C52.5 18.7533 52.6213 18.9027 52.696 18.996H52.752C52.808 18.9027 52.9107 18.7627 53.06 18.576C53.228 18.3707 53.424 18.128 53.648 17.848C53.872 17.5493 54.1053 17.2413 54.348 16.924C54.6093 16.588 54.8613 16.2427 55.104 15.888C55.3467 15.5333 55.5707 15.1973 55.776 14.88C56.1493 14.264 56.3547 13.8347 56.392 13.592C56.448 13.3307 56.4293 13.2 56.336 13.2H63.056C62.9813 13.2 62.7853 13.3307 62.468 13.592C62.1507 13.8347 61.7213 14.2547 61.18 14.852C60.9 15.1693 60.5267 15.5987 60.06 16.14C59.5933 16.6627 59.0707 17.2413 58.492 17.876C57.932 18.5107 57.3627 19.1547 56.784 19.808C56.224 20.4427 55.7013 21.0307 55.216 21.572C55.7013 22.132 56.224 22.7387 56.784 23.392C57.344 24.0453 57.904 24.6893 58.464 25.324C59.024 25.9587 59.528 26.5373 59.976 27.06C60.4427 27.5827 60.8067 27.984 61.068 28.264C61.6467 28.8987 62.104 29.3467 62.44 29.608C62.776 29.8693 62.9907 30 63.084 30H56.448C56.5973 30 56.6533 29.8693 56.616 29.608C56.5973 29.3467 56.3547 28.8987 55.888 28.264C55.7013 28.0027 55.4773 27.7133 55.216 27.396C54.9733 27.0787 54.7213 26.7613 54.46 26.444C54.1987 26.108 53.9467 25.8 53.704 25.52C53.4613 25.24 53.256 24.9973 53.088 24.792C52.92 24.568 52.7987 24.4093 52.724 24.316H52.668C52.612 24.3907 52.5 24.5307 52.332 24.736C52.1827 24.9413 51.996 25.184 51.772 25.464C51.5667 25.744 51.3333 26.052 51.072 26.388C50.8107 26.7053 50.5493 27.032 50.288 27.368C50.0453 27.6853 49.8027 28.0027 49.56 28.32C49.0933 28.936 48.8413 29.3747 48.804 29.636C48.7667 29.8787 48.8227 30 48.972 30H42.28ZM70.3555 30C70.4861 30 70.6168 29.8693 70.7475 29.608C70.8781 29.3467 70.9435 28.9173 70.9435 28.32V14.88C70.9435 14.2827 70.8781 13.8627 70.7475 13.62C70.6168 13.3587 70.4861 13.2187 70.3555 13.2H75.8435C75.7128 13.2 75.5821 13.3307 75.4515 13.592C75.3208 13.8533 75.2555 14.292 75.2555 14.908V26.024C75.2555 26.4347 75.3021 26.6867 75.3955 26.78C75.5075 26.8547 75.8435 26.892 76.4035 26.892H83.1515C84.2341 26.892 85.1021 26.7707 85.7555 26.528C86.4275 26.2667 86.8661 26.0147 87.0715 25.772L86.2315 29.132V30H70.3555ZM94.3578 30C94.4885 30 94.6191 29.8693 94.7498 29.608C94.8805 29.3467 94.9458 28.9173 94.9458 28.32V14.88C94.9458 14.2827 94.8805 13.8627 94.7498 13.62C94.6191 13.3587 94.4885 13.2187 94.3578 13.2H110.71V14.04L111.27 17.288C110.803 17.0827 109.982 16.868 108.806 16.644C107.63 16.4013 106.211 16.28 104.55 16.28H100.406C99.8458 16.28 99.5098 16.3267 99.3978 16.42C99.3045 16.4947 99.2578 16.728 99.2578 17.12V19.192C99.2578 19.6027 99.3045 19.8453 99.3978 19.92C99.5098 19.9947 99.8365 20.032 100.378 20.032H104.41C105.492 20.032 106.36 19.976 107.014 19.864C107.686 19.7333 108.124 19.6027 108.33 19.472C108.255 19.8267 108.171 20.2373 108.078 20.704C107.984 21.1707 107.91 21.6187 107.854 22.048C107.798 22.4773 107.77 22.832 107.77 23.112H100.378C99.8365 23.112 99.5098 23.1493 99.3978 23.224C99.3045 23.28 99.2578 23.5227 99.2578 23.952V26.024C99.2578 26.4533 99.3045 26.7053 99.3978 26.78C99.4911 26.8547 99.8178 26.892 100.378 26.892H107.938C109.02 26.892 109.888 26.7707 110.542 26.528C111.214 26.2667 111.652 26.0147 111.858 25.772L111.298 29.132V30H94.3578ZM128.247 30.28C125.036 30.28 122.712 29.5147 121.275 27.984C119.856 26.4347 119.147 24.2787 119.147 21.516C119.147 19.7427 119.455 18.2213 120.071 16.952C120.705 15.664 121.685 14.6747 123.011 13.984C124.355 13.2747 126.1 12.92 128.247 12.92H129.115C131.224 12.92 132.932 13.2653 134.239 13.956C135.564 14.6467 136.535 15.636 137.151 16.924C137.767 18.212 138.075 19.7427 138.075 21.516C138.075 24.2787 137.365 26.4347 135.947 27.984C134.528 29.5147 132.251 30.28 129.115 30.28H128.247ZM128.527 27.172H128.835C129.973 27.172 130.907 26.9853 131.635 26.612C132.381 26.2387 132.932 25.6413 133.287 24.82C133.641 23.98 133.819 22.8787 133.819 21.516C133.819 20.1907 133.632 19.1267 133.259 18.324C132.904 17.5027 132.353 16.9147 131.607 16.56C130.879 16.1867 129.955 16 128.835 16H128.527C127.369 16 126.408 16.196 125.643 16.588C124.877 16.9613 124.308 17.5493 123.935 18.352C123.58 19.1547 123.403 20.2093 123.403 21.516C123.403 22.8787 123.589 23.98 123.963 24.82C124.355 25.6413 124.924 26.2387 125.671 26.612C126.436 26.9853 127.388 27.172 128.527 27.172Z" fill="white"/>
<path d="M24.8346 0H24.5802H23.4097H21.7812H20.6616H19.0331H17.9135H16.285H15.7761H15.2163L0 30H1.11959L16.0305 0.558739L16.8448 2.149L2.74809 30H3.86768L17.4046 3.26648L18.2188 4.85673L5.49618 30H6.61578L18.7786 5.97421L19.5929 7.56447L8.24428 30H9.36387L20.1527 8.68195L26.6667 21.5329H16.7939C26.8193 22.0917 30.9415 30 30.9415 30H40L24.8346 0Z" fill="white"/>
</svg>
