<svg width="175" height="51" viewBox="0 0 175 51" fill="none" xmlns="http://www.w3.org/2000/svg">
<path d="M0.494 44.828H2.236C2.288 45.218 2.44833 45.5603 2.717 45.855C2.99433 46.1497 3.35833 46.3793 3.809 46.544C4.25967 46.7 4.77967 46.778 5.369 46.778C6.24433 46.778 6.93767 46.6437 7.449 46.375C7.96033 46.0977 8.216 45.725 8.216 45.257C8.216 44.8757 8.06867 44.5897 7.774 44.399C7.47933 44.2083 6.94633 44.0653 6.175 43.97L4.069 43.697C2.89033 43.541 2.03233 43.2507 1.495 42.826C0.966333 42.3927 0.702 41.7817 0.702 40.993C0.702 40.395 0.879667 39.8793 1.235 39.446C1.599 39.004 2.11033 38.666 2.769 38.432C3.42767 38.1893 4.199 38.068 5.083 38.068C5.95833 38.068 6.734 38.198 7.41 38.458C8.086 38.718 8.62333 39.082 9.022 39.55C9.42933 40.0093 9.65033 40.551 9.685 41.175H7.943C7.89967 40.8283 7.75233 40.5293 7.501 40.278C7.25833 40.0267 6.929 39.8317 6.513 39.693C6.097 39.5457 5.60733 39.472 5.044 39.472C4.24667 39.472 3.60967 39.602 3.133 39.862C2.65633 40.122 2.418 40.4773 2.418 40.928C2.418 41.2747 2.55667 41.5433 2.834 41.734C3.12 41.916 3.614 42.0547 4.316 42.15L6.448 42.449C7.32333 42.5703 8.01233 42.735 8.515 42.943C9.02633 43.1423 9.39033 43.4153 9.607 43.762C9.82367 44.1 9.932 44.5377 9.932 45.075C9.932 45.699 9.74133 46.245 9.36 46.713C8.97867 47.181 8.44133 47.545 7.748 47.805C7.06333 48.0563 6.26167 48.182 5.343 48.182C4.407 48.182 3.57933 48.0433 2.86 47.766C2.14933 47.48 1.586 47.0857 1.17 46.583C0.754 46.0803 0.528667 45.4953 0.494 44.828ZM18.0015 48.182C17.1089 48.182 16.3245 48.0217 15.6485 47.701C14.9812 47.3717 14.4569 46.9167 14.0755 46.336C13.7029 45.7553 13.5165 45.0837 13.5165 44.321C13.5165 43.5497 13.7029 42.878 14.0755 42.306C14.4569 41.7253 14.9812 41.2747 15.6485 40.954C16.3245 40.6247 17.1089 40.46 18.0015 40.46C18.8942 40.46 19.6742 40.6247 20.3415 40.954C21.0175 41.2747 21.5419 41.7253 21.9145 42.306C22.2959 42.878 22.4865 43.5497 22.4865 44.321C22.4865 45.0837 22.2959 45.7553 21.9145 46.336C21.5419 46.9167 21.0175 47.3717 20.3415 47.701C19.6742 48.0217 18.8942 48.182 18.0015 48.182ZM18.0015 46.856C18.5735 46.856 19.0632 46.752 19.4705 46.544C19.8865 46.336 20.2072 46.0457 20.4325 45.673C20.6579 45.2917 20.7705 44.841 20.7705 44.321C20.7705 43.801 20.6579 43.3547 20.4325 42.982C20.2072 42.6007 19.8865 42.306 19.4705 42.098C19.0632 41.89 18.5735 41.786 18.0015 41.786C17.4382 41.786 16.9485 41.89 16.5325 42.098C16.1165 42.306 15.7959 42.6007 15.5705 42.982C15.3452 43.3547 15.2325 43.801 15.2325 44.321C15.2325 44.841 15.3452 45.2917 15.5705 45.673C15.7959 46.0457 16.1165 46.336 16.5325 46.544C16.9485 46.752 17.4382 46.856 18.0015 46.856ZM30.7134 39.069C30.1154 39.069 29.6691 39.186 29.3744 39.42C29.0884 39.654 28.9454 40.0483 28.9454 40.603V48H27.2554V40.928C27.2554 40.304 27.3724 39.758 27.6064 39.29C27.8404 38.822 28.1957 38.458 28.6724 38.198C29.1577 37.938 29.7774 37.808 30.5314 37.808C30.8694 37.808 31.1727 37.8383 31.4414 37.899C31.7101 37.9597 31.9657 38.0377 32.2084 38.133V39.355C31.9831 39.2597 31.7491 39.1903 31.5064 39.147C31.2637 39.095 30.9994 39.069 30.7134 39.069ZM25.6824 42.332V41.032H32.1694V42.332H25.6824ZM31.4154 42.332V41.032H33.0144L33.7034 38.965H34.6784V40.98H38.0974V42.28H34.6784V45.114C34.6784 45.738 34.8084 46.1757 35.0684 46.427C35.3371 46.6783 35.7747 46.804 36.3814 46.804C36.7627 46.804 37.1007 46.7607 37.3954 46.674C37.6901 46.5787 37.9674 46.4487 38.2274 46.284L38.2404 47.649C38.0064 47.7703 37.6814 47.8873 37.2654 48C36.8581 48.1127 36.4334 48.169 35.9914 48.169C35.2807 48.169 34.7044 48.052 34.2624 47.818C33.8204 47.5753 33.4954 47.246 33.2874 46.83C33.0881 46.4053 32.9884 45.92 32.9884 45.374V42.332H31.4154ZM51.7054 47.129H51.1074L53.6424 40.642H55.3324L52.3684 48H50.6394L48.0394 41.409H48.7024L46.0374 48H44.3084L41.3574 40.642H43.0734L45.6214 47.129H44.9844L47.5324 40.642H49.2224L51.7054 47.129ZM65.5526 48L65.2666 45.27L65.6046 44.321L65.2666 43.385L65.5526 40.642H67.2946L66.9046 44.321L67.2946 48H65.5526ZM66.0726 44.321C65.9079 45.0923 65.6349 45.7683 65.2536 46.349C64.8723 46.9297 64.3999 47.3803 63.8366 47.701C63.2819 48.0217 62.6623 48.182 61.9776 48.182C61.2583 48.182 60.6213 48.0217 60.0666 47.701C59.5119 47.3717 59.0786 46.9167 58.7666 46.336C58.4546 45.7553 58.2986 45.0837 58.2986 44.321C58.2986 43.5497 58.4546 42.878 58.7666 42.306C59.0786 41.7253 59.5119 41.2747 60.0666 40.954C60.6213 40.6247 61.2583 40.46 61.9776 40.46C62.6623 40.46 63.2819 40.6203 63.8366 40.941C64.3999 41.2617 64.8723 41.7123 65.2536 42.293C65.6436 42.865 65.9166 43.541 66.0726 44.321ZM60.0146 44.321C60.0146 44.815 60.1143 45.2527 60.3136 45.634C60.5216 46.0067 60.8033 46.3013 61.1586 46.518C61.5139 46.726 61.9213 46.83 62.3806 46.83C62.8486 46.83 63.2819 46.726 63.6806 46.518C64.0793 46.3013 64.4303 46.0067 64.7336 45.634C65.0456 45.2527 65.2926 44.815 65.4746 44.321C65.2926 43.827 65.0456 43.3937 64.7336 43.021C64.4303 42.6397 64.0793 42.345 63.6806 42.137C63.2819 41.9203 62.8486 41.812 62.3806 41.812C61.9213 41.812 61.5139 41.9203 61.1586 42.137C60.8033 42.345 60.5216 42.6397 60.3136 43.021C60.1143 43.3937 60.0146 43.827 60.0146 44.321ZM71.17 40.642H72.86L73.302 43.32V48H71.612V42.995L71.17 40.642ZM77.033 40.59V42.072C76.8424 42.02 76.6344 41.981 76.409 41.955C76.1837 41.929 75.9714 41.916 75.772 41.916C75.2954 41.916 74.8707 42.02 74.498 42.228C74.1254 42.436 73.8307 42.748 73.614 43.164C73.406 43.5713 73.302 44.074 73.302 44.672L72.912 44.191C72.9467 43.671 73.0334 43.1857 73.172 42.735C73.3194 42.2757 73.5187 41.877 73.77 41.539C74.03 41.201 74.3464 40.9367 74.719 40.746C75.0917 40.5553 75.525 40.46 76.019 40.46C76.1924 40.46 76.37 40.473 76.552 40.499C76.734 40.5163 76.8944 40.5467 77.033 40.59ZM84.4222 48.182C83.5642 48.182 82.8015 48.0217 82.1342 47.701C81.4669 47.3717 80.9425 46.9167 80.5612 46.336C80.1799 45.7553 79.9892 45.0793 79.9892 44.308C79.9892 43.5453 80.1669 42.878 80.5222 42.306C80.8862 41.7253 81.3845 41.2747 82.0172 40.954C82.6585 40.6247 83.3909 40.46 84.2142 40.46C85.0375 40.46 85.7482 40.6463 86.3462 41.019C86.9529 41.383 87.4209 41.8987 87.7502 42.566C88.0795 43.2333 88.2442 44.0177 88.2442 44.919H81.3152V43.632H87.3992L86.5542 44.113C86.5282 43.6277 86.4112 43.2117 86.2032 42.865C86.0039 42.5183 85.7309 42.254 85.3842 42.072C85.0462 41.8813 84.6432 41.786 84.1752 41.786C83.6812 41.786 83.2479 41.8857 82.8752 42.085C82.5112 42.2843 82.2252 42.566 82.0172 42.93C81.8092 43.2853 81.7052 43.71 81.7052 44.204C81.7052 44.75 81.8265 45.2223 82.0692 45.621C82.3205 46.0197 82.6715 46.3273 83.1222 46.544C83.5815 46.752 84.1232 46.856 84.7472 46.856C85.3105 46.856 85.8869 46.7693 86.4762 46.596C87.0655 46.414 87.5855 46.1627 88.0362 45.842V47.064C87.5855 47.4107 87.0352 47.6837 86.3852 47.883C85.7439 48.0823 85.0895 48.182 84.4222 48.182ZM99.2623 45.764V44.347H106.074V45.764H99.2623ZM103.786 38.25L108.466 48H106.633L102.382 38.9H103.045L98.7943 48H96.9613L101.641 38.25H103.786ZM118.374 46.193V44.893L118.439 44.659V43.242L118.374 42.982V40.642H120.064V46.037C120.064 46.9817 119.864 47.7703 119.466 48.403C119.067 49.0443 118.521 49.5253 117.828 49.846C117.134 50.1667 116.337 50.327 115.436 50.327C114.777 50.327 114.17 50.2403 113.616 50.067C113.061 49.8937 112.524 49.6293 112.004 49.274V47.87C112.532 48.286 113.078 48.5763 113.642 48.741C114.205 48.9143 114.768 49.001 115.332 49.001C116.32 49.001 117.074 48.7583 117.594 48.273C118.114 47.7877 118.374 47.0943 118.374 46.193ZM114.838 47.428C114.162 47.428 113.555 47.285 113.018 46.999C112.48 46.7043 112.056 46.297 111.744 45.777C111.432 45.257 111.276 44.646 111.276 43.944C111.276 43.242 111.432 42.631 111.744 42.111C112.056 41.591 112.48 41.188 113.018 40.902C113.555 40.6073 114.162 40.46 114.838 40.46C115.34 40.46 115.804 40.538 116.229 40.694C116.662 40.85 117.048 41.058 117.386 41.318C117.732 41.5693 118.023 41.851 118.257 42.163C118.499 42.4663 118.686 42.7783 118.816 43.099C118.946 43.411 119.011 43.697 119.011 43.957C119.011 44.295 118.911 44.6677 118.712 45.075C118.512 45.4737 118.226 45.8507 117.854 46.206C117.49 46.5613 117.052 46.856 116.541 47.09C116.029 47.3153 115.462 47.428 114.838 47.428ZM115.358 46.18C115.973 46.18 116.536 46.0023 117.048 45.647C117.568 45.2917 118.031 44.724 118.439 43.944C118.031 43.1467 117.568 42.5747 117.048 42.228C116.536 41.8727 115.973 41.695 115.358 41.695C114.855 41.695 114.426 41.7903 114.071 41.981C113.715 42.1717 113.442 42.436 113.252 42.774C113.07 43.112 112.979 43.502 112.979 43.944C112.979 44.3773 113.07 44.763 113.252 45.101C113.442 45.439 113.715 45.7033 114.071 45.894C114.426 46.0847 114.855 46.18 115.358 46.18ZM128.439 48.182C127.581 48.182 126.819 48.0217 126.151 47.701C125.484 47.3717 124.96 46.9167 124.578 46.336C124.197 45.7553 124.006 45.0793 124.006 44.308C124.006 43.5453 124.184 42.878 124.539 42.306C124.903 41.7253 125.402 41.2747 126.034 40.954C126.676 40.6247 127.408 40.46 128.231 40.46C129.055 40.46 129.765 40.6463 130.363 41.019C130.97 41.383 131.438 41.8987 131.767 42.566C132.097 43.2333 132.261 44.0177 132.261 44.919H125.332V43.632H131.416L130.571 44.113C130.545 43.6277 130.428 43.2117 130.22 42.865C130.021 42.5183 129.748 42.254 129.401 42.072C129.063 41.8813 128.66 41.786 128.192 41.786C127.698 41.786 127.265 41.8857 126.892 42.085C126.528 42.2843 126.242 42.566 126.034 42.93C125.826 43.2853 125.722 43.71 125.722 44.204C125.722 44.75 125.844 45.2223 126.086 45.621C126.338 46.0197 126.689 46.3273 127.139 46.544C127.599 46.752 128.14 46.856 128.764 46.856C129.328 46.856 129.904 46.7693 130.493 46.596C131.083 46.414 131.603 46.1627 132.053 45.842V47.064C131.603 47.4107 131.052 47.6837 130.402 47.883C129.761 48.0823 129.107 48.182 128.439 48.182ZM135.901 40.642H137.591L138.033 43.294V48H136.343V43.047L135.901 40.642ZM140.958 40.46C141.651 40.46 142.241 40.5987 142.726 40.876C143.211 41.1533 143.58 41.552 143.831 42.072C144.091 42.5833 144.221 43.203 144.221 43.931V48H142.531V44.204C142.531 43.4327 142.349 42.852 141.985 42.462C141.63 42.0633 141.105 41.864 140.412 41.864C139.935 41.864 139.515 41.9723 139.151 42.189C138.796 42.397 138.518 42.6917 138.319 43.073C138.128 43.4543 138.033 43.9007 138.033 44.412L137.435 44.087C137.513 43.3243 137.712 42.6743 138.033 42.137C138.354 41.5997 138.765 41.188 139.268 40.902C139.771 40.6073 140.334 40.46 140.958 40.46ZM156.638 45.101C156.551 45.7077 156.313 46.245 155.923 46.713C155.533 47.1723 155.035 47.532 154.428 47.792C153.821 48.052 153.145 48.182 152.4 48.182C151.551 48.182 150.801 48.0217 150.151 47.701C149.51 47.3717 149.007 46.9167 148.643 46.336C148.279 45.7553 148.097 45.0837 148.097 44.321C148.097 43.5583 148.279 42.8867 148.643 42.306C149.007 41.7253 149.51 41.2747 150.151 40.954C150.801 40.6247 151.551 40.46 152.4 40.46C153.145 40.46 153.821 40.59 154.428 40.85C155.035 41.11 155.533 41.474 155.923 41.942C156.313 42.4013 156.551 42.9387 156.638 43.554H154.935C154.814 42.9993 154.523 42.566 154.064 42.254C153.605 41.942 153.05 41.786 152.4 41.786C151.88 41.786 151.425 41.89 151.035 42.098C150.645 42.2973 150.342 42.5877 150.125 42.969C149.917 43.3417 149.813 43.7923 149.813 44.321C149.813 44.841 149.917 45.2917 150.125 45.673C150.342 46.0543 150.645 46.349 151.035 46.557C151.425 46.7563 151.88 46.856 152.4 46.856C153.059 46.856 153.618 46.6957 154.077 46.375C154.536 46.0543 154.822 45.6297 154.935 45.101H156.638ZM161.945 50.327C161.512 50.327 161.118 50.2707 160.762 50.158C160.416 50.054 160.091 49.9067 159.787 49.716V48.429C160.117 48.637 160.429 48.7887 160.723 48.884C161.027 48.9793 161.365 49.027 161.737 49.027C162.093 49.027 162.409 48.9447 162.686 48.78C162.964 48.624 163.193 48.3467 163.375 47.948L166.69 40.642H168.484L164.675 48.52C164.467 48.9533 164.22 49.3 163.934 49.56C163.657 49.8287 163.349 50.0237 163.011 50.145C162.682 50.2663 162.327 50.327 161.945 50.327ZM162.79 47.766L159.41 40.642H161.269L164.467 47.766H162.79Z" fill="#C4C4C4"/>
<path d="M42.28 30C42.3547 30 42.5413 29.8693 42.84 29.608C43.1573 29.3467 43.596 28.9267 44.156 28.348C44.436 28.0493 44.8093 27.6387 45.276 27.116C45.7613 26.5747 46.284 25.9867 46.844 25.352C47.4227 24.6987 48.0013 24.0453 48.58 23.392C49.1587 22.7387 49.6907 22.132 50.176 21.572C49.6907 21.0307 49.1587 20.4427 48.58 19.808C48.02 19.1547 47.46 18.5107 46.9 17.876C46.34 17.2413 45.8267 16.672 45.36 16.168C44.912 15.6453 44.5573 15.2347 44.296 14.936C43.7547 14.3013 43.3067 13.8533 42.952 13.592C42.616 13.3307 42.392 13.2 42.28 13.2H49.168C49.0933 13.2 49.084 13.3307 49.14 13.592C49.196 13.8533 49.4013 14.3013 49.756 14.936C49.924 15.2347 50.12 15.552 50.344 15.888C50.5867 16.2053 50.8293 16.532 51.072 16.868C51.3147 17.204 51.548 17.5213 51.772 17.82C51.996 18.1 52.1827 18.3427 52.332 18.548C52.5 18.7533 52.6213 18.9027 52.696 18.996H52.752C52.808 18.9027 52.9107 18.7627 53.06 18.576C53.228 18.3707 53.424 18.128 53.648 17.848C53.872 17.5493 54.1053 17.2413 54.348 16.924C54.6093 16.588 54.8613 16.2427 55.104 15.888C55.3467 15.5333 55.5707 15.1973 55.776 14.88C56.1493 14.264 56.3547 13.8347 56.392 13.592C56.448 13.3307 56.4293 13.2 56.336 13.2H63.056C62.9813 13.2 62.7853 13.3307 62.468 13.592C62.1507 13.8347 61.7213 14.2547 61.18 14.852C60.9 15.1693 60.5267 15.5987 60.06 16.14C59.5933 16.6627 59.0707 17.2413 58.492 17.876C57.932 18.5107 57.3627 19.1547 56.784 19.808C56.224 20.4427 55.7013 21.0307 55.216 21.572C55.7013 22.132 56.224 22.7387 56.784 23.392C57.344 24.0453 57.904 24.6893 58.464 25.324C59.024 25.9587 59.528 26.5373 59.976 27.06C60.4427 27.5827 60.8067 27.984 61.068 28.264C61.6467 28.8987 62.104 29.3467 62.44 29.608C62.776 29.8693 62.9907 30 63.084 30H56.448C56.5973 30 56.6533 29.8693 56.616 29.608C56.5973 29.3467 56.3547 28.8987 55.888 28.264C55.7013 28.0027 55.4773 27.7133 55.216 27.396C54.9733 27.0787 54.7213 26.7613 54.46 26.444C54.1987 26.108 53.9467 25.8 53.704 25.52C53.4613 25.24 53.256 24.9973 53.088 24.792C52.92 24.568 52.7987 24.4093 52.724 24.316H52.668C52.612 24.3907 52.5 24.5307 52.332 24.736C52.1827 24.9413 51.996 25.184 51.772 25.464C51.5667 25.744 51.3333 26.052 51.072 26.388C50.8107 26.7053 50.5493 27.032 50.288 27.368C50.0453 27.6853 49.8027 28.0027 49.56 28.32C49.0933 28.936 48.8413 29.3747 48.804 29.636C48.7667 29.8787 48.8227 30 48.972 30H42.28ZM70.3555 30C70.4861 30 70.6168 29.8693 70.7475 29.608C70.8781 29.3467 70.9435 28.9173 70.9435 28.32V14.88C70.9435 14.2827 70.8781 13.8627 70.7475 13.62C70.6168 13.3587 70.4861 13.2187 70.3555 13.2H75.8435C75.7128 13.2 75.5821 13.3307 75.4515 13.592C75.3208 13.8533 75.2555 14.292 75.2555 14.908V26.024C75.2555 26.4347 75.3021 26.6867 75.3955 26.78C75.5075 26.8547 75.8435 26.892 76.4035 26.892H83.1515C84.2341 26.892 85.1021 26.7707 85.7555 26.528C86.4275 26.2667 86.8661 26.0147 87.0715 25.772L86.2315 29.132V30H70.3555ZM94.3578 30C94.4885 30 94.6191 29.8693 94.7498 29.608C94.8805 29.3467 94.9458 28.9173 94.9458 28.32V14.88C94.9458 14.2827 94.8805 13.8627 94.7498 13.62C94.6191 13.3587 94.4885 13.2187 94.3578 13.2H110.71V14.04L111.27 17.288C110.803 17.0827 109.982 16.868 108.806 16.644C107.63 16.4013 106.211 16.28 104.55 16.28H100.406C99.8458 16.28 99.5098 16.3267 99.3978 16.42C99.3045 16.4947 99.2578 16.728 99.2578 17.12V19.192C99.2578 19.6027 99.3045 19.8453 99.3978 19.92C99.5098 19.9947 99.8365 20.032 100.378 20.032H104.41C105.492 20.032 106.36 19.976 107.014 19.864C107.686 19.7333 108.124 19.6027 108.33 19.472C108.255 19.8267 108.171 20.2373 108.078 20.704C107.984 21.1707 107.91 21.6187 107.854 22.048C107.798 22.4773 107.77 22.832 107.77 23.112H100.378C99.8365 23.112 99.5098 23.1493 99.3978 23.224C99.3045 23.28 99.2578 23.5227 99.2578 23.952V26.024C99.2578 26.4533 99.3045 26.7053 99.3978 26.78C99.4911 26.8547 99.8178 26.892 100.378 26.892H107.938C109.02 26.892 109.888 26.7707 110.542 26.528C111.214 26.2667 111.652 26.0147 111.858 25.772L111.298 29.132V30H94.3578ZM128.247 30.28C125.036 30.28 122.712 29.5147 121.275 27.984C119.856 26.4347 119.147 24.2787 119.147 21.516C119.147 19.7427 119.455 18.2213 120.071 16.952C120.705 15.664 121.685 14.6747 123.011 13.984C124.355 13.2747 126.1 12.92 128.247 12.92H129.115C131.224 12.92 132.932 13.2653 134.239 13.956C135.564 14.6467 136.535 15.636 137.151 16.924C137.767 18.212 138.075 19.7427 138.075 21.516C138.075 24.2787 137.365 26.4347 135.947 27.984C134.528 29.5147 132.251 30.28 129.115 30.28H128.247ZM128.527 27.172H128.835C129.973 27.172 130.907 26.9853 131.635 26.612C132.381 26.2387 132.932 25.6413 133.287 24.82C133.641 23.98 133.819 22.8787 133.819 21.516C133.819 20.1907 133.632 19.1267 133.259 18.324C132.904 17.5027 132.353 16.9147 131.607 16.56C130.879 16.1867 129.955 16 128.835 16H128.527C127.369 16 126.408 16.196 125.643 16.588C124.877 16.9613 124.308 17.5493 123.935 18.352C123.58 19.1547 123.403 20.2093 123.403 21.516C123.403 22.8787 123.589 23.98 123.963 24.82C124.355 25.6413 124.924 26.2387 125.671 26.612C126.436 26.9853 127.388 27.172 128.527 27.172Z" fill="white"/>
<path d="M24.8346 0H24.5802H23.4097H21.7812H20.6616H19.0331H17.9135H16.285H15.7761H15.2163L0 30H1.11959L16.0305 0.558739L16.8448 2.149L2.74809 30H3.86768L17.4046 3.26648L18.2188 4.85673L5.49618 30H6.61578L18.7786 5.97421L19.5929 7.56447L8.24428 30H9.36387L20.1527 8.68195L26.6667 21.5329H16.7939C26.8193 22.0917 30.9415 30 30.9415 30H40L24.8346 0Z" fill="white"/>
</svg>
