<svg xmlns="http://www.w3.org/2000/svg" width="121" height="81" viewBox="0 0 121 81" fill="none">
  <g clip-path="url(#clip0_1994_5680)">
    <path d="M32.5589 33.4499C29.8728 34.7147 28.5016 37.1337 30.0007 39.5446C30.3384 40.089 30.758 39.8802 30.6301 39.4177C29.8473 36.8636 30.7734 34.6983 33.1883 33.6873C35.7465 34.5305 39.0005 34.42 41.4615 33.7405C47.6012 36.1186 47.7035 43.826 40.3768 48.2506C36.9181 50.3504 32.6459 50.6615 31.4129 47.2233C29.791 42.5489 36.734 34.8334 40.8475 35.8403C41.1903 35.9263 41.4513 35.7134 41.0573 35.5456C35.8949 33.2207 27.3812 41.6853 30.2873 47.477C32.0166 50.9767 36.9949 50.7515 40.428 48.9669C48.0105 44.968 50.1031 35.8362 43.0783 33.1757C47.1356 31.4197 48.9621 27.916 50.2412 25.1C52.0055 25.228 53.7822 25.1937 55.5367 24.9976C56.3502 24.8298 56.3758 24.5351 55.4855 24.5883C53.8415 24.6443 52.1946 24.6019 50.5585 24.4614C51.2901 23.0984 52.3646 20.5811 54.0427 19.0503C54.5544 19.2181 57.1126 20.4543 60.1824 20.8554C61.968 21.0642 63.3545 20.4461 63.5131 19.5743C63.6718 19.0503 63.4057 18.8007 63.0425 19.4719C62.0192 21.1706 56.2018 19.4064 54.4469 18.6738C54.6357 18.4959 54.8825 18.3635 55.1598 18.2913C55.4372 18.219 55.7341 18.2097 56.0177 18.2645C56.5958 18.7884 56.6982 17.9288 56.0177 17.761C55.6117 17.6807 55.1848 17.6998 54.7925 17.8158C54.4003 17.9319 54.0606 18.1395 53.8176 18.4118C51.6332 17.3312 49.268 16.5043 46.7928 15.9559C38.1717 14.0076 33.6641 20.8677 38.013 22.8324C40.1108 23.7983 43.4108 23.0452 44.1527 21.0109C44.4648 20.2537 43.7332 20.6344 43.7076 21.0928C43.7076 21.6822 40.8782 23.6715 38.2279 22.3535C35.8437 21.1583 39.1745 15.8945 46.3272 16.7541C48.8854 17.0488 51.2287 17.8674 53.4543 18.7474C51.9408 20.4614 50.6677 22.3035 49.658 24.2404C47.1407 23.8843 44.3625 23.7983 43.155 25.935C43.0271 26.1683 43.2625 26.463 43.5746 26.1273C44.8076 24.6988 48.2919 25.014 49.2896 25.014C47.463 28.3663 44.736 31.3543 41.1034 32.6272C38.7885 32.2775 36.4041 32.3587 34.1348 32.8646C31.1162 32.046 28.4403 29.9749 29.1515 26.7986C29.2535 26.3018 29.4858 25.8279 29.8333 25.4081C30.1807 24.9884 30.6354 24.6323 31.1673 24.3632C31.9552 23.9252 32.5078 23.6101 31.6789 23.8188C31.0559 24.0055 30.4902 24.2968 30.0198 24.6731C29.5494 25.0494 29.1853 25.5021 28.9519 26.0005C27.6268 29.2913 29.2691 32.1156 32.5589 33.4499ZM39.1489 33.147C37.8767 33.3597 36.5633 33.3597 35.2911 33.147C36.5685 32.9794 37.8715 32.9794 39.1489 33.147Z" fill="#F67A45"/>
    <path d="M62.6389 27.5272C61.9021 28.6978 61.0375 29.983 60.1728 30.6911C59.8632 30.9461 59.4403 31.0932 58.996 31.1004C58.2593 31.0595 58.2081 30.4742 58.4435 29.7825C58.4844 29.672 58.0955 30.4087 60.8533 25.2514C61.3649 24.3755 60.7663 24.5105 58.863 24.5392C58.9983 24.6551 59.0935 24.7972 59.1393 24.9515C59.1851 25.1058 59.1798 25.267 59.1239 25.4192L57.4457 28.837C56.8983 29.9298 56.8983 31.563 58.863 31.563C60.4951 31.563 61.4672 29.6187 60.1472 31.7103C60.4254 31.6074 60.732 31.5637 61.0375 31.5834C61.59 31.5834 61.8254 31.5834 62.0607 31.2683C63.5292 28.9434 64.8134 27.7686 65.7036 27.1178C67.7195 25.6075 68.1902 26.1764 67.5609 26.991C66.9782 27.6787 66.4959 28.4176 66.1232 29.1931C65.3353 31.1455 66.5939 31.6489 67.5097 31.6489C68.8502 31.6489 69.9707 30.4742 70.7996 29.3117C70.5591 31.9191 74.1968 32.3652 76.2434 30.5397C76.4787 31.1291 77.1439 31.6366 78.4639 31.6366C78.8362 31.6234 79.2014 31.5511 79.5384 31.4238C81.6566 31.9354 83.0635 30.642 84.051 29.2258C84.051 29.279 84.0255 29.3363 84.0203 29.3936C83.6264 31.698 86.2204 32.0542 87.6376 30.9654C88.6046 30.1877 89.0497 29.6228 90.1958 27.6909C90.4619 27.2816 90.0679 27.1874 89.8582 27.564C89.1521 28.6937 88.2874 30.0199 87.0799 30.728C86.2153 31.2314 85.0334 31.0431 85.4018 29.6392C85.4018 29.6392 85.7702 28.047 86.0055 27.4985C87.385 26.4978 88.5606 25.3308 89.4897 24.0398H91.0247C91.2856 24.0398 91.3419 23.5814 91.0758 23.5814H89.8223C90.2112 22.992 90.5795 22.4067 90.9479 21.7763C92.887 18.4241 90.0577 18.068 88.2465 20.6016C87.5916 21.5021 86.9367 22.5335 86.333 23.5814H84.7622C84.4757 23.5814 84.4194 24.0398 84.7111 24.0398H86.072C85.4502 25.2505 84.9155 26.4886 84.4706 27.7482C83.5496 29.1971 82.2961 31.3993 80.3365 31.17H80.1523C80.6525 30.9111 81.0773 30.5691 81.3978 30.1672C81.7182 29.7654 81.9269 29.3131 82.0096 28.8411C82.0659 27.9201 81.498 27.1629 81.0682 26.3852C80.2342 24.7848 81.0682 23.3031 82.4547 23.741C83.1761 24.0316 82.9664 23.1311 81.5952 23.2826C80.6742 23.3849 79.8914 24.2649 79.4156 25.0835C78.863 26.0577 77.9983 27.4535 77.1644 28.7101C76.5862 28.7101 76.1411 29.3568 76.1411 30.028C75.4504 30.7034 74.6062 31.2273 73.5164 31.2273C71.787 31.2273 72.2322 29.1112 72.6261 28.3621C73.7757 28.2608 74.8797 27.9454 75.8495 27.4412C77.5277 26.4138 78.2848 24.9853 77.2872 24.3795C76.136 23.6878 74.1457 24.486 72.8103 25.7426C72.1013 26.4181 71.5471 27.1885 71.1731 28.0183C70.4517 29.148 69.0549 31.1741 67.8832 31.1741C66.0771 31.1741 69.7047 25.98 70.6052 24.7152C69.7149 24.4655 67.0236 25.7835 65.7599 26.6881C64.9702 27.2657 64.2428 27.8955 63.5854 28.5709C64.5268 27.0646 65.9697 24.9649 66.7576 24.6333C66.386 24.6463 66.014 24.6174 65.6525 24.5474C64.6292 24.4982 64.312 24.9567 62.7924 27.4125C62.7319 27.4418 62.6796 27.4809 62.6389 27.5272ZM89.7558 20.5238C91.3828 18.6983 91.0144 20.5648 90.5182 21.4448C90.1284 22.1761 89.6912 22.8906 89.2084 23.5855H87.9088C88.4163 22.5254 89.0342 21.5013 89.7558 20.5238ZM87.6376 24.0439H88.8656C88.1197 25.052 87.2322 25.9886 86.2204 26.8354C86.5887 26.0987 87.085 25.0713 87.6376 24.0439ZM78.2542 31.2764C77.2309 31.2764 76.8932 30.2941 77.7425 29.6392C77.7369 29.9485 77.8275 30.2541 78.0061 30.5284C78.1847 30.8028 78.4458 31.0373 78.7658 31.211C78.6035 31.2629 78.4287 31.2853 78.2542 31.2764ZM80.0347 24.8421C79.8249 25.7835 80.4542 27.5026 80.3775 28.8247C80.3007 29.938 79.7993 30.6502 79.2212 31.0063C78.8608 30.853 78.5645 30.6185 78.369 30.3319C78.1735 30.0452 78.0873 29.719 78.1211 29.3936C78.1211 28.8533 77.7988 28.7469 77.6453 28.7264C78.6993 27.0155 76.8574 29.9257 80.0347 24.8421ZM74.3503 25.9963C77.5737 22.8733 77.7067 25.587 75.5527 27.0442C74.7541 27.5525 73.7934 27.8715 72.7796 27.9651C73.226 27.2714 73.7518 26.6123 74.3503 25.9963Z" fill="#F67A45"/>
    <path d="M62.1357 22.7873C62.1652 22.6805 62.1633 22.5696 62.1302 22.4634C62.0972 22.3572 62.0338 22.2586 61.9451 22.1753C61.8563 22.092 61.7447 22.0263 61.6188 21.9834C61.493 21.9404 61.3564 21.9214 61.2199 21.9278C60.9198 21.937 60.6324 22.0268 60.4041 22.1828C60.1757 22.3387 60.0197 22.5517 59.9613 22.7873C59.936 22.8938 59.9408 23.0035 59.9755 23.1082C60.0102 23.213 60.0738 23.3102 60.1617 23.3927C60.2496 23.4752 60.3595 23.5408 60.4833 23.5848C60.6071 23.6288 60.7417 23.65 60.8771 23.6469C61.1785 23.6414 61.4683 23.5529 61.6976 23.3963C61.9269 23.2397 62.0816 23.0246 62.1357 22.7873Z" fill="#F67A45"/>
    <path d="M44.0549 51.1772C43.5433 51.1158 43.6097 51.5128 44.1367 51.5865C49.1405 52.2373 50.2764 56.9075 44.6074 56.0316C36.7435 54.8078 34.7533 50.1907 30.0922 50.1907C29.5801 50.216 29.0925 50.3751 28.7043 50.6435C28.3161 50.9119 28.0488 51.2748 27.9434 51.6765C27.9434 52.0859 28.3117 52.225 28.3629 51.8034C28.4447 51.1976 29.4373 50.817 30.0922 50.817C34.1853 50.817 35.3877 56.6456 44.6126 56.6456C51.2895 56.6497 50.1639 51.9549 44.0549 51.1772Z" fill="#F67A45"/>
    <path d="M74.3257 40.1503C74.2993 40.2569 74.3035 40.3669 74.3378 40.472C74.3721 40.5771 74.4357 40.6746 74.5238 40.7573C74.6118 40.84 74.7222 40.9056 74.8465 40.9494C74.9708 40.9931 75.1058 41.0138 75.2415 41.0099C75.5429 41.0044 75.8327 40.9159 76.062 40.7593C76.2913 40.6027 76.446 40.3876 76.5001 40.1503C76.5285 40.0435 76.5259 39.933 76.4924 39.8272C76.4589 39.7214 76.3955 39.6231 76.3069 39.54C76.2184 39.457 76.1072 39.3913 75.9819 39.3481C75.8566 39.3049 75.7206 39.2852 75.5843 39.2908C75.284 39.2993 74.9961 39.3888 74.7676 39.5449C74.539 39.701 74.3833 39.9144 74.3257 40.1503Z" fill="#F67A45"/>
    <path d="M92.6917 44.9106C92.2051 45.7063 91.6548 46.4761 91.0443 47.2151C90.1043 48.2203 88.7777 48.9509 87.2683 49.2944C89.5093 44.4031 89.8265 42.5571 91.4075 41.7016H89.9954C89.7882 41.6786 89.5772 41.709 89.3932 41.7885C89.2091 41.868 89.0616 41.9925 88.9721 42.1437C87.9744 43.781 86.3269 46.2368 84.879 47.6162C83.1752 49.188 82.0752 48.3489 83.344 46.1672C86.0404 41.5543 86.0097 42.1764 86.6748 41.7016C84.8739 41.7016 84.3929 41.5993 84.0552 42.1437C83.4669 43.1138 82.9092 43.9488 82.1162 45.1808C79.7677 49.2453 77.3169 48.8646 77.8439 47.0063C77.8439 47.0063 78.2123 45.4141 78.4477 44.8697C79.826 43.8682 81.0014 42.7013 81.9319 41.411H83.4668C83.7278 41.411 83.7841 40.9485 83.5181 40.9485H82.2594C82.6533 40.3632 83.0218 39.7738 83.3901 39.1434C85.3293 35.7912 82.4999 35.4351 80.6887 37.9728C80.0338 38.8733 79.3789 39.9007 78.7751 40.9485H77.1635C76.8769 40.9485 76.8207 41.411 77.1123 41.411H78.4733C77.8558 42.6138 77.3244 43.8437 76.882 45.0948C76.176 46.2163 75.3471 47.4115 74.5439 48.0664C74.2317 48.321 73.8076 48.4678 73.362 48.4758C72.6303 48.4348 72.5792 47.8495 72.8145 47.1578C72.8452 47.0677 72.6712 47.4075 75.2243 42.6267C75.736 41.7385 75.0913 41.8899 73.234 41.9186C73.3698 42.0334 73.4654 42.1748 73.5112 42.3286C73.557 42.4823 73.5514 42.643 73.495 42.7945L72.441 44.9475C71.8743 45.8652 71.2281 46.7501 70.507 47.5957C69.1205 49.1511 67.0227 48.7909 67.8107 46.2777C67.9642 45.7538 68.2251 45.2504 68.3582 44.8943C70.6812 43.1223 72.5117 40.9787 73.7304 38.6032C75.6183 35.2509 72.789 34.9562 70.9266 37.4489C69.2217 39.7999 67.8766 42.3066 66.9204 44.9147C66.3679 45.8152 64.6385 48.4758 63.5385 48.4348C63.1957 48.4348 63.0678 48.0255 63.2776 47.1782C63.7834 45.7632 64.6088 44.4342 65.713 43.257C65.3432 43.2736 64.9725 43.246 64.6129 43.1752C63.0473 43.0974 63.078 44.9966 60.5198 47.4484C58.6472 49.233 56.8565 48.4635 59.1793 45.2054C60.1258 43.9774 61.4868 42.7495 62.6687 42.2092C63.6357 41.7999 64.6078 41.9554 64.8944 42.7331C65.3395 42.7945 65.5492 42.4384 65.1808 42.1273C63.6868 40.8257 60.6733 41.6034 59.1026 43.0892C58.2194 43.9061 57.5543 44.8589 57.1481 45.8889C56.3244 47.1537 55.296 48.3939 54.2829 48.3939C53.9146 48.3939 53.5462 48.0378 53.7713 47.1373C53.9299 46.4251 54.7946 44.9761 55.5313 43.8014C56.3141 42.5039 56.5546 42.2092 57.3374 41.7262C55.8383 41.7262 55.2499 41.6075 54.902 42.1683C53.8787 43.8055 52.4615 46.2614 50.9931 47.6408C49.2893 49.2125 48.1893 48.3734 49.4582 46.1918C49.9289 45.3977 51.1107 43.4903 51.1107 43.4903C51.8168 42.3361 52.1852 42.0823 52.7889 41.7262H51.1875C50.9802 41.7025 50.769 41.7326 50.5847 41.8122C50.4005 41.8918 50.2531 42.0166 50.1642 42.1683C49.5605 43.1629 49.0131 43.9815 48.22 45.2054C48.0665 45.4796 48.3019 45.541 48.4605 45.541C47.9847 46.2982 47.3298 47.0718 47.5651 47.9764C47.6503 48.2673 47.865 48.5234 48.1692 48.6967C48.4735 48.87 48.8462 48.9486 49.2177 48.9178C50.5019 48.9178 51.868 47.4934 52.7583 46.2368C52.0727 47.9314 52.7583 48.9178 53.9606 48.9178C55.163 48.9178 56.1197 48.0132 56.8974 46.9859C56.7746 48.7909 58.2584 49.6914 60.1463 48.2465C60.8678 47.6503 61.5013 46.9897 62.0343 46.2777C61.2464 48.4758 62.4794 49.0242 63.3441 48.9833C64.4697 48.9055 65.6055 47.5998 66.4498 46.3923C66.1377 47.6407 66.1837 48.9833 68.1893 48.9833C69.6833 48.9833 70.7475 48.0828 71.5457 47.0964C71.4075 48.0173 71.7708 48.9383 73.2494 48.9383C74.5797 48.9383 75.7053 47.6817 76.4932 46.5152C76.4932 46.6052 76.4574 46.6952 76.4472 46.7812C76.0532 49.0856 78.6472 49.4417 80.0594 48.353C80.7256 47.8312 81.2803 47.2255 81.7017 46.5602C80.9445 47.9805 81.6608 48.9178 83.1036 48.9178C85.1195 48.9178 86.8232 46.3187 87.7084 45.0621C87.2888 46.1508 86.4497 48.3939 85.452 49.7774C82.2287 50.51 77.9565 50.9275 76.6211 53.0068C75.8383 54.1816 76.1095 55.565 78.7189 55.565C82.5971 55.565 85.1911 52.356 86.8437 49.9861C90.6196 48.8973 91.3001 48.0173 93.0806 45.1235C93.321 44.6814 92.9271 44.5341 92.6917 44.9106ZM82.1827 37.8869C83.8097 36.0654 83.4413 37.9278 82.945 38.8078C82.5553 39.5391 82.1181 40.2537 81.6352 40.9485H80.3254C80.8362 39.8881 81.4575 38.864 82.1827 37.8869ZM80.0594 41.411H81.2924C80.5452 42.4172 79.6578 43.3523 78.6472 44.1984C79.0156 43.4658 79.5119 42.4384 80.0594 41.411ZM72.6969 37.3179C74.1141 35.7011 73.8532 37.3179 73.3262 38.2593C72.1728 40.4413 70.5599 42.4488 68.5577 44.1943C69.3712 42.5203 71.4126 38.7669 72.6969 37.322V37.3179ZM84.3878 51.1977C83.1803 52.5157 80.4021 55.1148 78.0946 55.1148C75.7871 55.1148 76.836 52.6589 79.5119 51.7175C81.2896 51.1873 83.1101 50.7538 84.9608 50.42L84.3878 51.1977Z" fill="#F67A45"/>
    <path d="M53.8895 75.9774C50.2619 71.8147 45.5702 68.2824 40.505 64.6231C40.1929 64.398 39.9268 64.488 39.9473 64.8278C40.1209 67.2917 41.3123 69.6399 43.3343 71.5036C45.56 73.7139 48.9624 75.1875 51.4336 76.0061C51.8275 76.1371 51.8071 76.1862 51.3927 76.1248C47.3033 75.5143 43.3247 74.4996 39.5482 73.104C37.6961 72.4287 39.804 70.554 31.055 58.5899C30.8452 58.2993 30.5433 58.3197 30.4461 58.6471C29.6975 60.997 29.9 63.4763 31.0243 65.7283C32.2113 68.2987 34.6058 70.4067 36.4886 71.737C36.8007 71.9621 36.7649 72.0112 36.3914 71.8475C32.5947 70.1768 29.0904 68.1124 25.9693 65.7078C24.4906 64.574 27.3405 62.6502 23.7181 50.6779C23.6209 50.3463 23.3343 50.3013 23.1143 50.5919C20.6022 53.8664 20.1775 58.4875 23.7181 63.653C23.9176 63.9478 23.8613 63.9846 23.5748 63.7349C20.668 61.1686 18.1724 58.3224 16.1458 55.2622C15.1839 53.8091 18.7603 52.5566 19.7273 40.5269C19.758 40.1872 19.5022 40.0767 19.1798 40.2977C15.6956 42.6758 13.3983 46.9531 14.8207 52.8472C14.9025 53.1787 14.8206 53.1992 14.6569 52.8882C13.1748 50.2724 12.0214 47.5452 11.2136 44.7469C10.7582 43.1547 14.4983 42.7986 18.8575 31.9109C18.9854 31.5876 18.7705 31.4279 18.3919 31.5835C14.5086 33.147 11.188 36.6262 10.7173 42.2952C10.6917 42.6308 10.6201 42.6349 10.5485 42.2952C9.93497 39.4412 9.68807 36.5446 9.81169 33.6505C9.87821 32.0542 13.209 32.6313 19.6556 23.958C19.8705 23.6674 19.7068 23.4791 19.2975 23.5487C15.6291 24.3673 12.0885 26.7331 10.1545 31.2683C10.0164 31.5876 9.9447 31.5753 9.98051 31.2396C10.2806 28.6054 10.901 26.0007 11.8327 23.4627C12.375 21.9769 15.1532 23.1926 23.6925 16.2179C23.9892 15.9764 23.8818 15.7676 23.4623 15.784C19.8245 15.9477 15.9053 17.5686 12.8253 21.3711C12.4159 21.8746 12.4262 21.8705 12.4927 21.7149C13.654 19.018 15.1774 16.4297 17.036 13.9953C17.604 13.2217 20.3054 14.3392 28.9777 9.68119C29.3307 9.49291 29.2796 9.27187 28.86 9.23913C25.8362 8.97717 22.1268 9.76715 18.4891 12.444C17.3839 13.2627 20.024 10.5203 20.8529 9.6771C22.2087 8.34274 25.867 7.344 33.1681 0.835944C33.4495 0.582171 33.342 0.447097 32.9429 0.553518C30.2675 1.27528 27.7942 2.40851 25.6623 3.88942C22.1678 6.36985 21.5692 8.39184 20.4896 9.48061C18.3612 11.5845 17.3891 13.0212 17.824 12.1371C19.3077 9.11634 20.638 5.89095 20.7096 2.65739C20.7096 2.32175 20.4641 2.24807 20.198 2.52231C19.2617 3.51284 17.2356 5.91552 16.5704 8.44916C15.6495 11.8424 16.99 13.3609 16.7496 13.6883C10.0982 22.4845 12.2931 25.3865 12.6155 15.5876C12.6748 13.638 12.4447 11.6897 11.9299 9.78352C11.8327 9.45607 11.5615 9.4315 11.3825 9.74257C9.16195 13.6842 8.31257 18.4937 11.1368 22.2348C11.3671 22.5705 11.438 22.9616 11.3364 23.3358C10.3879 25.9176 9.75906 28.5676 9.45869 31.2478C9.24892 33.102 9.06471 25.276 5.28369 19.5456C5.08416 19.2468 4.81296 19.2795 4.74133 19.6152C3.71805 24.2077 4.55714 29.3527 8.71166 32.5781C9.03301 32.8576 9.21506 33.2217 9.2233 33.6014C9.11435 36.5534 9.38701 39.5066 10.0368 42.4138C10.4564 44.3908 7.21257 35.4965 1.12406 29.9257C0.847776 29.6679 0.612421 29.7538 0.612421 30.0936C0.965453 35.5292 3.75387 41.3578 9.73494 43.9529C10.1472 44.1467 10.4524 44.4582 10.5894 44.8247C11.4128 47.6815 12.592 50.4651 14.1095 53.1337C15.1942 55.0452 8.87538 46.6543 0.904028 42.2665C0.556113 42.0741 0.330989 42.2051 0.453783 42.5285C2.5822 48.0992 7.42236 53.5512 14.4369 54.8447C14.8967 54.9439 15.2918 55.1796 15.5421 55.5036C17.6059 58.6214 20.1497 61.5201 23.1143 64.1319C24.8693 65.6791 15.6393 59.2489 6.50652 57.0263C6.10233 56.9281 5.93859 57.1082 6.17394 57.3865C10.2671 62.1754 16.9183 66.2399 24.1785 65.7364C24.655 65.7171 25.123 65.8429 25.4883 66.0885C28.6651 68.5352 32.2333 70.6342 36.0998 72.3305C38.4942 73.3824 25.7698 69.2483 16.1049 69.191C15.6802 69.191 15.5932 69.4039 15.9105 69.6003C17.5579 70.6768 22.5618 73.583 28.1591 74.2993C31.4041 74.7881 34.7553 74.5414 37.8342 73.587C38.2818 73.4477 38.7783 73.4477 39.2259 73.587C46.7623 76.3581 53.1783 76.7346 51.321 76.7469C43.8971 76.7879 36.2635 76.7838 29.914 78.2041C29.5047 78.2941 29.4893 78.5152 29.8833 78.642C39.6301 81.8429 48.5786 80.5453 53.6183 77.4141C54.0098 77.1878 54.4869 77.0765 54.969 77.0989L55.8184 77.1726C56.2379 77.2054 56.5807 77.1071 56.5807 76.9516C56.5807 76.7961 56.2379 76.6446 55.8184 76.6078L55.0816 76.5382C54.6116 76.4748 54.1872 76.2752 53.8895 75.9774Z" fill="#F67A45"/>
    <path d="M67.1969 75.9774C70.8142 71.8311 75.4906 68.2946 80.5814 64.6231C80.8935 64.398 81.1595 64.488 81.1391 64.8278C80.9654 67.2918 79.7741 69.6399 77.752 71.5037C75.5264 73.7139 72.124 75.1875 69.6476 76.0061C69.2588 76.1371 69.2793 76.1862 69.6937 76.1248C73.7828 75.5135 77.7613 74.4989 81.5382 73.104C83.3801 72.4328 81.3232 70.4927 90.0262 58.5899C90.2411 58.2993 90.5379 58.3197 90.6402 58.6472C91.3871 60.9974 91.1829 63.4767 90.0569 65.7283C88.875 68.2987 86.4755 70.4067 84.5977 71.737C84.2856 71.9621 84.3214 72.0112 84.6949 71.8475C88.4916 70.1768 91.9959 68.1124 95.117 65.7078C96.5803 64.5863 93.751 62.6134 97.3683 50.6779C97.4655 50.3463 97.752 50.3013 97.972 50.5919C100.469 53.8214 100.924 58.4753 97.3683 63.6531C97.1636 63.9478 97.225 63.9846 97.5115 63.7349C100.418 61.1686 102.914 58.3224 104.941 55.2622C105.908 53.805 102.331 52.5648 101.359 40.5269C101.328 40.1872 101.584 40.0767 101.907 40.2977C105.406 42.684 107.683 46.9777 106.261 52.8472C106.184 53.1788 106.261 53.1992 106.424 52.8882C107.908 50.2725 109.063 47.5454 109.873 44.7469C110.333 43.1629 106.593 42.8068 102.229 31.9109C102.101 31.5876 102.316 31.4279 102.694 31.5835C106.568 33.1429 109.893 36.6139 110.369 42.2952C110.395 42.6308 110.466 42.6349 110.538 42.2952C111.151 39.4412 111.399 36.5447 111.28 33.6505C111.198 32.0542 107.857 32.6067 101.431 23.958C101.216 23.6674 101.38 23.4791 101.789 23.5487C105.447 24.3673 108.993 26.7249 110.932 31.2683C111.07 31.5876 111.142 31.5753 111.101 31.2396C110.805 28.6052 110.186 26.0004 109.254 23.4627C108.701 21.9646 105.902 23.1762 97.3939 16.2179C97.0971 15.9764 97.2045 15.7677 97.6241 15.784C101.272 15.9477 105.196 17.585 108.261 21.3711C108.701 21.9114 108.65 21.85 108.594 21.7149C107.431 19.0183 105.908 16.4301 104.05 13.9953C103.477 13.2176 100.822 14.3596 92.1086 9.68119C91.7556 9.49291 91.8067 9.27187 92.2263 9.23913C95.2449 8.97717 98.9492 9.75896 102.597 12.444C103.702 13.2627 101.098 10.5285 100.233 9.6771C98.8827 8.34274 95.2501 7.36447 87.9183 0.835944C87.6369 0.582171 87.7443 0.447097 88.1434 0.553518C90.8183 1.27615 93.2914 2.40928 95.424 3.88942C98.9287 6.37804 99.5172 8.4164 100.597 9.48061C102.7 11.5558 103.702 13.0294 103.262 12.1371C101.789 9.13272 100.443 5.89095 100.377 2.65739C100.377 2.32175 100.622 2.24807 100.888 2.52231C107.028 9.0713 104.081 13.3404 104.337 13.6883C110.988 22.6032 108.788 25.2637 108.471 15.5876C108.411 13.638 108.642 11.6897 109.156 9.78352C109.254 9.45607 109.525 9.4315 109.699 9.74257C111.93 13.6965 112.769 18.5019 109.949 22.2348C109.716 22.5698 109.645 22.9617 109.75 23.3358C110.698 25.9176 111.327 28.5676 111.628 31.2478C111.837 33.1102 112.027 25.2596 115.803 19.5456C116.002 19.2468 116.273 19.2795 116.345 19.6152C117.368 24.1749 116.544 29.3404 112.375 32.5781C112.045 32.8552 111.852 33.2189 111.832 33.6014C111.96 36.5505 111.706 39.5023 111.075 42.4098C110.645 44.4072 113.884 35.5047 119.988 29.9216C120.264 29.6638 120.499 29.7498 120.499 30.0895C120.152 35.5292 117.343 41.3578 111.377 43.9488C110.965 44.1426 110.659 44.4541 110.522 44.8206C109.697 47.6769 108.518 50.4603 107.002 53.1296C105.948 54.9756 112.293 46.6257 120.208 42.2624C120.556 42.07 120.781 42.201 120.658 42.5244C118.53 48.091 113.705 53.543 106.675 54.8406C106.215 54.9398 105.82 55.1755 105.57 55.4995C103.506 58.6173 100.962 61.516 97.9976 64.1278C96.2682 65.6505 105.519 59.2161 114.605 57.0222C115.01 56.924 115.173 57.1041 114.938 57.3824C110.845 62.1754 104.194 66.2358 96.9334 65.7323C96.4569 65.7131 95.9889 65.8388 95.6236 66.0844C92.4468 68.5311 88.8786 70.6301 85.0121 72.3264C82.6177 73.3783 95.3371 69.2442 105.007 69.1869C105.432 69.1869 105.519 69.3998 105.201 69.5962C103.554 70.6727 98.5502 73.5789 92.9579 74.2952C89.7113 74.7844 86.3583 74.5377 83.2777 73.583C82.8301 73.4436 82.3336 73.4436 81.886 73.583C74.3854 76.3376 67.9592 76.7306 69.7909 76.7428C77.1994 76.7838 84.8587 76.7797 91.1979 78.2C91.6021 78.29 91.6225 78.5111 91.2286 78.638C81.4 81.8592 72.477 80.5085 67.4936 77.41C67.1021 77.1837 66.625 77.0724 66.1429 77.0948L65.2936 77.1685C64.874 77.2013 64.5312 77.103 64.5312 76.9475C64.5312 76.792 64.874 76.6405 65.2936 76.6037L66.0303 76.5341C66.4903 76.4671 66.9046 76.2694 67.1969 75.9774Z" fill="#F67A45"/>
  </g>
  <defs>
    <clipPath id="clip0_1994_5680">
      <rect width="120.251" height="80" fill="white" transform="translate(0.417969 0.520752)"/>
    </clipPath>
  </defs>
</svg>