<svg xmlns="http://www.w3.org/2000/svg" width="105" height="81" viewBox="0 0 105 81" fill="none">
  <g clip-path="url(#clip0_1994_5648)">
    <path d="M36.2308 33.1828C35.8986 33.2861 35.5523 33.3371 35.2044 33.3339C35.1646 33.3339 35.0652 33.2902 35.0254 33.2902V33.1589C36.8196 29.7017 38.5741 26.2406 40.3484 22.8152C39.3647 23.7959 38.2896 24.6804 37.1379 25.4568H37.0583C36.9628 25.25 36.9668 25.3176 37.0185 25.1585C38.311 24.1585 39.5167 23.0513 40.6229 21.8485C41.2793 21.0528 41.335 21.1563 42.1227 21.0767C42.1625 21.0528 42.2023 21.0767 42.2421 21.0767C42.2222 21.2796 42.6837 20.2652 36.2308 33.1828Z" fill="#F67A45"/>
    <path d="M45.3768 33.5249C43.8969 33.5249 43.2285 32.1922 43.2285 30.7401C43.2285 27.4739 47.0119 20.8579 50.3218 20.8579C51.6824 20.8579 52.1559 21.9082 52.1559 23.2449C52.1559 26.6265 48.9414 33.5249 45.3768 33.5249ZM50.3418 21.2557C47.7598 21.2557 44.4101 29.0572 44.4101 31.484C44.4101 32.3632 44.6846 33.0753 45.6036 33.0753C48.2849 33.0753 51.4 25.3852 51.4 22.8073C51.408 22.0315 51.1891 21.2557 50.3418 21.2557Z" fill="#F67A45"/>
    <path d="M56.2088 33.5249C54.7289 33.5249 54.0605 32.1922 54.0605 30.7401C54.0605 27.4739 57.844 20.8579 61.1539 20.8579C62.5145 20.8579 62.9879 21.9082 62.9879 23.2449C62.972 26.6265 59.7655 33.5249 56.2088 33.5249ZM61.1738 21.2557C58.5919 21.2557 55.2421 29.0572 55.2421 31.484C55.2421 32.3632 55.5166 33.0753 56.4356 33.0753C59.117 33.0753 62.232 25.3852 62.232 22.8073C62.228 22.0315 62.0092 21.2557 61.1618 21.2557H61.1738Z" fill="#F67A45"/>
    <path d="M63.8952 34.2171H63.5213C63.4855 34.0301 63.4736 34.5393 68.2754 28.0626C67.4797 28.8026 66.6045 29.3118 66.0635 28.7031C64.9694 29.6301 64.0146 28.7668 64.687 27.0561C65.0848 26.0496 65.9322 25.1903 66.6125 25.2022C68.1242 25.246 66.9665 27.7961 66.2584 28.5162C66.5409 29.0691 67.2927 28.6713 68.0327 28.0308C68.4902 27.633 69.7275 26.0417 69.8667 25.9422C69.8985 25.9183 70.1293 25.8626 70.1293 25.986L63.8952 34.2171ZM65.3871 27.0243C64.6193 28.8304 65.2678 29.1726 65.9521 28.548C65.7213 28.1502 65.7372 27.5335 66.147 27.5335C66.199 27.5372 66.2494 27.5532 66.294 27.5801C66.3386 27.607 66.3762 27.6441 66.4038 27.6883C66.4313 27.7326 66.448 27.7827 66.4525 27.8346C66.457 27.8865 66.449 27.9387 66.4294 27.987C66.7238 27.5335 67.4757 25.7751 66.8273 25.5762C66.3897 25.4449 65.7571 26.1411 65.3871 27.0243ZM67.3763 33.6084C66.6045 33.5885 66.4931 32.582 66.879 31.5994C67.2649 30.6167 68.1242 29.7216 68.8045 29.7415C70.5988 29.7852 68.8045 33.6522 67.3842 33.6084H67.3763ZM69.0273 30.1194C68.0725 29.8091 66.6801 33.1191 67.436 33.3538C68.4465 33.6601 69.8548 30.374 69.0353 30.1194H69.0273Z" fill="#F67A45"/>
    <path d="M32.5819 44.2623C32.2914 44.1682 31.9831 44.1421 31.6809 44.1863C31.3787 44.2305 31.0908 44.3436 30.8394 44.5169C30.6484 44.7278 30.7837 44.9665 31.0502 45.0421C31.6708 45.2251 32.1602 44.5368 32.2437 45.6587C31.6708 46.2373 30.9518 46.6498 30.1631 46.8522C29.7125 46.9854 29.2331 46.9854 28.7826 46.8522C28.5516 46.787 28.3397 46.6674 28.1645 46.5033C27.9894 46.3393 27.8562 46.1356 27.7761 45.9094C27.4563 45.2643 27.3464 44.5354 27.4618 43.8247C27.5696 43.2377 27.8384 42.6922 28.238 42.2489C28.6377 41.8057 29.1527 41.4821 29.7255 41.3144C29.9223 41.2547 30.1345 41.2736 30.3177 41.3671C30.5009 41.4605 30.6408 41.6213 30.7081 41.8157C30.7757 41.9987 30.6723 42.2135 30.7359 42.3726C30.8712 42.7267 31.4799 42.9455 31.7902 42.2652C31.9851 41.6525 31.5157 40.9245 30.8831 40.6739C29.7771 40.2522 28.1659 41.0359 27.3026 41.8674C24.665 44.4771 26.6741 48.718 30.2108 47.7195C31.4043 47.3734 31.9135 46.9875 32.4029 46.3947C32.4466 46.9795 32.4386 48.3242 31.8737 48.4754C31.5037 48.5708 30.8553 48.4356 30.5808 48.5629C30.5237 48.5866 30.472 48.6216 30.4289 48.6658C30.3857 48.7101 30.352 48.7626 30.3297 48.8202C30.3074 48.8778 30.297 48.9394 30.2991 49.0011C30.3012 49.0629 30.3158 49.1236 30.3421 49.1795C30.4813 49.4898 31.0343 49.4302 31.3207 49.4182C31.6963 49.409 32.0634 49.304 32.3871 49.1132C32.7108 48.9225 32.9805 48.6522 33.1706 48.3282C33.6878 47.3734 33.5009 46.0008 33.1348 44.9784C33.0957 44.828 33.0265 44.687 32.9315 44.5639C32.8364 44.4408 32.7175 44.3383 32.5819 44.2623Z" fill="#F67A45"/>
    <path d="M42.4517 44.3101C41.7834 44.4056 42.5711 41.6287 42.0857 41.2667C41.9664 41.1791 41.8032 41.2348 41.6202 41.2667C41.1349 41.3462 41.2622 40.9643 40.8843 41.024C39.6192 41.2189 38.8076 42.9256 38.8235 44.2067C38.5473 44.5574 38.2185 44.8633 37.8488 45.1137C37.5465 45.3007 37.4271 45.245 37.3436 44.9108C37.1804 44.3061 37.2879 42.9217 37.1845 42.3289C37.1327 42.0265 37.1486 41.8913 36.9457 41.8236C36.6394 41.7202 36.0665 41.943 36.0665 42.1976C36.1103 44.8432 36.2018 45.0341 35.983 45.3803C35.8557 45.619 35.5851 45.7781 35.4101 45.5951C35.235 45.4121 35.2629 45.1495 35.243 44.8313C35.1674 43.6656 35.1277 42.8421 35.0879 42.4443C35.0441 42.2573 34.7577 42.2851 34.5667 42.3249C34.0455 42.4681 34.0098 43.1922 34.0416 43.7332C34.2524 45.4041 34.0416 45.0381 34.2922 46.0526C34.69 47.441 35.8159 46.9477 36.4604 45.5434C36.8582 46.3828 37.256 46.5141 38.0994 45.9412C38.3439 45.7779 38.5742 45.5943 38.7877 45.3922C39.0861 45.1097 39.0105 45.1177 39.0662 45.2052C39.2169 45.466 39.4648 45.6565 39.7556 45.7348C40.0464 45.8131 40.3565 45.7729 40.6177 45.6229C40.9797 45.4283 41.2864 45.145 41.5089 44.7994C41.6163 44.9942 41.7625 45.1648 41.9385 45.3007C42.6308 45.79 43.51 44.8193 43.9277 44.0634C43.8163 43.7372 43.7049 43.415 43.5895 43.0887C43.3787 43.415 42.8695 44.2544 42.4517 44.3101ZM41.0195 43.3871C41.0195 43.8048 40.8763 44.7238 40.4506 44.7954C39.5953 44.9466 39.9295 42.0464 41.1349 41.8674C41.0911 42.3726 41.0553 42.8819 41.0195 43.3871Z" fill="#F67A45"/>
    <path d="M51.6451 43.6576C50.9608 43.6576 52.1344 41.0081 51.6968 40.5904C51.5934 40.4909 51.4422 40.5227 51.2353 40.5227C50.75 40.5227 50.921 40.1766 50.5391 40.1806C49.6161 40.1806 48.8404 41.02 48.4386 41.8833C48.4386 41.7878 48.4823 41.8515 48.0407 42.1658C47.7503 42.3647 47.1894 42.671 46.9467 42.4084C46.704 42.1459 46.8035 41.6645 46.8512 41.3582C46.8989 41.0518 46.9984 40.65 46.7478 40.467C46.6482 40.4004 46.529 40.3695 46.4096 40.3795C45.6657 40.4352 45.419 41.3502 45.1883 41.9271H45.1366C45.0371 41.2229 45.1803 40.5386 44.8859 40.5187C44.7602 40.518 44.6347 40.5314 44.512 40.5585C44.4688 40.5679 44.4284 40.5872 44.3938 40.6148C44.3593 40.6424 44.3317 40.6776 44.313 40.7176C44.1141 41.1155 43.9828 42.8023 44.0067 43.7213C44.0067 44.139 44.0544 44.8272 44.4045 45.0262C44.4738 45.0605 44.55 45.0784 44.6273 45.0784C44.7046 45.0784 44.7809 45.0605 44.8501 45.0262C45.1007 44.8909 45.0968 44.497 45.7572 42.0623C45.8845 42.0623 45.785 41.9828 45.98 42.6153C46.2624 43.5502 46.9865 43.8764 48.0726 43.1603C47.9652 44.3777 48.8324 44.9745 49.6639 44.6641C50.0468 44.5199 50.3874 44.2819 50.6545 43.9719C50.9171 44.6005 51.3308 44.9227 52.0032 44.5886C52.4559 44.3383 52.8473 43.9904 53.1489 43.5701L52.946 42.5636C52.6835 42.8978 52.0668 43.6536 51.6451 43.6576ZM50.3521 42.5477C50.3044 42.9734 50.0339 43.8486 49.6002 43.8645C48.733 43.8924 49.457 41.0797 50.6744 41.0558C50.563 41.5544 50.4556 42.0517 50.3521 42.5477Z" fill="#F67A45"/>
    <path d="M74.6851 46.725C74.2329 46.9132 73.7559 47.0352 73.2689 47.087C72.9983 47.087 72.8432 46.9756 72.9227 46.5658C73.062 45.8099 73.6548 45.2729 74.2276 44.708C74.7816 44.1411 75.2986 43.5391 75.7752 42.9058C76.2208 42.3607 76.7459 41.2269 76.6305 40.5705C76.4475 39.56 74.705 39.5481 73.4041 41.5929C72.9936 42.1469 72.6666 42.7581 72.4334 43.407C71.9576 43.2993 71.4595 43.3525 71.0171 43.5582C70.5881 43.7715 70.2128 44.0788 69.9191 44.4573C69.7614 44.634 69.6277 44.8306 69.5213 45.0421C68.9006 45.3326 67.4923 45.7781 67.0468 45.3246C66.9535 45.2078 66.8869 45.072 66.8518 44.9268C68.4431 44.8711 69.8316 43.6497 69.1036 42.6154C68.5585 41.8396 67.1582 41.7521 66.3187 43.041C66.1087 43.3524 65.9364 43.6876 65.8055 44.0396C65.2207 44.3857 64.2142 44.7875 63.514 44.6721C63.2833 44.6284 63.152 44.5369 63.0127 44.1749C64.3534 44.0436 65.2008 43.2002 65.3162 42.6154C65.5827 41.2548 63.4344 40.483 62.3722 42.321C62.1874 42.6317 62.0392 42.9627 61.9306 43.3076C61.4334 43.6815 60.3393 44.1908 59.9097 44.1391C59.3965 44.0754 59.2811 43.6855 59.3408 43.1723C59.3646 42.9416 59.4601 42.2494 59.5636 41.6924C59.7824 41.4815 59.9415 41.3224 60.1762 41.0797C60.7849 41.1513 61.3697 41.2349 61.9943 41.3224C62.3643 41.3741 62.4916 40.67 62.225 40.6182C62.0341 40.5785 60.8446 40.3716 60.8008 40.3795C61.2305 39.8942 61.8312 39.186 61.9187 38.5296C62.1017 37.2168 60.9798 36.3495 59.838 37.9249C59.3908 38.5748 59.0473 39.2901 58.8196 40.0454C58.6326 40.0454 57.3635 39.8067 57.3436 40.1011C57.3436 40.3199 57.3437 40.4591 57.6221 40.4989C58.382 40.654 58.2308 40.658 58.6167 40.7495C58.4438 41.463 58.3622 42.1956 58.374 42.9297L57.4749 43.4031C57.3732 43.4632 57.2667 43.5151 57.1567 43.5582C57.0787 43.5969 57.0042 43.6422 56.9339 43.6935C56.8254 43.756 56.7046 43.794 56.5798 43.8049C55.9234 43.7571 56.7509 41.3463 56.7668 41.0439C56.7946 40.6739 56.6673 40.3119 56.2973 40.292C56.1408 40.2771 55.9832 40.3065 55.8425 40.3769C55.7018 40.4472 55.5837 40.5557 55.5017 40.6899C55.1722 41.1905 54.8746 41.7114 54.6105 42.2494H54.519C54.5708 41.5253 54.9169 40.7694 54.6822 40.3795C54.5823 40.2778 54.4477 40.2176 54.3053 40.2109C54.1629 40.2043 54.0232 40.2517 53.9143 40.3438C53.7114 40.5228 53.6757 40.7416 53.5483 41.3344C53.3558 42.2421 53.2571 43.1673 53.2539 44.0953C53.2563 44.1948 53.2791 44.2927 53.3209 44.383C53.3626 44.4733 53.4224 44.5541 53.4966 44.6204C53.5787 44.674 53.6734 44.7048 53.7713 44.7097C53.8692 44.7146 53.9666 44.6934 54.0536 44.6483C54.2525 44.5369 54.2207 44.3897 55.5693 42.0823C55.6847 42.0823 55.6529 41.9828 55.5176 42.7626C55.4004 43.3112 55.4154 43.8798 55.5614 44.4215C55.6608 44.6682 55.7921 44.7955 55.9592 44.8194C56.4644 44.8512 56.8742 44.6363 57.6301 44.3101C57.8745 44.2256 58.1061 44.1078 58.3183 43.96C58.565 41.573 57.9205 45.4798 59.9097 45.1138C60.5824 44.9331 61.2395 44.6989 61.8749 44.4136C61.9625 43.8407 61.8232 44.334 62.1455 44.8989C62.8496 46.1322 64.5325 45.7781 65.7777 45.0859C65.8194 45.419 65.9654 45.7303 66.1948 45.9754C66.4241 46.2205 66.7251 46.3868 67.0547 46.4505C67.756 46.5722 68.4776 46.4822 69.1274 46.1919C69.4337 46.0765 69.199 46.0685 69.382 46.5698C69.7242 47.5365 70.858 47.4053 71.8605 46.8642C71.8617 47.1043 71.9317 47.3391 72.0621 47.5408C72.1925 47.7424 72.378 47.9025 72.5965 48.002C73.054 48.1492 74.0844 47.827 74.5419 47.6678C74.5618 47.3535 74.6215 47.0393 74.6851 46.725ZM60.8963 38.096C60.9297 38.0979 60.9623 38.1067 60.9921 38.1218C61.0219 38.1369 61.0483 38.158 61.0696 38.1837C61.0909 38.2095 61.1066 38.2394 61.1158 38.2715C61.125 38.3037 61.1275 38.3374 61.123 38.3705C61.123 38.8678 60.3274 39.8266 60.0091 40.2403L59.7147 40.1846C59.8619 39.7828 60.4746 38.0443 60.8963 38.096ZM63.4026 42.5398C63.4786 42.3935 63.5999 42.2757 63.7483 42.204C63.8967 42.1323 64.0643 42.1105 64.2261 42.1419C64.4171 42.1777 64.4489 42.4562 64.4131 42.6432C64.3534 42.9495 63.5856 43.5145 63.0167 43.419C63.0716 43.0988 63.2041 42.7969 63.4026 42.5398ZM67.3372 43.3354C67.4255 43.197 67.5557 43.0903 67.7088 43.0309C67.8619 42.9715 68.03 42.9625 68.1885 43.0052C68.3755 43.053 68.3875 43.3315 68.3437 43.5184C68.2721 43.8128 67.4685 44.338 66.9035 44.2107C66.9755 43.8811 67.1287 43.5748 67.3491 43.3195L67.3372 43.3354ZM70.7665 46.3987C70.484 46.3152 70.301 46.16 70.3686 45.8696C70.5207 45.4814 70.7402 45.1231 71.0171 44.8114C71.1618 44.6174 71.3442 44.4546 71.5534 44.3329C71.7626 44.2112 71.9943 44.1331 72.2345 44.1032C72.2743 44.0794 71.8009 45.5633 71.7849 45.8259C71.5582 46.0805 71.1086 46.4823 70.7665 46.3828V46.3987ZM73.2808 44.6841C73.5749 43.7147 73.9751 42.7808 74.4743 41.8993C74.6592 41.5488 74.9027 41.2326 75.1943 40.9644C75.3654 40.841 75.5922 40.8172 75.6399 41.024C75.6017 41.3025 75.5141 41.572 75.3813 41.8197C75.0432 42.6193 73.8497 44.0277 73.2808 44.6682V44.6841Z" fill="#F67A45"/>
    <path d="M19.9229 12.022C20.4534 14.1253 20.9931 16.2311 21.5421 18.3396C21.4625 18.4908 21.379 18.642 21.2954 18.7931C20.1815 19.0849 19.0716 19.3912 17.9656 19.7121L17.7507 18.9642L18.3754 18.7852L14.8426 6.37283L14.1504 6.57175L13.9355 5.8278C15.1728 5.46578 16.418 5.12761 17.6672 4.80139L18.1486 5.08782C19.8752 11.851 19.7598 11.3378 19.7399 11.3139L19.4734 11.7714C19.9826 12.1096 19.911 12.0857 19.9229 12.022ZM17.4603 5.65674C16.8477 5.81985 16.235 5.98296 15.6223 6.15403C16.1661 8.10341 16.7084 10.0515 17.2495 11.9982C17.8303 11.8351 18.4151 11.6759 18.9999 11.5248L17.4603 5.65674ZM19.1989 12.2727C18.618 12.4278 18.0372 12.583 17.4563 12.7461L19.0795 18.5863L20.7385 18.1367L19.1989 12.2727Z" fill="#F67A45"/>
    <path d="M25.6237 5.92329L25.2259 3.88639C24.6053 4.00972 23.9886 4.13703 23.368 4.28422C23.7923 6.25747 24.2167 8.23335 24.6411 10.2119L25.6993 9.98912C25.6158 9.5714 25.5282 9.15369 25.4407 8.73596L26.2045 8.5808L26.861 11.8748L26.121 12.0221L25.8584 10.749L24.8081 10.9718C25.2298 12.945 25.6542 14.9209 26.0812 16.8995C26.6382 16.7801 27.1951 16.6647 27.7561 16.5533C27.6208 15.8731 27.4816 15.1928 27.3583 14.5164L28.0863 14.3732C28.2653 15.3042 28.4483 16.2391 28.6274 17.1581C27.3821 17.3968 26.1369 17.6593 24.8997 17.9537C24.84 17.6991 24.7843 17.4485 24.7286 17.1978L25.381 17.0506C24.4501 12.8495 23.5218 8.64976 22.5962 4.45131L21.8761 4.61441C21.8164 4.35979 21.7608 4.10917 21.7051 3.85456C23.0948 3.5416 24.4872 3.24852 25.8823 2.97534C26.0653 3.91025 26.2443 4.84515 26.4273 5.76016L25.6237 5.92329Z" fill="#F67A45"/>
    <path d="M32.5425 1.84949L33.008 2.18365C33.1233 3.00319 33.2347 3.81876 33.3501 4.63829L32.5544 4.74967C32.455 4.05745 32.3555 3.36523 32.2521 2.673C31.6315 2.7645 31.0068 2.85599 30.3862 2.95545C30.7045 4.95256 31.0214 6.94835 31.337 8.94281C32.0571 8.83142 32.7732 8.724 33.4933 8.62057L33.9349 8.95874C34.2479 11.2184 34.5608 13.4728 34.8738 15.7219L34.5595 16.1476C33.7638 16.259 32.9681 16.3783 32.1725 16.5096L31.7746 16.1953L31.3768 13.7526C31.6195 13.7088 31.8662 13.673 32.1089 13.6333C32.2163 14.3175 32.3276 15.0018 32.4351 15.6821C32.996 15.5946 33.5609 15.5071 34.1219 15.4275C33.8301 13.4251 33.5411 11.424 33.2546 9.4242C32.5345 9.53161 31.8144 9.63904 31.0944 9.75839L30.6647 9.44408C30.2961 7.19501 29.9247 4.94063 29.5508 2.68094L29.873 2.22345C30.7483 2.11206 31.6513 1.97282 32.5425 1.84949Z" fill="#F67A45"/>
    <path d="M37.7389 4.10525L36.9432 4.18881C36.8358 3.23799 36.7324 2.28317 36.625 1.33235C38.1686 1.15996 39.7109 1.01676 41.2518 0.90271C41.3234 1.85751 41.399 2.81231 41.4706 3.7671L40.6749 3.83075C40.6152 3.13454 40.5596 2.43435 40.5039 1.73815L39.4019 1.83362L40.5596 14.6836L41.1046 14.6358C41.1285 14.8944 41.1483 15.153 41.1722 15.4315L39.37 15.5986C39.3422 15.34 39.3183 15.0854 39.2905 14.8268L39.8355 14.7711C39.4244 10.4905 39.0133 6.20977 38.6022 1.9291L37.5002 2.03652C37.5957 2.71284 37.6673 3.40905 37.7389 4.10525Z" fill="#F67A45"/>
    <path d="M52.7682 14.9859C51.9725 14.9859 51.1689 14.9859 50.3573 14.9859L49.9834 14.612C49.933 10.0528 49.8799 5.49235 49.8242 0.930547L50.2221 0.532715C51.1251 0.532715 52.0242 0.532715 52.9233 0.532715L53.3212 0.930547L53.2854 3.40505H52.4897C52.4897 2.70486 52.4897 2.00469 52.4897 1.30451H50.6398L50.7114 14.2062C51.2803 14.2062 51.8452 14.2062 52.4141 14.2062C52.4141 13.514 52.4141 12.8177 52.4141 12.1255H53.1501C53.1501 12.949 53.1262 13.7765 53.1143 14.6L52.7682 14.9859Z" fill="#F67A45"/>
    <path d="M59.4479 0.763434C60.1242 0.803217 60.7965 0.850967 61.4729 0.898707L61.4132 1.69437L60.8085 1.65062C60.5035 5.93924 60.1985 10.2292 59.8935 14.5205L60.4425 14.5602L60.3828 15.3559C59.7821 15.3082 59.1893 15.2684 58.5806 15.2326C58.5806 14.974 58.6084 14.7154 58.6244 14.4568L59.1734 14.4926C59.3033 12.4743 59.4359 10.4573 59.5712 8.44161C58.9784 8.40182 58.3777 8.36999 57.7849 8.33817C57.6868 10.3538 57.586 12.3722 57.4826 14.3932L58.0276 14.425C58.0276 14.6796 57.9998 14.9382 57.9839 15.1968C57.3831 15.165 56.7904 15.1371 56.1777 15.1132C56.1777 14.8546 56.1777 14.596 56.2095 14.3176L56.7586 14.3414L57.3314 1.44772L56.7267 1.42385C56.7267 1.16526 56.7267 0.906662 56.7546 0.648071C57.4309 0.674593 58.1072 0.706416 58.7835 0.743547C58.7835 1.00214 58.7517 1.26073 58.7397 1.51932L58.1311 1.48749C58.0329 3.50582 57.9309 5.52417 57.8248 7.5425C58.4255 7.57433 59.0182 7.60616 59.6229 7.64594L60.0208 1.59491L59.4121 1.5591L59.4479 0.763434Z" fill="#F67A45"/>
    <path d="M64.0662 15.6503L63.7559 15.2525L65.1642 1.64662L65.5978 1.29254C66.4929 1.38802 67.392 1.49145 68.2872 1.60682L68.6452 2.05241L66.8788 15.6185L66.481 15.9447C65.6721 15.836 64.8671 15.7378 64.0662 15.6503ZM64.5197 14.9183C65.0846 14.9819 65.6496 15.0456 66.2105 15.1172C66.7409 10.8471 67.2714 6.5784 67.8018 2.31099C67.1772 2.2354 66.5527 2.15982 65.9281 2.09219L64.5197 14.9183Z" fill="#F67A45"/>
    <path d="M72.1578 2.13995C72.8818 2.25135 73.6099 2.37071 74.3339 2.49801L74.2026 3.26184L73.5184 3.14648C72.8023 7.39002 72.0875 11.6336 71.374 15.8771L71.9947 15.9845L71.8634 16.7483C71.2149 16.6369 70.5664 16.5295 69.918 16.4301L70.0373 15.6623L70.6579 15.7617L72.7227 3.03109L72.0384 2.91971L72.1578 2.13995Z" fill="#F67A45"/>
    <path d="M77.6285 17.8901C76.8328 17.711 76.0372 17.5439 75.2415 17.3808L74.9551 16.9392L77.6404 3.52435L78.1258 3.21405C79.0116 3.39705 79.8975 3.58668 80.7833 3.78295L81.0817 4.26035C80.8947 5.05601 80.7117 5.85168 80.5287 6.67519L79.7569 6.50015L80.2104 4.4513L78.3566 4.05347L75.7428 16.6886C76.3037 16.804 76.8607 16.9233 77.4177 17.0466C77.5689 16.3703 77.7187 15.694 77.8672 15.0177L78.5913 15.1808L78.0423 17.5957L77.6285 17.8901Z" fill="#F67A45"/>
    <path d="M87.2403 8.36994C87.4273 7.70159 87.6382 7.03721 87.8052 6.38078C87.1966 6.20972 86.5839 6.03867 85.9752 5.87555L84.3839 11.7316L85.4302 12.0181C85.5455 11.6202 85.6609 11.1946 85.7723 10.7848L86.5242 10.9956L85.649 14.2141L84.917 14.0072C85.0363 13.5895 85.1517 13.1718 85.2671 12.7541L84.2248 12.4716C83.6943 14.421 83.1639 16.373 82.6334 18.3277C83.1864 18.4749 83.7394 18.6261 84.2884 18.7852L84.8573 16.796L85.5734 17.0029L84.7778 19.744C83.5524 19.3859 82.3231 19.0517 81.0898 18.7335C81.1535 18.4828 81.2171 18.2322 81.2848 17.9816L81.9332 18.1526L85.2034 5.66867L84.4833 5.48171C84.5509 5.23107 84.6146 4.98043 84.6783 4.7298C86.0627 5.08519 87.4405 5.46179 88.8117 5.85963C88.5492 6.77464 88.2826 7.68568 88.0161 8.60069L87.2403 8.36994Z" fill="#F67A45"/>
    <path d="M51.1932 67.5833C51.4478 67.3565 51.7103 67.1298 51.9888 66.911C50.8626 66.0592 49.6721 65.2957 48.4282 64.6274C48.6625 62.982 48.4707 61.3041 47.8713 59.754C46.7932 57.1601 44.3226 55.7319 44.1277 55.7319C44.0845 55.7317 44.042 55.7421 44.0038 55.7622C43.9657 55.7823 43.933 55.8115 43.9088 55.8473C43.6123 57.5852 43.8509 59.3721 44.5932 60.9713C45.0563 61.9137 45.6334 62.7955 46.3118 63.597C45.0318 63.0114 43.7226 62.4922 42.3891 62.0415C42.5388 60.5032 42.2447 58.9542 41.5418 57.5778C40.3483 55.4136 38.0925 54.244 37.639 54.0252C37.5822 53.9954 37.5164 53.9874 37.4541 54.0028C37.3918 54.0182 37.3373 54.0559 37.3009 54.1087C37.0202 55.7941 37.3278 57.5247 38.1721 59.01C38.6877 59.8718 39.3316 60.6498 40.0817 61.3174C38.6694 60.8918 37.098 60.4701 35.252 60.0165C35.4509 56.627 33.5294 54.1923 30.5377 52.6686C30.5004 52.6467 30.4583 52.6342 30.415 52.6323C30.3718 52.6303 30.3287 52.6389 30.2896 52.6573C30.2504 52.6757 30.2163 52.7034 30.1902 52.7379C30.1642 52.7725 30.1469 52.8128 30.1399 52.8555C29.9269 54.4324 30.2416 56.0354 31.035 57.4147C31.5244 58.1919 32.1433 58.8795 32.865 59.4476C31.1305 59.0498 29.575 58.6878 27.7688 58.2541C27.9677 54.8328 26.1337 52.5134 23.321 50.5839C23.2832 50.5589 23.2398 50.5435 23.1946 50.5393C23.1494 50.5352 23.1038 50.5423 23.0621 50.56C23.0203 50.5777 22.9835 50.6056 22.9551 50.641C22.9267 50.6764 22.9076 50.7183 22.8994 50.763C22.6428 52.3917 22.8986 54.0599 23.6314 55.5369C24.0875 56.3616 24.6949 57.0931 25.4216 57.6932C23.9258 57.2954 22.6368 56.9453 21.4433 56.5753C21.6462 53.9775 20.7312 51.2841 17.7713 48.6187C17.7357 48.5847 17.6916 48.5611 17.6436 48.5504C17.5957 48.5397 17.5457 48.5422 17.4991 48.5578C17.4524 48.5733 17.4109 48.6013 17.379 48.6386C17.347 48.676 17.3259 48.7214 17.3178 48.7698C17.0144 50.3866 17.1659 52.0558 17.7554 53.5916C18.1147 54.4407 18.6333 55.2131 19.2831 55.8671C17.9305 55.3858 16.7051 54.8885 15.5713 54.3554C15.8458 52.0161 15.2729 49.4979 13.053 46.6096C13.0215 46.5679 12.9786 46.5362 12.9295 46.5184C12.8804 46.5006 12.8271 46.4973 12.7762 46.5091C12.7253 46.5209 12.6789 46.5472 12.6426 46.5848C12.6063 46.6224 12.5817 46.6697 12.5717 46.721C12.0664 49.0045 12.3409 51.4671 13.6816 53.4125C12.6671 52.8561 11.6891 52.2355 10.7536 51.5547C10.9612 50.2349 10.941 48.8893 10.6939 47.5763C10.3773 46.0846 9.87473 44.6384 9.19802 43.2718C9.17859 43.2175 9.14186 43.1711 9.09346 43.1398C9.04505 43.1085 8.98767 43.0939 8.93019 43.0985C8.87271 43.103 8.81832 43.1263 8.77542 43.1648C8.73251 43.2033 8.70349 43.2549 8.69281 43.3116C8.69281 43.411 7.58682 46.8921 9.11847 50.2577C8.29805 49.5411 7.53334 48.763 6.83094 47.9304C7.40381 45.1456 7.00599 42.5358 6.24215 39.8146C6.22774 39.757 6.19445 39.7058 6.1476 39.6692C6.10074 39.6326 6.043 39.6127 5.98355 39.6127C5.92411 39.6127 5.86636 39.6326 5.8195 39.6692C5.77265 39.7058 5.73937 39.757 5.72495 39.8146C5.12445 41.8666 5.03701 44.0346 5.47033 46.1282C5.31916 45.9054 5.16798 45.6787 5.02476 45.4519C4.75326 44.2154 4.36567 43.0072 3.86711 41.8436C3.20671 40.3716 2.05694 38.6251 1.74663 38.6251C1.67731 38.6261 1.61111 38.6541 1.56209 38.7032C1.51307 38.7522 1.48508 38.8184 1.48405 38.8877C1.48405 41.5173 2.16037 44.6324 4.42005 46.0009C4.6309 46.3351 4.8537 46.6653 5.08047 46.9875C4.35016 46.6063 3.54106 46.4006 2.71737 46.3868C1.71881 46.3868 0.815731 46.7369 0.728208 46.8841C0.703865 46.9214 0.688951 46.9641 0.684793 47.0085C0.680634 47.0528 0.687332 47.0975 0.704315 47.1387C1.39256 48.0836 2.40555 48.741 3.54882 48.9847C4.49601 49.1301 5.46507 48.9917 6.33365 48.5868C9.23384 52.0201 9.63964 50.7908 6.63998 50.6754C4.7105 50.6158 2.97992 51.4234 2.85262 51.6064C2.82807 51.6472 2.81508 51.694 2.81508 51.7416C2.81508 51.7893 2.82807 51.8361 2.85262 51.8769C3.90111 52.7626 5.22773 53.2512 6.60021 53.2574C7.89249 53.2281 9.15872 52.8884 10.2921 52.2668C14.0595 55.0237 14.0913 53.7706 10.6899 54.1326C9.13772 54.29 7.64147 54.7973 6.31373 55.6165C6.28925 55.6581 6.27634 55.7055 6.27634 55.7538C6.27634 55.802 6.28925 55.8494 6.31373 55.891C6.44502 56.1456 10.3478 57.9677 15.1576 55.0953C20.0907 57.4187 19.6252 56.0661 15.4042 56.9214C13.5035 57.2937 11.6914 58.0255 10.0653 59.0776C10.042 59.1196 10.0297 59.1669 10.0297 59.2149C10.0297 59.2629 10.042 59.3102 10.0653 59.3521C10.2324 59.6744 13.248 60.1239 15.9453 59.5033C17.7468 59.0743 19.4657 58.3526 21.0335 57.367C22.1594 57.721 23.3728 58.0672 24.7612 58.4292C23.53 58.534 22.3097 58.7416 21.1131 59.0498C19.0141 59.5899 17.0228 60.4846 15.2252 61.6954C15.2007 61.737 15.1878 61.7844 15.1878 61.8326C15.1878 61.8809 15.2007 61.9283 15.2252 61.9699C15.265 62.0415 15.3525 62.2126 17.1706 62.2126C20.8026 62.1847 24.3481 61.101 27.375 59.0935C28.9225 59.4675 30.3945 59.8057 32.1768 60.2234C30.9395 60.3505 29.716 60.5875 28.5207 60.9316C26.3655 61.5468 24.3264 62.5132 22.4856 63.7919C22.4567 63.8318 22.4391 63.8788 22.4349 63.9279C22.4307 63.9769 22.44 64.0262 22.4618 64.0704C22.5413 64.2216 22.5493 64.2336 23.4046 64.2336C27.466 64.2324 31.441 63.0611 34.8542 60.8599C36.5967 61.2856 38.0886 61.6834 39.4372 62.0813C35.7905 62.3296 32.2786 63.5584 29.2726 65.6379C29.2348 65.6615 29.2036 65.6943 29.182 65.7333C29.1603 65.7723 29.149 65.8161 29.149 65.8607C29.149 65.9052 29.1603 65.9491 29.182 65.9881C29.2036 66.0271 29.2348 66.0599 29.2726 66.0835C29.3244 66.1153 29.3602 66.1352 30.116 66.1352C34.2509 66.1736 38.3143 65.0561 41.8481 62.9088C43.3599 63.4259 44.7045 63.9551 45.6395 64.3728C42.1226 64.2415 38.5541 65.4947 35.7772 67.3884C35.7302 67.4144 35.6925 67.4544 35.6693 67.5029C35.6461 67.5514 35.6385 67.6058 35.6477 67.6588C35.6569 67.7117 35.6824 67.7605 35.7206 67.7983C35.7587 67.8361 35.8077 67.861 35.8607 67.8697C38.038 68.4548 40.3179 68.5499 42.5363 68.1482C44.5199 67.7126 46.3707 66.8097 47.9349 65.5146C49.0685 66.1262 50.1574 66.8175 51.1932 67.5833Z" fill="#F67A45"/>
    <path d="M53.9968 68.6216C53.7303 68.8364 53.4677 69.0512 53.2012 69.27C56.2923 72.1583 58.4008 75.7746 59.6819 80.3298C59.6975 80.3851 59.731 80.4337 59.777 80.4682C59.823 80.5027 59.879 80.5212 59.9365 80.5207C60.1076 80.5207 60.1354 80.4332 60.4338 80.0115C60.4552 79.979 60.4695 79.9424 60.4756 79.904C60.4818 79.8656 60.4797 79.8263 60.4696 79.7887C59.1925 75.2057 57.08 71.5536 53.9968 68.6216Z" fill="#F67A45"/>
    <path d="M44.76 79.7887C46.7133 72.8346 50.5524 68.0129 56.8262 64.6273C56.59 62.982 56.7818 61.3035 57.3832 59.7539C58.4613 57.16 60.9318 55.7318 61.1268 55.7318C61.1699 55.7316 61.2124 55.742 61.2506 55.7621C61.2888 55.7822 61.3214 55.8115 61.3456 55.8472C61.6419 57.5855 61.4019 59.3728 60.6574 60.9713C60.197 61.9143 59.621 62.7963 58.9427 63.5969C60.223 63.0123 61.5322 62.4931 62.8653 62.0414C62.7158 60.5036 63.0084 58.955 63.7087 57.5777C64.9022 55.4135 67.1579 54.2439 67.6154 54.0251C67.6723 53.9953 67.7381 53.9874 67.8004 54.0027C67.8627 54.0181 67.9172 54.0558 67.9536 54.1087C68.2343 55.794 67.9266 57.5246 67.0823 59.01C66.5655 59.8708 65.9217 60.6487 65.1727 61.3174C66.585 60.8917 68.1525 60.47 70.0024 60.0165C69.8035 56.6428 71.7131 54.1962 74.7127 52.6685C74.758 52.6448 74.8089 52.6338 74.8599 52.6367C74.9192 52.6404 74.9754 52.664 75.0195 52.7037C75.0635 52.7435 75.0928 52.797 75.1026 52.8555C75.3204 54.432 75.0069 56.0362 74.2115 57.4146C73.7221 58.1919 73.1031 58.8795 72.3814 59.4476C74.0006 59.0696 75.6954 58.6797 77.4776 58.2541C77.2787 54.8327 79.069 52.5372 81.9214 50.5839C81.9584 50.563 81.9998 50.551 82.0422 50.5491C82.0847 50.5471 82.127 50.5552 82.1657 50.5726C82.2045 50.59 82.2385 50.6164 82.2652 50.6494C82.2919 50.6825 82.3104 50.7213 82.3193 50.7629C82.577 52.3912 82.3227 54.0594 81.5913 55.5369C81.1341 56.3609 80.527 57.0923 79.801 57.6931C81.2969 57.2953 82.5858 56.9452 83.7793 56.5752C83.6686 55.1792 83.9079 53.7776 84.4755 52.4974C85.2191 51.0373 86.2267 49.7276 87.4473 48.6345C87.4829 48.6006 87.527 48.577 87.575 48.5663C87.623 48.5555 87.673 48.5581 87.7196 48.5736C87.7662 48.5892 87.8077 48.6171 87.8397 48.6545C87.8716 48.6918 87.8928 48.7372 87.9009 48.7857C88.2061 50.402 88.056 52.0714 87.4672 53.6074C87.1067 54.4568 86.5867 55.2292 85.9356 55.883C87.2882 55.4016 88.5175 54.9043 89.6474 54.3712C89.3808 52.0519 89.9338 49.5336 92.1656 46.6254C92.1971 46.5837 92.24 46.5521 92.2892 46.5342C92.3383 46.5164 92.3915 46.5132 92.4424 46.525C92.4933 46.5367 92.5398 46.563 92.5761 46.6006C92.6124 46.6382 92.637 46.6855 92.647 46.7368C93.1522 49.0124 92.8857 51.475 91.541 53.4284C92.5543 52.8719 93.5309 52.2513 94.4651 51.5705C94.1031 49.3267 94.3616 46.7528 95.9888 43.3672C96.008 43.3165 96.0334 43.2684 96.0644 43.224C96.0961 43.1852 96.1383 43.1563 96.186 43.1407C96.2336 43.1252 96.2848 43.1236 96.3333 43.1361C96.3818 43.1487 96.4257 43.1749 96.4598 43.2116C96.494 43.2483 96.5169 43.294 96.5258 43.3433C97.0748 45.7502 97.1067 48.0736 96.1042 50.2895C96.9222 49.5703 97.6867 48.7924 98.3917 47.9622C97.8109 45.1773 98.2206 42.5556 98.9805 39.8464C98.9962 39.7904 99.0298 39.7412 99.0761 39.7061C99.1224 39.671 99.179 39.652 99.2371 39.652C99.2952 39.652 99.3517 39.671 99.398 39.7061C99.4444 39.7412 99.478 39.7904 99.4937 39.8464C100.098 41.8976 100.187 44.0662 99.7523 46.16C99.9034 45.9372 100.051 45.7104 100.194 45.4837C101.101 41.3542 103.13 38.6569 103.472 38.6569C103.509 38.6568 103.545 38.6643 103.579 38.6789C103.613 38.6935 103.643 38.7149 103.668 38.7418C103.693 38.7687 103.712 38.8005 103.724 38.8352C103.736 38.8699 103.741 38.9067 103.739 38.9433C103.739 41.5809 103.066 44.6602 100.799 46.0327C100.588 46.3669 100.369 46.6971 100.142 47.0193C100.573 46.8119 101.023 46.6493 101.487 46.534C102.915 46.1998 104.363 46.709 104.51 46.9318C104.531 46.9711 104.542 47.0147 104.542 47.0591C104.542 47.1034 104.531 47.1471 104.51 47.1864C103.825 48.1327 102.813 48.7906 101.67 49.0323C100.723 49.1785 99.7534 49.04 98.885 48.6345C98.1481 49.4868 97.3503 50.2846 96.498 51.0215C97.2511 50.829 98.0243 50.7262 98.8015 50.7151C100.048 50.6926 101.276 51.0147 102.35 51.6461C102.376 51.6866 102.389 51.7335 102.389 51.7814C102.389 51.8292 102.376 51.8761 102.35 51.9166C102.271 52.0757 100.667 53.2971 98.6065 53.2971C97.3141 53.2689 96.0476 52.9291 94.9146 52.3065C91.1352 55.0913 91.1273 53.8143 94.5168 54.1723C96.0692 54.3287 97.5656 54.8362 98.893 55.6562C98.9192 55.6972 98.9331 55.7448 98.9331 55.7935C98.9331 55.8421 98.9192 55.8898 98.893 55.9307C98.7657 56.1814 96.5378 57.0049 94.2105 56.6627C92.7414 56.4294 91.3303 55.9176 90.0531 55.155C85.12 57.4783 85.5775 56.1257 89.8065 56.981C91.7057 57.3538 93.5164 58.0857 95.1414 59.1373C95.1659 59.1789 95.1788 59.2262 95.1788 59.2745C95.1788 59.3228 95.1659 59.3702 95.1414 59.4118C95.0022 59.6783 93.2119 59.8812 92.1179 59.8812C89.2886 59.8216 86.5324 58.9713 84.1612 57.4266C83.0354 57.7806 81.826 58.1268 80.4375 58.4888C81.6687 58.5939 82.889 58.8015 84.0856 59.1094C86.1846 59.6495 88.1759 60.5442 89.9736 61.755C89.9989 61.7963 90.0123 61.8438 90.0123 61.8922C90.0123 61.9407 89.9989 61.9882 89.9736 62.0295C89.7945 62.3836 86.2499 62.4273 83.3815 61.6555C81.4126 61.0981 79.5361 60.255 77.8119 59.1532C76.2643 59.5271 74.8122 59.8613 73.014 60.283C74.2513 60.4102 75.4748 60.6471 76.6701 60.9911C78.8246 61.6051 80.8625 62.5717 82.7012 63.8516C82.7319 63.8906 82.7505 63.9378 82.7547 63.9872C82.759 64.0367 82.7487 64.0864 82.7251 64.13C82.6495 64.2812 82.6415 64.2931 81.7862 64.2931C77.7247 64.2926 73.7495 63.1214 70.3366 60.9195C68.5941 61.3452 67.0982 61.7431 65.7536 62.1409C69.4003 62.3892 72.9122 63.618 75.9182 65.6975C75.956 65.7211 75.9872 65.7539 76.0088 65.7929C76.0304 65.8319 76.0418 65.8757 76.0418 65.9203C76.0418 65.9649 76.0304 66.0087 76.0088 66.0477C75.9872 66.0866 75.956 66.1195 75.9182 66.1431C75.7073 66.2664 72.1706 66.2704 68.968 65.419C66.9539 64.8735 65.0287 64.0415 63.2512 62.9485C61.8031 63.4418 60.3749 64.0027 59.4599 64.4125C60.7325 64.3596 62.0064 64.4787 63.2472 64.7666C65.4098 65.2952 67.464 66.1958 69.3181 67.4281C69.3651 67.4538 69.4029 67.4935 69.4263 67.5417C69.4497 67.5899 69.4576 67.6441 69.4488 67.6969C69.4401 67.7498 69.4152 67.7986 69.3776 67.8367C69.3399 67.8747 69.2913 67.9002 69.2386 67.9094C67.9044 68.2575 66.5316 68.4353 65.1528 68.4386C62.2293 68.472 59.3922 67.4476 57.1644 65.5543C51.0497 68.8643 47.314 73.5746 45.4044 80.3656C45.3912 80.4138 45.3645 80.4573 45.3274 80.4908C45.2903 80.5244 45.2444 80.5467 45.1951 80.555C45.1458 80.5634 45.0951 80.5575 45.049 80.538C45.0029 80.5185 44.9634 80.4863 44.935 80.4451L44.6525 80.0473C44.6437 79.9984 44.6492 79.9481 44.6682 79.9022C44.6873 79.8563 44.7191 79.8169 44.76 79.7887Z" fill="#F67A45"/>
  </g>
  <defs>
    <clipPath id="clip0_1994_5648">
      <rect width="103.906" height="80" fill="white" transform="translate(0.667969 0.520752)"/>
    </clipPath>
  </defs>
</svg>