<svg xmlns="http://www.w3.org/2000/svg" width="102" height="81" viewBox="0 0 102 81" fill="none">
  <g clip-path="url(#clip0_1994_5822)">
    <path d="M28.6162 40.3767C28.7468 40.3767 28.6973 40.7684 28.7468 30.1381L27.5041 30.0705C27.5041 29.5122 27.5041 28.8684 27.5311 28.2695C33.4339 28.1705 35.4149 28.1434 36.8467 28.8053C37.3593 29.0473 37.7971 29.423 38.114 29.8929C38.431 30.3628 38.6153 30.9094 38.6477 31.4753C38.6477 32.9341 37.5221 34.0687 36.1444 34.5775V34.7486C40.7684 35.5455 40.8855 42.2587 33.4429 42.2272C32.2857 42.2272 33.1322 42.2272 27.4141 42.1777C27.4141 41.6239 27.414 40.98 27.441 40.4217L28.6162 40.3767ZM32.2182 39.967C32.2182 40.4397 32.6685 40.5478 33.1592 40.5523C36.5856 40.5523 36.338 36.0138 32.8351 35.9958C32.6431 35.9841 32.4507 35.9841 32.2587 35.9958L32.2182 39.967ZM32.2857 34.2533C32.4648 34.2766 32.6455 34.2856 32.826 34.2803C35.9778 34.2803 35.7752 29.9355 33.0602 29.922C32.8138 29.9098 32.567 29.931 32.3263 29.985L32.2857 34.2533Z" fill="#F67A45"/>
    <path d="M42.2228 40.3947C42.3579 40.3947 42.3083 40.8854 42.3579 30.2235L41.1332 30.174C41.1332 29.5527 41.1332 28.9043 41.1648 28.328C51.7951 28.382 50.2282 28.328 51.1242 28.328C51.2053 29.5932 51.2638 30.8854 51.2998 32.1506C50.6785 32.2136 49.9491 32.2947 49.2152 32.3577L48.8775 30.7233C48.837 30.5297 48.7514 30.3991 48.4273 30.3541C47.609 30.2513 46.7845 30.2046 45.9598 30.2145V34.2667C46.6262 34.2667 47.2296 34.2668 47.8284 34.2352C47.959 34.2352 48.0895 34.0867 48.112 33.83L48.2426 33.0331C48.9315 33.0331 49.6384 33.0331 50.2597 33.0646C50.2597 33.5464 50.2012 36.6306 50.1967 37.4005C49.5754 37.4005 48.846 37.459 48.1796 37.4545C48.0895 36.5225 48.1121 36.1443 47.7564 36.1443C47.1576 36.1173 46.5542 36.0948 45.9554 36.0948V39.8948C45.9554 40.3001 46.104 40.3451 47.0675 40.3451C47.6367 40.3609 48.206 40.3141 48.7649 40.2055C48.8625 40.1854 48.9524 40.1386 49.0248 40.0702C49.0972 40.0018 49.1491 39.9146 49.1746 39.8183L49.805 38.1074C50.5344 38.2154 51.2638 38.3505 51.9077 38.5036C51.6465 39.7463 51.3808 41.0115 51.0972 42.2767C49.6744 42.2406 41.8852 42.2136 41.1152 42.2091C41.1152 41.6328 41.1422 40.9844 41.1422 40.4081L42.2228 40.3947Z" fill="#F67A45"/>
    <path d="M56.5226 40.0525C56.9372 40.3388 57.4329 40.484 57.9364 40.4667C59.053 40.4667 59.9355 40.0164 59.94 38.8863C59.9445 37.7562 59.4132 37.5986 57.7608 36.9683C55.5951 36.1443 53.9292 34.8251 53.9382 32.7225C53.9434 32.1164 54.0774 31.5184 54.3312 30.9681C54.5851 30.4177 54.953 29.9276 55.4105 29.5302C57.3916 27.7292 61.6824 28.0579 62.8441 28.5982C62.9656 29.8859 63.0467 31.2141 63.1277 32.5064C62.4613 32.6099 61.6644 32.6909 60.935 32.7765L60.4488 30.7774C60.2011 30.0164 57.4276 29.9309 57.4186 31.8805C57.4186 32.9521 57.8688 33.1682 59.8589 33.8661C62.2137 34.6901 63.4609 35.8967 63.4609 37.9183C63.4694 38.5738 63.3292 39.2226 63.0508 39.8161C62.7724 40.4096 62.363 40.9323 61.8535 41.3447C60.7999 42.1552 59.4042 42.5558 57.297 42.5468C56.1868 42.558 55.0809 42.4063 54.0147 42.0966C53.8526 40.7459 53.704 39.3951 53.5645 38.1029C54.2533 37.9543 55.0908 37.8103 55.8157 37.7247C56.437 40.0165 56.3965 39.9715 56.5226 40.0525Z" fill="#F67A45"/>
    <path d="M69.2512 40.4757C69.3502 40.4757 69.3142 41.016 69.3592 30.3857C68.8635 30.3763 68.3679 30.4095 67.8779 30.4848C67.7723 30.4939 67.6733 30.54 67.5984 30.6149C67.5234 30.6899 67.4773 30.7888 67.4682 30.8944L67.054 32.9746C66.3246 32.907 65.4871 32.8395 64.8027 32.772C64.8973 31.3087 64.9873 29.8499 65.0819 28.4136C65.3836 28.4136 62.8756 28.4136 77.3826 28.4676C77.4592 29.9084 77.5402 31.3672 77.5537 32.808C76.8693 32.889 76.0319 32.9476 75.3025 33.0106L74.9693 30.9485C74.9602 30.8429 74.9141 30.7439 74.8391 30.6689C74.7642 30.594 74.6652 30.5479 74.5596 30.5388C74.0667 30.4368 73.563 30.3975 73.0603 30.4217L72.9702 40.4892L74.5146 40.5613C74.5146 41.1646 74.5146 41.786 74.4876 42.4073C73.5871 42.4073 72.2768 42.3758 71.1602 42.3713C70.1292 42.3713 68.8595 42.3713 67.7879 42.3713C67.7879 41.7499 67.7879 41.1241 67.8194 40.5252L69.2512 40.4757Z" fill="#F67A45"/>
    <path d="M19.6996 33.2448L20.2894 34.4649L21.6311 34.663L20.6541 35.6086L20.8792 36.9413L19.6816 36.3064L18.4794 36.9323L18.7135 35.5995L17.75 34.645L19.0917 34.4604L19.6996 33.2448Z" fill="#F67A45"/>
    <path d="M83.0902 33.4609L83.6845 34.6765L85.0263 34.8792L84.0492 35.8202L84.2743 37.1574L83.0767 36.5226L81.8745 37.1484L82.1087 35.8157L81.1406 34.8611L82.4869 34.672L83.0902 33.4609Z" fill="#F67A45"/>
    <path d="M27.282 14.4784L27.1424 14.6721L26.1023 14.0912C25.8635 14.2331 25.6466 14.409 25.4585 14.6135C23.8601 16.32 26.359 18.6657 27.8088 18.8188C28.1755 18.8545 28.5445 18.7818 28.8703 18.6098C29.196 18.4377 29.4641 18.1738 29.6413 17.8508C28.2365 16.5316 28.2906 16.5406 28.1555 16.6126L27.6467 16.9143L27.4846 16.7792C27.9844 16.2749 28.7273 15.487 29.2046 14.9467L29.3757 15.0727C29.038 15.7121 29.02 15.568 29.3757 15.9327C30.7264 17.2069 30.6048 17.0494 30.6048 17.1349C29.2541 19.4897 27.0029 20.7369 25.1253 18.9629C23.2478 17.1889 24.1123 14.7981 26.35 13.2988C26.4401 13.2808 26.3275 13.1502 27.282 14.4784Z" fill="#F67A45"/>
    <path d="M27.8594 11.7769C28.5392 11.3267 29.3767 10.7504 29.9711 10.3091L30.1106 10.4712L29.7549 10.9215C29.6513 11.034 29.5838 10.8809 31.4433 13.5554C32.1367 14.5594 32.7941 15.0773 33.7846 14.3794C34.7752 13.6815 34.5771 12.8621 33.9107 11.9075C32.56 9.96696 32.5194 9.8949 32.3483 9.65626C32.0512 9.25104 32.2043 9.28257 31.4884 9.5257L31.3488 9.35461C31.9161 8.9854 32.2808 8.73777 32.9156 8.26501L33.0553 8.4271L32.6815 8.87734C32.5915 8.98991 32.5239 8.84582 34.2754 11.3717C35.2389 12.7585 35.302 13.9291 33.9107 14.8972C32.5195 15.8652 31.3893 15.6626 30.4213 14.2713C28.5798 11.6104 28.6788 11.7094 28.5438 11.7499L27.99 11.939L27.8594 11.7769Z" fill="#F67A45"/>
    <path d="M36.6617 10.9259C36.7563 12.7269 36.6392 12.5063 37.4001 12.4073L37.4992 12.6009C36.7562 12.907 36.342 13.0917 35.7657 13.3618L35.6621 13.1817C36.0493 12.8485 36.1394 12.7945 36.1709 12.6414C36.2024 12.4883 36.198 12.5423 36.0494 6.78817L36.4366 6.54504C40.5248 10.8809 40.3627 10.8494 40.7544 10.7909L41.1776 10.7368L41.2722 10.9259C40.6464 11.1871 39.8719 11.5248 38.8814 11.9795L38.7778 11.7949C39.3722 11.2952 39.4622 11.5383 38.2331 10.2236L36.6617 10.9259ZM36.5221 8.36403C36.5536 8.78727 36.5581 8.87733 36.6392 10.4577L37.9179 9.89489C37.0624 8.96738 36.7562 8.62518 36.5221 8.36403Z" fill="#F67A45"/>
    <path d="M43.0826 10.021C43.1276 10.1966 43.1951 10.1606 43.6679 10.2056L43.7264 10.4037C43.0285 10.5433 42.011 10.7774 41.3311 10.944L41.2636 10.7459C41.7678 10.4757 41.8804 10.4577 41.8624 10.2956C41.8084 10.039 41.7723 9.84537 41.6868 9.48517C40.7278 5.24834 40.8133 5.43294 40.6648 5.43294L40.0839 5.39694L40.0254 5.18982C42.2316 4.73957 43.3302 4.21279 44.2802 4.57749C44.4538 4.66084 44.609 4.77816 44.7366 4.92251C44.8641 5.06686 44.9613 5.23531 45.0226 5.41791C45.0839 5.60051 45.1079 5.79356 45.0933 5.98561C45.0787 6.17766 45.0258 6.36482 44.9376 6.53605C44.7444 6.86775 44.4641 7.14024 44.1271 7.32399C45.9912 9.07995 45.9641 9.48967 46.8691 9.45816L46.9322 9.66528C46.4565 9.84625 45.9579 9.95991 45.4508 10.003C44.78 9.93993 44.4333 9.28257 43.0646 7.89581C42.916 7.74723 42.8034 7.79225 42.5918 7.83728C43.0015 9.6968 42.97 9.57072 43.0826 10.021ZM42.5108 7.51759C42.961 7.44105 43.4608 7.3465 43.6859 6.95929C43.8057 6.65395 43.8324 6.31998 43.7627 5.99949C43.693 5.67899 43.53 5.3863 43.2942 5.1583C42.9205 4.90616 42.3937 5.05025 41.9885 5.19883L42.5108 7.51759Z" fill="#F67A45"/>
    <path d="M48.1207 7.83725C47.5354 9.53919 47.5039 9.29154 48.2468 9.48514V9.70128C47.5309 9.70128 47.0581 9.70128 46.3557 9.75531L46.3242 9.54819C46.7745 9.3951 46.9095 9.37709 46.9996 9.24202C47.0896 9.10695 47.0626 9.16998 49.0933 3.78502L49.5435 3.70398C51.7227 9.33208 51.5606 9.16547 51.9388 9.26453L52.353 9.37709V9.58421C51.5246 9.58421 50.552 9.62022 49.7416 9.66075L49.7146 9.44914C50.453 9.21051 50.4485 9.44914 49.8001 7.78773L48.1207 7.83725ZM48.9582 5.41041C48.8411 5.77961 48.8276 5.80664 48.2783 7.39602L49.674 7.35548C49.2508 6.21635 49.0797 5.7616 48.9582 5.41041Z" fill="#F67A45"/>
    <path d="M53.6181 9.27807C53.6181 9.44016 53.6856 9.43566 54.1989 9.67429V9.8904C53.4605 9.74632 53.1769 9.69679 52.3574 9.57522V9.36813C52.8707 9.3141 53.0373 9.34111 53.0688 9.20154C53.1678 8.69276 53.1589 8.71524 53.7757 5.09525C53.8928 4.42438 53.9378 4.32083 53.8072 4.2578L53.2849 4.00115V3.78955C53.8927 3.91112 54.3205 3.99216 54.9373 4.0687C56.9725 7.75623 57.1886 8.15696 57.3597 8.46763C57.8099 5.20784 58.053 5.04574 57.8099 4.93768L57.3056 4.70354L57.3326 4.48292C58.071 4.6315 58.4538 4.69454 59.1742 4.79359V5.0097C58.5799 5.07724 58.4988 5.04574 58.4673 5.19432C58.3907 5.55002 58.4132 5.43295 57.5668 10.4577L57.085 10.4217C54.4331 5.62655 54.5411 5.83367 54.271 5.30238C54.1809 5.99576 53.7261 8.53516 53.6181 9.27807Z" fill="#F67A45"/>
    <path d="M59.3633 11.0521L59.4218 10.8495C60.1107 10.917 60.2007 10.962 60.2593 10.827C60.4394 10.3767 60.633 9.87243 62.0017 6.25695L60.8761 5.8067L60.1242 6.70719L59.8901 6.65767L60.3403 5.15834C60.4439 5.10431 61.0697 5.47802 65.1625 6.95933C65.1625 7.01786 65.2615 6.85577 64.3745 8.31007L64.1404 8.26055L64.298 7.08541L63.1679 6.65767C61.2769 11.6464 61.3669 11.2952 61.4975 11.3988L62.0468 11.804L61.9838 12.0021C61.1148 11.7004 60.2638 11.3763 59.3633 11.0521Z" fill="#F67A45"/>
    <path d="M69.9089 9.7058C69.9089 9.76884 70.0214 9.63375 69.0084 10.8179L68.7968 10.7324L69.0849 9.7193L67.6936 8.89533L66.559 10.8044C66.8787 10.9935 67.0768 11.1106 67.4325 11.3132C67.5676 11.3852 67.6036 11.3132 68.0358 10.8629L68.279 10.9935C67.8648 11.6644 67.7567 11.8354 67.3785 12.5423L67.1308 12.4208C67.2839 11.8715 67.3605 11.7454 67.2434 11.6689C66.8652 11.4347 66.6266 11.2907 66.3744 11.1421C65.7261 12.2362 65.51 12.6009 65.1858 13.1637L66.6266 14.0192L67.6396 13.3393L67.8783 13.4383L66.9778 14.7306C66.8832 14.7576 65.2533 13.6905 63.2812 12.5784L63.3713 12.3848L63.9296 12.5378C64.0647 12.5738 64.0782 12.5108 64.2898 12.1686C64.3303 12.0966 66.3024 8.79178 66.568 8.30551C66.6401 8.17494 66.5681 8.15245 66.1538 7.7067L66.2529 7.51758C67.1849 8.12991 69.184 9.29157 69.9089 9.7058Z" fill="#F67A45"/>
    <path d="M74.5093 13.4113C74.5093 13.4744 74.6309 13.3528 73.4107 14.3478L73.2171 14.2262L73.6673 13.2807L72.4291 12.2317L70.9929 13.9291C71.281 14.1678 71.3981 14.2713 71.7673 14.5729C71.8889 14.6675 71.9384 14.5729 72.4336 14.2398L72.6543 14.4064C72.0914 15.0412 71.9699 15.1943 71.4881 15.7841L71.263 15.6221C71.5151 15.0953 71.6097 14.9917 71.5062 14.8972C71.182 14.609 70.9613 14.4469 70.7362 14.2353C70.0248 15.0682 69.6331 15.5275 69.2234 16.0363L70.5021 17.1169L71.6142 16.6216L71.8348 16.7567L70.7452 17.8868C70.6552 17.8868 69.1153 16.4865 67.4629 15.1403L67.58 14.9692L68.1113 15.2123C68.2328 15.2708 68.2598 15.2123 68.5255 14.9061C68.593 14.8251 71.1414 11.8309 71.4206 11.4797C71.5106 11.3672 71.4566 11.3447 71.1099 10.8224L71.2405 10.6513C72.0419 11.3762 73.6583 12.7134 74.5093 13.4113Z" fill="#F67A45"/>
    <path d="M71.2227 18.2785L71.3712 18.1299C71.8215 18.4496 71.9025 18.5802 72.015 18.4811C72.1276 18.3821 72.4653 18.1434 72.6679 17.9678C75.8197 15.3969 75.9277 15.46 75.8557 15.2664L75.6351 14.7261L75.7926 14.582C77.2424 16.518 78.5752 17.5356 78.5302 19.0394C78.5034 19.4074 78.3944 19.7646 78.2113 20.0849C78.0282 20.4051 77.7756 20.6802 77.4721 20.8899C77.1465 21.1843 76.7638 21.4085 76.3479 21.5487C75.9319 21.6889 75.4916 21.7421 75.0542 21.7049C73.3928 21.5203 72.704 20.0525 71.2227 18.2785ZM72.758 19.4987C73.6585 21.1916 74.8876 21.1736 76.3599 19.9804C77.5036 19.0799 78.0664 18.0894 77.1524 16.9503C77.0038 16.7657 76.8372 16.5721 76.6526 16.3785L72.758 19.4987Z" fill="#F67A45"/>
    <path d="M38.3325 55.8472L38.1119 55.7796L38.373 54.564C38.1055 54.2674 37.7505 54.0638 37.3594 53.9828C36.9683 53.9018 36.5616 53.9477 36.1983 54.1137C35.1718 54.6315 34.3073 56.2479 34.5865 57.468C34.8341 58.5351 35.8607 59.0754 36.9503 59.206L36.8917 59.4401C34.708 59.7193 32.2631 57.6391 33.5914 55.0367C34.5594 53.1367 36.7431 52.5739 39.2375 54.618C39.242 54.69 39.3411 54.5505 38.3325 55.8472Z" fill="#F67A45"/>
    <path d="M40.6284 58.1524C40.2187 59.6383 40.1106 60.0255 40.0071 60.4442C39.9756 60.5883 40.0431 60.5973 40.5024 60.8944L40.4618 61.0971C39.791 60.8945 38.7374 60.6108 38.0215 60.4307L38.0575 60.2236C38.5978 60.2236 38.7374 60.2596 38.7779 60.1245C38.9085 59.7058 39.9306 55.9777 40.0656 55.4374C40.0971 55.3024 40.0656 55.3024 39.5073 54.9872L39.5523 54.7801C40.3673 55.0277 41.3759 55.3024 41.9837 55.4464L41.9522 55.6581H41.4254C41.2633 55.6581 41.3128 55.631 40.7365 57.7427L43.1409 58.4001C43.483 57.1394 43.5911 56.7927 43.6766 56.41C43.7036 56.2839 43.6361 56.2749 43.1723 55.9867L43.2129 55.7796C43.8297 55.9687 44.8248 56.2299 45.6532 56.4505L45.6172 56.6576C44.9959 56.6576 44.9373 56.6576 44.8923 56.7747C44.7752 57.1394 43.7351 60.9395 43.6091 61.4572C43.5821 61.6013 43.7126 61.6328 44.1674 61.9075L44.1269 62.1101C43.501 61.9255 42.3844 61.6149 41.6865 61.4438L41.7226 61.2366H42.2448C42.4069 61.2366 42.3529 61.2862 43.0238 58.8368L40.6284 58.1524Z" fill="#F67A45"/>
    <path d="M52.1453 59.5032C52.0687 61.3762 50.8755 62.6549 48.7864 62.5783C46.8278 62.4973 45.7967 61.2726 45.8688 59.4266C45.9408 57.5806 47.125 56.3425 49.2186 56.428C51.2132 56.5361 52.2308 57.7427 52.1453 59.5032ZM47.278 59.3591C47.2195 60.7594 47.5527 62.1281 48.9439 62.1821C50.3352 62.2362 50.6774 60.9755 50.7449 59.5842C50.8125 58.193 50.4793 56.8828 49.07 56.8287C47.6607 56.7747 47.3321 57.9903 47.278 59.3726V59.3591Z" fill="#F67A45"/>
    <path d="M55.1307 60.8179C55.1307 61.025 55.2073 61.4347 55.2388 61.6373C55.2388 61.7679 55.3513 61.7589 55.9276 61.8444L55.9637 62.0516C55.1352 62.1371 54.1086 62.2677 53.3927 62.3713L53.3477 62.1642C53.8745 61.948 53.9826 61.9435 53.9781 61.7994C53.9195 61.2051 53.4648 57.5446 53.3838 56.9773C53.3838 56.8377 53.3117 56.8602 52.6904 56.7612L52.6543 56.5495C53.3747 56.482 54.3923 56.3604 55.2252 56.2344L55.2703 56.4415L54.7345 56.6621C54.5904 56.7161 54.5949 56.4865 55.1307 60.8179Z" fill="#F67A45"/>
    <path d="M60.574 56.5316L60.3624 56.6261L59.7411 55.5545C59.3434 55.5154 58.9437 55.6038 58.5997 55.807C58.2556 56.0102 57.9852 56.3175 57.8275 56.6846C57.4133 57.7697 57.868 59.5392 58.8901 60.2506C59.7906 60.8764 60.9117 60.5793 61.8077 59.9444L61.9248 60.1605C60.4705 61.8625 57.2782 61.912 56.5218 59.1205C55.9545 57.0403 57.2556 55.1583 60.4209 55.0142C60.4659 55.0637 60.4389 54.8836 60.574 56.5316Z" fill="#F67A45"/>
    <path d="M64.6255 52.9656C64.684 52.9926 64.6255 52.8395 65.0217 54.3568L64.8326 54.4829L64.1572 53.677L62.6939 54.3658L63.6394 56.374C63.9771 56.2164 64.1482 56.1354 64.5399 55.9237C64.684 55.8517 64.612 55.7256 64.5129 55.1808L64.756 55.0502C65.0667 55.7526 65.1793 55.9867 65.526 56.6801L65.2828 56.8197C64.9136 56.3695 64.8326 56.2479 64.7245 56.3019C64.3238 56.4775 64.0491 56.6081 63.824 56.7251C64.5444 58.2515 64.5714 58.3145 64.8326 58.8458L66.3454 58.1299V56.9098L66.557 56.7702L67.1333 58.229C67.1018 58.3145 65.1162 59.1565 63.2747 60.075L63.1667 59.8949C63.7835 59.3681 63.7385 59.5257 63.5044 58.9944C63.4188 58.8188 61.7844 55.3249 61.5863 54.9422C61.5188 54.8116 61.4783 54.8521 60.8614 54.9422L60.7578 54.753C61.7664 54.3478 63.6349 53.4518 64.6255 52.9656Z" fill="#F67A45"/>
    <path d="M46.1439 72.9386C44.042 73.0934 41.9297 73.0315 39.8405 72.754L37.8369 65.2529L34.1313 64.5775L36.1214 72.0336C34.3092 71.5689 32.5406 70.9482 30.8355 70.1785L30.6194 62.3938L27.193 60.6513L27.4091 68.4001C25.7639 67.4186 24.1996 66.3075 22.731 65.0773L24.3024 57.5176L21.3893 54.8161L19.8225 62.3577C18.4551 60.9376 17.1954 59.4176 16.0539 57.8103L19.3137 50.944L17.1165 47.5041L13.8612 54.3568C12.8592 52.5904 11.9879 50.753 11.2542 48.8593L15.9999 43.1547L14.6491 39.188L9.92152 44.8701C9.35595 42.8746 8.93907 40.8399 8.67432 38.7828L14.5635 34.6585L14.1853 30.4352L8.33213 34.5504C8.2523 32.4638 8.31702 30.3742 8.52576 28.2965L15.1624 26.0453L15.7612 21.8535L9.15156 24.1047C9.55037 22.0764 10.0905 20.0784 10.768 18.1254L17.6928 17.8823L19.2326 14.0101L12.3303 14.2533C12.9332 12.9438 13.6035 11.6664 14.3384 10.4262L18.7644 10.4847L20.4213 0.502747L12.2898 4.83413L13.42 9.48967C12.6004 10.8526 11.8592 12.2612 11.2002 13.7085L6.74725 7.67068L5.20744 11.5428L9.64687 17.5581C8.92424 19.6302 8.35242 21.7519 7.93591 23.9066L2.25379 19.3951L1.65047 23.5869L7.32358 28.0894C7.09692 30.2909 7.02772 32.5057 7.11648 34.717L0.587891 32.0155L0.97059 36.2389L7.47665 38.9404C7.75779 41.1252 8.20027 43.2863 8.8004 45.4059L1.87559 44.6945L3.22634 48.6612L10.1286 49.3726C10.9054 51.3888 11.8294 53.3452 12.8931 55.2258L6.04038 56.5766L8.23309 60.0165L15.0678 58.6657C16.2729 60.3845 17.6113 62.0059 19.0705 63.5149L12.7671 66.8107L15.6757 69.5122L21.9792 66.2254C23.5335 67.5404 25.1997 68.717 26.9589 69.7418L21.6189 74.7666L25.0453 76.509L30.3762 71.4888C32.1867 72.2964 34.0638 72.9457 35.9864 73.4294L31.9791 79.8499L35.6847 80.5297L39.6784 74.1317C41.863 74.4236 44.072 74.4885 46.27 74.3254L46.1439 72.9386Z" fill="#F67A45"/>
    <path d="M56.0676 72.9386C58.1696 73.0934 60.2818 73.0316 62.3711 72.754L64.3747 65.2529L68.0802 64.5775L66.0902 72.0336C67.9036 71.5682 69.6736 70.9475 71.3806 70.1785L71.5922 62.3938L75.0185 60.6513L74.8069 68.4001C76.4507 67.4186 78.0136 66.3075 79.4805 65.0773L77.9137 57.5176L80.8222 54.8161L82.3891 62.3577C83.7578 60.9387 85.0175 59.4186 86.1577 57.8103L82.8979 50.944L85.0951 47.5041L88.3504 54.3568C89.3523 52.5904 90.2236 50.753 90.9573 48.8593L86.2117 43.1547L87.5624 39.188L92.2855 44.8701C92.8525 42.875 93.2694 40.8402 93.5327 38.7828L87.6435 34.6585L88.0217 30.4352L93.8749 34.5504C93.951 32.4637 93.8848 30.3742 93.6768 28.2965L87.0446 26.0453L86.4413 21.8535L93.051 24.1047C92.6537 22.0765 92.115 20.0785 91.4391 18.1254L84.5098 17.8823L82.9699 14.0101L89.8767 14.2533C89.2723 12.9438 88.6005 11.6663 87.8641 10.4262L83.4382 10.4847L81.7813 0.502747L89.9127 4.83413L88.7826 9.48967C89.6022 10.8526 90.3433 12.2612 91.0023 13.7085L95.4553 7.67068L96.9952 11.5428L92.5557 17.5581C93.2784 19.6302 93.8501 21.7519 94.2666 23.9066L99.9533 19.3771L100.557 23.5689L94.888 28.0714C95.1102 30.2731 95.1793 32.4877 95.0951 34.6991L101.619 31.9976L101.241 36.2209L94.7304 38.9224C94.4507 41.1075 94.0082 43.2687 93.4067 45.3879L100.331 44.6765L98.9807 48.6432L92.0784 49.3546C91.3017 51.3708 90.3776 53.3271 89.3139 55.2078L96.1712 56.5586L93.974 59.9985L87.1392 58.6477C85.9342 60.3665 84.5958 61.9879 83.1365 63.4969L89.44 66.7927L86.5269 69.4942L80.2234 66.2074C78.6765 67.5195 77.0195 68.6959 75.2707 69.7238L80.6106 74.7486L77.1843 76.491L71.8488 71.4708C70.0386 72.2791 68.1615 72.9284 66.2387 73.4113L70.2459 79.8319L66.5404 80.5118L62.5467 74.1137C60.3621 74.4055 58.1531 74.4704 55.9551 74.3073L56.0676 72.9386Z" fill="#F67A45"/>
  </g>
  <defs>
    <clipPath id="clip0_1994_5822">
      <rect width="101.058" height="80" fill="white" transform="translate(0.574219 0.520752)"/>
    </clipPath>
  </defs>
</svg>