<svg xmlns="http://www.w3.org/2000/svg" width="121" height="81" viewBox="0 0 121 81" fill="none">
  <g clip-path="url(#clip0_1994_5690)">
    <path d="M32.7738 33.4499C30.0877 34.7147 28.7165 37.1337 30.2156 39.5446C30.5533 40.089 30.9729 39.8802 30.845 39.4177C30.0621 36.8636 30.9882 34.6983 33.4031 33.6873C35.9613 34.5305 39.2153 34.42 41.6763 33.7405C47.816 36.1186 47.9183 43.826 40.5917 48.2506C37.133 50.3504 32.8608 50.6615 31.6277 47.2233C30.0058 42.5489 36.9488 34.8334 41.0624 35.8403C41.4052 35.9263 41.6661 35.7134 41.2722 35.5456C36.1097 33.2207 27.596 41.6853 30.5021 47.477C32.2315 50.9767 37.2097 50.7515 40.6428 48.9669C48.2253 44.968 50.3179 35.8362 43.2931 33.1757C47.3504 31.4197 49.177 27.916 50.4561 25.1C52.2203 25.228 53.9971 25.1937 55.7515 24.9976C56.565 24.8298 56.5906 24.5351 55.7004 24.5883C54.0564 24.6443 52.4094 24.6019 50.7733 24.4614C51.5049 23.0984 52.5794 20.5811 54.2576 19.0503C54.7692 19.2181 57.3274 20.4543 60.3973 20.8554C62.1829 21.0642 63.5694 20.4461 63.728 19.5743C63.8866 19.0503 63.6206 18.8007 63.2573 19.4719C62.234 21.1706 56.4167 19.4064 54.6617 18.6738C54.8506 18.4959 55.0974 18.3635 55.3747 18.2913C55.652 18.219 55.949 18.2097 56.2325 18.2645C56.8107 18.7884 56.913 17.9288 56.2325 17.761C55.8265 17.6807 55.3997 17.6998 55.0074 17.8158C54.6151 17.9319 54.2755 18.1395 54.0324 18.4118C51.848 17.3312 49.4828 16.5043 47.0076 15.9559C38.3865 14.0076 33.8789 20.8677 38.2279 22.8324C40.3256 23.7983 43.6257 23.0452 44.3676 21.0109C44.6797 20.2537 43.948 20.6344 43.9224 21.0928C43.9224 21.6822 41.0931 23.6715 38.4428 22.3535C36.0585 21.1583 39.3893 15.8945 46.542 16.7541C49.1002 17.0488 51.4436 17.8674 53.6692 18.7474C52.1556 20.4614 50.8825 22.3035 49.8728 24.2404C47.3555 23.8843 44.5774 23.7983 43.3699 25.935C43.242 26.1683 43.4773 26.463 43.7894 26.1273C45.0225 24.6988 48.5067 25.014 49.5044 25.014C47.6779 28.3663 44.9508 31.3543 41.3182 32.6272C39.0034 32.2775 36.619 32.3587 34.3497 32.8646C31.331 32.046 28.6551 29.9749 29.3663 26.7986C29.4683 26.3018 29.7007 25.8279 30.0481 25.4081C30.3956 24.9884 30.8502 24.6323 31.3821 24.3632C32.1701 23.9252 32.7226 23.6101 31.8938 23.8188C31.2708 24.0055 30.705 24.2968 30.2346 24.6731C29.7642 25.0494 29.4001 25.5021 29.1668 26.0005C27.8416 29.2913 29.4839 32.1156 32.7738 33.4499ZM39.3637 33.147C38.0915 33.3597 36.7782 33.3597 35.506 33.147C36.7834 32.9794 38.0863 32.9794 39.3637 33.147Z" fill="#F67A45"/>
    <path d="M62.8537 27.5272C62.117 28.6978 61.2523 29.983 60.3877 30.6911C60.078 30.9461 59.6552 31.0932 59.2109 31.1004C58.4741 31.0595 58.423 30.4742 58.6583 29.7825C58.6993 29.672 58.3104 30.4087 61.0681 25.2514C61.5798 24.3755 60.9811 24.5105 59.0778 24.5392C59.2132 24.6551 59.3084 24.7972 59.3541 24.9515C59.3999 25.1058 59.3946 25.267 59.3388 25.4192L57.6606 28.837C57.1131 29.9298 57.1131 31.563 59.0778 31.563C60.71 31.563 61.6821 29.6187 60.3621 31.7103C60.6402 31.6074 60.9469 31.5637 61.2523 31.5834C61.8049 31.5834 62.0402 31.5834 62.2756 31.2683C63.744 28.9434 65.0282 27.7686 65.9185 27.1178C67.9343 25.6075 68.405 26.1764 67.7757 26.991C67.1931 27.6787 66.7107 28.4176 66.338 29.1931C65.5501 31.1455 66.8087 31.6489 67.7246 31.6489C69.0651 31.6489 70.1856 30.4742 71.0144 29.3117C70.774 31.9191 74.4117 32.3652 76.4582 30.5397C76.6936 31.1291 77.3588 31.6366 78.6788 31.6366C79.051 31.6234 79.4163 31.5511 79.7532 31.4238C81.8714 31.9354 83.2784 30.642 84.2659 29.2258C84.2659 29.279 84.2403 29.3363 84.2352 29.3936C83.8412 31.698 86.4352 32.0542 87.8525 30.9654C88.8195 30.1877 89.2646 29.6228 90.4107 27.6909C90.6767 27.2816 90.2828 27.1874 90.073 27.564C89.367 28.6937 88.5023 30.0199 87.2948 30.728C86.4301 31.2314 85.2482 31.0431 85.6166 29.6392C85.6166 29.6392 85.985 28.047 86.2204 27.4985C87.5999 26.4978 88.7754 25.3308 89.7046 24.0398H91.2395C91.5005 24.0398 91.5567 23.5814 91.2907 23.5814H90.0372C90.426 22.992 90.7944 22.4067 91.1628 21.7763C93.1019 18.4241 90.2725 18.068 88.4613 20.6016C87.8064 21.5021 87.1515 22.5335 86.5478 23.5814H84.977C84.6905 23.5814 84.6343 24.0398 84.9259 24.0398H86.2869C85.665 25.2505 85.1303 26.4886 84.6854 27.7482C83.7645 29.1971 82.5109 31.3993 80.5513 31.17H80.3672C80.8674 30.9111 81.2921 30.5691 81.6126 30.1672C81.9331 29.7654 82.1417 29.3131 82.2244 28.8411C82.2807 27.9201 81.7128 27.1629 81.283 26.3852C80.449 24.7848 81.283 23.3031 82.6695 23.741C83.391 24.0316 83.1812 23.1311 81.81 23.2826C80.8891 23.3849 80.1063 24.2649 79.6304 25.0835C79.0779 26.0577 78.2132 27.4535 77.3792 28.7101C76.8011 28.7101 76.3559 29.3568 76.3559 30.028C75.6652 30.7034 74.821 31.2273 73.7312 31.2273C72.0019 31.2273 72.447 29.1112 72.841 28.3621C73.9906 28.2608 75.0945 27.9454 76.0643 27.4412C77.7425 26.4138 78.4997 24.9853 77.502 24.3795C76.3508 23.6878 74.3605 24.486 73.0251 25.7426C72.3162 26.4181 71.7619 27.1885 71.3879 28.0183C70.6665 29.148 69.2697 31.1741 68.0981 31.1741C66.292 31.1741 69.9195 25.98 70.82 24.7152C69.9298 24.4655 67.2385 25.7835 65.9747 26.6881C65.1851 27.2657 64.4577 27.8955 63.8003 28.5709C64.7417 27.0646 66.1845 24.9649 66.9725 24.6333C66.6009 24.6463 66.2288 24.6174 65.8673 24.5474C64.844 24.4982 64.5268 24.9567 63.0073 27.4125C62.9467 27.4418 62.8945 27.4809 62.8537 27.5272ZM89.9707 20.5238C91.5977 18.6983 91.2293 20.5648 90.733 21.4448C90.3433 22.1761 89.9061 22.8906 89.4232 23.5855H88.1236C88.6312 22.5254 89.249 21.5013 89.9707 20.5238ZM87.8525 24.0439H89.0804C88.3346 25.052 87.4471 25.9886 86.4352 26.8354C86.8036 26.0987 87.2999 25.0713 87.8525 24.0439ZM78.469 31.2764C77.4457 31.2764 77.108 30.2941 77.9574 29.6392C77.9518 29.9485 78.0423 30.2541 78.2209 30.5284C78.3995 30.8028 78.6606 31.0373 78.9806 31.211C78.8183 31.2629 78.6435 31.2853 78.469 31.2764ZM80.2495 24.8421C80.0397 25.7835 80.6691 27.5026 80.5923 28.8247C80.5156 29.938 80.0142 30.6502 79.436 31.0063C79.0757 30.853 78.7794 30.6185 78.5839 30.3319C78.3883 30.0452 78.3022 29.719 78.336 29.3936C78.336 28.8533 78.0136 28.7469 77.8601 28.7264C78.9141 27.0155 77.0722 29.9257 80.2495 24.8421ZM74.5652 25.9963C77.7885 22.8733 77.9215 25.587 75.7675 27.0442C74.9689 27.5525 74.0083 27.8715 72.9945 27.9651C73.4408 27.2714 73.9666 26.6123 74.5652 25.9963Z" fill="#F67A45"/>
    <path d="M62.3506 22.7873C62.3801 22.6805 62.3782 22.5696 62.3451 22.4634C62.312 22.3572 62.2486 22.2586 62.1599 22.1753C62.0712 22.092 61.9595 22.0263 61.8337 21.9834C61.7079 21.9404 61.5713 21.9214 61.4347 21.9278C61.1347 21.937 60.8473 22.0268 60.6189 22.1828C60.3906 22.3387 60.2346 22.5517 60.1761 22.7873C60.1508 22.8938 60.1557 23.0035 60.1903 23.1082C60.225 23.213 60.2886 23.3102 60.3765 23.3927C60.4644 23.4752 60.5743 23.5408 60.6981 23.5848C60.8219 23.6288 60.9565 23.65 61.092 23.6469C61.3934 23.6414 61.6832 23.5529 61.9124 23.3963C62.1417 23.2397 62.2965 23.0246 62.3506 22.7873Z" fill="#F67A45"/>
    <path d="M44.2697 51.1772C43.7581 51.1158 43.8246 51.5128 44.3516 51.5865C49.3554 52.2373 50.4913 56.9075 44.8223 56.0316C36.9584 54.8078 34.9681 50.1907 30.3071 50.1907C29.7949 50.216 29.3074 50.3751 28.9192 50.6435C28.531 50.9119 28.2637 51.2748 28.1582 51.6765C28.1582 52.0859 28.5266 52.225 28.5777 51.8034C28.6596 51.1976 29.6522 50.817 30.3071 50.817C34.4002 50.817 35.6025 56.6456 44.8274 56.6456C51.5043 56.6497 50.3787 51.9549 44.2697 51.1772Z" fill="#F67A45"/>
    <path d="M74.5405 40.1503C74.5142 40.2569 74.5184 40.3669 74.5527 40.472C74.587 40.5771 74.6505 40.6746 74.7386 40.7573C74.8267 40.84 74.937 40.9056 75.0613 40.9494C75.1856 40.9931 75.3207 41.0138 75.4564 41.0099C75.7578 41.0044 76.0475 40.9159 76.2768 40.7593C76.5061 40.6027 76.6609 40.3876 76.715 40.1503C76.7434 40.0435 76.7407 39.933 76.7072 39.8272C76.6737 39.7214 76.6103 39.6231 76.5218 39.54C76.4333 39.457 76.3221 39.3913 76.1968 39.3481C76.0715 39.3049 75.9354 39.2852 75.7992 39.2908C75.4989 39.2993 75.211 39.3888 74.9824 39.5449C74.7539 39.701 74.5981 39.9144 74.5405 40.1503Z" fill="#F67A45"/>
    <path d="M92.9066 44.9106C92.42 45.7063 91.8697 46.4761 91.2591 47.2151C90.3191 48.2203 88.9926 48.9509 87.4832 49.2944C89.7242 44.4031 90.0414 42.5571 91.6223 41.7016H90.2102C90.003 41.6786 89.7921 41.709 89.608 41.7885C89.424 41.868 89.2764 41.9925 89.1869 42.1437C88.1892 43.781 86.5418 46.2368 85.0938 47.6162C83.3901 49.188 82.29 48.3489 83.5589 46.1672C86.2552 41.5543 86.2245 42.1764 86.8897 41.7016C85.0887 41.7016 84.6078 41.5993 84.2701 42.1437C83.6817 43.1138 83.124 43.9488 82.331 45.1808C79.9826 49.2453 77.5318 48.8646 78.0588 47.0063C78.0588 47.0063 78.4272 45.4141 78.6625 44.8697C80.0409 43.8682 81.2163 42.7013 82.1468 41.411H83.6817C83.9426 41.411 83.9989 40.9485 83.7329 40.9485H82.4742C82.8682 40.3632 83.2366 39.7738 83.605 39.1434C85.5441 35.7912 82.7147 35.4351 80.9035 37.9728C80.2486 38.8733 79.5937 39.9007 78.99 40.9485H77.3783C77.0918 40.9485 77.0355 41.411 77.3272 41.411H78.6881C78.0706 42.6138 77.5393 43.8437 77.0969 45.0948C76.3908 46.2163 75.562 47.4115 74.7587 48.0664C74.4466 48.321 74.0224 48.4678 73.5768 48.4758C72.8451 48.4348 72.794 47.8495 73.0294 47.1578C73.0601 47.0677 72.8861 47.4075 75.4392 42.6267C75.9508 41.7385 75.3061 41.8899 73.4489 41.9186C73.5846 42.0334 73.6803 42.1748 73.7261 42.3286C73.7719 42.4823 73.7663 42.643 73.7098 42.7945L72.6559 44.9475C72.0892 45.8652 71.4429 46.7501 70.7219 47.5957C69.3353 49.1511 67.2376 48.7909 68.0255 46.2777C68.179 45.7538 68.44 45.2504 68.573 44.8943C70.8961 43.1223 72.7266 40.9787 73.9452 38.6032C75.8332 35.2509 73.0038 34.9562 71.1414 37.4489C69.4365 39.7999 68.0914 42.3066 67.1353 44.9147C66.5827 45.8152 64.8534 48.4758 63.7533 48.4348C63.4105 48.4348 63.2826 48.0255 63.4924 47.1782C63.9983 45.7632 64.8237 44.4342 65.9278 43.257C65.5581 43.2736 65.1873 43.246 64.8278 43.1752C63.2621 43.0974 63.2928 44.9966 60.7346 47.4484C58.862 49.233 57.0713 48.4635 59.3942 45.2054C60.3407 43.9774 61.7017 42.7495 62.8836 42.2092C63.8506 41.7999 64.8227 41.9554 65.1092 42.7331C65.5543 42.7945 65.7641 42.4384 65.3957 42.1273C63.9017 40.8257 60.8881 41.6034 59.3174 43.0892C58.4342 43.9061 57.7691 44.8589 57.363 45.8889C56.5392 47.1537 55.5108 48.3939 54.4978 48.3939C54.1294 48.3939 53.761 48.0378 53.9861 47.1373C54.1448 46.4251 55.0094 44.9761 55.7462 43.8014C56.529 42.5039 56.7695 42.2092 57.5523 41.7262C56.0532 41.7262 55.4648 41.6075 55.1169 42.1683C54.0936 43.8055 52.6763 46.2614 51.2079 47.6408C49.5042 49.2125 48.4041 48.3734 49.673 46.1918C50.1437 45.3977 51.3256 43.4903 51.3256 43.4903C52.0316 42.3361 52.4 42.0823 53.0038 41.7262H51.4023C51.1951 41.7025 50.9838 41.7326 50.7996 41.8122C50.6154 41.8918 50.4679 42.0166 50.3791 42.1683C49.7753 43.1629 49.2279 43.9815 48.4349 45.2054C48.2814 45.4796 48.5167 45.541 48.6753 45.541C48.1995 46.2982 47.5446 47.0718 47.78 47.9764C47.8651 48.2673 48.0799 48.5234 48.3841 48.6967C48.6883 48.87 49.0611 48.9486 49.4325 48.9178C50.7168 48.9178 52.0829 47.4934 52.9731 46.2368C52.2875 47.9314 52.9731 48.9178 54.1755 48.9178C55.3778 48.9178 56.3346 48.0132 57.1123 46.9859C56.9895 48.7909 58.4732 49.6914 60.3612 48.2465C61.0827 47.6503 61.7162 46.9897 62.2491 46.2777C61.4612 48.4758 62.6942 49.0242 63.5589 48.9833C64.6845 48.9055 65.8204 47.5998 66.6646 46.3923C66.3525 47.6407 66.3985 48.9833 68.4041 48.9833C69.8981 48.9833 70.9624 48.0828 71.7605 47.0964C71.6224 48.0173 71.9856 48.9383 73.4643 48.9383C74.7945 48.9383 75.9201 47.6817 76.708 46.5152C76.708 46.6052 76.6722 46.6952 76.662 46.7812C76.268 49.0856 78.8621 49.4417 80.2742 48.353C80.9404 47.8312 81.4952 47.2255 81.9165 46.5602C81.1593 47.9805 81.8756 48.9178 83.3184 48.9178C85.3343 48.9178 87.0381 46.3187 87.9232 45.0621C87.5037 46.1508 86.6645 48.3939 85.6668 49.7774C82.4435 50.51 78.1713 50.9275 76.8359 53.0068C76.0531 54.1816 76.3243 55.565 78.9337 55.565C82.8119 55.565 85.406 52.356 87.0586 49.9861C90.8345 48.8973 91.5149 48.0173 93.2954 45.1235C93.5359 44.6814 93.1419 44.5341 92.9066 44.9106ZM82.3975 37.8869C84.0245 36.0654 83.6562 37.9278 83.1599 38.8078C82.7701 39.5391 82.3329 40.2537 81.85 40.9485H80.5403C81.0511 39.8881 81.6724 38.864 82.3975 37.8869ZM80.2742 41.411H81.5072C80.76 42.4172 79.8727 43.3523 78.8621 44.1984C79.2305 43.4658 79.7268 42.4384 80.2742 41.411ZM72.9117 37.3179C74.3289 35.7011 74.068 37.3179 73.541 38.2593C72.3876 40.4413 70.7747 42.4488 68.7726 44.1943C69.5861 42.5203 71.6275 38.7669 72.9117 37.322V37.3179ZM84.6027 51.1977C83.3952 52.5157 80.617 55.1148 78.3095 55.1148C76.002 55.1148 77.0508 52.6589 79.7267 51.7175C81.5044 51.1873 83.3249 50.7538 85.1757 50.42L84.6027 51.1977Z" fill="#F67A45"/>
    <path d="M54.1043 75.9774C50.4768 71.8147 45.785 68.2824 40.7198 64.6231C40.4077 64.398 40.1417 64.488 40.1621 64.8278C40.3358 67.2917 41.5271 69.6399 43.5492 71.5036C45.7748 73.7139 49.1772 75.1875 51.6484 76.0061C52.0424 76.1371 52.0219 76.1862 51.6075 76.1248C47.5182 75.5143 43.5395 74.4996 39.763 73.104C37.9109 72.4287 40.0189 70.554 31.2698 58.5899C31.0601 58.2993 30.7582 58.3197 30.6609 58.6471C29.9124 60.997 30.1148 63.4763 31.2391 65.7283C32.4261 68.2987 34.8206 70.4067 36.7034 71.737C37.0155 71.9621 36.9798 72.0112 36.6063 71.8475C32.8096 70.1768 29.3052 68.1124 26.1841 65.7078C24.7055 64.574 27.5553 62.6502 23.9329 50.6779C23.8357 50.3463 23.5492 50.3013 23.3292 50.5919C20.817 53.8664 20.3924 58.4875 23.9329 63.653C24.1325 63.9478 24.0762 63.9846 23.7897 63.7349C20.8829 61.1686 18.3873 58.3224 16.3606 55.2622C15.3988 53.8091 18.9751 52.5566 19.9421 40.5269C19.9728 40.1872 19.717 40.0767 19.3947 40.2977C15.9104 42.6758 13.6132 46.9531 15.0355 52.8472C15.1174 53.1787 15.0355 53.1992 14.8718 52.8882C13.3896 50.2724 12.2362 47.5452 11.4284 44.7469C10.9731 43.1547 14.7132 42.7986 19.0724 31.9109C19.2003 31.5876 18.9854 31.4279 18.6067 31.5835C14.7234 33.147 11.4029 36.6262 10.9322 42.2952C10.9066 42.6308 10.835 42.6349 10.7633 42.2952C10.1498 39.4412 9.90291 36.5446 10.0265 33.6505C10.0931 32.0542 13.4238 32.6313 19.8705 23.958C20.0854 23.6674 19.9217 23.4791 19.5124 23.5487C15.8439 24.3673 12.3034 26.7331 10.3694 31.2683C10.2312 31.5876 10.1595 31.5753 10.1954 31.2396C10.4955 28.6054 11.1158 26.0007 12.0476 23.4627C12.5899 21.9769 15.3681 23.1926 23.9073 16.2179C24.2041 15.9764 24.0967 15.7676 23.6771 15.784C20.0394 15.9477 16.1202 17.5686 13.0401 21.3711C12.6308 21.8746 12.641 21.8705 12.7075 21.7149C13.8689 19.018 15.3922 16.4297 17.2509 13.9953C17.8188 13.2217 20.5203 14.3392 29.1925 9.68119C29.5456 9.49291 29.4944 9.27187 29.0749 9.23913C26.0511 8.97717 22.3417 9.76715 18.7039 12.444C17.5988 13.2627 20.2388 10.5203 21.0677 9.6771C22.4235 8.34274 26.0818 7.344 33.3829 0.835944C33.6643 0.582171 33.5568 0.447097 33.1578 0.553518C30.4823 1.27528 28.0091 2.40851 25.8771 3.88942C22.3826 6.36985 21.784 8.39184 20.7045 9.48061C18.576 11.5845 17.6039 13.0212 18.0388 12.1371C19.5226 9.11634 20.8529 5.89095 20.9245 2.65739C20.9245 2.32175 20.6789 2.24807 20.4129 2.52231C19.4765 3.51284 17.4504 5.91552 16.7853 8.44916C15.8643 11.8424 17.2049 13.3609 16.9644 13.6883C10.3131 22.4845 12.508 25.3865 12.8303 15.5876C12.8897 13.638 12.6596 11.6897 12.1447 9.78352C12.0475 9.45607 11.7764 9.4315 11.5973 9.74257C9.37679 13.6842 8.52742 18.4937 11.3517 22.2348C11.582 22.5705 11.6528 22.9616 11.5512 23.3358C10.6028 25.9176 9.9739 28.5676 9.67354 31.2478C9.46376 33.102 9.27956 25.276 5.49854 19.5456C5.299 19.2468 5.0278 19.2795 4.95617 19.6152C3.93289 24.2077 4.77199 29.3527 8.9265 32.5781C9.24786 32.8576 9.4299 33.2217 9.43814 33.6014C9.3292 36.5534 9.60186 39.5066 10.2517 42.4138C10.6712 44.3908 7.42742 35.4965 1.3389 29.9257C1.06262 29.6679 0.827265 29.7538 0.827265 30.0936C1.1803 35.5292 3.96871 41.3578 9.94978 43.9529C10.362 44.1467 10.6673 44.4582 10.8042 44.8247C11.6276 47.6815 12.8069 50.4651 14.3243 53.1337C15.409 55.0452 9.09022 46.6543 1.11887 42.2665C0.770957 42.0741 0.545833 42.2051 0.668627 42.5285C2.79705 48.0992 7.6372 53.5512 14.6518 54.8447C15.1115 54.9439 15.5067 55.1796 15.7569 55.5036C17.8207 58.6214 20.3646 61.5201 23.3292 64.1319C25.0841 65.6791 15.8541 59.2489 6.72136 57.0263C6.31717 56.9281 6.15343 57.1082 6.38879 57.3865C10.4819 62.1754 17.1332 66.2399 24.3934 65.7364C24.8699 65.7171 25.3379 65.8429 25.7032 66.0885C28.8799 68.5352 32.4481 70.6342 36.3146 72.3305C38.7091 73.3824 25.9846 69.2483 16.3197 69.191C15.8951 69.191 15.8081 69.4039 16.1253 69.6003C17.7728 70.6768 22.7766 73.583 28.3739 74.2993C31.6189 74.7881 34.9701 74.5414 38.0491 73.587C38.4966 73.4477 38.9932 73.4477 39.4407 73.587C46.9772 76.3581 53.3931 76.7346 51.5359 76.7469C44.112 76.7879 36.4783 76.7838 30.1289 78.2041C29.7196 78.2941 29.7042 78.5152 30.0982 78.642C39.8449 81.8429 48.7935 80.5453 53.8331 77.4141C54.2246 77.1878 54.7017 77.0765 55.1839 77.0989L56.0332 77.1726C56.4528 77.2054 56.7955 77.1071 56.7955 76.9516C56.7955 76.7961 56.4528 76.6446 56.0332 76.6078L55.2964 76.5382C54.8264 76.4748 54.402 76.2752 54.1043 75.9774Z" fill="#F67A45"/>
    <path d="M67.4117 75.9774C71.029 71.8311 75.7054 68.2946 80.7962 64.6231C81.1083 64.398 81.3744 64.488 81.3539 64.8278C81.1803 67.2918 79.9889 69.6399 77.9668 71.5037C75.7412 73.7139 72.3388 75.1875 69.8625 76.0061C69.4736 76.1371 69.4941 76.1862 69.9085 76.1248C73.9976 75.5135 77.9762 74.4989 81.753 73.104C83.5949 72.4328 81.5381 70.4927 90.2411 58.5899C90.456 58.2993 90.7527 58.3197 90.855 58.6472C91.602 60.9974 91.3977 63.4767 90.2717 65.7283C89.0899 68.2987 86.6903 70.4067 84.8126 71.737C84.5005 71.9621 84.5363 72.0112 84.9098 71.8475C88.7065 70.1768 92.2108 68.1124 95.3319 65.7078C96.7952 64.5863 93.9658 62.6134 97.5831 50.6779C97.6803 50.3463 97.9669 50.3013 98.1869 50.5919C100.684 53.8214 101.139 58.4753 97.5831 63.6531C97.3784 63.9478 97.4399 63.9846 97.7264 63.7349C100.633 61.1686 103.129 58.3224 105.155 55.2622C106.122 53.805 102.546 52.5648 101.574 40.5269C101.543 40.1872 101.799 40.0767 102.121 40.2977C105.621 42.684 107.898 46.9777 106.475 52.8472C106.399 53.1788 106.475 53.1992 106.639 52.8882C108.123 50.2725 109.278 47.5454 110.088 44.7469C110.548 43.1629 106.808 42.8068 102.444 31.9109C102.316 31.5876 102.531 31.4279 102.909 31.5835C106.782 33.1429 110.108 36.6139 110.584 42.2952C110.609 42.6308 110.681 42.6349 110.753 42.2952C111.365 39.4412 111.614 36.5447 111.495 33.6505C111.413 32.0542 108.072 32.6067 101.646 23.958C101.431 23.6674 101.594 23.4791 102.004 23.5487C105.662 24.3673 109.208 26.7249 111.147 31.2683C111.285 31.5876 111.356 31.5753 111.315 31.2396C111.02 28.6052 110.401 26.0004 109.468 23.4627C108.916 21.9646 106.117 23.1762 97.6087 16.2179C97.312 15.9764 97.4194 15.7677 97.8389 15.784C101.487 15.9477 105.411 17.585 108.476 21.3711C108.916 21.9114 108.865 21.85 108.809 21.7149C107.646 19.0183 106.123 16.4301 104.265 13.9953C103.692 13.2176 101.037 14.3596 92.3234 9.68119C91.9704 9.49291 92.0216 9.27187 92.4411 9.23913C95.4598 8.97717 99.1641 9.75896 102.812 12.444C103.917 13.2627 101.313 10.5285 100.448 9.6771C99.0975 8.34274 95.4649 7.36447 88.1331 0.835944C87.8517 0.582171 87.9591 0.447097 88.3582 0.553518C91.0332 1.27615 93.5062 2.40928 95.6388 3.88942C99.1436 6.37804 99.732 8.4164 100.812 9.48061C102.914 11.5558 103.917 13.0294 103.477 12.1371C102.004 9.13272 100.658 5.89095 100.592 2.65739C100.592 2.32175 100.837 2.24807 101.103 2.52231C107.243 9.0713 104.296 13.3404 104.552 13.6883C111.203 22.6032 109.003 25.2637 108.686 15.5876C108.626 13.638 108.856 11.6897 109.371 9.78352C109.469 9.45607 109.74 9.4315 109.914 9.74257C112.144 13.6965 112.983 18.5019 110.164 22.2348C109.931 22.5698 109.86 22.9617 109.965 23.3358C110.913 25.9176 111.542 28.5676 111.843 31.2478C112.052 33.1102 112.242 25.2596 116.018 19.5456C116.217 19.2468 116.488 19.2795 116.56 19.6152C117.583 24.1749 116.759 29.3404 112.589 32.5781C112.259 32.8552 112.067 33.2189 112.047 33.6014C112.174 36.5505 111.921 39.5023 111.29 42.4098C110.86 44.4072 114.099 35.5047 120.203 29.9216C120.479 29.6638 120.714 29.7498 120.714 30.0895C120.366 35.5292 117.558 41.3578 111.592 43.9488C111.18 44.1426 110.874 44.4541 110.737 44.8206C109.912 47.6769 108.732 50.4603 107.217 53.1296C106.163 54.9756 112.508 46.6257 120.423 42.2624C120.771 42.07 120.996 42.201 120.873 42.5244C118.745 48.091 113.92 53.543 106.89 54.8406C106.43 54.9398 106.035 55.1755 105.785 55.4995C103.721 58.6173 101.177 61.516 98.2124 64.1278C96.4831 65.6505 105.734 59.2161 114.82 57.0222C115.224 56.924 115.388 57.1041 115.153 57.3824C111.06 62.1754 104.408 66.2358 97.1482 65.7323C96.6717 65.7131 96.2037 65.8388 95.8384 66.0844C92.6617 68.5311 89.0934 70.6301 85.227 72.3264C82.8325 73.3783 95.5519 69.2442 105.222 69.1869C105.647 69.1869 105.734 69.3998 105.416 69.5962C103.769 70.6727 98.765 73.5789 93.1728 74.2952C89.9261 74.7844 86.5732 74.5377 83.4925 73.583C83.045 73.4436 82.5484 73.4436 82.1009 73.583C74.6002 76.3376 68.174 76.7306 70.0057 76.7428C77.4142 76.7838 85.0735 76.7797 91.4128 78.2C91.817 78.29 91.8374 78.5111 91.4434 78.638C81.6148 81.8592 72.6918 80.5085 67.7084 77.41C67.317 77.1837 66.8399 77.0724 66.3577 77.0948L65.5084 77.1685C65.0889 77.2013 64.7461 77.103 64.7461 76.9475C64.7461 76.792 65.0889 76.6405 65.5084 76.6037L66.2452 76.5341C66.7052 76.4671 67.1195 76.2694 67.4117 75.9774Z" fill="#F67A45"/>
  </g>
  <defs>
    <clipPath id="clip0_1994_5690">
      <rect width="120.251" height="80" fill="white" transform="translate(0.632812 0.520752)"/>
    </clipPath>
  </defs>
</svg>