<svg width="148" height="50" viewBox="0 0 148 50" fill="none" xmlns="http://www.w3.org/2000/svg">
<g clip-path="url(#clip0_2176_44)">
<path d="M4.81336 19.2522C6.93429 12.364 11.2531 7.37887 17.7697 4.29682C25.0812 1.29471 32.1809 1.71781 39.0688 5.56613C39.6797 5.16018 40.2699 4.72392 40.8372 4.25898C40.7747 4.1579 40.6969 4.06712 40.6066 3.98988C38.4993 2.53809 36.1586 1.45862 33.6863 0.798464C32.115 0.442295 30.5228 0.185265 28.9192 0.0288963C22.909 -0.237055 17.424 1.3136 12.4643 4.68087C7.34675 8.3913 4.0276 13.3252 2.50684 19.4827C1.95801 22.3257 2.54749 24.9144 4.27529 27.2487C3.99129 24.5521 4.17065 21.8866 4.81336 19.2522Z" fill="#F67A45"/>
<path d="M57.4459 11.9475C57.4302 11.1891 57.0458 10.8815 56.2925 11.0248C56.289 10.7897 56.2502 10.5564 56.1772 10.3328C55.9973 9.67827 55.5744 9.31964 54.9085 9.25694C54.7322 8.80166 54.5133 8.36401 54.2549 7.94978C53.7784 7.2567 53.1249 6.94912 52.2942 7.02705L51.6021 7.18082C52.839 8.24559 53.4797 9.60404 53.5242 11.2562C53.611 12.1454 53.5725 13.0425 53.4089 13.9474C53.2733 14.8678 52.9017 15.6752 52.294 16.3695C52.0957 16.4975 51.8906 16.5744 51.6788 16.6001C51.9092 16.4071 52.0822 16.1544 52.1786 15.8697C52.6598 14.6983 52.908 13.4444 52.9093 12.1781C52.8921 10.5244 52.3924 9.03785 51.4103 7.71841C50.6049 6.9025 49.7207 6.81276 48.7575 7.44919C47.8576 8.37873 47.358 9.49367 47.2585 10.794C46.8236 10.9292 46.3671 10.9813 45.9129 10.9478C45.7916 9.80927 45.3943 8.78407 44.7211 7.87217C44.5012 7.59975 44.226 7.37698 43.9138 7.21854C42.9149 7.16728 41.9139 7.16728 40.915 7.21854C40.5834 7.34728 40.2822 7.54371 40.0307 7.79529C39.7776 8.18608 39.5341 8.58335 39.3003 8.98712C39.0898 9.04868 38.8842 9.12577 38.6851 9.21777C38.0037 9.87636 37.6705 10.6837 37.6855 11.6399C37.0438 11.6143 36.401 11.64 35.7634 11.7167C36.1905 12.2077 36.2546 12.7459 35.9556 13.3314C35.9459 12.9364 35.8676 12.5461 35.724 12.1781C35.6098 11.9076 35.4176 11.7666 35.1472 11.7549C35.0928 11.8511 35.0283 11.9413 34.955 12.024C34.7455 12.693 34.8608 13.2953 35.301 13.8311C36.0952 13.8695 36.8898 13.8823 37.6846 13.8695C37.8157 14.4389 38.0364 14.9839 38.3383 15.4842C38.5184 15.734 38.7619 15.8751 39.0688 15.9073C39.5576 16.4214 40.0195 16.9603 40.4528 17.522L40.7604 17.6758C41.6571 17.7313 42.5568 17.7184 43.4516 17.6373C43.6597 17.6131 43.8707 17.6396 44.0664 17.7147C43.806 18.1677 43.4676 18.5712 43.0668 18.9065C42.5361 19.0949 42.0218 19.3263 41.529 19.5986C40.6603 20.1082 40.0067 20.8131 39.5682 21.713C38.8034 20.0653 37.5091 19.2452 35.6852 19.2525C34.3294 17.0661 32.4328 16.374 29.9951 17.1763C29.4784 16.7892 28.9087 16.4785 28.3035 16.2535C28.1713 15.8031 28.0939 15.3384 28.073 14.8695C28.0603 14.6381 28.0732 14.406 28.1115 14.1774L28.2268 14.0621C28.7136 14.0672 29.2007 14.0672 29.6878 14.0621C30.0518 13.98 30.2952 13.7622 30.4182 13.4084C30.4378 12.815 30.5021 12.2238 30.6104 11.64C30.6861 11.3479 30.7118 11.0403 30.6874 10.7173C30.8423 10.7298 30.9981 10.7168 31.1487 10.6788C31.2559 10.6053 31.3072 10.5028 31.3025 10.3713C31.0519 9.75471 30.7694 9.15156 30.4563 8.56425C30.5387 8.34278 30.5522 8.10153 30.4947 7.87229C30.3108 7.50495 30.1689 7.11805 30.0716 6.71891C30.1734 6.59085 30.2759 6.46267 30.3792 6.33437C30.9728 5.76217 31.1523 5.07017 30.9175 4.25837C30.7723 4.5698 30.5775 4.85558 30.3407 5.10458C30.4541 4.63192 30.4798 4.14494 30.4176 3.64366C30.3611 3.50437 30.2833 3.37469 30.187 3.25924C30.0875 3.71515 29.8697 4.09961 29.5335 4.41263C29.5111 4.47419 29.4709 4.52771 29.418 4.56639C29.3797 4.26041 29.3668 3.95177 29.3796 3.64366C29.2888 3.38579 29.1447 3.14999 28.9565 2.95171C28.9743 3.53124 28.7436 3.99258 28.2645 4.33574C28.2645 4.19213 28.3029 4.05109 28.3798 3.91264C28.3542 3.8742 28.3285 3.83575 28.3029 3.79731C27.4396 4.29053 26.5168 4.54685 25.5346 4.56627C25.9187 4.36214 26.3032 4.15711 26.688 3.9512C26.4737 3.87601 26.2431 3.85034 25.9961 3.87419C25.1692 3.92095 24.3596 4.13008 23.6135 4.48963C23.5424 4.55136 23.4655 4.56418 23.3827 4.52807C23.741 4.20636 24.159 3.95815 24.613 3.79755C24.5867 3.73308 24.5355 3.70745 24.4592 3.72067C22.0532 4.34928 20.9894 5.91276 21.2678 8.41109C21.4241 9.3924 21.7086 10.3489 22.114 11.2562C22.1886 11.8221 22.1494 12.3972 21.9987 12.9477C21.7302 13.4828 21.4218 13.9969 21.0759 14.4855C19.4056 14.6673 17.9959 15.3593 16.847 16.5617C12.8404 16.7619 10.8027 18.8636 10.7341 22.8668C10.6308 22.9566 10.5402 23.0601 10.465 23.1744C9.82829 23.781 9.43101 24.5243 9.27313 25.4043C9.24751 26.1216 9.22188 26.8392 9.19625 27.5572C8.76686 28.185 8.35673 28.8257 7.96586 29.4793C7.93902 30.1299 8.08006 30.745 8.38896 31.3246C8.25081 31.6232 8.13516 31.9316 8.04298 32.2474C7.79224 33.3563 7.70154 34.4955 7.77365 35.6302C6.14665 34.8944 4.62175 33.951 3.237 32.8236C1.93786 31.7209 0.887031 30.4265 0.0845016 28.9405C0.0113246 29.0496 -0.0143033 29.1778 0.00761759 29.325C0.0828487 30.111 0.250591 30.8852 0.507365 31.6318C1.58955 34.3925 3.42216 36.4942 6.00519 37.937C8.96741 39.6735 12.1456 40.8525 15.5398 41.4741C17.9125 41.9946 20.3393 42.227 22.7676 42.1662C24.9594 42.2268 27.1511 42.0463 29.3034 41.6278C33.1055 41.0874 36.7451 39.9981 40.2222 38.3599C43.2954 36.9971 45.9992 35.1133 48.3337 32.7084C50.9949 29.7676 52.2508 26.3074 52.1015 22.328C51.6364 24.5904 50.7136 26.6409 49.3332 28.4793C46.9133 31.4622 43.9529 33.7562 40.4522 35.3612C37.9227 36.4787 35.2978 37.3666 32.6092 38.0139C32.0725 38.098 31.5343 38.1749 30.9945 38.2446C30.8916 37.8595 30.7225 37.4952 30.4946 37.1681C30.4818 37.0528 30.469 36.9374 30.4562 36.8221C30.5897 35.5526 30.5379 34.2705 30.3024 33.016C30.3439 32.6041 30.3952 32.194 30.4562 31.7857C30.6374 31.5385 30.7527 31.2565 30.8023 30.9395C30.8278 30.5551 30.8534 30.1706 30.8792 29.7861C31.5636 28.9038 31.9736 27.9042 32.1094 26.7874C33.76 27.8826 35.5542 28.1902 37.4918 27.71C38.6523 27.9077 39.8057 28.1384 40.952 28.4021C41.3436 28.3654 41.7233 28.2476 42.0669 28.0561C42.5139 27.6988 42.9258 27.2997 43.2972 26.8643C44.2928 25.8548 45.1116 24.6851 45.7193 23.4041C46.4182 21.5684 46.9084 19.6599 47.1808 17.7147C47.3162 17.0258 47.563 16.3635 47.9113 15.7539C47.9626 15.7026 48.0138 15.7026 48.0651 15.7539C48.1052 15.8262 48.1572 15.8912 48.2189 15.9462C48.5402 16.6393 49.0528 17.139 49.7568 17.4452C50.8859 17.4476 52.0136 17.3964 53.1399 17.2915C53.4408 17.148 53.714 16.9527 53.9473 16.7147C54.3341 16.1978 54.6448 15.6281 54.8701 15.0231C55.0635 14.9687 55.2557 14.9047 55.4467 14.8309C55.9884 14.35 56.2705 13.7476 56.2929 13.0239C57.1191 13.146 57.5035 12.7872 57.4459 11.9475ZM45.3739 12.1781C45.3451 12.8766 45.255 13.5713 45.1048 14.2542C45.0664 13.7423 45.0536 13.2296 45.0664 12.7164C44.8568 11.239 44.5877 9.778 44.259 8.33348C45.0725 9.48054 45.4442 10.7621 45.3739 12.1781ZM38.1461 13.7929H38.3767C38.3054 14.2998 38.2285 14.2998 38.1461 13.793V13.7929ZM37.9923 11.563C38.063 11.2927 38.1912 11.062 38.3767 10.8709C38.5849 11.0822 38.713 11.3385 38.7611 11.6399C38.5023 11.6647 38.2411 11.6387 37.9923 11.5631V11.563ZM38.7232 14.0236C38.6864 13.9527 38.673 13.872 38.6847 13.793C38.8808 13.7882 38.9962 13.6857 39.0308 13.4854C39.1058 13.0796 39.1444 12.6678 39.1462 12.2551C39.07 11.8078 38.9137 11.378 38.6847 10.9863C38.9147 10.7495 39.1582 10.7367 39.4153 10.9479C39.6444 11.2886 39.765 11.6907 39.7612 12.1013C39.8426 12.8061 39.7273 13.4725 39.4153 14.1005C39.1661 14.4049 38.9355 14.3793 38.7232 14.0236ZM41.4915 15.177C41.3405 15.6615 41.0458 16.0331 40.6072 16.292C40.3275 16.3433 40.0407 16.3433 39.761 16.292C39.6385 16.2461 39.5318 16.166 39.4535 16.0613C39.8444 16.1645 40.1904 16.0747 40.4915 15.7921C41.0302 14.6265 41.248 13.3962 41.145 12.1013C41.0977 11.2451 40.8753 10.4076 40.4915 9.64075C40.2839 9.20258 39.9379 8.98474 39.4535 8.98724C40.0217 8.59178 40.5471 8.65584 41.0297 9.17945C41.4254 9.89162 41.6738 10.6761 41.7602 11.4862C41.9115 12.7223 41.8219 13.9526 41.4915 15.177ZM42.4525 16.4842C42.7678 15.9354 42.9887 15.3376 43.1062 14.7157C43.2574 13.8528 43.3218 12.977 43.2984 12.1013C43.2364 10.6209 42.8391 9.23687 42.1066 7.94918C42.0215 7.76154 41.8711 7.61118 41.6835 7.52607C42.3091 7.6032 42.7832 7.92359 43.1059 8.48725C43.6503 9.46692 43.9195 10.5178 43.9133 11.6399C44.0786 12.9355 43.9632 14.2169 43.5672 15.4841C43.4228 15.819 43.2283 16.1301 42.9906 16.4068C42.8127 16.5195 42.6331 16.5453 42.4519 16.4842H42.4525ZM28.0347 6.10372C28.64 5.99548 29.1911 6.12366 29.688 6.48826C29.8261 7.00541 29.9799 7.51802 30.1493 8.02606C29.4884 7.84449 28.8733 7.93419 28.3039 8.29516C28.7236 8.58843 29.175 8.83348 29.6495 9.02568C29.8079 8.80135 30.0386 8.6384 30.303 8.56425C30.5283 9.08616 30.7084 9.6264 30.8413 10.1791C30.6278 10.257 30.4228 10.3339 30.2261 10.4097C30.0842 10.3884 29.9817 10.4396 29.9186 10.5635C30.0328 10.6358 30.1698 10.6632 30.303 10.6404C30.3208 10.8486 30.2946 11.0582 30.2261 11.2556C30.0322 11.3688 29.8258 11.4591 29.6111 11.5247C29.8137 11.5628 30.0203 11.5757 30.2261 11.5631C30.1819 11.7911 30.1042 12.0114 29.9955 12.2166C30.1692 12.5592 30.182 12.9052 30.0339 13.2547C29.9041 13.3606 29.74 13.4153 29.5726 13.4084C29.2722 13.3551 28.9765 13.278 28.6883 13.1778C27.9197 12.9866 27.1908 12.6612 26.5353 12.2166C26.2329 11.7383 26.0363 11.2009 25.9587 10.6404C25.4887 10.9847 25.0786 10.9078 24.7284 10.4097C24.398 9.89578 24.3852 9.38318 24.69 8.87191C24.7412 8.84628 24.7925 8.82065 24.8438 8.79503C25.1746 8.74087 25.4437 8.84338 25.651 9.10256C25.8412 9.53419 26.073 9.94623 26.3431 10.3328L26.42 9.48662C26.6444 8.56989 27.1826 7.90348 28.0347 7.48739C28.0042 7.19678 27.9658 6.90205 27.9194 6.60322C27.9181 6.42998 27.9576 6.25888 28.0347 6.10372ZM27.6116 16.6379C27.3957 16.9317 27.1364 17.191 26.8426 17.4069C26.8171 17.3685 26.7914 17.33 26.7657 17.2916C27.0006 16.7601 27.181 16.2062 27.3041 15.6383C27.3958 15.6745 27.4471 15.7514 27.4578 15.8691L27.6116 16.6379ZM29.8799 27.1722C29.8943 27.2922 29.8302 27.3434 29.6877 27.3259C29.7697 27.3977 29.8723 27.4234 29.9952 27.4028C30.1911 27.3721 30.3761 27.2928 30.5334 27.1722C30.5591 27.2362 30.5847 27.3003 30.6103 27.3644C30.5766 27.6867 30.4485 27.9559 30.2259 28.1718L28.765 27.3644C27.8165 27.0092 26.8682 27.0092 25.92 27.3644C25.3085 27.7086 24.6647 27.992 23.9979 28.2106C23.4363 28.2983 22.898 28.2215 22.3832 27.9799C21.7915 27.6307 21.27 27.1744 20.8453 26.6343C20.7341 26.4394 20.6438 26.2332 20.5762 26.0191C21.6647 27.2877 23.0359 27.7618 24.69 27.4416L24.2286 27.3647C24.5368 27.0312 24.8711 26.7226 25.2282 26.442C25.7089 26.0897 26.2471 25.8975 26.8429 25.8654C28.0932 25.7563 29.1057 26.1919 29.8802 27.1722H29.8799ZM21.8449 28.71C22.2733 28.8239 22.7106 28.9011 23.1521 28.9406L22.8445 29.5558C22.1607 29.5627 21.5456 29.3449 20.9991 28.9022C20.7016 28.5919 20.3941 28.2972 20.0765 28.018C19.9636 27.8511 19.8731 27.6701 19.8072 27.4797C20.3753 28.0779 21.0546 28.4879 21.8449 28.71ZM24.1901 29.4789C24.3124 29.3115 24.4156 29.131 24.4977 28.9406C24.6093 28.7896 24.7503 28.6871 24.9208 28.6331C25.3577 28.2616 25.8703 28.0566 26.4586 28.018C26.908 28.0145 27.1387 28.2452 27.1506 28.71C27.1585 28.9178 27.1326 29.1256 27.0738 29.3252C27.0044 29.7072 26.8249 30.0276 26.5355 30.2863C25.9439 30.5362 25.3288 30.6131 24.6901 30.517C24.5298 30.4633 24.4016 30.3736 24.3056 30.2479C24.1635 30.01 24.125 29.7537 24.1901 29.4789ZM29.5342 30.3632C28.3353 30.5361 27.7458 30.0106 27.7656 28.7869V28.018H28.3039C28.6243 28.0956 28.9341 28.2118 29.2265 28.364C29.5569 28.6025 29.7364 28.9229 29.7648 29.3252H29.8417C29.886 29.7178 29.7835 30.0638 29.5342 30.3632ZM27.8809 33.0929C27.7969 32.6751 27.7583 32.2496 27.7656 31.8235C27.7656 31.7234 27.7681 31.6247 27.7721 31.5268C27.7721 31.5234 27.7721 31.52 27.7721 31.5165C27.7762 31.4207 27.7822 31.326 27.7901 31.2324C27.7901 31.2067 27.7916 31.1805 27.7928 31.1543C27.7935 31.139 27.7941 31.1235 27.7952 31.108C27.7969 31.0852 27.799 31.0622 27.8014 31.0391C27.8037 31.0164 27.8067 30.9933 27.8098 30.9702C27.8123 30.9522 27.8146 30.9339 27.8175 30.916C27.8245 30.8731 27.8323 30.8297 27.8416 30.7855C28.2564 30.8146 28.668 30.8789 29.0719 30.9777C29.327 31.0916 29.4808 31.2838 29.5333 31.5544C29.6284 31.8775 29.6284 32.2107 29.5333 32.5541C29.3851 32.8734 29.1761 33.1608 28.9181 33.4003C28.5139 33.4718 28.1682 33.3694 27.8809 33.0929ZM26.766 35.169C26.7426 35.7666 26.4863 36.2408 25.9971 36.5914C24.7927 36.8252 24.0879 36.3255 23.8826 35.0924C23.6918 34.2288 23.9866 33.9467 24.7669 34.2462C25.3946 34.2441 26.0178 34.1402 26.6122 33.9387C26.6535 33.9489 26.692 33.9679 26.7252 33.9945C26.7584 34.021 26.7854 34.0545 26.8044 34.0925C26.8642 34.4502 26.8511 34.8164 26.766 35.169ZM25.4204 33.5542C24.3808 33.4624 23.945 32.8985 24.1132 31.8626C24.2722 31.588 24.49 31.3829 24.7669 31.2474C25.4475 30.9626 26.1826 30.8313 26.9198 30.863C27.0142 30.9988 27.0677 31.1589 27.0736 31.3243C27.3381 32.6627 26.7871 33.406 25.4204 33.5542ZM22.4601 35.3227C22.4472 35.3484 22.4345 35.374 22.4217 35.3996C21.1322 34.3266 20.2992 32.9682 19.9227 31.3243C19.7361 30.9375 19.6189 30.5209 19.5766 30.0935C19.9226 30.7321 20.378 31.3049 20.9222 31.7859C21.3387 32.1607 21.8257 32.3913 22.3832 32.4779C22.3694 32.7928 22.4218 33.1072 22.537 33.4006C22.6065 33.4551 22.6322 33.532 22.6139 33.6313C22.2645 33.6345 21.9569 33.532 21.6911 33.3237C21.4139 33.1625 21.1667 32.9544 20.9606 32.7087C21.3602 33.6338 21.8632 34.5108 22.4601 35.3227ZM20.2302 29.7096C20.8508 30.1344 21.5428 30.3651 22.3063 30.4017V31.1705C21.1975 30.9104 20.3004 30.321 19.615 29.4021C19.615 29.3508 19.6407 29.3252 19.6919 29.3252C19.8487 29.4823 20.0307 29.6123 20.2302 29.7096ZM19.4613 35.4381C19.7414 35.5499 19.9721 35.7421 20.1533 36.0147C20.9198 36.5522 21.7143 37.0518 22.537 37.5137C21.5902 37.2581 20.77 36.7839 20.0765 36.0911C19.8336 35.9124 19.6251 35.6912 19.4613 35.4381ZM27.4196 33.9391C27.4742 33.8258 27.5639 33.7746 27.6887 33.7853C27.721 33.8407 27.7722 33.8792 27.8425 33.9006C28.311 33.9231 28.7724 33.9359 29.2265 33.9391C29.4495 34.5925 29.3726 35.2076 28.9959 35.7844C28.8197 36.1806 28.5121 36.3857 28.0731 36.3996C28.0143 36.3955 27.9568 36.3798 27.904 36.3534C27.8512 36.3271 27.8042 36.2905 27.7656 36.2458C27.4278 35.845 27.2997 35.3836 27.3812 34.8617C27.3685 34.5535 27.3816 34.2447 27.4202 33.9387L27.4196 33.9391ZM23.4212 14.9464C23.5036 14.2018 23.5933 13.4585 23.6904 12.7165C23.8635 12.9759 23.9933 13.2617 24.0748 13.5627C24.0521 13.6959 24.0795 13.8329 24.1517 13.9471C24.3808 13.0402 24.7781 12.22 25.3435 11.4866C25.3566 11.7435 25.3437 12.0011 25.3051 12.2554C25.453 14.0284 25.6196 15.797 25.8048 17.561C25.5505 16.8111 25.307 16.0678 25.0744 15.3312V17.0227C24.8376 17.0458 24.5989 17.0061 24.3823 16.9074C24.0339 16.5534 23.7777 16.1562 23.6135 15.7156C23.1411 16.2797 22.5772 16.7028 21.9218 16.9849C22.431 16.312 22.9308 15.6325 23.4212 14.9464ZM27.0736 4.87345H27.3812C27.3006 5.00852 27.1724 5.05978 26.9966 5.02722C26.1312 5.06117 25.2699 5.16405 24.4208 5.33487C24.362 5.32939 24.3236 5.30377 24.3054 5.25799C25.1767 4.79951 26.0995 4.67132 27.0736 4.87345ZM20.6915 15.7926C20.9229 15.78 21.155 15.7929 21.3836 15.831C20.7711 16.3151 20.1816 16.8277 19.615 17.3689C19.5381 17.4202 19.4613 17.4202 19.3844 17.3689C19.0109 17.1438 18.626 16.9385 18.231 16.7538C18.9969 16.2722 19.817 15.9518 20.6915 15.7926ZM16.6932 17.5612C17.4669 17.5462 18.1717 17.7512 18.8077 18.1762C18.859 18.2276 18.859 18.2789 18.8077 18.3301C18.7355 18.3702 18.6704 18.4222 18.6154 18.4839C18.6154 18.5351 18.641 18.5608 18.6923 18.5608C20.3655 17.9241 22.0827 17.7831 23.8441 18.1377C25.1279 18.6183 25.8968 19.5282 26.1509 20.8674C26.1437 20.8822 26.1381 20.8974 26.1319 20.9125C26.1255 20.9203 26.1175 20.9268 26.1086 20.9316L26.1076 20.9323C26.0971 20.9379 26.0857 20.942 26.074 20.9444C25.655 20.6195 25.1936 20.4016 24.69 20.2908C25.3113 20.5667 25.7983 20.9898 26.1509 21.5601C26.4783 22.0452 26.6064 22.5835 26.5353 23.1749C26.4362 23.9474 26.0261 24.4984 25.3051 24.828C24.3949 25.0108 23.4978 24.9596 22.6139 24.6743C20.89 23.8987 19.6598 22.6428 18.9231 20.9066C19.2441 20.5462 19.6052 20.2237 19.9996 19.9454C18.9545 20.0765 17.9677 20.4351 17.0392 21.0213C17.0783 20.7125 17.2194 20.4562 17.4623 20.2523C17.5972 20.0014 17.7801 19.7793 18.0006 19.5988C17.2514 19.9369 16.5526 20.3768 15.9239 20.9061C15.4089 21.4153 14.9219 21.9407 14.4629 22.4823C14.3029 22.7763 14.123 23.059 13.9246 23.3286C13.6825 22.9856 13.5245 22.5905 13.4633 22.1752C13.3631 21.4868 13.3631 20.7875 13.4633 20.0991C13.9081 18.4495 14.9847 17.6034 16.6932 17.5607V17.5612ZM12.1565 37.3226C11.7839 37.2369 11.4226 37.1079 11.08 36.938C10.891 36.9526 10.7628 36.8757 10.6956 36.7074C10.0618 34.8506 9.92073 32.954 10.2725 31.0173C10.3442 30.7498 10.4475 30.4917 10.5802 30.2485C10.5963 30.3683 10.6347 30.4708 10.6955 30.556C10.7101 30.922 10.7748 31.2842 10.8877 31.6325C11.3346 32.8059 11.6819 34.0148 11.9258 35.2465C12.1202 35.9141 12.1972 36.6061 12.1565 37.3226ZM12.8486 29.9408C12.3506 29.2521 12.0685 28.4832 12.0024 27.6341L11.8486 27.4034C11.7672 27.9637 11.7543 28.5317 11.8102 29.0951C11.9897 30.1978 12.1691 31.2999 12.3484 32.4014C12.3996 32.6551 12.3996 32.9166 12.3484 33.1703C12.018 32.2032 11.6463 31.2549 11.2334 30.3254C11.0054 29.6438 10.8129 28.9508 10.6568 28.2493C10.557 27.5606 10.6338 26.8942 10.8875 26.25C10.9025 26.8967 10.9797 27.5403 11.1181 28.1721C11.3159 27.0652 11.7517 26.0656 12.4256 25.1734C12.47 26.0355 12.6251 26.8883 12.8871 27.7108C13.3512 25.5934 14.5686 24.0812 16.5394 23.1743C16.2481 24.1042 16.0295 25.0554 15.8858 26.0193C15.4552 27.7044 14.5197 29.0244 13.0793 29.9792C12.992 30.0365 12.9151 30.0236 12.8486 29.9402V29.9408ZM12.9639 37.5532C12.8715 36.7595 13.0253 36.0162 13.4252 35.3233C13.6115 34.361 13.6632 33.3774 13.5786 32.4008C13.4276 31.9284 13.3501 31.4356 13.349 30.9397C14.171 30.6648 14.8246 30.1779 15.3098 29.4788C15.7772 29.8786 16.2385 30.3017 16.6938 30.7481C17.1859 31.1118 17.6995 31.4456 18.2316 31.7477C18.3922 32.05 18.5087 32.3737 18.5776 32.7089C18.6971 34.2536 18.5932 35.8075 18.2691 37.3226C17.9699 37.6987 17.7 38.0971 17.4617 38.5144C15.9318 38.3589 14.4235 38.0363 12.9639 37.5523V37.5532ZM32.6482 23.3276C32.0344 24.6412 30.9964 25.2051 29.5342 25.0192C29.1144 24.9752 28.7151 24.8155 28.3808 24.5579C28.0054 24.1663 27.7491 23.7049 27.6118 23.1738V22.9431C27.4717 22.4169 27.4326 21.869 27.4965 21.3284C27.6029 21.001 27.7951 20.7319 28.0731 20.521C27.6835 20.6023 27.3759 20.8202 27.1505 21.1746C27.012 20.6055 26.8582 20.0416 26.6891 19.483C26.947 18.7753 27.4596 18.3781 28.2269 18.2912C29.4788 18.191 30.7376 18.3614 31.9178 18.7906C32.0097 18.764 32.0097 18.7255 31.9178 18.6753C31.4582 18.3805 30.9684 18.1356 30.4568 17.9447C32.0095 17.4498 33.2909 17.8471 34.301 19.1366L34.2241 19.175C33.8075 18.9805 33.3684 18.8384 32.9168 18.7519C33.2356 18.9935 33.5316 19.2638 33.8011 19.5593C33.8403 19.7621 33.7506 19.8647 33.532 19.8668C33.318 20.0453 33.0617 20.135 32.7631 20.1359C32.364 20.1454 31.9795 20.1582 31.6097 20.1744C32.5338 21.0366 32.8799 22.0877 32.6482 23.3276ZM36.4544 20.2134C38.1052 20.6843 38.8997 21.7736 38.838 23.4814C38.5358 23.3635 38.2279 23.2609 37.9154 23.1738C36.2102 23.0005 34.8005 22.2828 33.6863 21.0208C33.5935 20.9424 33.4899 20.8777 33.3788 20.8286C34.3359 20.2817 35.3611 20.0767 36.4544 20.2134ZM35.9162 26.0957C35.9342 26.0497 35.9726 26.0242 36.0315 26.0188C36.5597 26.2375 37.1163 26.3799 37.6846 26.4419L40.3759 26.5188C38.836 26.8827 37.3494 26.7417 35.9162 26.0957ZM47.6044 14.2246C46.6995 15.1096 46.2531 16.3664 45.9528 17.5998C45.5595 19.2149 45.2653 20.8071 44.4333 22.27C43.6924 23.5726 42.5567 24.6514 41.2089 25.3091C43.124 23.2437 45.0699 20.9772 45.5433 18.2009C44.8699 19.8184 43.9395 21.3472 42.6797 22.5649C41.4199 23.7826 39.8158 24.6762 38.0825 24.9353C36.4683 25.177 34.6586 24.7831 33.6169 23.5265C35.4966 24.2711 37.6004 24.1129 39.6067 23.8637C39.6986 23.8524 39.7959 23.8385 39.8673 23.7791C39.9574 23.7046 39.9825 23.5794 40.0064 23.4648C40.2648 22.2318 41.0738 21.1242 42.1703 20.5031C42.5592 20.2828 42.9817 20.1207 43.3489 19.866C43.8464 19.521 44.2177 19.0224 44.5241 18.5C44.9856 17.7134 45.3185 16.857 45.7748 16.0674C46.231 15.2777 46.841 14.5341 47.672 14.1583C47.6495 14.1807 47.6268 14.2024 47.6044 14.2243V14.2246ZM49.8337 13.1011C49.0123 13.1422 48.1921 13.1935 47.3731 13.2549C46.9379 13.2863 46.5022 13.3119 46.0659 13.3318V12.9474C46.0396 12.4047 46.0396 11.8664 46.0659 11.3327C46.3867 11.5371 46.6174 11.8191 46.7579 12.1789C46.8092 12.1789 46.8348 12.1534 46.8348 12.102C46.6036 11.7824 46.5267 11.4364 46.6042 11.064C47.2086 10.956 47.6443 11.1738 47.9113 11.7176C47.9626 11.7176 47.9882 11.692 47.9882 11.6407C47.8728 11.3451 47.6883 11.0814 47.45 10.8717C47.7625 10.7454 48.0446 10.7838 48.2962 10.9871C48.9842 10.9588 49.3943 11.2792 49.5265 11.9482C49.6878 12.1929 49.8293 12.45 49.9496 12.7172C49.9984 12.8736 49.9598 13.0015 49.8337 13.1009V13.1011ZM50.7178 12.9474C50.557 12.7028 50.3771 12.4714 50.1796 12.2553C50.0972 12.061 50.0579 11.8512 50.0643 11.6402C49.9434 11.2077 49.7127 10.836 49.3722 10.5253C49.9812 10.3302 50.3913 10.5224 50.6025 11.102C50.8692 11.6904 50.9076 12.3055 50.7178 12.9471V12.9474ZM54.562 14.4083C54.5924 13.6427 54.6052 12.8738 54.6005 12.1015C54.5872 11.7914 54.5486 11.4828 54.4852 11.1789C54.2146 10.2332 53.9841 9.28482 53.7936 8.33384C54.6526 9.43545 55.0757 10.6913 55.0629 12.1015C55.03 12.8934 54.8607 13.6737 54.5625 14.4081L54.562 14.4083Z" fill="#F67A45"/>
<path d="M6.85104 33.7849C6.90544 33.13 6.95669 32.4764 7.0048 31.8241C6.56702 31.4122 6.10479 31.0271 5.62065 30.6708L4.27505 29.3252C2.09498 26.9363 1.05696 24.1169 1.161 20.8671C1.17422 20.7908 1.14859 20.7396 1.08412 20.7133C0.771417 21.5113 0.527032 22.3345 0.353596 23.1738C0.00197586 24.9849 0.258297 26.7021 1.12256 28.3255C2.54129 30.6542 4.45078 32.474 6.85104 33.7849Z" fill="#F67A45"/>
<path d="M49.2185 35.784C49.1469 35.9477 49.0566 36.1026 48.9494 36.2455C47.8859 37.4631 46.7149 38.5825 45.4508 39.5902C37.0225 45.8889 27.5392 48.6314 17.0007 47.8176C23.0791 50.4748 29.2561 50.7055 35.5317 48.5097C41.9368 46.231 46.5503 42.0019 49.3722 35.8225C49.351 35.8052 49.3262 35.7928 49.2996 35.7862C49.2731 35.7795 49.2453 35.7788 49.2185 35.784Z" fill="#F67A45"/>
<path d="M33.6863 44.4345C38.056 42.9427 42.0031 40.7386 45.5277 37.822C46.2721 37.1292 46.9659 36.384 47.6038 35.5921C47.5825 35.5748 47.5577 35.5624 47.5312 35.5557C47.5046 35.5491 47.4769 35.5484 47.45 35.5536C45.8112 36.785 44.0899 37.9025 42.2982 38.8984C33.8496 43.2381 24.9301 44.6477 15.5398 43.1274C10.5277 42.2218 6.11931 40.1586 2.31475 36.938C4.54318 41.3603 8.05459 44.2181 12.849 45.5115C19.8976 47.2036 26.8433 46.8446 33.6863 44.4345Z" fill="#F67A45"/>
</g>
<path d="M74.2395 21.96H70.2355V19.636C70.2355 19.1693 69.9835 18.936 69.4795 18.936H68.3315C67.8275 18.936 67.5755 19.1693 67.5755 19.636V30.556C67.5755 30.8173 67.6315 31.004 67.7435 31.116C67.8555 31.2093 68.0515 31.256 68.3315 31.256H69.4795C69.7595 31.256 69.9555 31.2093 70.0675 31.116C70.1795 31.004 70.2355 30.8173 70.2355 30.556V27.084H68.8355V24.424H74.2395V30.92C74.2395 32.9733 73.0635 34 70.7115 34H67.0995C64.7475 34 63.5715 32.9733 63.5715 30.92V19.272C63.5715 17.2187 64.7475 16.192 67.0995 16.192H70.7115C73.0635 16.192 74.2395 17.2187 74.2395 19.272V21.96ZM83.761 34H79.757V28.232L75.277 16.192H79.365L81.745 24.564L83.957 16.192H88.045L83.761 28.26V34ZM92.8606 34H89.3326V16.192H93.7006L96.6406 26.272L99.5806 16.192H103.949V34H100.421V22.044L98.1246 30.136H95.1566L92.8606 22.072V34ZM116.053 19.132H110.481V24.032H115.157V26.804H110.481V34H106.477V16.192H116.053V19.132ZM117.745 16.192H121.721V34H117.745V16.192ZM133.741 16.192V19.132H130.465V34H126.461V19.132H123.213V16.192H133.741ZM138.577 16.192H142.329C144.681 16.192 145.857 17.2187 145.857 19.272V30.892C145.857 32.964 144.681 34 142.329 34H138.577C136.207 34 135.021 32.964 135.021 30.892V19.272C135.021 17.2187 136.207 16.192 138.577 16.192ZM141.853 30.36V19.832C141.853 19.3653 141.611 19.132 141.125 19.132H139.781C139.277 19.132 139.025 19.3653 139.025 19.832V30.36C139.025 30.8267 139.277 31.06 139.781 31.06H141.125C141.611 31.06 141.853 30.8267 141.853 30.36Z" fill="white"/>
<defs>
<clipPath id="clip0_2176_44">
<rect width="57.4515" height="50" fill="white"/>
</clipPath>
</defs>
</svg>
