<svg width="58" height="58" viewBox="0 0 58 58" fill="none" xmlns="http://www.w3.org/2000/svg">
<path d="M11.2685 50.0296L23.2809 35.3417C23.5715 34.9862 23.5189 34.4629 23.1639 34.1723C22.8084 33.8818 22.285 33.9344 21.9945 34.2894L9.99188 48.9657C9.26044 49.8014 9.08868 50.9473 9.54498 51.9612C10.0034 52.981 10.9831 53.6142 12.1008 53.6142C12.8784 53.6142 13.6277 53.2869 14.1562 52.7161C14.1639 52.708 14.1712 52.6999 14.1785 52.6913L26.1995 38.6336C26.4977 38.285 26.4567 37.7604 26.1076 37.4621C25.7594 37.1639 25.2347 37.2049 24.9365 37.5536L12.9279 51.5976C12.713 51.8232 12.4127 51.9526 12.1008 51.9526C11.6389 51.9526 11.2497 51.701 11.0604 51.2797C10.8707 50.8584 10.9404 50.4004 11.2471 50.0548C11.2544 50.0467 11.2617 50.0381 11.2685 50.0296Z" fill="white" stroke="white"/>
<path d="M12.794 6.24756L20.414 12.4025C18.2957 12.8293 16.6957 14.704 16.6957 16.9462C16.6957 19.5016 18.7746 21.5806 21.3304 21.5806C23.8858 21.5806 25.9652 19.5016 25.9652 16.9462C25.9652 15.3727 25.1765 13.9807 23.9742 13.1425L13.8382 4.95514C13.4084 4.60822 13.3029 3.9917 13.5921 3.52173C13.7601 3.24872 14.0267 3.068 14.3428 3.01374C14.659 2.95905 14.9704 3.0398 15.2204 3.24103L24.6429 10.8268C27.5366 13.157 29.5147 16.4459 30.2163 20.0933L30.7337 28.7331C30.7435 28.8946 30.8003 29.0501 30.8969 29.18L46.3683 49.9403C46.3743 49.9484 46.3807 49.9565 46.3871 49.9647C46.7058 50.3611 46.7648 50.8717 46.5452 51.3306C46.3256 51.7894 45.8907 52.0633 45.3818 52.0633C45.0169 52.0633 44.6692 51.9086 44.4252 51.6386L35.1681 39.7539C34.8861 39.3916 34.3636 39.3271 34.0021 39.6091C33.6398 39.891 33.5753 40.4131 33.8568 40.775L43.1306 52.6807C43.1405 52.6935 43.1507 52.7054 43.161 52.7174C43.7215 53.3578 44.5307 53.7248 45.3818 53.7248C46.5285 53.7248 47.5484 53.0827 48.0435 52.0483C48.5366 51.0191 48.4016 49.8284 47.6924 48.9363L32.3777 28.3862L31.8719 19.9404C31.8697 19.9053 31.8655 19.8703 31.859 19.8357C31.0921 15.7798 28.8995 12.1209 25.6849 9.53265L16.2624 1.94647C15.6446 1.44916 14.8418 1.24152 14.0604 1.3761C13.279 1.51068 12.5924 1.97553 12.1771 2.651C11.4512 3.83063 11.7161 5.37683 12.794 6.24756ZM21.3304 19.919C19.6911 19.919 18.3572 18.5851 18.3572 16.9462C18.3572 15.3069 19.6911 13.973 21.3304 13.973C21.9363 13.973 22.5002 14.1555 22.9706 14.4682L23.4021 14.8164C23.9576 15.3569 24.3036 16.1118 24.3036 16.9462C24.3036 18.5856 22.9698 19.919 21.3304 19.919Z" fill="white" stroke="white"/>
<path d="M30.6514 39.997C31.1952 39.997 31.7438 39.8428 32.2258 39.5228C32.8824 39.0865 33.3204 38.4188 33.4579 37.642C33.5955 36.8657 33.4139 36.0877 32.9478 35.4541L26.0358 26.0038C25.7645 25.6334 25.245 25.5531 24.8746 25.824C24.5041 26.0948 24.4238 26.6148 24.6947 26.9852L31.608 36.4363C31.8032 36.7021 31.8793 37.0272 31.8216 37.3524C31.7639 37.6771 31.5811 37.9561 31.3063 38.1389C30.7855 38.4846 30.0793 38.3671 29.6982 37.871L22.6969 28.7686C22.0338 27.8581 21.6835 26.7814 21.6835 25.6548V23.4288C21.6835 22.97 21.3113 22.5983 20.8525 22.5983C20.3936 22.5983 20.0215 22.97 20.0215 23.4288V25.6548C20.0215 27.1399 20.485 28.5583 21.3609 29.7568C21.3652 29.7623 21.369 29.7679 21.3733 29.773L28.381 38.8832C28.939 39.6103 29.7896 39.997 30.6514 39.997Z" fill="white" stroke="white"/>
<path d="M56.9166 55.4458L48.8942 38.8947C48.7554 38.608 48.4649 38.426 48.1466 38.426H43.2794C42.8205 38.426 42.4488 38.7982 42.4488 39.257C42.4488 39.7159 42.8205 40.088 43.2794 40.088H47.6257L54.8428 54.9775H3.17636L10.6382 40.088H14.8137C15.2725 40.088 15.6442 39.7159 15.6442 39.257C15.6442 38.7982 15.2725 38.426 14.8137 38.426H10.1251C9.81063 38.426 9.5231 38.6038 9.38253 38.8849L1.08798 55.436C0.958951 55.6936 0.972623 55.9999 1.12387 56.2447C1.27511 56.49 1.54257 56.6391 1.83096 56.6391H56.169C56.4552 56.6391 56.7214 56.4921 56.8731 56.2494C57.0252 56.0072 57.0414 55.7034 56.9166 55.4458Z" fill="white" stroke="white"/>
<path d="M8.60004 37.4327C8.7077 37.4327 8.8175 37.4117 8.92303 37.3669C9.34601 37.1883 9.5434 36.7008 9.36481 36.2783C8.26764 33.684 7.71136 30.9283 7.71136 28.0871C7.71136 21.9454 10.3855 16.1251 15.0485 12.1188C15.3967 11.8197 15.436 11.295 15.1373 10.9473C14.8383 10.5991 14.3136 10.5593 13.9658 10.8584C8.935 15.1808 6.0498 21.4605 6.0498 28.0871C6.0498 31.1517 6.65009 34.1254 7.83441 36.9255C7.96857 37.2425 8.27618 37.4327 8.60004 37.4327Z" fill="white" stroke="white"/>
<path d="M26.8139 7.13153C27.4548 7.073 28.1081 7.04309 28.7558 7.04309C40.3598 7.04309 49.7998 16.4835 49.7998 28.0871C49.7998 30.7544 49.308 33.3533 48.3373 35.8117C48.1686 36.2385 48.3779 36.7209 48.8047 36.8896C48.9051 36.9289 49.0081 36.9477 49.1098 36.9477C49.4409 36.9477 49.7536 36.7486 49.8827 36.4218C50.9307 33.7686 51.4618 30.9642 51.4618 28.0871C51.4618 15.5671 41.2762 5.3811 28.7558 5.3811C28.0581 5.3811 27.3536 5.41357 26.6623 5.47638C26.2055 5.51825 25.8689 5.92285 25.9107 6.37958C25.9526 6.83673 26.3551 7.1734 26.8139 7.13153Z" fill="white" stroke="white"/>
</svg>
