<svg width="56" height="56" viewBox="0 0 56 56" fill="none" xmlns="http://www.w3.org/2000/svg">
<g clip-path="url(#clip0_2074_220)">
<path d="M53.706 12.2536H51.0791V10.0707C51.0791 8.34016 49.6712 6.93225 47.9408 6.93225H45.4372C43.7067 6.93225 42.2989 8.34016 42.2989 10.0707V19.0566H38.1035V16.6441C38.1035 14.8932 36.6791 13.4689 34.9283 13.4689C34.2404 13.4689 33.6036 13.6896 33.0833 14.0629C32.5718 12.9939 31.4796 12.2536 30.2174 12.2536C29.0243 12.2536 27.983 12.9151 27.4406 13.8906C26.9046 13.4773 26.2342 13.2302 25.5065 13.2302C24.4021 13.2302 23.4285 13.7976 22.8596 14.6556C22.304 14.179 21.5831 13.8903 20.7956 13.8903C19.0447 13.8903 17.6204 15.3146 17.6204 17.0655V19.0568H13.7015V16.7427C13.7015 16.2899 13.3344 15.9229 12.8817 15.9229C12.429 15.9229 12.0619 16.2899 12.0619 16.7427V35.7865C12.0619 36.613 11.3895 37.2853 10.5631 37.2853H8.05923C7.23269 37.2853 6.56038 36.613 6.56038 35.7865V10.0707C6.56038 9.24419 7.2328 8.57177 8.05923 8.57177H10.5628C11.3893 8.57177 12.0616 9.24419 12.0616 10.0707V13.249C12.0616 13.7018 12.4287 14.0688 12.8814 14.0688C13.3341 14.0688 13.7011 13.7018 13.7011 13.249V10.0707C13.7011 8.34016 12.2932 6.93225 10.5628 6.93225H8.05923C6.32866 6.93225 4.92086 8.34016 4.92086 10.0707V12.2536H2.29402C1.02907 12.2536 0 13.2827 0 14.5475V31.3095C0 32.5745 1.02907 33.6035 2.29402 33.6035H4.92086V35.7864C4.92086 37.5168 6.32877 38.9248 8.05923 38.9248H10.5628C12.2933 38.9248 13.7011 37.5168 13.7011 35.7864V26.8005H16.5104V28.2974C16.5104 29.0666 16.7795 29.8175 17.2683 30.4118L19.8141 33.507V48.2635C19.8141 48.7163 20.1812 49.0832 20.6339 49.0832C21.0866 49.0832 21.4537 48.7163 21.4537 48.2635V33.2132C21.4537 33.0232 21.3876 32.8392 21.267 32.6924L18.5344 29.3702C18.2864 29.0687 18.1498 28.6877 18.1498 28.2974V26.8005L33.6529 26.8953C34.1056 26.8953 34.4727 26.5283 34.4727 26.0755C34.4727 25.6227 34.1056 25.2557 33.6529 25.2557H29.923C29.1535 25.2557 28.5274 24.6297 28.5274 23.8603C28.5274 23.0908 29.1535 22.4647 29.923 22.4647H36.9715C37.4558 22.4647 37.8499 22.8587 37.8499 23.343V28.2973C37.8499 28.6876 37.7132 29.0687 37.4652 29.3701L34.7327 32.6923C34.612 32.8391 34.546 33.023 34.546 33.2131V35.3752C34.546 35.828 34.913 36.195 35.3658 36.195C35.8185 36.195 36.1855 35.828 36.1855 35.3752V33.5069L38.7314 30.4117C39.2201 29.8174 39.4893 29.0665 39.4893 28.2973V26.8004H42.2985V35.7863C42.2985 37.5167 43.7064 38.9246 45.4369 38.9246H47.9404C49.671 38.9246 51.0788 37.5167 51.0788 35.7863V33.6034H53.7057C54.9706 33.6034 55.9997 32.5743 55.9997 31.3094V14.5475C56 13.2827 54.9709 12.2536 53.706 12.2536ZM2.29402 31.964C1.9331 31.964 1.63952 31.6703 1.63952 31.3095V14.5475C1.63952 14.1866 1.9331 13.8931 2.29402 13.8931H4.92086V31.964H2.29402ZM34.9282 15.1084C35.7751 15.1084 36.4639 15.7974 36.4639 16.6441V19.6961C36.4639 20.129 36.2803 20.5362 35.966 20.8253H33.8903C33.5761 20.5362 33.3924 20.129 33.3924 19.6961V16.6441C33.3924 15.7974 34.0814 15.1084 34.9282 15.1084ZM28.6815 15.4288C28.6815 14.582 29.3705 13.8931 30.2172 13.8931C31.064 13.8931 31.7529 14.582 31.7529 15.4288V19.6961C31.7529 20.129 31.5693 20.5362 31.255 20.8253H29.9231C29.6968 20.8253 29.4765 20.851 29.2642 20.8982C28.8993 20.6101 28.6814 20.1716 28.6814 19.6961L28.6815 15.4288ZM23.9706 16.4053C23.9706 15.5585 24.6595 14.8696 25.5062 14.8696C26.353 14.8696 27.042 15.5585 27.042 16.4053V19.696C27.042 20.5429 26.3531 21.2318 25.5062 21.2318C24.6594 21.2318 23.9706 20.5429 23.9706 19.696V16.4053ZM19.2596 17.0654C19.2596 16.2186 19.9485 15.5297 20.7952 15.5297C21.642 15.5297 22.3309 16.2186 22.3309 17.0654V19.6961C22.3309 20.543 21.642 21.2319 20.7952 21.2319C19.9485 21.2319 19.2596 20.543 19.2596 19.6961V17.0654ZM13.7013 20.6961H17.7823C18.2024 21.9583 19.3939 22.8713 20.7953 22.8713C21.729 22.8713 22.5697 22.466 23.1512 21.8225C23.7327 22.4659 24.5728 22.8713 25.5063 22.8713C26.1826 22.8713 26.8086 22.6568 27.324 22.295C27.0476 22.7523 26.8882 23.288 26.8882 23.8603C26.8882 24.3255 26.9937 24.7665 27.1816 25.1609H13.7013V20.6961ZM39.4896 25.161V23.3431C39.4896 22.2571 38.7984 21.3295 37.8328 20.977C37.8732 20.8853 37.9092 20.7916 37.9409 20.6961H42.2989V25.161H39.4896ZM54.3605 31.3095C54.3605 31.6704 54.0669 31.964 53.706 31.964H51.0791V29.595C51.0791 29.1422 50.7121 28.7753 50.2594 28.7753C49.8067 28.7753 49.4396 29.1422 49.4396 29.595V35.7864C49.4396 36.6129 48.7672 37.2852 47.9408 37.2852H45.4372C44.6107 37.2852 43.9384 36.6129 43.9384 35.7864V10.0707C43.9384 9.24419 44.6108 8.57177 45.4372 8.57177H47.9408C48.7673 8.57177 49.4396 9.24419 49.4396 10.0707V26.1014C49.4396 26.5542 49.8067 26.9212 50.2594 26.9212C50.7121 26.9212 51.0791 26.5542 51.0791 26.1014V13.8931H53.706C54.0669 13.8931 54.3605 14.1867 54.3605 14.5475V31.3095Z" fill="white" stroke="white"/>
<path d="M35.3661 38.0491C34.9134 38.0491 34.5464 38.416 34.5464 38.8688V48.2634C34.5464 48.7162 34.9134 49.0832 35.3661 49.0832C35.8189 49.0832 36.1859 48.7162 36.1859 48.2634V38.8688C36.1859 38.416 35.819 38.0491 35.3661 38.0491Z" fill="white" stroke="white"/>
</g>
<defs>
<clipPath id="clip0_2074_220">
<rect width="56" height="56" fill="white" transform="translate(0 0.0078125)"/>
</clipPath>
</defs>
</svg>
