<svg width="54" height="54" viewBox="0 0 54 54" fill="none" xmlns="http://www.w3.org/2000/svg">
<path d="M51.2308 38.4036H50.5855V35.4439C50.5855 34.2703 49.6307 33.3155 48.4571 33.3155H46.3068V32.6691C46.3068 31.4955 45.3519 30.5406 44.1783 30.5406H41.4352C40.2616 30.5406 39.3068 31.4955 39.3068 32.6691V38.4462H14.6952V32.6691C14.6952 31.4955 13.7404 30.5406 12.5668 30.5406H9.82254C8.64894 30.5406 7.6941 31.4955 7.6941 32.6691V33.3155H5.54379C4.3702 33.3155 3.41535 34.2703 3.41535 35.4439V38.4036H2.77004C1.59645 38.4036 0.641602 39.3584 0.641602 40.532V43.3736C0.641602 44.5472 1.59645 45.502 2.77004 45.502H3.41535V48.4617C3.41535 49.6353 4.3702 50.5902 5.54379 50.5902H7.6941V51.2366C7.6941 52.4102 8.64894 53.365 9.82254 53.365H12.5657C13.7393 53.365 14.6941 52.4102 14.6941 51.2366V45.4594H39.3046V51.2366C39.3046 52.4102 40.2594 53.365 41.433 53.365H44.1761C45.3497 53.365 46.3046 52.4102 46.3046 51.2366V50.5902H48.4549C49.6285 50.5902 50.5833 49.6353 50.5833 48.4617V45.5031H51.2286C52.4022 45.5031 53.3571 44.5483 53.3571 43.3747V40.5331C53.3593 39.3584 52.4044 38.4036 51.2308 38.4036ZM2.76895 44.1906C2.31832 44.1906 1.95301 43.8242 1.95301 43.3747V40.5331C1.95301 40.0825 2.31941 39.7172 2.76895 39.7172H3.41426V44.1917H2.76895V44.1906ZM5.54379 49.2787C5.09316 49.2787 4.72785 48.9123 4.72785 48.4628V35.4428C4.72785 34.9922 5.09426 34.6269 5.54379 34.6269H7.6941V49.2787H5.54379ZM13.3827 51.2388C13.3827 51.6894 13.0163 52.0547 12.5668 52.0547H9.82254C9.37191 52.0547 9.0066 51.6883 9.0066 51.2388V32.668C9.0066 32.2173 9.37301 31.852 9.82254 31.852H12.5657C13.0163 31.852 13.3816 32.2184 13.3816 32.668V51.2388H13.3827ZM14.6952 44.148V39.7577H39.3046V44.148H14.6952ZM44.9932 51.2388C44.9932 51.6894 44.6268 52.0547 44.1772 52.0547H41.4341C40.9835 52.0547 40.6182 51.6883 40.6182 51.2388V32.668C40.6182 32.2173 40.9846 31.852 41.4341 31.852H44.1772C44.6278 31.852 44.9932 32.2184 44.9932 32.668V51.2388ZM49.2719 48.4628C49.2719 48.9134 48.9055 49.2787 48.456 49.2787H46.3057V34.6269H48.456C48.9066 34.6269 49.2719 34.9933 49.2719 35.4428V48.4628ZM52.0468 43.3736C52.0468 43.8242 51.6804 44.1895 51.2308 44.1895H50.5855V39.715H51.2308C51.6814 39.715 52.0468 40.0814 52.0468 40.5309V43.3736ZM7.78488 25.5159C10.4919 27.1336 13.3871 28.0064 16.3927 28.1092C16.5929 28.1158 16.793 28.1191 16.9921 28.1191C18.8733 28.1191 20.7382 27.8139 22.5669 27.2102C21.1691 28.7009 19.8249 29.8647 18.7497 30.6391L17.5586 31.4233C17.3475 31.5622 17.2349 31.8105 17.2699 32.0609L17.5947 34.4103C17.6286 34.6553 17.7971 34.8598 18.0311 34.9408C18.9816 35.2678 19.9605 35.492 20.9372 35.6047C21.4568 35.6648 21.9785 35.6944 22.5013 35.6944C26.3349 35.6944 30.1882 34.0887 33.4979 31.0777C36.7671 28.1048 39.0891 24.1269 39.9663 20.0428C40.7746 20.4256 41.6758 20.64 42.6285 20.64C46.0705 20.64 48.8705 17.84 48.8705 14.398C48.8705 10.9559 46.0705 8.15594 42.6285 8.15594C41.0349 8.15594 39.5791 8.7575 38.4744 9.74406C38.1386 9.08016 37.7646 8.45672 37.3533 7.87703H37.4036C38.9611 7.87703 40.2288 6.60938 40.2288 5.05187V3.47359C40.2288 1.91609 38.9611 0.648438 37.4036 0.648438H29.1491C27.5916 0.648438 26.3239 1.91609 26.3239 3.47359V5.05516C26.3239 6.27797 27.1049 7.32141 28.1932 7.71406C24.8988 13.7242 17.5357 18.248 8.72441 19.6108V19.6119C8.72004 19.613 8.71676 19.6119 8.71238 19.613L6.65832 19.9684C6.43519 20.0067 6.24816 20.1577 6.16285 20.3677L5.17738 22.7903C5.0866 23.0123 5.12488 23.2661 5.27582 23.4509C5.86973 24.1816 6.71301 24.8761 7.78488 25.5159ZM20.4068 34.2047C19.8807 34.1139 19.3557 33.987 18.8383 33.8262L18.6261 32.2928L19.6477 31.6202L20.5216 32.5291L20.4068 34.2047ZM20.6835 30.8053C23.1707 28.7633 25.6196 25.9611 27.5457 22.9248C30.3402 18.5225 31.9327 13.8117 32.1514 9.30109C32.1613 9.09109 32.2783 8.83078 32.403 8.55516C32.4971 8.34625 32.5977 8.12094 32.6688 7.88031H33.0899C35.3146 18.3705 30.8543 27.3512 21.3539 31.502L20.6835 30.8053ZM42.6285 9.47172C45.3464 9.47172 47.558 11.6833 47.558 14.4013C47.558 17.1192 45.3464 19.3308 42.6285 19.3308C39.9105 19.3308 37.6989 17.1192 37.6989 14.4013C37.6989 11.6833 39.9105 9.47172 42.6285 9.47172ZM37.5294 10.8083C36.8108 11.8255 36.3864 13.0647 36.3864 14.4013C36.3864 16.3897 37.3227 18.1637 38.7763 19.3067C37.3304 27.0658 29.9158 34.8817 21.7116 34.3567L21.8232 32.7292C26.9321 30.5133 30.7711 26.963 32.9379 22.4403C34.9854 18.167 35.4961 13.1489 34.4297 7.88031H35.6974C36.4094 8.73125 37.0241 9.71234 37.5294 10.8083ZM27.6375 5.05516V3.47359C27.6375 2.63906 28.3157 1.96094 29.1502 1.96094H37.4047C38.2393 1.96094 38.9174 2.63906 38.9174 3.47359V5.05516C38.9174 5.88969 38.2393 6.56781 37.4047 6.56781H37.2341C37.2341 6.56781 37.233 6.56781 37.2319 6.56781C36.4094 6.55688 35.74 5.87766 35.74 5.05516V3.88703C35.74 3.525 35.4458 3.23078 35.0838 3.23078C34.7218 3.23078 34.4275 3.525 34.4275 3.88703V5.05516C34.4275 5.60969 34.5916 6.12922 34.8716 6.56781H29.1502C28.3157 6.56781 27.6375 5.88969 27.6375 5.05516ZM29.591 7.88031H31.2677C31.248 7.92516 31.2283 7.97 31.2075 8.01594C31.0468 8.37359 30.8641 8.77828 30.8411 9.23766C30.5338 15.5661 27.5949 21.0556 24.4471 25.0292C19.3524 27.5142 13.9121 27.4016 9.0416 24.723L9.95488 23.2716C10.7314 23.5855 11.6196 23.7277 12.5799 23.7277C18.0454 23.7277 25.8416 19.1536 28.4983 15.8056C28.7236 15.5212 28.6755 15.1089 28.3922 14.8836C28.1089 14.6583 27.6955 14.7053 27.4702 14.9897C25.9882 16.8578 22.5779 19.217 19.1763 20.7286C15.3525 22.4283 12.1129 22.8691 10.2283 21.9569L9.74379 20.7702C14.1779 19.9816 18.3166 18.4066 21.7586 16.1895C25.2674 13.9309 27.9668 11.0642 29.591 7.88031ZM7.24238 21.2L8.41707 20.9966L8.97598 22.3648L7.91723 24.047C7.37035 23.6784 6.91098 23.2989 6.54676 22.9106L7.24238 21.2ZM39.4194 14.865C39.1635 14.6091 39.1635 14.1934 39.4194 13.9375C39.6754 13.6816 40.091 13.6816 40.3469 13.9375L41.7119 15.3025L44.9068 12.1077C45.1627 11.8517 45.5783 11.8517 45.8343 12.1077C46.0902 12.3636 46.0902 12.7792 45.8343 13.0352L42.1757 16.6938C42.0477 16.8217 41.8793 16.8863 41.7119 16.8863C41.5435 16.8863 41.3761 16.8217 41.2482 16.6938L39.4194 14.865Z" fill="white" stroke="white"/>
</svg>
