<svg width="56" height="56" viewBox="0 0 56 56" fill="none" xmlns="http://www.w3.org/2000/svg">
<g clip-path="url(#clip0_2074_117)">
<path d="M3.7637 40.7767H1.89317C1.302 40.7767 0.820312 41.2711 0.820312 41.875V46.0518C0.820312 46.6556 1.302 47.15 1.89317 47.15H3.7637" stroke="white" stroke-width="2" stroke-miterlimit="10" stroke-linecap="round" stroke-linejoin="round"/>
<path d="M52.2334 40.9958H54.1039C54.6951 40.9958 55.1799 41.4901 55.1799 42.094V46.2678C55.1799 46.8716 54.6951 47.3659 54.1039 47.3659H52.2334" stroke="white" stroke-width="2" stroke-miterlimit="10" stroke-linecap="round" stroke-linejoin="round"/>
<path d="M24.4575 15.1711V14.2388" stroke="white" stroke-width="2" stroke-miterlimit="10" stroke-linecap="round" stroke-linejoin="round"/>
<path d="M32.1929 15.1711V14.2388" stroke="white" stroke-width="2" stroke-miterlimit="10" stroke-linecap="round" stroke-linejoin="round"/>
<path d="M16.9258 31.7191V25.424M16.9258 39.8726V35.5392M39.0742 35.5392V39.8038M39.0742 25.4397V31.7191" stroke="white" stroke-width="2" stroke-miterlimit="10" stroke-linecap="round" stroke-linejoin="round"/>
<path d="M16.9257 39.8726L20.4665 40.4733C22.315 40.7893 22.2368 42.0032 22.2368 42.3818V45.0506C22.2368 48.3202 13.751 48.0104 13.751 45.0506V41.2555C13.751 40.8769 13.804 39.3439 16.9257 39.8726Z" stroke="white" stroke-width="2" stroke-miterlimit="10" stroke-linecap="round" stroke-linejoin="round"/>
<path d="M33.763 42.1003H22.2305" stroke="white" stroke-width="2" stroke-miterlimit="10" stroke-linecap="round" stroke-linejoin="round"/>
<path d="M22.0146 45.8954H34.0257" stroke="white" stroke-width="2" stroke-miterlimit="10" stroke-linecap="round" stroke-linejoin="round"/>
<path d="M10.1133 42.1003H13.751" stroke="white" stroke-width="2" stroke-miterlimit="10" stroke-linecap="round" stroke-linejoin="round"/>
<path d="M14.0106 45.8954H10.1133" stroke="white" stroke-width="2" stroke-miterlimit="10" stroke-linecap="round" stroke-linejoin="round"/>
<path d="M45.8836 42.1003H42.249" stroke="white" stroke-width="2" stroke-miterlimit="10" stroke-linecap="round" stroke-linejoin="round"/>
<path d="M41.936 45.8954H45.8835" stroke="white" stroke-width="2" stroke-miterlimit="10" stroke-linecap="round" stroke-linejoin="round"/>
<path d="M39.0744 39.8037L35.5305 40.4044C33.682 40.7173 33.7632 41.9344 33.7632 42.3129V44.9818C33.7632 48.2513 42.2492 47.9416 42.2492 44.9818V41.1867C42.2492 40.808 42.196 39.275 39.0744 39.8037Z" stroke="white" stroke-width="2" stroke-miterlimit="10" stroke-linecap="round" stroke-linejoin="round"/>
<path d="M23.069 23.259C22.4497 24.4197 21.1048 25.1112 19.5063 25.1831C20.2508 27.3451 23.8948 28.9877 28.277 28.9877C32.6591 28.9877 36.2812 27.367 37.0256 25.2019" stroke="white" stroke-width="2" stroke-miterlimit="10" stroke-linecap="round" stroke-linejoin="round"/>
<path d="M18.3613 9.79912C27.0131 7.46506 26.3123 14.3107 38.1795 9.79912C38.1795 1.91778 29.4497 -0.550704 23.5786 2.03044C20.6041 3.33823 18.3613 5.94453 18.3613 9.79912Z" stroke="white" stroke-width="2" stroke-miterlimit="10" stroke-linecap="round" stroke-linejoin="round"/>
<path d="M39.0742 47.2314V48.9177C39.0742 50.7325 38.3737 51.8118 36.5156 52.4032C32.1929 53.7735 23.1253 53.736 19.4812 52.4032C17.6514 51.7305 16.9258 50.7325 16.9258 48.9177V47.3002" stroke="white" stroke-width="2" stroke-miterlimit="10" stroke-linecap="round" stroke-linejoin="round"/>
<path d="M10.1133 34.5818C11.5082 28.9345 12.0682 25.5711 19.0903 25.1956C19.1435 25.1926 19.4812 25.1831 19.5376 25.18" stroke="white" stroke-width="2" stroke-miterlimit="10" stroke-linecap="round" stroke-linejoin="round"/>
<path d="M47.4383 33.0269H50.6819C51.5359 33.0269 52.2333 33.7278 52.2333 34.5819V53.4169C52.2333 54.271 51.5359 54.9687 50.6819 54.9687H47.4383C46.5843 54.9687 45.8838 54.271 45.8838 53.4169V34.5819C45.8838 33.7278 46.5843 33.0269 47.4383 33.0269Z" stroke="white" stroke-width="2" stroke-miterlimit="10" stroke-linecap="round" stroke-linejoin="round"/>
<path d="M45.8837 34.5818C44.4792 28.8906 43.9225 25.521 36.744 25.1894C35.1675 25.1831 33.807 24.5855 33.0938 23.5311" stroke="white" stroke-width="2" stroke-miterlimit="10" stroke-linecap="round" stroke-linejoin="round"/>
<path d="M39.5684 47.1438C40.3284 48.6362 41.8767 49.6561 43.6628 49.6561C44.4698 49.6561 45.2267 49.4496 45.8836 49.0835" stroke="white" stroke-width="2" stroke-miterlimit="10" stroke-linecap="round" stroke-linejoin="round"/>
<path d="M16.3972 47.2063C15.6277 48.6644 14.0951 49.6561 12.3341 49.6561C11.5272 49.6561 10.7702 49.4496 10.1133 49.0837" stroke="white" stroke-width="2" stroke-miterlimit="10" stroke-linecap="round" stroke-linejoin="round"/>
<path d="M8.56184 33.0269H5.31822C4.46433 33.0269 3.76367 33.7278 3.76367 34.5819V53.4169C3.76367 54.271 4.46433 54.9687 5.31822 54.9687H8.56184C9.41267 54.9687 10.1133 54.271 10.1133 53.4169V34.5819C10.1133 33.7278 9.41267 33.0269 8.56184 33.0269Z" stroke="white" stroke-width="2" stroke-miterlimit="10" stroke-linecap="round" stroke-linejoin="round"/>
<path d="M38.1797 11.4542H39.8687C40.4913 11.4542 41.0011 11.9642 41.0011 12.5868V13.7069C41.0011 15.1398 39.4184 16.5979 38.0015 16.5791" stroke="white" stroke-width="2" stroke-miterlimit="10" stroke-linecap="round" stroke-linejoin="round"/>
<path d="M18.3614 11.4542H16.6723C16.0498 11.4542 15.54 11.9642 15.54 12.5868V13.7069C15.54 15.1398 17.1227 16.5979 18.5366 16.5791" stroke="white" stroke-width="2" stroke-miterlimit="10" stroke-linecap="round" stroke-linejoin="round"/>
<path d="M18.3613 9.79913V15.1868C18.3613 18.7661 21.7113 23.259 25.7994 24.7764C27.6011 25.446 28.9523 25.4428 30.7508 24.7732C34.8358 23.2496 38.1795 18.7598 38.1795 15.1868V9.79913" stroke="white" stroke-width="2" stroke-miterlimit="10" stroke-linecap="round" stroke-linejoin="round"/>
</g>
<defs>
<clipPath id="clip0_2074_117">
<rect width="56" height="56" fill="white" transform="translate(0 0.0078125)"/>
</clipPath>
</defs>
</svg>
